<svg xmlns="http://www.w3.org/2000/svg" width="1600" height="1300" viewBox="0 0 1600 1300" version="1.1"><path d="M 301 269.767 C 301 479.150, 301.194 493.118, 304.575 526.500 C 320.633 685.094, 392.169 843.609, 513.520 989.500 C 582.423 1072.338, 669.744 1152.974, 759 1216.187 C 775.275 1227.714, 794.033 1240, 795.355 1240 C 797.517 1240, 833.288 1216.978, 856.500 1200.649 C 936.513 1144.358, 1018.404 1070.067, 1081.530 996.500 C 1202.373 855.671, 1274.582 701.147, 1293.451 543 C 1298.460 501.010, 1298.303 508.943, 1298.712 277.250 L 1299.096 60 800.048 60 L 301 60 301 269.767 M 666.777 225.552 C 657.152 230.563, 651.959 231.203, 615.500 231.874 C 584.222 232.450, 581.181 232.660, 577.509 234.500 C 569.925 238.300, 566.716 249.336, 567.186 270 C 567.318 275.775, 566.896 297.375, 566.249 318 C 565.108 354.355, 565.948 443.127, 567.593 460.124 C 568.037 464.715, 567.689 469.565, 566.460 475.926 C 564.709 484.989, 564.712 485.137, 566.713 487.802 C 569.082 490.956, 569.589 490.984, 590.500 489.127 C 598.334 488.432, 616.392 487.968, 631.500 488.075 C 654.500 488.237, 659.537 488.002, 665.500 486.490 C 672.612 484.686, 675.268 483.121, 677.339 479.511 C 678.174 478.057, 678.578 457.705, 678.798 406 C 678.966 366.675, 679.184 327.975, 679.284 320 C 679.384 312.025, 679.414 291.775, 679.352 275 C 679.289 258.225, 679.227 240.250, 679.214 235.056 C 679.193 227.161, 678.896 225.397, 677.404 224.306 C 674.846 222.435, 672.158 222.751, 666.777 225.552 M 912.302 225.660 C 910.637 228.199, 910.439 233.180, 909.701 290.954 C 909.160 333.375, 909.287 368.973, 910.095 401.588 C 911.037 439.575, 911.028 451.736, 910.053 459.487 C 908.011 475.712, 909.663 480.206, 918.864 483.452 C 924.526 485.450, 948.143 487.303, 955.068 486.292 C 959.592 485.632, 979.985 485.981, 1011.500 487.257 L 1017.500 487.500 1018.177 464 C 1018.977 436.189, 1020.556 294.759, 1020.370 267.500 C 1020.218 245.083, 1018.405 235.137, 1013.853 231.739 C 1010.085 228.927, 1000.109 228.110, 983 229.214 C 975.025 229.729, 962.425 229.975, 955 229.761 C 943.770 229.438, 940.239 228.939, 934 226.797 C 929.875 225.380, 923.711 223.927, 920.302 223.567 C 914.328 222.936, 914.038 223.012, 912.302 225.660 M 1136.555 225.157 C 1125.121 229.671, 1119.149 230.290, 1081 230.908 C 1040.999 231.557, 1041.086 231.543, 1035.776 237.855 C 1033.365 240.719, 1033.295 241.297, 1032.472 265.141 C 1032.009 278.538, 1031.548 327.750, 1031.446 374.500 C 1031.331 427.661, 1030.844 463.995, 1030.147 471.500 C 1028.503 489.187, 1028.551 489.838, 1031.589 491.223 C 1033.775 492.218, 1035.373 491.980, 1041.839 489.696 L 1049.500 486.989 1089.500 487.244 C 1132.392 487.518, 1137.473 487.071, 1142.296 482.602 L 1144.695 480.378 1145.459 442.439 C 1145.879 421.573, 1146.342 364.315, 1146.489 315.199 C 1146.718 238.303, 1146.554 225.697, 1145.306 224.449 C 1143.513 222.655, 1142.731 222.719, 1136.555 225.157 M 449.338 226.999 C 448.149 227.478, 446.957 228.687, 446.690 229.685 C 445.530 234.016, 445.286 347.395, 446.259 429.490 L 446.864 480.480 449.682 482.756 C 455.137 487.162, 460.022 487.830, 487.151 487.880 C 514.503 487.931, 531.618 489.045, 544.925 491.641 L 553.351 493.285 555.242 490.950 C 556.456 489.450, 556.897 487.879, 556.474 486.557 C 554.969 481.852, 554.349 429.369, 555.363 392.500 C 555.953 371.050, 556.374 329.856, 556.297 300.957 L 556.158 248.415 553.617 242.670 C 551.304 237.440, 550.558 236.683, 545.288 234.235 C 538.887 231.261, 542.061 231.388, 503 232.538 C 481.059 233.184, 476.262 232.686, 463.122 228.404 C 455.291 225.852, 452.809 225.599, 449.338 226.999 M 868.045 229.752 C 863.408 232.099, 862.147 237.200, 861.430 256.500 C 860.760 274.575, 860.676 275.043, 857.427 278.904 C 854.375 282.532, 850.934 283.561, 837.227 284.945 C 826.636 286.015, 819.815 288.433, 818.623 291.539 C 817.185 295.288, 818.036 299.190, 820.923 302.077 C 822.531 303.685, 824.668 305.026, 825.673 305.058 C 826.678 305.089, 832.468 305.474, 838.540 305.911 C 851.211 306.825, 855.969 308.595, 859.021 313.533 C 861.022 316.771, 861.072 318.146, 861.057 368.632 C 861.041 419.332, 860.173 438.565, 857.657 444 C 855.972 447.640, 848.683 450.830, 840.500 451.509 C 827.245 452.608, 825.231 453.057, 822.595 455.499 C 819.729 458.155, 819.045 464.183, 821.282 467.075 C 824.477 471.207, 827.970 472.307, 840.112 473.006 C 851.996 473.691, 852.119 473.723, 855.631 477.098 C 861.954 483.175, 862.311 484.570, 862.934 505.647 C 863.445 522.925, 863.695 525.008, 865.498 526.999 C 870.309 532.312, 868.491 532.174, 935.880 532.340 C 1002.080 532.503, 1002.071 532.503, 1003.522 527.929 C 1004.493 524.871, 1001.603 522.306, 995.651 520.946 C 992.300 520.180, 972.057 519.517, 937.735 519.047 L 884.971 518.326 881.235 515.322 C 873.961 509.472, 874.500 520.386, 874.500 379 L 874.500 251.500 878.250 241.862 C 880.313 236.561, 882 231.925, 882 231.561 C 882 230.658, 875.489 228, 873.282 228.002 C 872.302 228.002, 869.945 228.790, 868.045 229.752 M 715.465 229.914 C 711.521 231.586, 711.053 233.093, 712.647 239.003 C 713.623 242.621, 714.459 253.560, 715.091 271 C 716.255 303.079, 715.408 496.776, 714.064 506 C 713.218 511.803, 712.682 512.889, 709.065 516.129 C 706.811 518.149, 703.110 520.238, 700.722 520.840 C 698.228 521.468, 685.339 521.953, 669.965 521.997 C 600.492 522.197, 591 523.033, 591 528.950 C 591 531.344, 591.562 532.018, 594.250 532.844 C 597.322 533.788, 605.602 534.352, 614.500 534.222 C 706.939 532.877, 717.744 532.442, 721.923 529.901 C 723.643 528.855, 725.430 526.987, 725.895 525.750 C 726.360 524.512, 727.309 513.632, 728.005 501.571 C 728.700 489.510, 729.570 478.515, 729.938 477.139 C 730.306 475.762, 731.851 473.705, 733.372 472.568 C 735.777 470.768, 738.007 470.435, 750.551 470 L 764.966 469.500 768.158 466.306 C 771.213 463.248, 771.300 462.945, 770.184 459.219 C 768.141 452.402, 766.497 451.647, 752.150 450.935 C 729.694 449.821, 729.167 448.832, 729.044 407.612 C 728.965 380.895, 730.579 320.940, 731.584 313.299 C 732.695 304.840, 734.702 303.637, 748.818 302.974 C 761.642 302.371, 764.126 301.524, 765.945 297.133 C 769.497 288.558, 762.576 284.149, 745.399 284.044 C 737.072 283.992, 732.392 282.600, 730.847 279.714 C 730.219 278.541, 729.426 268.916, 729.023 257.570 C 728.320 237.828, 727.637 233.603, 724.759 231.215 C 722.758 229.554, 717.913 228.876, 715.465 229.914 M 689.653 231.753 C 689.397 232.166, 689.076 286.954, 688.939 353.503 C 688.703 468.420, 688.782 474.726, 690.506 479 C 693.039 485.276, 697.005 490.910, 700.239 492.827 C 706.297 496.417, 705.949 503.581, 706.238 369.477 L 706.500 247.500 703.692 241.503 C 699.969 233.551, 697.466 231, 693.385 231 C 691.588 231, 689.909 231.339, 689.653 231.753 M 1181.637 232.506 C 1178.910 235.233, 1178.872 237.792, 1181.447 245.254 L 1183.992 252.626 1184.043 336.063 C 1184.097 423.392, 1182.625 503.707, 1180.846 510.476 C 1180.255 512.724, 1178.348 515.822, 1176.457 517.605 L 1173.112 520.760 1144.306 521.471 C 1128.463 521.863, 1108.075 521.805, 1099 521.342 C 1072.091 519.969, 1061.171 520.281, 1056.500 522.556 C 1052.206 524.647, 1050.637 528.624, 1053.251 530.793 C 1054.213 531.591, 1073.722 532, 1120.783 532.208 L 1186.964 532.500 1190.387 529 C 1193.784 525.528, 1193.827 525.366, 1195.912 508.500 C 1197.068 499.150, 1198.010 488.417, 1198.007 484.650 C 1198 478.189, 1198.193 477.607, 1201.400 474.400 L 1204.800 471 1218.150 470.998 C 1228.862 470.997, 1232.189 470.651, 1234.986 469.248 C 1238.934 467.268, 1240.964 463.938, 1240.985 459.405 C 1241.015 453.250, 1235.810 450.994, 1219.397 450.045 C 1201.272 448.997, 1200.050 447.638, 1198.030 426.295 C 1197.499 420.674, 1197.490 412.154, 1198.010 405.617 C 1198.497 399.503, 1199.003 376.725, 1199.135 355 C 1199.325 323.853, 1199.667 314.902, 1200.754 312.671 C 1202.809 308.454, 1207.441 307, 1218.819 307 C 1234.356 307, 1239 304.715, 1239 297.068 C 1239 292.254, 1237.254 288.742, 1233.994 286.997 C 1232.947 286.436, 1227.136 285.580, 1221.081 285.093 C 1212.551 284.407, 1209.271 283.713, 1206.512 282.007 C 1200.170 278.088, 1199.503 275.670, 1199.477 256.500 C 1199.451 236.652, 1198.613 233.820, 1192.248 232.052 C 1186.994 230.593, 1183.396 230.747, 1181.637 232.506 M 1158.441 233.420 C 1156.590 234.774, 1156.521 235.964, 1156.945 259.170 C 1157.190 272.551, 1157.341 286.875, 1157.280 291 C 1157.219 295.125, 1156.853 338.459, 1156.466 387.297 C 1155.675 487.334, 1155.224 480.668, 1163.370 489.415 C 1167.581 493.937, 1170.072 494.873, 1172.988 493.028 C 1174.280 492.212, 1174.490 483.328, 1174.575 425.794 C 1174.629 389.332, 1174.999 342.625, 1175.397 322 C 1175.796 301.375, 1175.736 276.400, 1175.265 266.500 C 1174.469 249.786, 1174.203 248.050, 1171.543 242.196 C 1167.409 233.098, 1162.957 230.116, 1158.441 233.420 M 403.921 235.250 C 400.026 239.314, 398.820 243.960, 398.024 257.965 C 396.659 281.969, 394.320 284.887, 375.819 285.665 C 359.909 286.334, 353.756 289.819, 353.586 298.260 C 353.503 302.375, 353.648 302.574, 358.500 305 C 363.098 307.299, 364.594 307.500, 377.096 307.500 C 393.969 307.500, 394.483 307.809, 397.638 319.821 C 398.595 323.465, 398.884 327.113, 398.446 330 C 398.070 332.475, 397.594 357.675, 397.388 386 C 397.183 414.325, 396.673 440.200, 396.257 443.500 C 395.556 449.059, 395.243 449.628, 392 451.248 C 389.372 452.561, 386.008 452.999, 378.500 453.004 C 366.296 453.013, 361.904 454.137, 358.564 458.106 C 355.207 462.095, 355.326 465.163, 358.999 469.346 C 362.649 473.504, 367.849 474.998, 378.693 475.006 C 386.887 475.011, 392.378 476.094, 395.390 478.296 C 396.991 479.467, 397.269 482.145, 397.928 502.728 C 398.729 527.739, 399.013 528.996, 404.719 532.736 C 407.197 534.361, 412.431 534.540, 470.955 535 C 505.905 535.275, 535.747 535.115, 537.271 534.645 C 540.641 533.605, 542.257 530.874, 541.437 527.606 C 540.324 523.170, 537.089 522.716, 508.726 523.008 C 494.302 523.156, 479.575 523.302, 476 523.331 C 455.484 523.501, 424.318 521.760, 419.552 520.177 C 411.650 517.554, 411.397 516.598, 409.710 483 C 408.559 460.080, 408.411 434.433, 408.955 352 C 409.631 249.661, 409.636 249.492, 411.816 244.213 C 414.506 237.701, 414.563 235.372, 412.066 234.035 C 409.015 232.402, 406.257 232.814, 403.921 235.250 M 426.221 237.272 C 424.476 239.072, 422.122 243.235, 420.988 246.522 C 418.957 252.414, 418.924 254.228, 418.696 372.500 C 418.568 438.500, 418.697 494.525, 418.982 497 C 419.398 500.615, 419.915 501.559, 421.612 501.801 C 424.375 502.196, 429.567 497.768, 432.050 492.902 C 434.187 488.714, 436.537 474.679, 435.408 472.852 C 434.473 471.338, 434.555 279.457, 435.497 265.774 C 435.993 258.580, 435.837 252.936, 435.025 248.632 C 434.109 243.779, 434.094 241.693, 434.963 240.070 C 438.269 233.892, 431.573 231.750, 426.221 237.272 M 890.475 237.750 C 882.655 246.002, 882.905 241.377, 883.053 374.888 C 883.124 440.022, 883.415 493.918, 883.699 494.657 C 884.240 496.068, 887.703 496.435, 890.467 495.374 C 891.364 495.030, 893.367 492.217, 894.918 489.124 L 897.738 483.500 898.449 429 C 899.595 341.191, 899.363 250.077, 897.977 243.320 C 896.140 234.362, 894.699 233.293, 890.475 237.750 M 932.326 300.323 C 928.739 303.133, 929.370 306.243, 934.356 310.328 C 941.168 315.910, 941.251 316.613, 940.643 363.093 C 940.352 385.317, 940.089 403.585, 940.057 403.689 C 940.026 403.793, 938.200 405.958, 936 408.500 C 931.805 413.346, 931.174 415.573, 933.250 418.200 C 934.239 419.452, 937.303 419.886, 947.941 420.282 C 962.494 420.824, 965.672 420.156, 966.626 416.352 C 967.060 414.627, 966.020 412.471, 962.492 407.777 L 957.779 401.508 958.241 389.004 C 958.496 382.127, 959.053 375.689, 959.479 374.697 C 961.126 370.868, 964.179 373.329, 970.402 383.500 C 985.439 408.076, 991.466 416.187, 996.684 418.875 C 1001.576 421.395, 1010 418.484, 1010 414.274 C 1010 413.405, 1007.838 410.400, 1005.194 407.597 C 1002.551 404.793, 997.994 398.225, 995.068 393 C 992.141 387.775, 988.229 381.415, 986.373 378.866 C 983.915 375.489, 983 373.177, 983 370.344 C 983 366.735, 983.528 366.015, 990.360 360.313 C 994.408 356.935, 999.635 351.320, 1001.975 347.836 L 1006.229 341.500 1005.730 331.406 C 1005.136 319.384, 1003.168 314.165, 997.205 308.793 C 987.135 299.723, 979.728 297.890, 954.507 298.232 C 937.069 298.467, 934.370 298.722, 932.326 300.323 M 1077 299.018 C 1070.675 299.357, 1064.713 299.989, 1063.750 300.424 C 1060.735 301.785, 1061.074 307.562, 1064.513 313.436 C 1066.857 317.442, 1066.901 318.011, 1067.566 353 C 1068.397 396.815, 1067.827 402.549, 1062.043 408.485 C 1056.940 413.724, 1055.992 417.299, 1059.162 419.353 C 1060.985 420.535, 1064.850 420.873, 1076.724 420.890 C 1091.244 420.912, 1092.018 420.812, 1093.474 418.734 C 1095.633 415.652, 1095.482 415.030, 1090.931 408.253 L 1086.862 402.193 1087.181 360.161 L 1087.500 318.129 1090.097 315.315 C 1094.424 310.625, 1096 307.710, 1096 304.400 C 1096 298.815, 1093.588 298.132, 1077 299.018 M 463.167 300.862 C 452.948 301.904, 450.940 307.018, 458.326 313.192 C 460.987 315.417, 464.140 319.635, 466.521 324.154 C 470.473 331.656, 480.619 359.136, 486.401 378 C 488.171 383.775, 490.126 389.428, 490.744 390.562 C 491.363 391.696, 492.569 395.643, 493.425 399.333 C 496.190 411.254, 501.887 419, 507.890 419 C 514.390 419, 516.404 414.146, 528.009 370.500 C 537.578 334.513, 542.946 316.973, 545.576 313.102 C 548.812 308.341, 548.632 306.356, 544.750 303.989 C 542.354 302.528, 539.714 302.006, 534.705 302.004 C 528.820 302.001, 527.580 302.329, 525.455 304.455 C 522.403 307.506, 522.407 308.314, 525.504 314.419 C 529.023 321.355, 528.810 328.021, 524.602 342.670 C 522.733 349.177, 520.244 358.943, 519.072 364.372 C 517.899 369.802, 516.545 374.982, 516.062 375.884 C 514.606 378.604, 511.196 381.239, 510.049 380.530 C 508.433 379.531, 505.480 373.301, 503.162 366 C 502.027 362.425, 499.876 356.575, 498.383 353 C 496.889 349.425, 493.985 340.727, 491.929 333.671 L 488.190 320.841 491.143 315.228 C 494.633 308.594, 494.517 305.455, 490.679 302.599 C 488.337 300.857, 486.299 300.476, 478.679 300.358 C 473.631 300.281, 466.650 300.507, 463.167 300.862 M 605 301.010 C 588.378 302.131, 584.108 302.929, 582.928 305.134 C 581.495 307.812, 582.484 310.282, 587.145 315.668 L 591.138 320.281 590.819 360.891 L 590.500 401.500 587.250 407.391 C 580.747 419.178, 581.201 419.431, 612.660 421.556 C 626.497 422.491, 639.445 422.952, 641.431 422.579 C 651.969 420.602, 658.440 405.426, 652.567 396.462 C 649.814 392.260, 646.640 393.206, 643.218 399.250 C 641.582 402.137, 639.261 405.383, 638.059 406.462 C 635.385 408.863, 621.418 411.109, 616.316 409.959 C 610.103 408.557, 609.452 407.245, 608.024 393.236 C 606.474 378.033, 606.904 369.912, 609.547 364.500 C 612.182 359.103, 615.945 358.677, 623.387 362.935 C 629.883 366.652, 632.910 366.789, 635.993 363.508 C 641.117 358.053, 638.871 343.119, 633.026 343.776 C 631.675 343.928, 628.300 345.616, 625.526 347.526 C 619.324 351.798, 615.320 352.047, 611.661 348.388 C 608.273 345, 607.590 340.955, 608.415 329.151 C 609.197 317.957, 610.601 315.235, 616.712 313.075 C 621.834 311.265, 624.577 312.300, 632.583 319.070 C 635.790 321.781, 639.195 324, 640.150 324 C 642.417 324, 645 320.247, 645 316.955 C 645 314.059, 639.583 303.194, 637.169 301.250 C 635.469 299.880, 623.115 299.788, 605 301.010 M 966.139 308.989 C 960.178 310.415, 959.658 311.649, 958.877 326.242 C 958.487 333.534, 957.854 341.366, 957.472 343.647 C 954.873 359.158, 971.362 363.304, 983.262 350.132 C 986.930 346.071, 990 338.175, 990 332.799 C 990 329.392, 985.989 319.198, 982.994 314.991 C 979.371 309.904, 972.518 307.463, 966.139 308.989 M 677.555 493.157 C 666.639 497.467, 655.619 498.575, 608 500.153 C 605.525 500.235, 599.422 499.948, 594.438 499.515 C 586.763 498.848, 584.811 498.996, 581.678 500.483 C 575.536 503.397, 575.626 510.204, 581.849 513.422 C 584.407 514.745, 588.743 514.818, 615.642 513.991 C 632.614 513.469, 657.537 513.033, 671.027 513.021 C 702.570 512.994, 703.535 512.529, 696.311 500.824 C 690.034 490.656, 687.015 489.422, 677.555 493.157 M 900.638 496.250 C 896.407 500.197, 895.586 501.903, 895.885 506.129 C 896.149 509.866, 900.392 510.210, 943.200 509.959 C 978.293 509.754, 985.678 509.965, 992.338 511.359 C 1001.275 513.230, 1006.736 513.431, 1010.435 512.025 C 1012.573 511.212, 1013 510.411, 1013 507.213 C 1013 498.152, 1007.267 496.867, 967.700 497.065 C 941.770 497.195, 938.185 496.997, 923.161 494.603 C 914.175 493.171, 906.456 492, 906.008 492 C 905.560 492, 903.143 493.913, 900.638 496.250 M 438.893 495.396 C 432.406 499.859, 429.710 509.625, 434.250 512.211 C 436.003 513.210, 446.210 513.442, 480.500 513.261 C 507.903 513.116, 528.614 513.456, 535.406 514.161 C 545.580 515.218, 546.402 515.170, 547.656 513.456 C 549.581 510.823, 549.313 506.594, 547.095 504.586 C 542.686 500.596, 537.112 500, 504.091 499.992 C 469.213 499.984, 457.529 499.100, 452.413 496.081 C 446.776 492.755, 443.009 492.564, 438.893 495.396 M 1139 495.039 C 1126.009 498.368, 1112.536 499.172, 1081.500 498.472 C 1054.827 497.870, 1052.018 497.968, 1046.500 499.696 C 1039.740 501.812, 1038.736 503.654, 1041.465 508.932 L 1043.051 512 1104.507 512 L 1165.962 512 1166.597 509.471 C 1167.061 507.622, 1166.470 505.843, 1164.402 502.859 C 1157.950 493.548, 1151.985 491.712, 1139 495.039 M 1020.395 515.542 C 1013.635 522.711, 1013.509 533.297, 1020.102 540.228 L 1023.949 544.272 1030.960 543.771 C 1034.816 543.495, 1038.628 542.724, 1039.431 542.057 C 1041.835 540.062, 1043.383 531.133, 1042.129 526.495 C 1040.095 518.970, 1032.291 512, 1025.900 512 C 1024.710 512, 1022.233 513.594, 1020.395 515.542 M 559.495 519.242 L 555 523.737 555 533.414 C 555 542.270, 555.202 543.293, 557.378 545.469 C 561.164 549.255, 567.306 550.678, 572.345 548.937 C 575.659 547.791, 576.956 546.597, 578.750 543.038 C 581.649 537.289, 581.799 528.823, 579.081 524.366 C 576.590 520.279, 571.150 516.180, 567.161 515.382 C 564.356 514.821, 563.468 515.268, 559.495 519.242 M 946.994 669.934 C 945.615 670.354, 943.045 671.443, 941.281 672.354 C 929.206 678.599, 900.725 680.407, 860 677.516 C 839.532 676.063, 834.101 675.979, 827 677.005 C 814.511 678.809, 811.635 679.695, 808.935 682.569 L 806.500 685.161 806.555 711.830 L 806.609 738.500 812.769 756.796 C 816.157 766.858, 819.424 777.823, 820.029 781.161 C 820.634 784.499, 822.651 791.566, 824.510 796.865 C 826.369 802.164, 829.476 811, 831.415 816.500 C 833.354 822, 835.453 830.100, 836.078 834.500 L 837.215 842.500 844.975 850 C 853.921 858.646, 854.871 860.395, 851.718 862.421 C 848.710 864.353, 845.287 864.572, 833.225 863.605 C 819.968 862.541, 818.689 861.617, 820.272 854.235 C 822.437 844.141, 816.999 825.791, 811.429 824.393 C 804.422 822.634, 803.535 827.995, 804.998 863.232 C 805.621 878.229, 806.131 895.900, 806.133 902.500 C 806.134 909.100, 806.158 916.525, 806.187 919 C 806.216 921.475, 805.900 927.388, 805.485 932.141 L 804.732 940.782 807.862 941.470 C 811.186 942.200, 816.019 940.977, 822.308 937.815 C 825.915 936.001, 828.830 935.903, 877.808 935.945 C 934.421 935.993, 937.550 935.739, 949.550 930.123 C 954.682 927.722, 955.964 926.621, 956.847 923.855 C 957.595 921.513, 957.744 891.954, 957.342 826 C 956.542 694.871, 956.559 690.624, 957.921 680.535 C 959.032 672.310, 958.987 671.463, 957.375 670.285 C 955.460 668.885, 950.945 668.732, 946.994 669.934 M 645.292 672.682 C 644.937 673.607, 644.680 676.644, 644.721 679.432 C 644.761 682.219, 645.065 738.695, 645.395 804.933 L 645.996 925.367 648.248 927.819 C 651.211 931.046, 657.062 933.587, 664.673 934.952 C 668.442 935.629, 690.439 936.202, 721.173 936.425 C 748.853 936.626, 775.600 937.126, 780.610 937.535 C 795.107 938.720, 793.834 944.211, 793.525 881.858 C 793.382 853.061, 792.932 828.263, 792.524 826.750 C 789.750 816.456, 779.401 835.367, 778.255 852.824 C 777.942 857.591, 777.157 861.700, 776.419 862.439 C 774.695 864.162, 762.479 865.220, 757.609 864.068 C 749.316 862.105, 749.197 858.433, 757.250 852.997 C 763.819 848.563, 764.139 847.729, 773.519 810.500 C 777.537 794.550, 782.642 775.813, 784.862 768.862 C 790.014 752.732, 791.735 739.949, 792.426 712.692 C 793.038 688.552, 792.678 686.431, 787.191 681.814 C 781.072 676.666, 756.628 675.349, 715.655 677.960 C 686.873 679.794, 675.317 679.050, 662.500 674.538 C 651.364 670.618, 646.294 670.071, 645.292 672.682 M 992.223 676.557 C 989.125 678.726, 989.413 682.410, 993.132 688.206 L 996.265 693.088 996.593 806.294 C 996.934 923.877, 996.253 957.158, 993.419 961.483 C 991.284 964.741, 985.723 967.152, 978.028 968.155 C 974.438 968.623, 940 969.421, 901.500 969.927 C 852.289 970.573, 830.529 971.198, 828.229 972.029 C 823.518 973.730, 822.424 976.327, 824.741 980.301 L 826.606 983.500 838.553 984.290 C 854.713 985.359, 996.414 983.379, 1001.134 982.018 C 1008.823 979.801, 1009.615 978.405, 1010.330 965.800 C 1011.251 949.561, 1014.614 929.092, 1016.756 926.684 C 1019.883 923.169, 1024.437 922, 1035 922 C 1050.347 922, 1055.462 918.862, 1054.811 909.845 C 1054.529 905.931, 1054.108 905.311, 1050.315 903.224 C 1046.986 901.393, 1043.715 900.752, 1034.315 900.091 C 1021.586 899.195, 1016.040 897.518, 1013.628 893.834 C 1010.582 889.182, 1009.829 875.028, 1010.950 843.494 C 1011.533 827.094, 1011.717 804.861, 1011.358 794.088 C 1011 783.314, 1011.044 771.363, 1011.457 767.529 C 1012.127 761.293, 1012.595 760.170, 1015.893 756.872 C 1019.817 752.948, 1018.983 753.168, 1037.335 751.207 C 1047.523 750.118, 1051.082 748.141, 1052.137 742.985 C 1052.976 738.883, 1051.780 735.488, 1048.967 733.982 C 1047.796 733.356, 1041.372 732.204, 1034.692 731.424 C 1028.012 730.644, 1021.153 729.545, 1019.449 728.983 C 1013.333 726.965, 1010.408 715.402, 1011.278 696.680 C 1011.917 682.928, 1010.882 679.025, 1005.915 676.456 C 1002.219 674.545, 995.020 674.598, 992.223 676.557 M 602.149 679.696 C 600.307 680.604, 598.419 682.282, 597.955 683.424 C 596.656 686.617, 595 703.784, 595 714.052 C 595 729.253, 591.537 732.598, 574.174 734.168 C 555.739 735.836, 555.050 735.980, 551.934 738.821 C 547.887 742.510, 547.214 746.731, 550.090 750.387 C 553.785 755.084, 557.604 756.066, 571.409 755.865 C 585.775 755.656, 588.881 756.785, 592.402 763.500 C 594.468 767.439, 594.500 768.462, 594.500 830.500 C 594.500 887.677, 594.344 893.784, 592.816 896.573 C 591.890 898.263, 590.486 900.182, 589.697 900.837 C 588.907 901.492, 582.465 902.470, 575.381 903.010 C 560.875 904.116, 557.152 904.959, 552.359 908.223 C 548.844 910.616, 547.965 914.197, 549.971 917.945 C 551.536 920.869, 558.446 922.990, 568.308 923.574 C 579.763 924.252, 585.523 925.524, 589.292 928.208 C 594.399 931.845, 595.242 935.533, 596.046 957.757 C 596.852 980.020, 597.257 981.530, 603.251 984.630 C 606.157 986.133, 609.313 986.223, 634.492 985.526 C 649.896 985.099, 677.350 984.650, 695.500 984.528 C 749.395 984.164, 770.614 982.815, 773.884 979.545 C 775.224 978.204, 775.214 977.671, 773.786 974.678 L 772.183 971.316 738.342 970.471 C 693.502 969.350, 679.087 969.335, 644 970.372 L 614.500 971.245 612.270 968.830 C 610.201 966.588, 609.959 964.904, 608.901 945.457 C 607.513 919.929, 607.112 879.433, 608.100 864.500 C 608.500 858.450, 608.411 825.825, 607.902 792 C 607.392 758.175, 607.272 723.612, 607.634 715.194 L 608.293 699.887 612.147 693.498 C 616.113 686.922, 617.116 681.516, 614.800 679.200 C 613.085 677.485, 606.081 677.759, 602.149 679.696 M 970.420 681.089 C 968.590 683.111, 968.524 687.034, 968.372 803.838 C 968.194 940.566, 967.488 928.800, 976.551 940.311 C 980.005 944.699, 981.661 946.046, 983.313 945.811 C 985.467 945.505, 985.509 945.160, 986.121 923 C 987.078 888.330, 987.030 732.799, 986.056 711.883 C 985.108 691.525, 984.699 689.993, 978.327 682.940 C 974.264 678.443, 973.068 678.163, 970.420 681.089 M 623.625 688.829 C 621.676 691.485, 619.517 694.973, 618.829 696.579 C 617.848 698.870, 617.608 725.958, 617.716 822.227 C 617.792 889.727, 618.138 945.414, 618.486 945.977 C 620.493 949.226, 626.830 944.231, 631.142 936 L 633.500 931.500 633.500 890.500 C 633.500 867.950, 633.366 815.955, 633.201 774.955 C 633.037 733.955, 633.205 697.457, 633.575 693.848 C 634.203 687.718, 634.092 687.178, 631.901 685.643 C 628.408 683.197, 627.505 683.545, 623.625 688.829 M 741.500 739.892 C 736.629 742.433, 735.988 742.503, 716.654 742.616 C 697.658 742.726, 696.609 742.630, 692.154 740.370 C 687.064 737.787, 681.787 737.289, 680.291 739.250 C 678.118 742.100, 673.762 756.431, 673.694 760.959 C 673.562 769.722, 679.037 772.070, 683.418 765.130 C 686.491 760.263, 692.479 755.273, 696.240 754.447 C 698.407 753.971, 700.130 754.482, 703.190 756.507 L 707.259 759.200 706.514 764.850 C 706.105 767.957, 705.609 787.150, 705.414 807.500 C 705.218 827.850, 705.045 844.737, 705.029 845.027 C 705.013 845.317, 703.200 847.949, 701 850.877 C 696.554 856.795, 695.760 861.568, 698.769 864.291 C 700.245 865.626, 702.967 865.860, 715.165 865.696 C 727.978 865.524, 730.053 865.264, 731.896 863.595 C 734.873 860.900, 734.576 856.517, 731.121 852.144 C 728.301 848.575, 728.228 848.170, 727.583 832.500 C 727.220 823.700, 726.725 803.919, 726.483 788.543 C 726.109 764.835, 726.270 760.237, 727.544 758.293 C 730.041 754.482, 733.977 755.262, 738.684 760.500 C 741.759 763.923, 743.441 765, 745.709 765 C 749.932 765, 751.978 762.179, 753.068 754.853 C 753.588 751.359, 754.288 746.650, 754.623 744.389 C 755.151 740.837, 754.915 740.054, 752.894 738.639 C 749.825 736.489, 747.544 736.740, 741.500 739.892 M 910.135 743.539 C 908.085 744.429, 903.556 745, 898.544 745 C 882.622 745, 875.066 749.041, 869.347 760.613 C 865.966 767.453, 865.550 769.121, 865.540 775.896 C 865.531 781.404, 866.035 784.439, 867.371 786.907 C 870.838 793.315, 878.500 800.317, 891 808.500 C 913.927 823.508, 919.845 833.345, 912.819 844.774 C 910.138 849.136, 906.217 851.005, 899.800 850.978 C 890.246 850.938, 882.879 845.943, 878.271 836.382 C 875.112 829.826, 873.405 828.431, 869.684 829.365 C 866.489 830.166, 864.801 833.070, 864.730 837.886 C 864.600 846.679, 865.338 857.645, 866.166 859.250 C 867.115 861.087, 871.474 861.660, 872.452 860.077 C 873.964 857.632, 879.020 857.941, 886.501 860.937 C 895.710 864.624, 901.963 864.873, 911.487 861.931 C 920.303 859.208, 927.749 852.211, 930.873 843.712 C 934.034 835.113, 933.856 823.111, 930.468 816.311 C 926.971 809.294, 919.492 802.597, 906.282 794.655 C 893.632 787.050, 885.053 779.739, 882.524 774.409 C 880.390 769.913, 881.186 764.723, 884.521 761.388 C 887.235 758.674, 892.427 758.255, 900.882 760.068 C 905.241 761.003, 906.374 761.814, 909.964 766.568 C 913.494 771.244, 914.530 772, 917.410 772 C 919.250 772, 921.218 771.438, 921.784 770.750 C 925.175 766.630, 923.566 746.210, 919.633 743.456 C 917.042 741.641, 914.455 741.664, 910.135 743.539 M 791.385 781.765 C 789.398 783.074, 785 797.644, 785 802.918 C 785 808.975, 787.647 812.549, 791.301 811.427 C 792.511 811.055, 793.705 810.565, 793.955 810.338 C 794.205 810.110, 794.841 804.114, 795.369 797.013 C 796.127 786.827, 796.058 783.775, 795.042 782.551 C 793.608 780.822, 793.011 780.694, 791.385 781.765 M 804.667 803.667 C 803.340 804.993, 803.984 811.056, 805.513 811.643 C 807.450 812.387, 810 810.287, 810 807.949 C 810 804.955, 806.327 802.006, 804.667 803.667 M 637.942 940.393 C 632.369 944.181, 626.165 954.383, 627.431 957.681 C 627.817 958.687, 630.350 958.969, 637.722 958.826 C 643.100 958.721, 659.200 959.147, 673.500 959.772 C 687.800 960.397, 717.777 960.929, 740.115 960.954 C 779.726 960.999, 780.795 960.949, 783.365 958.927 C 786.978 956.085, 786.947 951.667, 783.296 949.273 C 780.810 947.643, 775.877 947.457, 722.046 946.970 L 663.500 946.439 654.249 942.220 C 649.160 939.899, 644.202 938, 643.231 938 C 642.259 938, 639.879 939.077, 637.942 940.393 M 954.807 940.074 C 953.326 941.179, 949.051 942.712, 945.307 943.481 C 930.660 946.487, 918.050 947.086, 873 946.917 C 826.562 946.742, 821.033 947.109, 817.545 950.598 C 815.401 952.742, 815.608 954.432, 818.413 957.694 L 820.827 960.500 896.569 960.263 C 962.736 960.056, 972.607 959.832, 974.655 958.490 C 977.038 956.929, 977.798 953.611, 976.024 952.515 C 975.488 952.183, 973.412 949.447, 971.413 946.435 C 969.413 943.422, 966.827 940.292, 965.666 939.479 C 962.735 937.426, 958.007 937.685, 954.807 940.074 M 796.482 959.945 C 791.755 961.863, 788.384 966.394, 787.080 972.581 C 785.888 978.239, 785.954 979.022, 788.032 983.854 C 791.225 991.274, 794.827 994, 801.442 994 C 807.256 994, 812.120 991.262, 811.755 988.194 C 811.644 987.262, 811.915 983.336, 812.356 979.469 C 813.001 973.821, 812.827 971.607, 811.469 968.215 C 808.499 960.792, 802.523 957.495, 796.482 959.945" stroke="none" fill="#050404" fill-rule="evenodd"/><path d="M -0 650.001 L -0 1300.001 800.250 1299.751 L 1600.500 1299.500 1600.751 649.750 L 1601.002 0 800.501 0 L 0 0 -0 650.001 M 0.497 650.500 C 0.497 1008, 0.611 1154.101, 0.750 975.168 C 0.889 796.235, 0.889 503.735, 0.750 325.168 C 0.611 146.601, 0.497 293, 0.497 650.500 M 301 269.767 C 301 479.150, 301.194 493.118, 304.575 526.500 C 320.633 685.094, 392.169 843.609, 513.520 989.500 C 582.423 1072.338, 669.744 1152.974, 759 1216.187 C 775.275 1227.714, 794.033 1240, 795.355 1240 C 797.517 1240, 833.288 1216.978, 856.500 1200.649 C 936.513 1144.358, 1018.404 1070.067, 1081.530 996.500 C 1202.373 855.671, 1274.582 701.147, 1293.451 543 C 1298.460 501.010, 1298.303 508.943, 1298.712 277.250 L 1299.096 60 800.048 60 L 301 60 301 269.767 M 666.777 225.552 C 657.152 230.563, 651.959 231.203, 615.500 231.874 C 584.222 232.450, 581.181 232.660, 577.509 234.500 C 569.925 238.300, 566.716 249.336, 567.186 270 C 567.318 275.775, 566.896 297.375, 566.249 318 C 565.108 354.355, 565.948 443.127, 567.593 460.124 C 568.037 464.715, 567.689 469.565, 566.460 475.926 C 564.709 484.989, 564.712 485.137, 566.713 487.802 C 569.082 490.956, 569.589 490.984, 590.500 489.127 C 598.334 488.432, 616.392 487.968, 631.500 488.075 C 654.500 488.237, 659.537 488.002, 665.500 486.490 C 672.612 484.686, 675.268 483.121, 677.339 479.511 C 678.174 478.057, 678.578 457.705, 678.798 406 C 678.966 366.675, 679.184 327.975, 679.284 320 C 679.384 312.025, 679.414 291.775, 679.352 275 C 679.289 258.225, 679.227 240.250, 679.214 235.056 C 679.193 227.161, 678.896 225.397, 677.404 224.306 C 674.846 222.435, 672.158 222.751, 666.777 225.552 M 912.302 225.660 C 910.637 228.199, 910.439 233.180, 909.701 290.954 C 909.160 333.375, 909.287 368.973, 910.095 401.588 C 911.037 439.575, 911.028 451.736, 910.053 459.487 C 908.011 475.712, 909.663 480.206, 918.864 483.452 C 924.526 485.450, 948.143 487.303, 955.068 486.292 C 959.592 485.632, 979.985 485.981, 1011.500 487.257 L 1017.500 487.500 1018.177 464 C 1018.977 436.189, 1020.556 294.759, 1020.370 267.500 C 1020.218 245.083, 1018.405 235.137, 1013.853 231.739 C 1010.085 228.927, 1000.109 228.110, 983 229.214 C 975.025 229.729, 962.425 229.975, 955 229.761 C 943.770 229.438, 940.239 228.939, 934 226.797 C 929.875 225.380, 923.711 223.927, 920.302 223.567 C 914.328 222.936, 914.038 223.012, 912.302 225.660 M 1136.555 225.157 C 1125.121 229.671, 1119.149 230.290, 1081 230.908 C 1040.999 231.557, 1041.086 231.543, 1035.776 237.855 C 1033.365 240.719, 1033.295 241.297, 1032.472 265.141 C 1032.009 278.538, 1031.548 327.750, 1031.446 374.500 C 1031.331 427.661, 1030.844 463.995, 1030.147 471.500 C 1028.503 489.187, 1028.551 489.838, 1031.589 491.223 C 1033.775 492.218, 1035.373 491.980, 1041.839 489.696 L 1049.500 486.989 1089.500 487.244 C 1132.392 487.518, 1137.473 487.071, 1142.296 482.602 L 1144.695 480.378 1145.459 442.439 C 1145.879 421.573, 1146.342 364.315, 1146.489 315.199 C 1146.718 238.303, 1146.554 225.697, 1145.306 224.449 C 1143.513 222.655, 1142.731 222.719, 1136.555 225.157 M 449.338 226.999 C 448.149 227.478, 446.957 228.687, 446.690 229.685 C 445.530 234.016, 445.286 347.395, 446.259 429.490 L 446.864 480.480 449.682 482.756 C 455.137 487.162, 460.022 487.830, 487.151 487.880 C 514.503 487.931, 531.618 489.045, 544.925 491.641 L 553.351 493.285 555.242 490.950 C 556.456 489.450, 556.897 487.879, 556.474 486.557 C 554.969 481.852, 554.349 429.369, 555.363 392.500 C 555.953 371.050, 556.374 329.856, 556.297 300.957 L 556.158 248.415 553.617 242.670 C 551.304 237.440, 550.558 236.683, 545.288 234.235 C 538.887 231.261, 542.061 231.388, 503 232.538 C 481.059 233.184, 476.262 232.686, 463.122 228.404 C 455.291 225.852, 452.809 225.599, 449.338 226.999 M 868.045 229.752 C 863.408 232.099, 862.147 237.200, 861.430 256.500 C 860.760 274.575, 860.676 275.043, 857.427 278.904 C 854.375 282.532, 850.934 283.561, 837.227 284.945 C 826.636 286.015, 819.815 288.433, 818.623 291.539 C 817.185 295.288, 818.036 299.190, 820.923 302.077 C 822.531 303.685, 824.668 305.026, 825.673 305.058 C 826.678 305.089, 832.468 305.474, 838.540 305.911 C 851.211 306.825, 855.969 308.595, 859.021 313.533 C 861.022 316.771, 861.072 318.146, 861.057 368.632 C 861.041 419.332, 860.173 438.565, 857.657 444 C 855.972 447.640, 848.683 450.830, 840.500 451.509 C 827.245 452.608, 825.231 453.057, 822.595 455.499 C 819.729 458.155, 819.045 464.183, 821.282 467.075 C 824.477 471.207, 827.970 472.307, 840.112 473.006 C 851.996 473.691, 852.119 473.723, 855.631 477.098 C 861.954 483.175, 862.311 484.570, 862.934 505.647 C 863.445 522.925, 863.695 525.008, 865.498 526.999 C 870.309 532.312, 868.491 532.174, 935.880 532.340 C 1002.080 532.503, 1002.071 532.503, 1003.522 527.929 C 1004.493 524.871, 1001.603 522.306, 995.651 520.946 C 992.300 520.180, 972.057 519.517, 937.735 519.047 L 884.971 518.326 881.235 515.322 C 873.961 509.472, 874.500 520.386, 874.500 379 L 874.500 251.500 878.250 241.862 C 880.313 236.561, 882 231.925, 882 231.561 C 882 230.658, 875.489 228, 873.282 228.002 C 872.302 228.002, 869.945 228.790, 868.045 229.752 M 715.465 229.914 C 711.521 231.586, 711.053 233.093, 712.647 239.003 C 713.623 242.621, 714.459 253.560, 715.091 271 C 716.255 303.079, 715.408 496.776, 714.064 506 C 713.218 511.803, 712.682 512.889, 709.065 516.129 C 706.811 518.149, 703.110 520.238, 700.722 520.840 C 698.228 521.468, 685.339 521.953, 669.965 521.997 C 600.492 522.197, 591 523.033, 591 528.950 C 591 531.344, 591.562 532.018, 594.250 532.844 C 597.322 533.788, 605.602 534.352, 614.500 534.222 C 706.939 532.877, 717.744 532.442, 721.923 529.901 C 723.643 528.855, 725.430 526.987, 725.895 525.750 C 726.360 524.512, 727.309 513.632, 728.005 501.571 C 728.700 489.510, 729.570 478.515, 729.938 477.139 C 730.306 475.762, 731.851 473.705, 733.372 472.568 C 735.777 470.768, 738.007 470.435, 750.551 470 L 764.966 469.500 768.158 466.306 C 771.213 463.248, 771.300 462.945, 770.184 459.219 C 768.141 452.402, 766.497 451.647, 752.150 450.935 C 729.694 449.821, 729.167 448.832, 729.044 407.612 C 728.965 380.895, 730.579 320.940, 731.584 313.299 C 732.695 304.840, 734.702 303.637, 748.818 302.974 C 761.642 302.371, 764.126 301.524, 765.945 297.133 C 769.497 288.558, 762.576 284.149, 745.399 284.044 C 737.072 283.992, 732.392 282.600, 730.847 279.714 C 730.219 278.541, 729.426 268.916, 729.023 257.570 C 728.320 237.828, 727.637 233.603, 724.759 231.215 C 722.758 229.554, 717.913 228.876, 715.465 229.914 M 689.653 231.753 C 689.397 232.166, 689.076 286.954, 688.939 353.503 C 688.703 468.420, 688.782 474.726, 690.506 479 C 693.039 485.276, 697.005 490.910, 700.239 492.827 C 706.297 496.417, 705.949 503.581, 706.238 369.477 L 706.500 247.500 703.692 241.503 C 699.969 233.551, 697.466 231, 693.385 231 C 691.588 231, 689.909 231.339, 689.653 231.753 M 1181.637 232.506 C 1178.910 235.233, 1178.872 237.792, 1181.447 245.254 L 1183.992 252.626 1184.043 336.063 C 1184.097 423.392, 1182.625 503.707, 1180.846 510.476 C 1180.255 512.724, 1178.348 515.822, 1176.457 517.605 L 1173.112 520.760 1144.306 521.471 C 1128.463 521.863, 1108.075 521.805, 1099 521.342 C 1072.091 519.969, 1061.171 520.281, 1056.500 522.556 C 1052.206 524.647, 1050.637 528.624, 1053.251 530.793 C 1054.213 531.591, 1073.722 532, 1120.783 532.208 L 1186.964 532.500 1190.387 529 C 1193.784 525.528, 1193.827 525.366, 1195.912 508.500 C 1197.068 499.150, 1198.010 488.417, 1198.007 484.650 C 1198 478.189, 1198.193 477.607, 1201.400 474.400 L 1204.800 471 1218.150 470.998 C 1228.862 470.997, 1232.189 470.651, 1234.986 469.248 C 1238.934 467.268, 1240.964 463.938, 1240.985 459.405 C 1241.015 453.250, 1235.810 450.994, 1219.397 450.045 C 1201.272 448.997, 1200.050 447.638, 1198.030 426.295 C 1197.499 420.674, 1197.490 412.154, 1198.010 405.617 C 1198.497 399.503, 1199.003 376.725, 1199.135 355 C 1199.325 323.853, 1199.667 314.902, 1200.754 312.671 C 1202.809 308.454, 1207.441 307, 1218.819 307 C 1234.356 307, 1239 304.715, 1239 297.068 C 1239 292.254, 1237.254 288.742, 1233.994 286.997 C 1232.947 286.436, 1227.136 285.580, 1221.081 285.093 C 1212.551 284.407, 1209.271 283.713, 1206.512 282.007 C 1200.170 278.088, 1199.503 275.670, 1199.477 256.500 C 1199.451 236.652, 1198.613 233.820, 1192.248 232.052 C 1186.994 230.593, 1183.396 230.747, 1181.637 232.506 M 1158.441 233.420 C 1156.590 234.774, 1156.521 235.964, 1156.945 259.170 C 1157.190 272.551, 1157.341 286.875, 1157.280 291 C 1157.219 295.125, 1156.853 338.459, 1156.466 387.297 C 1155.675 487.334, 1155.224 480.668, 1163.370 489.415 C 1167.581 493.937, 1170.072 494.873, 1172.988 493.028 C 1174.280 492.212, 1174.490 483.328, 1174.575 425.794 C 1174.629 389.332, 1174.999 342.625, 1175.397 322 C 1175.796 301.375, 1175.736 276.400, 1175.265 266.500 C 1174.469 249.786, 1174.203 248.050, 1171.543 242.196 C 1167.409 233.098, 1162.957 230.116, 1158.441 233.420 M 403.921 235.250 C 400.026 239.314, 398.820 243.960, 398.024 257.965 C 396.659 281.969, 394.320 284.887, 375.819 285.665 C 359.909 286.334, 353.756 289.819, 353.586 298.260 C 353.503 302.375, 353.648 302.574, 358.500 305 C 363.098 307.299, 364.594 307.500, 377.096 307.500 C 393.969 307.500, 394.483 307.809, 397.638 319.821 C 398.595 323.465, 398.884 327.113, 398.446 330 C 398.070 332.475, 397.594 357.675, 397.388 386 C 397.183 414.325, 396.673 440.200, 396.257 443.500 C 395.556 449.059, 395.243 449.628, 392 451.248 C 389.372 452.561, 386.008 452.999, 378.500 453.004 C 366.296 453.013, 361.904 454.137, 358.564 458.106 C 355.207 462.095, 355.326 465.163, 358.999 469.346 C 362.649 473.504, 367.849 474.998, 378.693 475.006 C 386.887 475.011, 392.378 476.094, 395.390 478.296 C 396.991 479.467, 397.269 482.145, 397.928 502.728 C 398.729 527.739, 399.013 528.996, 404.719 532.736 C 407.197 534.361, 412.431 534.540, 470.955 535 C 505.905 535.275, 535.747 535.115, 537.271 534.645 C 540.641 533.605, 542.257 530.874, 541.437 527.606 C 540.324 523.170, 537.089 522.716, 508.726 523.008 C 494.302 523.156, 479.575 523.302, 476 523.331 C 455.484 523.501, 424.318 521.760, 419.552 520.177 C 411.650 517.554, 411.397 516.598, 409.710 483 C 408.559 460.080, 408.411 434.433, 408.955 352 C 409.631 249.661, 409.636 249.492, 411.816 244.213 C 414.506 237.701, 414.563 235.372, 412.066 234.035 C 409.015 232.402, 406.257 232.814, 403.921 235.250 M 426.221 237.272 C 424.476 239.072, 422.122 243.235, 420.988 246.522 C 418.957 252.414, 418.924 254.228, 418.696 372.500 C 418.568 438.500, 418.697 494.525, 418.982 497 C 419.398 500.615, 419.915 501.559, 421.612 501.801 C 424.375 502.196, 429.567 497.768, 432.050 492.902 C 434.187 488.714, 436.537 474.679, 435.408 472.852 C 434.473 471.338, 434.555 279.457, 435.497 265.774 C 435.993 258.580, 435.837 252.936, 435.025 248.632 C 434.109 243.779, 434.094 241.693, 434.963 240.070 C 438.269 233.892, 431.573 231.750, 426.221 237.272 M 890.475 237.750 C 882.655 246.002, 882.905 241.377, 883.053 374.888 C 883.124 440.022, 883.415 493.918, 883.699 494.657 C 884.240 496.068, 887.703 496.435, 890.467 495.374 C 891.364 495.030, 893.367 492.217, 894.918 489.124 L 897.738 483.500 898.449 429 C 899.595 341.191, 899.363 250.077, 897.977 243.320 C 896.140 234.362, 894.699 233.293, 890.475 237.750 M 932.326 300.323 C 928.739 303.133, 929.370 306.243, 934.356 310.328 C 941.168 315.910, 941.251 316.613, 940.643 363.093 C 940.352 385.317, 940.089 403.585, 940.057 403.689 C 940.026 403.793, 938.200 405.958, 936 408.500 C 931.805 413.346, 931.174 415.573, 933.250 418.200 C 934.239 419.452, 937.303 419.886, 947.941 420.282 C 962.494 420.824, 965.672 420.156, 966.626 416.352 C 967.060 414.627, 966.020 412.471, 962.492 407.777 L 957.779 401.508 958.241 389.004 C 958.496 382.127, 959.053 375.689, 959.479 374.697 C 961.126 370.868, 964.179 373.329, 970.402 383.500 C 985.439 408.076, 991.466 416.187, 996.684 418.875 C 1001.576 421.395, 1010 418.484, 1010 414.274 C 1010 413.405, 1007.838 410.400, 1005.194 407.597 C 1002.551 404.793, 997.994 398.225, 995.068 393 C 992.141 387.775, 988.229 381.415, 986.373 378.866 C 983.915 375.489, 983 373.177, 983 370.344 C 983 366.735, 983.528 366.015, 990.360 360.313 C 994.408 356.935, 999.635 351.320, 1001.975 347.836 L 1006.229 341.500 1005.730 331.406 C 1005.136 319.384, 1003.168 314.165, 997.205 308.793 C 987.135 299.723, 979.728 297.890, 954.507 298.232 C 937.069 298.467, 934.370 298.722, 932.326 300.323 M 1077 299.018 C 1070.675 299.357, 1064.713 299.989, 1063.750 300.424 C 1060.735 301.785, 1061.074 307.562, 1064.513 313.436 C 1066.857 317.442, 1066.901 318.011, 1067.566 353 C 1068.397 396.815, 1067.827 402.549, 1062.043 408.485 C 1056.940 413.724, 1055.992 417.299, 1059.162 419.353 C 1060.985 420.535, 1064.850 420.873, 1076.724 420.890 C 1091.244 420.912, 1092.018 420.812, 1093.474 418.734 C 1095.633 415.652, 1095.482 415.030, 1090.931 408.253 L 1086.862 402.193 1087.181 360.161 L 1087.500 318.129 1090.097 315.315 C 1094.424 310.625, 1096 307.710, 1096 304.400 C 1096 298.815, 1093.588 298.132, 1077 299.018 M 463.167 300.862 C 452.948 301.904, 450.940 307.018, 458.326 313.192 C 460.987 315.417, 464.140 319.635, 466.521 324.154 C 470.473 331.656, 480.619 359.136, 486.401 378 C 488.171 383.775, 490.126 389.428, 490.744 390.562 C 491.363 391.696, 492.569 395.643, 493.425 399.333 C 496.190 411.254, 501.887 419, 507.890 419 C 514.390 419, 516.404 414.146, 528.009 370.500 C 537.578 334.513, 542.946 316.973, 545.576 313.102 C 548.812 308.341, 548.632 306.356, 544.750 303.989 C 542.354 302.528, 539.714 302.006, 534.705 302.004 C 528.820 302.001, 527.580 302.329, 525.455 304.455 C 522.403 307.506, 522.407 308.314, 525.504 314.419 C 529.023 321.355, 528.810 328.021, 524.602 342.670 C 522.733 349.177, 520.244 358.943, 519.072 364.372 C 517.899 369.802, 516.545 374.982, 516.062 375.884 C 514.606 378.604, 511.196 381.239, 510.049 380.530 C 508.433 379.531, 505.480 373.301, 503.162 366 C 502.027 362.425, 499.876 356.575, 498.383 353 C 496.889 349.425, 493.985 340.727, 491.929 333.671 L 488.190 320.841 491.143 315.228 C 494.633 308.594, 494.517 305.455, 490.679 302.599 C 488.337 300.857, 486.299 300.476, 478.679 300.358 C 473.631 300.281, 466.650 300.507, 463.167 300.862 M 605 301.010 C 588.378 302.131, 584.108 302.929, 582.928 305.134 C 581.495 307.812, 582.484 310.282, 587.145 315.668 L 591.138 320.281 590.819 360.891 L 590.500 401.500 587.250 407.391 C 580.747 419.178, 581.201 419.431, 612.660 421.556 C 626.497 422.491, 639.445 422.952, 641.431 422.579 C 651.969 420.602, 658.440 405.426, 652.567 396.462 C 649.814 392.260, 646.640 393.206, 643.218 399.250 C 641.582 402.137, 639.261 405.383, 638.059 406.462 C 635.385 408.863, 621.418 411.109, 616.316 409.959 C 610.103 408.557, 609.452 407.245, 608.024 393.236 C 606.474 378.033, 606.904 369.912, 609.547 364.500 C 612.182 359.103, 615.945 358.677, 623.387 362.935 C 629.883 366.652, 632.910 366.789, 635.993 363.508 C 641.117 358.053, 638.871 343.119, 633.026 343.776 C 631.675 343.928, 628.300 345.616, 625.526 347.526 C 619.324 351.798, 615.320 352.047, 611.661 348.388 C 608.273 345, 607.590 340.955, 608.415 329.151 C 609.197 317.957, 610.601 315.235, 616.712 313.075 C 621.834 311.265, 624.577 312.300, 632.583 319.070 C 635.790 321.781, 639.195 324, 640.150 324 C 642.417 324, 645 320.247, 645 316.955 C 645 314.059, 639.583 303.194, 637.169 301.250 C 635.469 299.880, 623.115 299.788, 605 301.010 M 966.139 308.989 C 960.178 310.415, 959.658 311.649, 958.877 326.242 C 958.487 333.534, 957.854 341.366, 957.472 343.647 C 954.873 359.158, 971.362 363.304, 983.262 350.132 C 986.930 346.071, 990 338.175, 990 332.799 C 990 329.392, 985.989 319.198, 982.994 314.991 C 979.371 309.904, 972.518 307.463, 966.139 308.989 M 677.555 493.157 C 666.639 497.467, 655.619 498.575, 608 500.153 C 605.525 500.235, 599.422 499.948, 594.438 499.515 C 586.763 498.848, 584.811 498.996, 581.678 500.483 C 575.536 503.397, 575.626 510.204, 581.849 513.422 C 584.407 514.745, 588.743 514.818, 615.642 513.991 C 632.614 513.469, 657.537 513.033, 671.027 513.021 C 702.570 512.994, 703.535 512.529, 696.311 500.824 C 690.034 490.656, 687.015 489.422, 677.555 493.157 M 900.638 496.250 C 896.407 500.197, 895.586 501.903, 895.885 506.129 C 896.149 509.866, 900.392 510.210, 943.200 509.959 C 978.293 509.754, 985.678 509.965, 992.338 511.359 C 1001.275 513.230, 1006.736 513.431, 1010.435 512.025 C 1012.573 511.212, 1013 510.411, 1013 507.213 C 1013 498.152, 1007.267 496.867, 967.700 497.065 C 941.770 497.195, 938.185 496.997, 923.161 494.603 C 914.175 493.171, 906.456 492, 906.008 492 C 905.560 492, 903.143 493.913, 900.638 496.250 M 438.893 495.396 C 432.406 499.859, 429.710 509.625, 434.250 512.211 C 436.003 513.210, 446.210 513.442, 480.500 513.261 C 507.903 513.116, 528.614 513.456, 535.406 514.161 C 545.580 515.218, 546.402 515.170, 547.656 513.456 C 549.581 510.823, 549.313 506.594, 547.095 504.586 C 542.686 500.596, 537.112 500, 504.091 499.992 C 469.213 499.984, 457.529 499.100, 452.413 496.081 C 446.776 492.755, 443.009 492.564, 438.893 495.396 M 1139 495.039 C 1126.009 498.368, 1112.536 499.172, 1081.500 498.472 C 1054.827 497.870, 1052.018 497.968, 1046.500 499.696 C 1039.740 501.812, 1038.736 503.654, 1041.465 508.932 L 1043.051 512 1104.507 512 L 1165.962 512 1166.597 509.471 C 1167.061 507.622, 1166.470 505.843, 1164.402 502.859 C 1157.950 493.548, 1151.985 491.712, 1139 495.039 M 1020.395 515.542 C 1013.635 522.711, 1013.509 533.297, 1020.102 540.228 L 1023.949 544.272 1030.960 543.771 C 1034.816 543.495, 1038.628 542.724, 1039.431 542.057 C 1041.835 540.062, 1043.383 531.133, 1042.129 526.495 C 1040.095 518.970, 1032.291 512, 1025.900 512 C 1024.710 512, 1022.233 513.594, 1020.395 515.542 M 559.495 519.242 L 555 523.737 555 533.414 C 555 542.270, 555.202 543.293, 557.378 545.469 C 561.164 549.255, 567.306 550.678, 572.345 548.937 C 575.659 547.791, 576.956 546.597, 578.750 543.038 C 581.649 537.289, 581.799 528.823, 579.081 524.366 C 576.590 520.279, 571.150 516.180, 567.161 515.382 C 564.356 514.821, 563.468 515.268, 559.495 519.242 M 946.994 669.934 C 945.615 670.354, 943.045 671.443, 941.281 672.354 C 929.206 678.599, 900.725 680.407, 860 677.516 C 839.532 676.063, 834.101 675.979, 827 677.005 C 814.511 678.809, 811.635 679.695, 808.935 682.569 L 806.500 685.161 806.555 711.830 L 806.609 738.500 812.769 756.796 C 816.157 766.858, 819.424 777.823, 820.029 781.161 C 820.634 784.499, 822.651 791.566, 824.510 796.865 C 826.369 802.164, 829.476 811, 831.415 816.500 C 833.354 822, 835.453 830.100, 836.078 834.500 L 837.215 842.500 844.975 850 C 853.921 858.646, 854.871 860.395, 851.718 862.421 C 848.710 864.353, 845.287 864.572, 833.225 863.605 C 819.968 862.541, 818.689 861.617, 820.272 854.235 C 822.437 844.141, 816.999 825.791, 811.429 824.393 C 804.422 822.634, 803.535 827.995, 804.998 863.232 C 805.621 878.229, 806.131 895.900, 806.133 902.500 C 806.134 909.100, 806.158 916.525, 806.187 919 C 806.216 921.475, 805.900 927.388, 805.485 932.141 L 804.732 940.782 807.862 941.470 C 811.186 942.200, 816.019 940.977, 822.308 937.815 C 825.915 936.001, 828.830 935.903, 877.808 935.945 C 934.421 935.993, 937.550 935.739, 949.550 930.123 C 954.682 927.722, 955.964 926.621, 956.847 923.855 C 957.595 921.513, 957.744 891.954, 957.342 826 C 956.542 694.871, 956.559 690.624, 957.921 680.535 C 959.032 672.310, 958.987 671.463, 957.375 670.285 C 955.460 668.885, 950.945 668.732, 946.994 669.934 M 645.292 672.682 C 644.937 673.607, 644.680 676.644, 644.721 679.432 C 644.761 682.219, 645.065 738.695, 645.395 804.933 L 645.996 925.367 648.248 927.819 C 651.211 931.046, 657.062 933.587, 664.673 934.952 C 668.442 935.629, 690.439 936.202, 721.173 936.425 C 748.853 936.626, 775.600 937.126, 780.610 937.535 C 795.107 938.720, 793.834 944.211, 793.525 881.858 C 793.382 853.061, 792.932 828.263, 792.524 826.750 C 789.750 816.456, 779.401 835.367, 778.255 852.824 C 777.942 857.591, 777.157 861.700, 776.419 862.439 C 774.695 864.162, 762.479 865.220, 757.609 864.068 C 749.316 862.105, 749.197 858.433, 757.250 852.997 C 763.819 848.563, 764.139 847.729, 773.519 810.500 C 777.537 794.550, 782.642 775.813, 784.862 768.862 C 790.014 752.732, 791.735 739.949, 792.426 712.692 C 793.038 688.552, 792.678 686.431, 787.191 681.814 C 781.072 676.666, 756.628 675.349, 715.655 677.960 C 686.873 679.794, 675.317 679.050, 662.500 674.538 C 651.364 670.618, 646.294 670.071, 645.292 672.682 M 992.223 676.557 C 989.125 678.726, 989.413 682.410, 993.132 688.206 L 996.265 693.088 996.593 806.294 C 996.934 923.877, 996.253 957.158, 993.419 961.483 C 991.284 964.741, 985.723 967.152, 978.028 968.155 C 974.438 968.623, 940 969.421, 901.500 969.927 C 852.289 970.573, 830.529 971.198, 828.229 972.029 C 823.518 973.730, 822.424 976.327, 824.741 980.301 L 826.606 983.500 838.553 984.290 C 854.713 985.359, 996.414 983.379, 1001.134 982.018 C 1008.823 979.801, 1009.615 978.405, 1010.330 965.800 C 1011.251 949.561, 1014.614 929.092, 1016.756 926.684 C 1019.883 923.169, 1024.437 922, 1035 922 C 1050.347 922, 1055.462 918.862, 1054.811 909.845 C 1054.529 905.931, 1054.108 905.311, 1050.315 903.224 C 1046.986 901.393, 1043.715 900.752, 1034.315 900.091 C 1021.586 899.195, 1016.040 897.518, 1013.628 893.834 C 1010.582 889.182, 1009.829 875.028, 1010.950 843.494 C 1011.533 827.094, 1011.717 804.861, 1011.358 794.088 C 1011 783.314, 1011.044 771.363, 1011.457 767.529 C 1012.127 761.293, 1012.595 760.170, 1015.893 756.872 C 1019.817 752.948, 1018.983 753.168, 1037.335 751.207 C 1047.523 750.118, 1051.082 748.141, 1052.137 742.985 C 1052.976 738.883, 1051.780 735.488, 1048.967 733.982 C 1047.796 733.356, 1041.372 732.204, 1034.692 731.424 C 1028.012 730.644, 1021.153 729.545, 1019.449 728.983 C 1013.333 726.965, 1010.408 715.402, 1011.278 696.680 C 1011.917 682.928, 1010.882 679.025, 1005.915 676.456 C 1002.219 674.545, 995.020 674.598, 992.223 676.557 M 602.149 679.696 C 600.307 680.604, 598.419 682.282, 597.955 683.424 C 596.656 686.617, 595 703.784, 595 714.052 C 595 729.253, 591.537 732.598, 574.174 734.168 C 555.739 735.836, 555.050 735.980, 551.934 738.821 C 547.887 742.510, 547.214 746.731, 550.090 750.387 C 553.785 755.084, 557.604 756.066, 571.409 755.865 C 585.775 755.656, 588.881 756.785, 592.402 763.500 C 594.468 767.439, 594.500 768.462, 594.500 830.500 C 594.500 887.677, 594.344 893.784, 592.816 896.573 C 591.890 898.263, 590.486 900.182, 589.697 900.837 C 588.907 901.492, 582.465 902.470, 575.381 903.010 C 560.875 904.116, 557.152 904.959, 552.359 908.223 C 548.844 910.616, 547.965 914.197, 549.971 917.945 C 551.536 920.869, 558.446 922.990, 568.308 923.574 C 579.763 924.252, 585.523 925.524, 589.292 928.208 C 594.399 931.845, 595.242 935.533, 596.046 957.757 C 596.852 980.020, 597.257 981.530, 603.251 984.630 C 606.157 986.133, 609.313 986.223, 634.492 985.526 C 649.896 985.099, 677.350 984.650, 695.500 984.528 C 749.395 984.164, 770.614 982.815, 773.884 979.545 C 775.224 978.204, 775.214 977.671, 773.786 974.678 L 772.183 971.316 738.342 970.471 C 693.502 969.350, 679.087 969.335, 644 970.372 L 614.500 971.245 612.270 968.830 C 610.201 966.588, 609.959 964.904, 608.901 945.457 C 607.513 919.929, 607.112 879.433, 608.100 864.500 C 608.500 858.450, 608.411 825.825, 607.902 792 C 607.392 758.175, 607.272 723.612, 607.634 715.194 L 608.293 699.887 612.147 693.498 C 616.113 686.922, 617.116 681.516, 614.800 679.200 C 613.085 677.485, 606.081 677.759, 602.149 679.696 M 970.420 681.089 C 968.590 683.111, 968.524 687.034, 968.372 803.838 C 968.194 940.566, 967.488 928.800, 976.551 940.311 C 980.005 944.699, 981.661 946.046, 983.313 945.811 C 985.467 945.505, 985.509 945.160, 986.121 923 C 987.078 888.330, 987.030 732.799, 986.056 711.883 C 985.108 691.525, 984.699 689.993, 978.327 682.940 C 974.264 678.443, 973.068 678.163, 970.420 681.089 M 623.625 688.829 C 621.676 691.485, 619.517 694.973, 618.829 696.579 C 617.848 698.870, 617.608 725.958, 617.716 822.227 C 617.792 889.727, 618.138 945.414, 618.486 945.977 C 620.493 949.226, 626.830 944.231, 631.142 936 L 633.500 931.500 633.500 890.500 C 633.500 867.950, 633.366 815.955, 633.201 774.955 C 633.037 733.955, 633.205 697.457, 633.575 693.848 C 634.203 687.718, 634.092 687.178, 631.901 685.643 C 628.408 683.197, 627.505 683.545, 623.625 688.829 M 741.500 739.892 C 736.629 742.433, 735.988 742.503, 716.654 742.616 C 697.658 742.726, 696.609 742.630, 692.154 740.370 C 687.064 737.787, 681.787 737.289, 680.291 739.250 C 678.118 742.100, 673.762 756.431, 673.694 760.959 C 673.562 769.722, 679.037 772.070, 683.418 765.130 C 686.491 760.263, 692.479 755.273, 696.240 754.447 C 698.407 753.971, 700.130 754.482, 703.190 756.507 L 707.259 759.200 706.514 764.850 C 706.105 767.957, 705.609 787.150, 705.414 807.500 C 705.218 827.850, 705.045 844.737, 705.029 845.027 C 705.013 845.317, 703.200 847.949, 701 850.877 C 696.554 856.795, 695.760 861.568, 698.769 864.291 C 700.245 865.626, 702.967 865.860, 715.165 865.696 C 727.978 865.524, 730.053 865.264, 731.896 863.595 C 734.873 860.900, 734.576 856.517, 731.121 852.144 C 728.301 848.575, 728.228 848.170, 727.583 832.500 C 727.220 823.700, 726.725 803.919, 726.483 788.543 C 726.109 764.835, 726.270 760.237, 727.544 758.293 C 730.041 754.482, 733.977 755.262, 738.684 760.500 C 741.759 763.923, 743.441 765, 745.709 765 C 749.932 765, 751.978 762.179, 753.068 754.853 C 753.588 751.359, 754.288 746.650, 754.623 744.389 C 755.151 740.837, 754.915 740.054, 752.894 738.639 C 749.825 736.489, 747.544 736.740, 741.500 739.892 M 910.135 743.539 C 908.085 744.429, 903.556 745, 898.544 745 C 882.622 745, 875.066 749.041, 869.347 760.613 C 865.966 767.453, 865.550 769.121, 865.540 775.896 C 865.531 781.404, 866.035 784.439, 867.371 786.907 C 870.838 793.315, 878.500 800.317, 891 808.500 C 913.927 823.508, 919.845 833.345, 912.819 844.774 C 910.138 849.136, 906.217 851.005, 899.800 850.978 C 890.246 850.938, 882.879 845.943, 878.271 836.382 C 875.112 829.826, 873.405 828.431, 869.684 829.365 C 866.489 830.166, 864.801 833.070, 864.730 837.886 C 864.600 846.679, 865.338 857.645, 866.166 859.250 C 867.115 861.087, 871.474 861.660, 872.452 860.077 C 873.964 857.632, 879.020 857.941, 886.501 860.937 C 895.710 864.624, 901.963 864.873, 911.487 861.931 C 920.303 859.208, 927.749 852.211, 930.873 843.712 C 934.034 835.113, 933.856 823.111, 930.468 816.311 C 926.971 809.294, 919.492 802.597, 906.282 794.655 C 893.632 787.050, 885.053 779.739, 882.524 774.409 C 880.390 769.913, 881.186 764.723, 884.521 761.388 C 887.235 758.674, 892.427 758.255, 900.882 760.068 C 905.241 761.003, 906.374 761.814, 909.964 766.568 C 913.494 771.244, 914.530 772, 917.410 772 C 919.250 772, 921.218 771.438, 921.784 770.750 C 925.175 766.630, 923.566 746.210, 919.633 743.456 C 917.042 741.641, 914.455 741.664, 910.135 743.539 M 791.385 781.765 C 789.398 783.074, 785 797.644, 785 802.918 C 785 808.975, 787.647 812.549, 791.301 811.427 C 792.511 811.055, 793.705 810.565, 793.955 810.338 C 794.205 810.110, 794.841 804.114, 795.369 797.013 C 796.127 786.827, 796.058 783.775, 795.042 782.551 C 793.608 780.822, 793.011 780.694, 791.385 781.765 M 804.667 803.667 C 803.340 804.993, 803.984 811.056, 805.513 811.643 C 807.450 812.387, 810 810.287, 810 807.949 C 810 804.955, 806.327 802.006, 804.667 803.667 M 637.942 940.393 C 632.369 944.181, 626.165 954.383, 627.431 957.681 C 627.817 958.687, 630.350 958.969, 637.722 958.826 C 643.100 958.721, 659.200 959.147, 673.500 959.772 C 687.800 960.397, 717.777 960.929, 740.115 960.954 C 779.726 960.999, 780.795 960.949, 783.365 958.927 C 786.978 956.085, 786.947 951.667, 783.296 949.273 C 780.810 947.643, 775.877 947.457, 722.046 946.970 L 663.500 946.439 654.249 942.220 C 649.160 939.899, 644.202 938, 643.231 938 C 642.259 938, 639.879 939.077, 637.942 940.393 M 954.807 940.074 C 953.326 941.179, 949.051 942.712, 945.307 943.481 C 930.660 946.487, 918.050 947.086, 873 946.917 C 826.562 946.742, 821.033 947.109, 817.545 950.598 C 815.401 952.742, 815.608 954.432, 818.413 957.694 L 820.827 960.500 896.569 960.263 C 962.736 960.056, 972.607 959.832, 974.655 958.490 C 977.038 956.929, 977.798 953.611, 976.024 952.515 C 975.488 952.183, 973.412 949.447, 971.413 946.435 C 969.413 943.422, 966.827 940.292, 965.666 939.479 C 962.735 937.426, 958.007 937.685, 954.807 940.074 M 796.482 959.945 C 791.755 961.863, 788.384 966.394, 787.080 972.581 C 785.888 978.239, 785.954 979.022, 788.032 983.854 C 791.225 991.274, 794.827 994, 801.442 994 C 807.256 994, 812.120 991.262, 811.755 988.194 C 811.644 987.262, 811.915 983.336, 812.356 979.469 C 813.001 973.821, 812.827 971.607, 811.469 968.215 C 808.499 960.792, 802.523 957.495, 796.482 959.945" stroke="none" fill="#fbfbfb" fill-rule="evenodd"/></svg>