<svg xmlns="http://www.w3.org/2000/svg" width="227" height="222" viewBox="0 0 227 222" version="1.1"><path d="M 122 10.251 C 122 10.836, 120.706 10.991, 118.875 10.625 C 115.835 10.017, 115.766 10.082, 116.358 13.042 C 116.960 16.052, 116.930 16.077, 113.483 15.431 C 109.777 14.736, 108.919 15.858, 111.511 18.009 C 112.853 19.123, 112.837 19.398, 111.371 20.471 C 109.839 21.591, 109.842 21.726, 111.412 22.328 C 112.412 22.712, 112.854 22.573, 112.493 21.989 C 111.564 20.486, 113.330 20.795, 118.141 22.978 C 120.538 24.066, 124.018 24.966, 125.872 24.978 C 128.780 24.997, 129.070 25.210, 127.980 26.524 C 125.899 29.032, 127.265 28.995, 131.506 26.428 C 133.703 25.098, 135.050 23.976, 134.500 23.935 C 133.950 23.893, 134.316 23.538, 135.313 23.145 C 137.028 22.468, 137.011 22.283, 135 19.727 C 133.744 18.131, 130.954 16.464, 128.187 15.658 C 125.258 14.805, 123.373 13.644, 123.161 12.564 C 122.871 11.087, 123.135 11.002, 124.966 11.982 C 126.146 12.613, 127.477 12.988, 127.923 12.815 C 128.370 12.642, 127.220 11.769, 125.368 10.876 C 123.516 9.984, 122 9.702, 122 10.251 M 90.171 12.294 C 89.482 13.124, 87.841 14.074, 86.525 14.404 C 85.209 14.735, 83.165 16.363, 81.983 18.024 C 79.489 21.527, 69.424 26.359, 71.450 23.081 C 72.254 21.780, 69.061 18.840, 67.236 19.200 C 64.685 19.703, 63.339 22.711, 64.694 24.882 C 65.675 26.453, 65.495 27.126, 63.622 28.885 C 60.571 31.751, 59.651 31.559, 58.203 27.750 L 56.967 24.500 54.411 27.750 C 52.781 29.822, 50.975 31, 49.428 31 C 47.408 31, 47 31.494, 47 33.941 C 47 37.244, 45.394 38.794, 43.713 37.113 C 42.056 35.456, 41 35.762, 41 37.901 C 41 38.946, 39.987 41.984, 38.750 44.651 C 36.664 49.146, 36.263 49.477, 33.250 49.187 C 29.677 48.842, 29.321 49.518, 31.532 52.441 C 32.339 53.509, 33 55.055, 33 55.877 C 33 56.699, 33.958 58.391, 35.129 59.637 L 37.258 61.903 35.266 65.049 L 33.274 68.194 31.069 65.097 C 29.856 63.394, 28.005 62, 26.955 62 C 24.475 62, 21.754 66.153, 22.624 68.609 C 23.173 70.159, 23.051 70.274, 21.947 69.250 C 19.301 66.794, 17.863 67.751, 18.566 71.500 C 19.353 75.697, 18.284 82.293, 16.949 81.469 C 16.383 81.118, 16.063 83.425, 16.157 87.191 L 16.314 93.500 16.907 88.571 L 17.500 83.643 20.750 87.356 C 24.177 91.272, 24.384 91.837, 23.361 94.502 C 22.845 95.847, 22.539 95.910, 21.774 94.834 C 21.126 93.922, 21.032 94.291, 21.477 96 C 21.835 97.375, 22.352 100.525, 22.625 103 L 23.123 107.500 20.572 104.500 C 19.169 102.850, 17.615 99.700, 17.118 97.500 C 16.621 95.300, 16.166 94.287, 16.107 95.250 C 16.035 96.428, 15.172 97, 13.469 97 C 10.818 97, 8.693 100.064, 10.847 100.782 C 11.510 101.003, 12.894 102.830, 13.920 104.842 C 16.027 108.970, 19.677 112.656, 20.673 111.661 C 21.036 111.297, 20.846 111, 20.249 111 C 19.653 111, 17.362 108.300, 15.159 105 L 11.152 99 14.076 99 C 15.864 99, 17 99.524, 17 100.350 C 17 101.092, 18.325 103.529, 19.944 105.764 C 21.564 108, 22.831 110.655, 22.761 111.664 C 22.691 112.674, 22.950 114.738, 23.336 116.250 C 24.177 119.544, 23.740 119.621, 19.408 116.943 C 15.140 114.305, 12 115.601, 12 120 C 12 123.627, 14.982 125.615, 18 124 C 20.368 122.733, 23.405 124.020, 24.977 126.957 C 26.458 129.725, 26.248 130.203, 24.066 129.035 C 22.022 127.941, 18 127.619, 18 128.550 C 18 128.852, 18.687 130.427, 19.526 132.050 C 21.299 135.479, 19.945 136.050, 16.223 133.443 C 14.522 132.252, 14.002 132.194, 14.010 133.193 C 14.016 133.912, 15.816 135.254, 18.010 136.176 C 20.893 137.386, 22 138.444, 22 139.985 C 22 141.158, 21.550 141.840, 21 141.500 C 19.545 140.601, 19.773 141.723, 21.615 144.535 C 23.017 146.675, 23.032 147, 21.730 147 C 20.905 147, 19.467 145.836, 18.535 144.413 C 17.603 142.991, 16.587 142.080, 16.278 142.389 C 15.968 142.698, 16.320 143.681, 17.060 144.573 C 18.204 145.950, 18.150 146.337, 16.703 147.146 C 14.317 148.482, 14.583 149.679, 17.424 150.392 C 18.757 150.726, 20.895 152.392, 22.174 154.094 C 23.453 155.796, 25.824 158.609, 27.443 160.344 C 29.631 162.690, 30.319 164.316, 30.123 166.678 C 29.816 170.370, 32.274 174.635, 35.252 175.580 C 37.103 176.167, 37.147 176.338, 35.663 177.169 C 33.053 178.629, 33.711 180.778, 36.989 181.497 C 38.632 181.858, 40.234 182.569, 40.548 183.077 C 40.861 183.585, 41.568 184, 42.118 184 C 43.958 184, 41.796 181.818, 38.630 180.479 L 35.500 179.155 38.315 178.078 C 39.863 177.485, 42.113 176.993, 43.315 176.985 C 45.014 176.973, 45.181 176.767, 44.064 176.061 C 42.874 175.308, 42.853 174.883, 43.937 173.576 C 44.656 172.709, 45.654 172, 46.154 172 C 47.970 172, 48.200 175.121, 46.521 176.976 C 44.779 178.901, 44.190 184.881, 45.529 187.047 C 45.930 187.696, 48.338 189.143, 50.879 190.263 C 53.421 191.383, 56.876 193.345, 58.559 194.623 C 63.582 198.437, 79.905 205.710, 89 208.186 C 96.386 210.197, 99.729 210.492, 114.500 210.441 C 130.027 210.386, 132.261 210.148, 140.282 207.686 C 149.506 204.854, 161.418 199.203, 169 194.061 C 171.475 192.382, 174.262 191.007, 175.194 191.004 C 176.126 191.002, 178.065 189.987, 179.504 188.750 C 182.897 185.832, 183.119 181.004, 180.051 176.855 C 178.394 174.614, 178.091 173.509, 178.909 172.691 C 179.727 171.873, 180.609 172.165, 182.233 173.789 C 183.449 175.005, 183.894 176, 183.222 176 C 182.550 176, 182.002 176.338, 182.004 176.750 C 182.007 177.162, 183.644 177.585, 185.643 177.689 C 190.787 177.955, 191.617 179.375, 187.499 180.864 C 185.575 181.560, 184 182.550, 184 183.065 C 184 184.382, 185.181 184.177, 187.441 182.468 C 188.509 181.661, 190.196 181, 191.191 181 C 193.466 181, 193.568 178.432, 191.327 177.572 C 189.852 177.006, 189.911 176.750, 191.833 175.404 C 194.892 173.262, 197.277 168.238, 196.570 165.423 C 196.121 163.633, 196.573 162.671, 198.438 161.449 C 199.792 160.562, 201.812 158.288, 202.928 156.397 C 204.044 154.505, 206.598 151.990, 208.603 150.806 C 211.871 148.879, 212.074 148.527, 210.558 147.419 C 208.982 146.266, 209.007 145.907, 210.933 142.131 C 212.070 139.903, 212.982 137.499, 212.961 136.790 C 212.939 136.080, 212.240 137.072, 211.407 138.993 C 210.574 140.914, 208.949 143.490, 207.796 144.717 C 205.942 146.691, 205.888 147.020, 207.328 147.572 C 208.639 148.075, 207.866 149.430, 203.352 154.540 C 200.270 158.028, 197.090 161.135, 196.284 161.444 C 195.369 161.796, 191.756 159.185, 186.660 154.492 C 182.172 150.359, 177.445 146.698, 176.155 146.357 C 173.886 145.756, 173.822 145.454, 174.155 136.962 C 174.345 132.137, 174.162 128.398, 173.750 128.654 C 173.337 128.909, 173 132.847, 173 137.404 C 173 144.161, 172.663 145.995, 171.171 147.345 C 168.677 149.602, 168 149.429, 168 146.535 C 168 143.341, 164.809 141.497, 161.940 143.032 C 159.168 144.516, 159.670 149.136, 162.750 150.487 C 165.840 151.843, 165.583 153.035, 161.500 156.293 C 157.001 159.883, 157.001 164.416, 161.500 164.485 C 162.050 164.493, 162.500 165.175, 162.500 166 C 162.500 167.944, 156.047 168.740, 155.900 166.813 C 155.845 166.091, 155.496 166.592, 155.123 167.926 C 154.289 170.908, 152.470 171.668, 151.599 169.398 C 150.909 167.600, 153.696 163.694, 155.065 164.540 C 155.503 164.811, 156.144 164.575, 156.490 164.016 C 157.302 162.702, 155.406 162.712, 152.934 164.035 C 151.170 164.979, 151 164.715, 151 161.035 C 151 158.816, 150.590 157, 150.089 157 C 149.588 157, 147.954 158.463, 146.458 160.250 C 144.962 162.037, 142.784 163.867, 141.619 164.315 C 139.666 165.066, 139.637 165.207, 141.250 166.115 C 143.203 167.214, 143.553 171.416, 142.025 175.435 C 140.493 179.465, 138.636 178.648, 139.333 174.250 L 139.928 170.500 137.986 173 C 135.945 175.628, 135.493 177.550, 136.750 178.253 C 137.162 178.483, 136.938 178.535, 136.250 178.367 C 135.563 178.200, 135 178.499, 135 179.031 C 135 179.564, 134.325 180, 133.500 180 C 131.184 180, 131.716 177.405, 134.775 173.785 C 139.682 167.975, 140.373 166.346, 135.812 171.339 C 132.852 174.580, 130.750 176.066, 129.446 175.839 C 128.062 175.598, 127.067 176.432, 126 178.729 C 124.895 181.108, 123.632 182.127, 121.203 182.599 C 119.390 182.952, 117.668 183.001, 117.376 182.710 C 117.085 182.418, 119.551 180.342, 122.858 178.096 C 148.979 160.358, 167.677 134.759, 176.130 105.166 C 178.657 96.317, 179.689 94, 181.101 94 C 183.277 94, 183.697 94.645, 185.480 100.715 L 186.885 105.500 182.807 101 C 179.207 97.027, 178.918 96.870, 180.345 99.662 C 181.233 101.401, 183.432 103.984, 185.230 105.401 C 188.029 107.607, 188.205 107.979, 186.450 107.989 C 183.787 108.003, 182 109.846, 182 112.578 C 182 115.706, 184.375 117.296, 187.894 116.523 C 190.154 116.027, 191.367 116.367, 192.935 117.935 C 195.008 120.008, 195.810 125, 194.070 125 C 193.558 125, 192.944 126.013, 192.706 127.250 C 192.437 128.643, 192.220 128.071, 192.136 125.750 C 191.979 121.415, 190.091 120.779, 187.684 124.250 L 186.124 126.500 183.639 123.500 C 180.948 120.251, 180.358 120.711, 179.793 126.500 C 179.593 128.550, 178.983 129.462, 177.869 129.381 C 176.513 129.282, 176.629 129.837, 178.558 132.680 C 181.053 136.358, 182.423 140.164, 183.531 146.500 L 184.231 150.500 185.501 146.280 C 186.199 143.960, 187.936 140.677, 189.359 138.985 C 190.782 137.294, 192.480 134.130, 193.132 131.955 C 193.783 129.780, 194.642 128, 195.040 128 C 195.907 128, 198.002 135.939, 197.994 139.193 C 197.984 143.374, 196.074 148.479, 194.049 149.741 C 192.229 150.874, 192.128 150.788, 192.883 148.741 C 194.389 144.658, 195.038 138.142, 194.002 137.501 C 193.451 137.161, 193 137.829, 193 138.987 C 193 140.144, 191.875 143.205, 190.500 145.788 C 189.125 148.371, 188.018 151.163, 188.039 151.992 C 188.061 152.821, 188.787 151.925, 189.652 150 C 190.518 148.075, 191.430 147.038, 191.678 147.695 C 191.927 148.352, 191.614 149.853, 190.984 151.030 C 189.259 154.253, 190.344 154.385, 194.633 151.474 C 196.760 150.031, 199.625 148.620, 201 148.338 C 202.569 148.017, 204.157 146.530, 205.264 144.346 C 206.233 142.431, 206.571 141.147, 206.014 141.492 C 205.456 141.836, 205 141.204, 205 140.085 C 205 138.191, 210.363 134.277, 212.250 134.794 C 212.662 134.907, 213 134.299, 213 133.443 C 213 132.034, 212.789 132.034, 210.777 133.443 C 207.055 136.050, 205.701 135.479, 207.474 132.050 C 208.313 130.427, 209 128.852, 209 128.550 C 209 127.619, 204.978 127.941, 202.934 129.035 C 200.269 130.462, 200.449 128.752, 203.314 125.421 C 205.287 123.127, 205.940 122.897, 207.742 123.862 C 209.934 125.035, 212.960 124.434, 214.235 122.573 C 215.836 120.234, 214.983 116.949, 212.477 115.808 C 210.344 114.836, 209.500 114.994, 207.017 116.829 C 205.402 118.023, 203.893 119, 203.663 119 C 202.326 119, 204.651 109.040, 206.582 106.496 C 207.837 104.843, 209.333 102.256, 209.907 100.746 C 210.860 98.237, 213.726 97.059, 215.226 98.559 C 215.918 99.251, 209.523 108.879, 207.198 110.646 C 206.264 111.356, 206.028 111.951, 206.674 111.968 C 208.735 112.024, 217.444 99.528, 216.458 97.931 C 216.141 97.419, 214.817 97, 213.514 97 C 212.100 97, 210.962 96.295, 210.689 95.250 C 210.351 93.955, 210.202 94.096, 210.116 95.790 C 209.980 98.478, 206.542 105.547, 204.867 106.582 C 203.690 107.309, 204.037 101.710, 205.523 96 C 205.985 94.226, 205.890 93.901, 205.196 94.882 C 204.414 95.987, 204.079 95.824, 203.520 94.064 C 203.024 92.500, 203.610 90.728, 205.547 87.932 C 207.046 85.769, 208.636 84, 209.081 84 C 209.526 84, 210.059 86.137, 210.265 88.750 C 210.609 93.111, 210.654 92.995, 210.820 87.333 C 210.942 83.154, 210.597 81.032, 209.750 80.749 C 208.925 80.473, 208.512 78.235, 208.535 74.165 C 208.559 69.982, 208.180 68, 207.358 68 C 205.739 68, 201.990 72.853, 202.039 74.885 C 202.061 75.773, 202.714 75.037, 203.491 73.250 C 205.363 68.943, 206.690 69.138, 206.891 73.750 C 206.980 75.813, 207.154 78.806, 207.277 80.402 C 207.601 84.619, 205.662 84.612, 203.649 80.390 C 202.042 77.021, 201.808 76.880, 200.586 78.551 C 199.325 80.276, 199.211 80.262, 198.132 78.246 C 197.509 77.083, 197 74.977, 197 73.566 C 197 71.511, 197.487 71, 199.443 71 C 204.556 71, 206.222 63.596, 201.383 62.381 C 198.211 61.585, 195.925 62.569, 195.288 65.005 C 194.588 67.684, 193.385 67.517, 191.384 64.463 C 189.804 62.051, 189.827 61.813, 191.861 59.648 C 193.037 58.396, 194 56.699, 194 55.877 C 194 55.055, 194.661 53.509, 195.468 52.441 C 197.637 49.574, 197.348 49, 193.736 49 C 190.824 49, 190.230 48.488, 188.228 44.250 C 186.993 41.638, 185.987 38.712, 185.991 37.750 C 186.001 35.822, 184.488 35.401, 183.470 37.049 C 182.446 38.705, 180 36.117, 180 33.378 C 180 31.233, 179.567 31, 175.583 31 C 173.154 31, 171.017 30.644, 170.833 30.209 C 170.650 29.774, 168.347 27.979, 165.715 26.219 C 161.971 23.717, 160.810 23.331, 160.381 24.449 C 160.079 25.235, 160.354 26.693, 160.992 27.689 C 162.037 29.322, 162.097 29.328, 161.607 27.750 C 160.875 25.397, 162.734 25.537, 167 28.157 C 169.116 29.457, 169.983 30.485, 169.192 30.756 C 168.473 31.003, 166.906 30.372, 165.709 29.353 C 163.845 27.764, 163.728 27.750, 164.889 29.249 C 166.112 30.829, 165.966 30.976, 163.371 30.776 C 161.792 30.654, 160.050 30.196, 159.500 29.760 C 158.950 29.323, 156.925 27.946, 155 26.700 C 152.062 24.798, 151.420 23.718, 151 19.976 C 150.635 16.721, 150.015 15.426, 148.702 15.176 C 146.231 14.707, 143.760 16.974, 144.337 19.180 C 145.114 22.150, 142.481 21.311, 137.500 17 C 134.958 14.800, 132.118 13.002, 131.189 13.004 C 130.106 13.006, 130.627 13.695, 132.641 14.923 C 134.368 15.976, 136.088 17.333, 136.462 17.938 C 137.489 19.600, 147 24.184, 147 23.017 C 147 21.191, 148.739 21.941, 152.174 25.250 C 154.030 27.038, 156.437 29.036, 157.524 29.691 C 159.344 30.789, 159.264 30.885, 156.500 30.909 C 154.850 30.924, 152.626 30.276, 151.559 29.468 C 150.491 28.661, 148.648 28, 147.464 28 C 146.279 28, 144.495 27.100, 143.500 26 C 140.947 23.179, 138.919 23.493, 133.891 27.490 C 129.261 31.170, 123.233 32.442, 124.362 29.500 C 124.744 28.504, 124.323 28, 123.108 28 C 122.102 28, 119.529 26.823, 117.390 25.384 L 113.500 22.769 115.908 25.367 C 117.233 26.796, 119.145 28.229, 120.158 28.550 C 124.556 29.946, 121.307 31, 112.607 31 C 105.452 31, 103.085 30.664, 102.674 29.592 C 101.944 27.691, 106.425 26.622, 109.106 28.057 C 112.814 30.041, 112.587 27.876, 108.737 24.533 C 105.478 21.703, 105.177 21.098, 106.487 20.011 C 109.474 17.532, 107.793 16.673, 97.362 15.344 C 94.502 14.979, 92.946 14.194, 92.324 12.800 C 91.535 11.032, 91.270 10.969, 90.171 12.294 M 117.638 13.500 C 117.955 14.325, 119.403 14.986, 120.857 14.968 C 123.397 14.938, 123.424 14.879, 121.559 13.468 C 119.034 11.559, 116.900 11.576, 117.638 13.500 M 87.343 15.546 C 85.607 16.307, 83.291 18.186, 82.198 19.722 C 80.916 21.523, 78.202 23.197, 74.559 24.435 C 71.451 25.492, 67.780 27.401, 66.402 28.678 L 63.897 31 66.389 31 C 67.760 31, 69.160 30.550, 69.500 30 C 69.840 29.450, 72.143 29, 74.618 29 C 77.121 29, 78.864 28.589, 78.546 28.075 C 78.232 27.566, 80.568 26.418, 83.737 25.524 C 91.866 23.231, 91.953 23.173, 87.500 23.023 L 83.500 22.888 88 21 C 90.475 19.961, 93.625 19.133, 95 19.158 C 97.045 19.196, 96.900 19.347, 94.199 19.986 C 90.149 20.946, 88.910 22, 91.833 22 C 93.025 22, 94 22.402, 94 22.893 C 94 24.007, 91.510 25, 88.718 25 C 87.103 25, 86.877 25.277, 87.768 26.168 C 89.129 27.529, 95.158 26, 98.495 23.447 C 100.207 22.138, 100.278 21.787, 98.995 20.976 C 98.173 20.456, 97.973 20.024, 98.550 20.015 C 99.128 20.007, 100.065 20.465, 100.633 21.033 C 101.754 22.154, 105 21.326, 105 19.919 C 105 18.530, 99.358 16, 96.261 16 C 94.700 16, 91.640 16.891, 89.461 17.980 L 85.500 19.961 89 17.007 C 92.790 13.809, 92.298 13.375, 87.343 15.546 M 116 16.858 L 111.500 17.517 117 20.807 C 121.642 23.585, 123.244 24.035, 127.272 23.694 C 129.897 23.471, 132.359 22.975, 132.743 22.590 C 133.967 21.367, 130.616 19.927, 127.320 20.260 C 125.571 20.437, 124.360 20.226, 124.629 19.791 C 124.898 19.356, 126.756 19, 128.759 19 C 131.487 19, 132.114 18.714, 131.259 17.859 C 129.870 16.470, 122.120 15.961, 116 16.858 M 146.159 17.309 C 144.800 18.946, 145.614 20, 148.240 20 C 149.482 20, 150.034 19.419, 149.823 18.333 C 149.393 16.114, 147.573 15.605, 146.159 17.309 M 66.064 21.423 C 64.512 23.293, 65.497 25, 68.129 25 C 69.624 25, 70.057 24.443, 69.820 22.828 C 69.420 20.115, 67.688 19.466, 66.064 21.423 M 97.306 25.468 C 94.535 27.906, 94.528 27.937, 96.807 27.968 C 98.076 27.986, 101.180 27.480, 103.704 26.844 C 107.887 25.791, 108.131 25.569, 106.456 24.344 C 103.687 22.319, 100.431 22.719, 97.306 25.468 M 135 28 L 131.500 30.946 134.750 30.973 C 137.014 30.992, 138 30.535, 138 29.469 C 138 28.626, 138.675 27.678, 139.500 27.362 C 140.325 27.045, 141 26.384, 141 25.893 C 141 24.186, 138.479 25.071, 135 28 M 54.991 29.511 C 53.986 30.722, 54.047 31, 55.319 31 C 57.185 31, 58.406 29.369, 57.130 28.580 C 56.633 28.273, 55.671 28.692, 54.991 29.511 M 79.991 29.511 C 78.962 30.750, 79.111 31, 80.878 31 C 82.045 31, 83 30.577, 83 30.059 C 83 28.327, 81.240 28.006, 79.991 29.511 M 84.673 29.590 C 85.295 31.212, 88 31.517, 88 29.965 C 88 29.251, 88.601 29.251, 89.934 29.965 C 92.545 31.362, 101.762 31.362, 100.365 29.965 C 99.796 29.396, 95.911 28.762, 91.731 28.555 C 85.499 28.247, 84.229 28.433, 84.673 29.590 M 139.688 28.646 C 138.383 29.950, 139.006 31, 141.083 31 C 142.247 31, 142.992 30.476, 142.771 29.813 C 142.284 28.351, 140.614 27.719, 139.688 28.646 M 145 30 C 145 30.550, 146.377 31, 148.059 31 C 149.844 31, 150.861 30.583, 150.500 30 C 150.160 29.450, 148.784 29, 147.441 29 C 146.098 29, 145 29.450, 145 30 M 72.762 30.707 C 74.006 30.946, 75.806 30.937, 76.762 30.687 C 77.718 30.437, 76.700 30.241, 74.500 30.252 C 72.300 30.263, 71.518 30.468, 72.762 30.707 M 180.079 39.583 C 180.127 40.748, 180.364 40.985, 180.683 40.188 C 180.972 39.466, 180.936 38.603, 180.604 38.271 C 180.272 37.939, 180.036 38.529, 180.079 39.583 M 40 44.732 C 37.904 49.471, 37.621 55.932, 39.500 56.167 C 40.050 56.235, 40.771 54.627, 41.101 52.593 C 41.432 50.558, 42.702 47.541, 43.925 45.888 C 45.695 43.494, 45.904 42.589, 44.951 41.441 C 43.049 39.149, 42.229 39.693, 40 44.732 M 181.617 41.555 C 181.289 42.410, 181.983 44.411, 183.159 46.001 C 184.335 47.592, 185.576 50.605, 185.916 52.697 C 186.256 54.789, 186.976 56.500, 187.517 56.500 C 189.405 56.500, 189.097 49.473, 187 44.732 C 184.891 39.964, 182.720 38.683, 181.617 41.555 M 180 48.106 C 180 49.959, 181.008 52.409, 182.500 54.182 L 185 57.153 184.996 54.327 C 184.993 51.753, 181.748 45, 180.515 45 C 180.232 45, 180 46.398, 180 48.106 M 44.073 48.635 C 42.933 50.084, 42.002 52.672, 42.005 54.385 L 42.010 57.500 44.469 54.500 C 45.821 52.850, 46.944 50.263, 46.964 48.750 C 47.009 45.342, 46.673 45.329, 44.073 48.635 M 32 50.871 C 32 51.427, 32.450 52.160, 33 52.500 C 33.550 52.840, 34 53.905, 34 54.868 C 34 55.830, 34.655 57.491, 35.455 58.559 C 36.786 60.336, 36.892 60.078, 36.705 55.500 C 36.527 51.150, 36.207 50.458, 34.250 50.180 C 33.013 50.005, 32 50.316, 32 50.871 M 190.670 50.750 C 190.423 51.163, 190.202 53.525, 190.178 56 C 190.139 60.138, 190.250 60.344, 191.568 58.559 C 192.355 57.491, 193 55.830, 193 54.868 C 193 53.905, 193.450 52.840, 194 52.500 C 194.550 52.160, 195 51.459, 195 50.941 C 195 49.827, 191.319 49.665, 190.670 50.750 M 96.789 51.543 C 96.397 51.935, 93.472 52.536, 90.289 52.878 L 84.500 53.500 84.227 70.049 L 83.953 86.598 90.727 86.183 C 94.452 85.955, 97.623 85.659, 97.774 85.526 C 97.925 85.394, 97.925 77.533, 97.774 68.057 C 97.623 58.582, 97.180 51.151, 96.789 51.543 M 68 68.631 C 68 80.905, 68.316 85.160, 69.250 85.447 C 69.938 85.658, 73.200 86.074, 76.500 86.370 L 82.500 86.909 82.500 70.545 C 82.500 61.545, 82.225 53.903, 81.889 53.562 C 81.552 53.222, 78.290 52.776, 74.639 52.571 L 68 52.199 68 68.631 M 103 70.922 C 103 92.721, 104.055 90.671, 92.500 91.325 C 89.200 91.512, 90.550 91.627, 95.500 91.582 L 104.500 91.500 104.810 87.750 C 105.080 84.490, 105.450 84, 107.644 84 C 110.727 84, 110.333 81.646, 107.172 81.180 C 105.119 80.878, 105 80.345, 105 71.430 C 105 62.762, 105.157 62, 106.941 62 C 109.949 62, 110.383 60.134, 107.541 59.421 C 105.568 58.926, 105 58.150, 105 55.951 C 105 54.393, 104.550 52.840, 104 52.500 C 103.347 52.096, 103 58.483, 103 70.922 M 122.750 52.582 C 122.338 52.995, 122 54.573, 122 56.087 C 122 58.334, 121.448 58.962, 119 59.500 C 117.350 59.862, 116 60.517, 116 60.954 C 116 61.392, 117.350 62.020, 119 62.350 L 122 62.950 122 71.500 C 122 79.699, 121.898 80.088, 119.500 81 C 116.391 82.182, 116.267 83.757, 119.250 84.180 C 120.973 84.425, 121.617 85.320, 122 88 L 122.500 91.500 131.334 91.790 C 137.263 91.985, 139.956 91.738, 139.525 91.040 C 139.171 90.468, 135.543 90, 131.463 90 L 124.043 90 123.772 70.915 C 123.622 60.419, 123.162 52.169, 122.750 52.582 M 128.226 68.704 L 128.500 85.500 135.198 85.795 L 141.896 86.089 142.198 71.574 C 142.610 51.778, 142.915 52.566, 134.684 52.204 L 127.951 51.908 128.226 68.704 M 145.295 52.797 C 144.445 53.337, 144.049 58.389, 143.951 69.951 L 143.812 86.340 150.650 86.092 C 154.412 85.956, 157.716 85.617, 157.994 85.339 C 158.273 85.062, 158.659 77.447, 158.853 68.417 L 159.206 52 152.853 52.015 C 149.359 52.024, 145.958 52.375, 145.295 52.797 M 62.527 54.250 C 62.302 54.938, 61.973 56.395, 61.797 57.489 C 61.621 58.582, 60.582 59.638, 59.489 59.836 C 55.841 60.493, 55.506 61.951, 58.848 62.620 L 62.072 63.264 61.786 72.382 C 61.514 81.046, 61.385 81.516, 59.192 81.827 C 56.373 82.227, 56.830 84.378, 59.828 84.820 C 61.554 85.073, 62 85.817, 62 88.439 C 62 91.475, 62.300 91.788, 65.750 92.358 C 71.532 93.314, 79.812 93.113, 80.500 92 C 80.892 91.365, 78.197 91, 73.118 91 C 68.718 91, 64.837 90.546, 64.494 89.990 C 64.151 89.435, 63.907 80.885, 63.951 70.990 C 64.025 54.628, 63.691 50.703, 62.527 54.250 M 65.750 53.576 C 64.437 54.902, 64.853 87.453, 66.200 88.800 C 67.664 90.264, 81 90.444, 81 89 C 81 88.167, 76.841 87.727, 68 87.626 C 66.740 87.612, 66.549 85.844, 66.805 76.555 C 67.189 62.660, 66.727 52.590, 65.750 53.576 M 100 69.382 C 100 79.303, 100.399 86.128, 101 86.500 C 101.651 86.902, 102 81.363, 102 70.618 C 102 60.697, 101.601 53.872, 101 53.500 C 100.349 53.098, 100 58.637, 100 69.382 M 160 69.441 C 160 79.323, 160.399 86.129, 161 86.500 C 161.652 86.903, 162 81.177, 162 70.059 C 162 59.353, 161.628 53, 161 53 C 160.374 53, 160 59.147, 160 69.441 M 162.772 71.674 L 162.500 90.500 154.755 90.578 C 150.495 90.622, 146.690 90.977, 146.298 91.369 C 145.906 91.760, 149.842 91.950, 155.043 91.790 L 164.500 91.500 165 88.042 C 165.372 85.467, 166.089 84.446, 167.809 84.042 C 169.079 83.744, 170.118 83.050, 170.118 82.500 C 170.118 81.950, 169.079 81.253, 167.809 80.951 C 165.636 80.434, 165.495 79.914, 165.417 72.136 L 165.335 63.869 168.417 62.610 L 171.500 61.351 168.500 59.906 C 166.405 58.897, 165.500 57.739, 165.500 56.069 C 165.500 54.753, 164.948 53.490, 164.272 53.262 C 163.337 52.947, 162.980 57.333, 162.772 71.674 M 125 70.559 C 125 81.344, 125.349 86.903, 126 86.500 C 126.599 86.130, 127 79.490, 127 69.941 C 127 59.980, 126.625 54, 126 54 C 125.374 54, 125 60.186, 125 70.559 M 180 57.333 C 180 59.064, 180.539 60, 181.535 60 C 182.807 60, 182.870 59.615, 181.900 57.750 C 180.178 54.441, 180 54.402, 180 57.333 M 45.531 57.293 C 45.103 58.279, 45.034 59.367, 45.376 59.710 C 46.392 60.725, 47.211 59.299, 46.743 57.328 C 46.329 55.581, 46.275 55.580, 45.531 57.293 M 37.257 62.791 C 33.561 70.552, 33.314 70.800, 31.563 68.495 C 30.156 66.645, 30.089 66.832, 30.636 71.081 C 31.050 74.300, 30.747 76.589, 29.616 78.775 C 28.412 81.103, 28.306 82.071, 29.192 82.619 C 29.883 83.046, 30.819 82.549, 31.438 81.425 C 32.022 80.366, 34.290 77.733, 36.477 75.574 C 39.566 72.525, 39.973 71.774, 38.302 72.211 C 35.869 72.847, 36.040 71.796, 39.262 66.301 C 40.933 63.450, 41.417 63.208, 43.707 64.079 C 45.121 64.616, 46.539 64.794, 46.860 64.474 C 47.798 63.535, 44.820 62.132, 43.204 62.752 C 42.241 63.121, 41.890 62.831, 42.194 61.918 C 42.587 60.739, 40.855 57.909, 39.821 58.041 C 39.645 58.064, 38.491 60.201, 37.257 62.791 M 185.360 59.379 C 184.483 60.380, 184.998 61.932, 187.587 66.090 C 191.538 72.437, 191.662 72.986, 188.982 72.285 C 187.618 71.928, 188.670 73.546, 192.232 77.281 C 197.879 83.202, 199.989 83.814, 197.384 78.775 C 196.252 76.586, 195.955 74.343, 196.385 71.211 C 196.932 67.219, 196.830 66.896, 195.403 68.080 C 194.046 69.207, 193.534 69.041, 191.926 66.951 C 190.890 65.603, 189.547 63.038, 188.943 61.250 C 187.750 57.720, 187.106 57.383, 185.360 59.379 M 180.257 63.232 C 180.155 64.588, 180.570 64.995, 181.637 64.586 C 182.477 64.264, 183.603 64, 184.141 64 C 185.691 64, 184.218 62.290, 182.217 61.767 C 180.954 61.437, 180.359 61.881, 180.257 63.232 M 70 62.941 C 70 63.459, 70.372 64.112, 70.827 64.393 C 71.282 64.674, 72.478 67.626, 73.486 70.952 C 74.493 74.279, 75.683 77, 76.130 77 C 76.578 77, 77.667 74.412, 78.550 71.250 C 79.434 68.088, 80.377 64.713, 80.646 63.750 C 80.915 62.788, 80.712 62, 80.196 62 C 79.680 62, 78.959 64.250, 78.594 67 C 78.230 69.750, 77.569 72, 77.126 72 C 75.949 72, 74 67.296, 74 64.453 C 74 62.667, 73.456 62, 72 62 C 70.900 62, 70 62.423, 70 62.941 M 86.500 69.248 L 86.500 76.500 89.500 77.049 C 93.341 77.753, 95 77.193, 95 75.193 C 95 73.954, 94.733 73.867, 93.800 74.800 C 93.140 75.460, 91.761 76, 90.737 76 C 89.237 76, 88.934 75.366, 89.187 72.750 C 89.423 70.298, 89.930 69.572, 91.250 69.794 C 92.213 69.955, 93 69.618, 93 69.044 C 93 68.470, 92.069 68, 90.930 68 C 89.355 68, 88.938 67.463, 89.184 65.750 C 89.425 64.069, 90.089 63.563, 91.811 63.749 C 93.141 63.892, 93.855 63.574, 93.499 62.999 C 93.160 62.449, 91.446 61.999, 89.691 61.998 L 86.500 61.997 86.500 69.248 M 131.500 69.455 C 131.500 75.658, 131.780 77, 133.077 77 C 134.260 77, 134.544 76.251, 134.213 74 C 133.650 70.165, 135.019 70.168, 137.203 74.006 C 138.140 75.653, 139.409 77, 140.022 77 C 140.635 77, 140.158 75.626, 138.962 73.946 C 136.914 71.070, 136.885 70.784, 138.474 69.029 C 139.402 68.004, 140.012 66.115, 139.830 64.832 C 139.556 62.894, 138.824 62.450, 135.500 62.205 L 131.500 61.909 131.500 69.455 M 148.807 68.002 C 149.089 71.906, 148.806 74.529, 147.998 75.502 C 146.954 76.761, 147.134 77, 149.128 77 C 151.413 77, 151.500 76.726, 151.500 69.500 C 151.500 63.364, 151.216 62, 149.936 62 C 148.643 62, 148.448 63.040, 148.807 68.002 M 25.200 64.200 C 22.891 66.509, 24.344 70, 27.614 70 C 28.762 70, 29.683 65.392, 28.762 64.250 C 27.503 62.688, 26.723 62.677, 25.200 64.200 M 134.688 63.646 C 134.309 64.024, 134 65.416, 134 66.740 C 134 68.494, 134.475 69.055, 135.750 68.810 C 136.838 68.600, 137.500 67.563, 137.500 66.070 C 137.500 63.664, 135.980 62.354, 134.688 63.646 M 198.238 64.250 C 197.090 65.674, 198.365 70, 199.933 70 C 200.481 70, 201.395 69.131, 201.963 68.069 C 202.743 66.612, 202.611 65.754, 201.427 64.569 C 199.536 62.679, 199.506 62.676, 198.238 64.250 M 39.535 67.587 C 37.520 70.661, 38.291 71.924, 41.108 70.165 C 42.217 69.472, 43.997 69.182, 45.063 69.520 C 46.527 69.985, 47 69.659, 47 68.184 C 47 67.006, 46.108 65.994, 44.750 65.630 C 41.449 64.746, 41.380 64.772, 39.535 67.587 M 181.250 65.662 C 180.563 65.940, 180 67.015, 180 68.052 C 180 69.353, 180.486 69.751, 181.567 69.336 C 182.430 69.005, 184.229 69.320, 185.566 70.035 C 188.787 71.759, 189.553 70.773, 187.465 67.587 C 185.850 65.123, 184.004 64.551, 181.250 65.662 M 20.090 72.167 C 20.813 73.519, 20.777 75.146, 19.970 77.590 C 17.831 84.072, 20.537 86.291, 23.360 80.371 C 24.959 77.019, 25.192 76.880, 26.414 78.551 C 27.675 80.276, 27.789 80.262, 28.868 78.246 C 29.491 77.083, 30 74.977, 30 73.566 C 30 71.604, 29.470 70.974, 27.750 70.890 C 26.512 70.830, 24.050 70.658, 22.278 70.509 C 19.374 70.264, 19.158 70.427, 20.090 72.167 M 42.011 71.487 C 40.543 73.256, 41.355 76, 43.346 76 C 44.121 76, 45.276 75.373, 45.912 74.606 C 46.805 73.530, 46.703 72.846, 45.463 71.606 C 43.505 69.648, 43.536 69.649, 42.011 71.487 M 181.455 71.429 C 179.592 72.809, 179.583 72.962, 181.250 74.653 C 182.903 76.330, 183.095 76.333, 184.714 74.714 C 186.243 73.186, 186.265 72.837, 184.919 71.490 C 183.596 70.168, 183.166 70.160, 181.455 71.429 M 23.086 71.500 C 23.190 73.394, 24.856 76.584, 24.914 75 C 24.945 74.175, 24.533 72.825, 24 72 C 23.467 71.175, 23.055 70.950, 23.086 71.500 M 37.229 75.669 C 36.012 76.159, 33 81.113, 33 82.625 C 33 83.023, 34.013 82.426, 35.250 81.299 C 36.487 80.172, 38.525 78.721, 39.778 78.075 C 43.299 76.258, 41.047 74.133, 37.229 75.669 M 186 76.500 C 186 77.325, 186.415 78, 186.923 78 C 187.431 78, 189.231 79.165, 190.923 80.589 C 194.451 83.557, 194.971 82.172, 191.932 77.904 C 189.752 74.843, 186 73.955, 186 76.500 M 44.250 77.084 C 43.013 77.553, 42 78.400, 42 78.968 C 42 79.535, 41.184 80, 40.187 80 C 37.835 80, 33 85.057, 33 87.517 C 33 89.051, 33.592 88.747, 36.027 85.962 L 39.054 82.500 37.031 86 C 34.950 89.600, 34.430 92.024, 35.750 91.968 C 37.827 91.880, 40.386 88.643, 41.038 85.278 C 41.753 81.588, 41.773 81.574, 41.885 84.656 C 41.984 87.375, 42.299 87.735, 44.157 87.249 C 46.114 86.737, 46.255 86.976, 45.682 89.842 C 45.206 92.219, 45.407 93, 46.494 93 C 47.684 93, 47.831 91.554, 47.329 84.750 C 46.995 80.213, 46.672 76.440, 46.611 76.367 C 46.550 76.293, 45.487 76.616, 44.250 77.084 M 180 78.447 C 180 79.690, 179.711 83.473, 179.358 86.853 C 178.808 92.114, 178.948 93, 180.333 93 C 181.614 93, 181.819 92.345, 181.318 89.842 C 180.745 86.976, 180.886 86.737, 182.843 87.249 C 184.701 87.735, 185.016 87.375, 185.115 84.656 C 185.227 81.574, 185.247 81.588, 185.962 85.278 C 186.614 88.643, 189.173 91.880, 191.250 91.968 C 192.574 92.024, 192.048 89.596, 189.958 86 L 187.923 82.500 190.413 85.250 C 193.363 88.507, 194 88.653, 194 86.073 C 194 84.030, 189.630 80, 187.415 80 C 186.691 80, 185.740 79.397, 185.300 78.659 C 184.860 77.922, 183.488 77.064, 182.250 76.753 C 180.414 76.291, 180 76.603, 180 78.447 M 23.452 82.433 C 22.212 84.325, 22.104 85.325, 22.964 86.933 C 24.401 89.618, 25.372 89.542, 26.933 86.625 C 27.901 84.817, 27.933 83.743, 27.067 82.125 C 25.633 79.445, 25.396 79.466, 23.452 82.433 M 200.001 81.499 C 199.009 82.694, 199.009 83.607, 200 85.999 C 201.444 89.485, 202.517 89.771, 203.969 87.057 C 204.704 85.684, 204.668 84.365, 203.844 82.557 C 202.503 79.614, 201.739 79.404, 200.001 81.499 M 28.888 86 C 25.367 90.719, 24 95.188, 24 101.983 C 24 110.110, 25.231 110.246, 27.224 102.339 C 28.172 98.578, 28.730 97.042, 28.464 98.927 C 27.911 102.835, 27.958 102.814, 31.507 97.585 C 33.695 94.360, 33.959 93.292, 33.104 91.111 C 32.541 89.675, 31.950 87.150, 31.790 85.500 L 31.500 82.500 28.888 86 M 195 85.798 C 195 87.507, 194.512 89.976, 193.916 91.285 C 193.009 93.275, 193.264 94.301, 195.473 97.556 C 199.044 102.818, 199.089 102.838, 198.540 98.927 C 198.275 97.042, 198.849 98.559, 199.815 102.297 C 200.782 106.035, 201.894 108.773, 202.286 108.380 C 202.679 107.988, 203 104.734, 203 101.149 C 203 94.212, 200.700 87.849, 196.975 84.477 C 195.049 82.734, 195 82.767, 195 85.798 M 90.500 87.942 C 86.644 88.352, 85.074 88.853, 86.105 89.342 C 88.351 90.407, 99.969 89.716, 100.260 88.500 C 100.558 87.258, 98.193 87.122, 90.500 87.942 M 126.551 87.918 C 126.234 88.431, 129.181 88.992, 133.242 89.191 C 141.329 89.588, 141.468 89.567, 140.541 88.067 C 139.737 86.765, 127.345 86.633, 126.551 87.918 M 145.801 88.125 C 143.950 89.266, 146.416 89.508, 154 88.931 C 158.125 88.617, 161.050 88.218, 160.500 88.043 C 158.590 87.438, 146.809 87.504, 145.801 88.125 M 38.976 91.752 C 33.680 95.455, 27.785 104.122, 29.440 105.771 C 30.138 106.466, 31.446 105.145, 35.971 99.172 C 37.630 96.983, 37.526 97.550, 35.395 102.314 C 33.965 105.512, 33.103 108.436, 33.480 108.813 C 34.702 110.035, 39.870 103.198, 41.056 98.789 C 41.690 96.430, 42.871 93.221, 43.679 91.657 C 44.486 90.093, 44.965 88.632, 44.742 88.409 C 44.519 88.186, 41.924 89.690, 38.976 91.752 M 182.536 89.750 C 182.948 90.713, 184.335 94.403, 185.616 97.951 C 187.914 104.309, 192.250 110.084, 193.664 108.669 C 194.063 108.270, 193.165 105.369, 191.669 102.222 C 190.173 99.075, 189.523 97.202, 190.224 98.060 C 190.926 98.917, 192.714 101.154, 194.197 103.029 C 197.714 107.475, 198.685 106.337, 196.189 100.695 C 194.854 97.676, 192.444 94.890, 188.765 92.112 C 182.811 87.617, 181.391 87.079, 182.536 89.750 M 142.400 90.400 C 142.034 91.354, 142.229 92.629, 142.834 93.234 C 143.634 94.034, 144.116 93.861, 144.600 92.600 C 144.966 91.646, 144.771 90.371, 144.166 89.766 C 143.366 88.966, 142.884 89.139, 142.400 90.400 M 82.688 90.646 C 81.314 92.020, 82.026 94.142, 83.750 93.810 C 84.713 93.624, 85.500 92.841, 85.500 92.070 C 85.500 90.491, 83.736 89.598, 82.688 90.646 M 44.262 94.818 C 43.581 95.250, 42.369 97.830, 41.569 100.552 L 40.115 105.500 44.087 101.088 C 47.863 96.894, 48.526 94.989, 46.438 94.329 C 45.922 94.166, 44.943 94.386, 44.262 94.818 M 46.520 99.938 C 46.181 101.005, 44.335 103.255, 42.417 104.938 C 39.427 107.564, 39.223 108, 40.987 108 C 42.209 108, 43.504 109.013, 44.180 110.496 C 45.748 113.938, 42.769 117.404, 38.906 116.631 C 37.108 116.272, 35.587 116.737, 34.133 118.091 C 31.619 120.433, 31.448 122.713, 33.494 126.636 L 34.988 129.500 34.994 125.750 C 35.001 121.218, 37.235 120.662, 39.334 124.669 L 40.733 127.338 42.481 124.669 C 44.976 120.861, 46.820 121.285, 47.190 125.750 C 47.498 129.479, 48.056 129.841, 52 128.869 C 53.230 128.566, 53.552 130.053, 53.787 137.129 C 54.023 144.202, 54.428 146.078, 56.037 147.534 C 57.928 149.245, 58 149.233, 58 147.212 C 58 146.058, 58.992 144.419, 60.204 143.570 C 62.081 142.255, 62.710 142.227, 64.454 143.383 C 68.223 145.881, 67.163 151, 62.878 151 C 61.845 151, 61 151.675, 61 152.500 C 61 153.325, 61.402 154, 61.894 154 C 62.386 154, 64.186 155.306, 65.894 156.901 C 69.725 160.479, 69.980 163.716, 66.500 164.589 C 63.832 165.259, 63.051 167, 65.418 167 C 66.198 167, 67.548 167.273, 68.418 167.607 C 69.611 168.065, 70 167.573, 70 165.607 C 70 162.700, 70.291 162.550, 73.066 164.035 C 74.806 164.966, 75 164.721, 75 161.594 C 75 159.682, 75.448 157.841, 75.996 157.503 C 76.979 156.895, 82 161.556, 82 163.076 C 82 163.508, 82.977 164.005, 84.172 164.180 C 85.366 164.356, 86.529 165.063, 86.755 165.751 C 87.021 166.558, 86.585 166.778, 85.527 166.372 C 84.111 165.829, 83.928 166.476, 84.193 171.112 C 84.431 175.269, 84.893 176.556, 86.239 176.812 C 87.700 177.090, 87.882 176.610, 87.378 173.821 C 86.794 170.589, 86.821 170.557, 88.376 172.650 C 89.255 173.833, 90.418 175.970, 90.962 177.400 C 92.025 180.195, 95 180.989, 95 178.478 C 95 177.640, 93.106 174.828, 90.792 172.228 L 86.584 167.500 91.156 171.825 C 93.947 174.464, 96.464 176.023, 97.614 175.825 C 98.926 175.599, 99.956 176.482, 101 178.729 C 102.105 181.108, 103.368 182.127, 105.797 182.599 C 107.610 182.952, 109.295 183.039, 109.541 182.793 C 109.787 182.546, 106.728 180.133, 102.744 177.430 C 98.760 174.727, 90.517 167.562, 84.426 161.508 C 67.197 144.382, 56.267 126.356, 50.856 106.140 C 48.648 97.889, 47.631 96.435, 46.520 99.938 M 27.035 109.357 C 27.008 111.531, 26.626 112.070, 25.435 111.613 C 24.294 111.176, 24.008 111.486, 24.381 112.756 C 24.663 113.715, 25.201 116.235, 25.578 118.355 C 26.242 122.100, 26.198 122.176, 24.045 121.024 C 20.549 119.153, 20.467 120.621, 23.878 124.032 C 25.595 125.749, 27 127.993, 27 129.018 C 27 130.043, 27.384 131.119, 27.854 131.410 C 29.158 132.215, 31 127.365, 31 123.127 C 31 120.390, 31.689 118.702, 33.500 117 C 34.875 115.708, 36 114.280, 36 113.826 C 36 112.334, 34.039 112.961, 31.848 115.152 L 29.696 117.304 30.295 112.902 C 30.624 110.481, 30.633 109.131, 30.313 109.901 C 29.885 110.935, 29.384 110.673, 28.402 108.901 L 27.071 106.500 27.035 109.357 M 198.618 108.882 C 197.995 110.657, 197.572 110.925, 196.959 109.934 C 196.497 109.186, 196.372 110.551, 196.675 113.052 C 197.199 117.390, 197.171 117.444, 195.549 115.250 C 194.635 114.013, 193.237 113, 192.443 113 C 190.372 113, 190.652 113.948, 193.500 116.588 C 195.364 118.315, 196 119.922, 196 122.905 C 196 127.328, 197.814 132.233, 199.146 131.410 C 199.616 131.119, 200 129.974, 200 128.864 C 200 127.754, 201.370 125.476, 203.045 123.801 C 206.362 120.484, 206.381 119.191, 203.086 120.954 C 200.696 122.233, 200.624 121.893, 201.893 115.339 C 202.515 112.130, 202.407 111.290, 201.423 111.668 C 200.615 111.978, 200.021 111.122, 199.801 109.329 C 199.457 106.520, 199.449 106.517, 198.618 108.882 M 37.709 109.624 C 35.424 111.910, 38.414 116.546, 41.427 115.390 C 43.877 114.450, 43.115 109.588, 40.459 109.208 C 39.336 109.047, 38.099 109.235, 37.709 109.624 M 184.362 110.500 C 183.484 112.787, 184.713 115, 186.862 115 C 189.227 115, 190.441 112.237, 188.895 110.373 C 187.390 108.560, 185.081 108.625, 184.362 110.500 M 92.551 110.778 C 92.026 111.311, 92.978 143.155, 93.546 144.074 C 93.860 144.583, 98.141 145, 103.059 145 L 112 145 112 138.059 C 112 134.241, 111.550 130.840, 111 130.500 C 110.060 129.919, 109.843 130.448, 109.593 133.918 C 109.537 134.698, 108.859 135.547, 108.086 135.805 C 107.062 136.146, 106.879 135.762, 107.412 134.386 C 109.292 129.534, 112.083 115.467, 111.571 113.426 C 111.034 111.288, 110.414 111.121, 101.911 110.821 C 96.913 110.644, 92.701 110.625, 92.551 110.778 M 122.500 110.939 L 113.500 111.500 113.185 114.767 C 112.871 118.034, 116.465 131.370, 118.308 133.774 C 119.565 135.414, 118.745 136.223, 116.643 135.417 C 115.739 135.070, 115 133.961, 115 132.952 C 115 131.943, 114.550 130.840, 114 130.500 C 113.366 130.108, 113 132.746, 113 137.710 L 113 145.539 120.750 145.229 C 134.277 144.688, 133 146.590, 133 126.981 C 133 117.641, 132.662 110.085, 132.250 110.189 C 131.838 110.293, 127.450 110.630, 122.500 110.939 M 191 110.558 C 191 110.763, 191.900 111.411, 193 112 C 194.105 112.591, 195 112.659, 195 112.152 C 195 111.647, 194.100 110.998, 193 110.710 C 191.900 110.423, 191 110.354, 191 110.558 M 32 111.969 C 32 112.501, 32.675 112.678, 33.500 112.362 C 34.325 112.045, 35 111.609, 35 111.393 C 35 111.177, 34.325 111, 33.500 111 C 32.675 111, 32 111.436, 32 111.969 M 86.667 111.667 C 86.300 112.033, 86 113.620, 86 115.192 C 86 117.568, 85.494 118.151, 83 118.650 C 80.023 119.245, 78.852 120.894, 81.250 121.115 C 81.938 121.179, 83.175 121.291, 84 121.365 C 85.219 121.475, 85.500 123.282, 85.500 131 L 85.500 140.500 82.750 140.816 C 79.120 141.234, 79.236 142.897, 82.946 143.639 C 85.481 144.146, 85.935 144.737, 86.196 147.864 L 86.500 151.500 94 151.382 C 98.125 151.317, 103.300 151.148, 105.500 151.007 C 109.393 150.757, 109.352 150.728, 104 149.894 C 100.975 149.423, 96.110 149.310, 93.189 149.642 L 87.879 150.246 88.189 130.622 C 88.360 119.828, 88.237 110.998, 87.917 110.999 C 87.596 110.999, 87.033 111.300, 86.667 111.667 M 137.815 129.134 C 137.989 139.201, 137.723 147.677, 137.217 148.183 C 136.716 148.684, 131.430 149.371, 125.471 149.708 C 118.119 150.125, 115.349 150.585, 116.853 151.141 C 118.071 151.592, 123.665 151.632, 129.284 151.230 L 139.500 150.500 140 147 C 140.387 144.290, 141.021 143.426, 142.808 143.173 C 145.627 142.773, 145.170 140.622, 142.172 140.180 C 140.120 139.879, 140 139.343, 140 130.500 C 140 121.850, 140.155 121.115, 142.040 120.820 C 144.651 120.410, 144.691 118.596, 142.098 118.188 C 140.701 117.968, 140.027 116.960, 139.809 114.765 C 139.639 113.054, 139.050 111.506, 138.500 111.326 C 137.850 111.112, 137.610 117.351, 137.815 129.134 M 89.750 112.581 C 89.338 112.995, 89 120.773, 89 129.867 C 89 141.164, 89.325 146.075, 90.026 145.374 C 90.666 144.734, 90.948 138.241, 90.776 128.089 C 90.624 119.146, 90.162 112.168, 89.750 112.581 M 134.204 128.875 L 134.500 145.750 125.500 145.929 C 112.694 146.183, 112.039 148, 124.753 148 L 134.906 148 135.947 144.250 C 137.911 137.180, 137.033 112, 134.824 112 C 134.295 112, 134.034 119.125, 134.204 128.875 M 13.362 118.500 C 12.486 120.781, 13.711 123, 15.846 123 C 18.733 123, 20.565 120.386, 19 118.500 C 18.315 117.675, 16.896 117, 15.846 117 C 14.796 117, 13.678 117.675, 13.362 118.500 M 207.591 118.625 C 206.742 120.835, 209.310 123.479, 211.493 122.641 C 212.508 122.252, 213.017 121.143, 212.820 119.754 C 212.421 116.946, 208.555 116.111, 207.591 118.625 M 96.511 120.832 C 95.676 123.009, 95.916 123.315, 97.456 122.036 C 98.257 121.372, 99.311 121.074, 99.798 121.375 C 100.777 121.980, 100.551 132.300, 99.522 133.965 C 98.812 135.113, 101.705 136.628, 102.703 135.630 C 103.043 135.291, 103.218 131.863, 103.093 128.012 C 102.899 122.012, 103.090 121.097, 104.433 121.613 C 105.381 121.977, 106 121.678, 106 120.857 C 106 119, 97.223 118.977, 96.511 120.832 M 122.200 121.200 C 120.127 123.273, 120.879 125.670, 124.461 128.402 C 126.630 130.057, 127.709 131.594, 127.354 132.521 C 126.612 134.453, 125.092 134.394, 122.829 132.345 C 121.109 130.789, 121 130.823, 121 132.905 C 121 134.854, 121.452 135.083, 124.750 134.810 C 127.978 134.543, 128.543 134.127, 128.809 131.824 C 129.043 129.799, 128.374 128.597, 126.059 126.886 C 122.258 124.076, 121.956 121.567, 125.500 122.245 C 127.176 122.565, 128 122.274, 128 121.361 C 128 119.678, 123.838 119.562, 122.200 121.200 M 35.594 128.001 C 34.989 132.566, 36.298 138.035, 37.668 136.665 C 39.312 135.022, 39.761 128.439, 38.409 125.824 C 37.606 124.271, 36.793 123, 36.603 123 C 36.413 123, 35.959 125.250, 35.594 128.001 M 188.760 125.574 C 187.536 127.884, 187.342 129.580, 187.978 132.403 C 189.081 137.293, 189.687 137.780, 191.023 134.850 C 191.747 133.259, 191.826 130.753, 191.255 127.470 L 190.389 122.500 188.760 125.574 M 42.697 126.340 C 40.554 129.610, 38.775 136.717, 39.516 139.049 C 40.425 141.914, 41.989 141.425, 42.070 138.250 C 42.109 136.738, 42.527 134.600, 43 133.500 C 43.704 131.861, 43.873 132.131, 43.936 135 L 44.012 138.500 45.479 135.689 C 46.469 133.789, 46.748 131.438, 46.337 128.439 C 45.648 123.415, 44.897 122.982, 42.697 126.340 M 180.611 128.029 C 180.175 130.758, 180.444 132.937, 181.443 134.779 L 182.920 137.500 183.030 134.500 C 183.126 131.908, 183.257 131.772, 184 133.500 C 184.473 134.600, 184.891 136.834, 184.930 138.464 C 184.995 141.210, 185.121 141.308, 186.638 139.791 C 188.059 138.370, 188.117 137.514, 187.073 133.326 C 185.810 128.259, 183.541 124, 182.105 124 C 181.638 124, 180.966 125.813, 180.611 128.029 M 110.651 126.468 C 110.341 127.275, 110.518 128.202, 111.044 128.527 C 111.570 128.852, 112 128.191, 112 127.059 C 112 124.644, 111.444 124.401, 110.651 126.468 M 29.992 133.035 C 28.657 138.600, 29.325 145.695, 31.459 148.613 C 33.572 151.502, 34.113 149.867, 32.995 143.972 C 32.311 140.368, 32.310 138.290, 32.990 137.610 C 33.670 136.930, 34 137.513, 34 139.396 C 34 140.933, 34.870 143.413, 35.934 144.907 C 36.997 146.400, 38.144 148.945, 38.483 150.561 C 39.063 153.326, 39.001 153.293, 37.436 150 C 36.522 148.075, 35.570 147.038, 35.322 147.695 C 35.073 148.352, 35.386 149.853, 36.016 151.030 C 37.492 153.788, 36.514 154.761, 34.256 152.781 C 30.906 149.844, 26.077 148, 21.733 148 L 17.366 148 24.067 155 C 27.753 158.850, 31.083 162, 31.467 162 C 31.851 162, 35.717 158.738, 40.057 154.750 C 44.995 150.213, 47.932 146.751, 47.904 145.500 L 47.859 143.500 47 145.500 L 46.141 147.500 46.092 145.500 C 46.040 143.337, 49.529 135, 50.486 135 C 50.808 135, 50.605 135.870, 50.035 136.934 C 49.466 137.998, 49 140.656, 49 142.841 C 49 146.320, 49.248 146.748, 51 146.290 C 52.787 145.823, 53 144.926, 53 137.883 C 53 131.744, 52.686 130, 51.582 130 C 49.406 130, 46.157 136.041, 44.313 143.516 L 42.649 150.257 41.431 146.132 C 40.761 143.863, 38.837 140.440, 37.156 138.525 C 35.474 136.610, 33.801 133.458, 33.438 131.521 C 32.521 126.633, 31.410 127.121, 29.992 133.035 M 20.481 131.250 C 20.874 132.488, 21.797 136.148, 22.531 139.383 C 23.977 145.752, 24.418 146.449, 27.609 147.410 C 29.674 148.032, 29.691 147.940, 28.414 143.016 C 27.697 140.249, 26.790 137.470, 26.400 136.839 C 25.962 136.130, 26.133 135.964, 26.845 136.405 C 28.119 137.192, 28.335 136.036, 27.379 133.545 C 26.819 132.087, 22.101 129, 20.433 129 C 20.067 129, 20.088 130.012, 20.481 131.250 M 201.635 131.073 C 199.078 133.084, 197.742 137.896, 200.155 136.405 C 200.899 135.944, 201.036 136.132, 200.541 136.934 C 200.118 137.618, 199.184 140.407, 198.465 143.131 C 197.178 148.013, 197.190 148.075, 199.329 147.430 C 202.588 146.447, 203.018 145.774, 204.469 139.383 C 205.203 136.148, 206.126 132.488, 206.519 131.250 C 207.449 128.322, 205.235 128.241, 201.635 131.073 M 176.965 136.934 C 177.534 137.998, 178.007 140.586, 178.015 142.684 C 178.026 145.283, 178.312 146.055, 178.914 145.105 C 179.624 143.984, 179.893 144.082, 180.283 145.605 C 180.737 147.379, 180.774 147.373, 180.862 145.500 C 180.962 143.371, 177.496 135, 176.514 135 C 176.192 135, 176.395 135.870, 176.965 136.934 M 14.086 137 C 14.055 137.825, 14.467 139.175, 15 140 C 16.181 141.828, 16.181 140.249, 15 137.500 C 14.433 136.181, 14.122 136.011, 14.086 137 M 60.247 145.153 C 58.845 146.555, 60.385 150, 62.413 150 C 64.402 150, 66.124 147.488, 65.410 145.627 C 64.686 143.738, 61.916 143.484, 60.247 145.153 M 161.359 145.507 C 161.011 146.414, 161.383 147.812, 162.186 148.614 C 164.187 150.615, 167.188 149.321, 166.803 146.623 C 166.424 143.965, 162.277 143.115, 161.359 145.507 M 90.991 146.511 C 89.909 147.814, 91.111 147.998, 100.628 147.985 C 107.716 147.975, 110.989 147.646, 110.031 147.040 C 109.223 146.529, 105.283 146.111, 101.275 146.111 C 97.268 146.111, 93.592 145.866, 93.108 145.567 C 92.623 145.267, 91.671 145.692, 90.991 146.511 M 48.973 148.642 C 47.613 149.545, 43.013 153.697, 38.750 157.868 C 30.214 166.222, 29.397 168.488, 33.455 172.545 C 37.968 177.059, 40.640 175.953, 48.490 166.318 C 56.612 156.349, 58.773 154.966, 62.459 157.381 C 65.633 159.461, 65.661 160.586, 62.579 162.218 C 61.247 162.923, 56.944 167.218, 53.016 171.762 C 46.889 178.850, 45.919 180.483, 46.188 183.262 C 46.455 186.039, 47.218 186.856, 51.539 189 C 54.311 190.375, 58.015 192.537, 59.770 193.804 C 65.234 197.750, 81.111 204.754, 90 207.140 C 101.947 210.347, 125.759 210.395, 137.198 207.235 C 146.354 204.706, 158.211 199.372, 166.500 194.054 C 169.800 191.937, 173.625 189.881, 175 189.484 C 181.720 187.547, 182.847 182.263, 177.814 176.285 C 171.329 168.582, 165.435 162.794, 163.169 161.903 C 160.319 160.784, 160.789 158.809, 164.191 157.606 C 168.662 156.026, 171.274 157.678, 178.317 166.539 C 184.561 174.396, 185.399 175.091, 188.285 174.808 C 191.884 174.456, 196.292 169.042, 195.306 166.185 C 194.511 163.886, 183.360 152.529, 178.766 149.341 C 175.143 146.827, 174.952 146.801, 172.395 148.477 L 169.759 150.204 171.779 152.223 C 173.905 154.349, 176.516 153.786, 175.600 151.399 C 175.304 150.629, 175.499 150, 176.031 150 C 177.385 150, 177.241 152.359, 175.800 153.800 C 175.140 154.460, 172.643 155, 170.250 155 C 165.408 155, 160.570 157.072, 159.618 159.553 C 158.851 161.552, 159.651 163, 161.524 163 C 162.297 163, 163.374 163.831, 163.918 164.847 C 165.116 167.085, 163.568 168.997, 160.550 169.007 C 159.422 169.010, 157.150 169.934, 155.500 171.059 C 144.108 178.826, 131.682 183, 117.797 183.722 C 101.530 184.568, 89.416 181.478, 75.148 172.844 C 71.654 170.730, 67.772 169, 66.520 169 C 63.322 169, 61.354 166.484, 63 164.500 C 63.685 163.675, 65.090 163, 66.122 163 C 68.799 163, 68.448 161.294, 65.077 157.923 C 62.549 155.396, 61.404 155, 56.612 155 C 52.224 155, 50.862 154.611, 50.070 153.131 C 49.520 152.104, 49.355 150.979, 49.702 150.631 C 50.871 149.463, 51.779 149.987, 51.639 151.750 C 51.450 154.128, 55.360 154.083, 55.819 151.702 C 56.207 149.689, 54.366 147, 52.600 147 C 51.965 147, 50.332 147.739, 48.973 148.642 M 111.404 149.389 C 110.752 151.088, 111.629 153, 113.059 153 C 114.320 153, 114.266 149.282, 112.993 148.496 C 112.439 148.153, 111.724 148.555, 111.404 149.389 M 59.079 151.583 C 59.127 152.748, 59.364 152.985, 59.683 152.188 C 59.972 151.466, 59.936 150.603, 59.604 150.271 C 59.272 149.939, 59.036 150.529, 59.079 151.583 M 166 152.059 C 166 153.191, 166.450 153.840, 167 153.500 C 167.550 153.160, 168 152.234, 168 151.441 C 168 150.648, 167.550 150, 167 150 C 166.450 150, 166 150.927, 166 152.059 M 29.932 155.360 C 31.819 157.345, 33.579 158.755, 33.842 158.491 C 34.502 157.831, 30.963 154.041, 28.511 152.782 C 27.272 152.145, 27.817 153.135, 29.932 155.360 M 195.766 154.917 C 193.971 156.522, 192.757 158.090, 193.069 158.402 C 193.381 158.715, 195.157 157.402, 197.015 155.485 C 201.115 151.254, 200.287 150.878, 195.766 154.917 M 52.029 164.157 C 47.523 169.549, 47.065 170.494, 48.342 171.770 C 49.618 173.047, 50.277 172.690, 53.650 168.891 C 55.767 166.506, 58.746 163.388, 60.269 161.963 C 63.246 159.177, 62.994 158, 59.420 158 C 57.891 158, 55.529 159.968, 52.029 164.157 M 164.250 158.662 C 162.560 159.344, 162.661 161, 164.392 161 C 165.158 161, 168.214 163.625, 171.184 166.832 C 175.538 171.535, 176.898 172.467, 178.204 171.643 C 179.626 170.746, 179.386 170.065, 176.236 166.061 C 170.159 158.335, 168.144 157.091, 164.250 158.662 M 76.249 165.973 C 76.038 170.991, 76.303 172.092, 77.933 172.964 C 80.801 174.499, 80.929 174.328, 79.846 170.406 C 79.301 168.430, 79.058 166.609, 79.307 166.360 C 79.556 166.111, 80.047 167.053, 80.399 168.453 C 81.177 171.554, 83 171.828, 83 168.844 C 83 166.731, 78.576 159.992, 77.199 160.008 C 76.815 160.013, 76.387 162.697, 76.249 165.973 M 146.010 163.484 C 144.826 165.400, 144.034 167.988, 144.250 169.234 C 144.630 171.425, 144.681 171.409, 145.797 168.750 C 147.254 165.276, 148.287 165.114, 146.975 168.565 C 146.439 169.976, 146 172.017, 146 173.100 C 146 174.760, 146.315 174.902, 147.999 174 C 149.714 173.083, 149.973 172.011, 149.820 166.465 C 149.722 162.909, 149.309 160, 148.903 160 C 148.496 160, 147.194 161.568, 146.010 163.484 M 71 165.845 C 71 168, 72.288 170, 73.677 170 C 75.778 170, 74.931 165.603, 72.750 165.187 C 71.787 165.003, 71 165.300, 71 165.845 M 61.886 180.994 C 58.782 186.306, 57.673 189.044, 58.499 189.361 C 59.174 189.620, 60.729 188.047, 61.956 185.864 C 63.183 183.681, 64.482 182.046, 64.843 182.230 C 65.205 182.414, 66.737 183.184, 68.250 183.943 C 71.604 185.624, 71.613 185.817, 68.540 190.346 L 66.079 193.972 68.160 195.086 C 69.305 195.698, 69.977 195.772, 69.654 195.249 C 69.331 194.727, 71.096 191.008, 73.576 186.985 C 76.905 181.587, 77.757 179.468, 76.828 178.894 C 75.993 178.378, 75.172 179.064, 74.384 180.938 C 72.725 184.884, 71.863 185.149, 68.207 182.834 C 65.007 180.808, 65.005 180.800, 66.717 177.902 C 67.660 176.306, 68.897 174.993, 69.466 174.985 C 70.035 174.976, 69.825 174.533, 69 174 C 68.175 173.467, 67.275 173.045, 67 173.064 C 66.725 173.082, 64.424 176.650, 61.886 180.994 M 82.079 174.583 C 82.127 175.748, 82.364 175.985, 82.683 175.188 C 82.972 174.466, 82.936 173.603, 82.604 173.271 C 82.272 172.939, 82.036 173.529, 82.079 174.583 M 143.583 173.866 C 143.152 174.563, 143.070 175.403, 143.400 175.733 C 144.295 176.628, 145.271 175.312, 144.787 173.862 C 144.449 172.846, 144.213 172.846, 143.583 173.866 M 96.607 178.582 C 95.776 180.748, 95.752 180.702, 98 181.290 C 99.591 181.706, 100 181.320, 100 179.406 C 100 176.697, 97.558 176.103, 96.607 178.582 M 127 179.406 C 127 181.271, 127.424 181.702, 128.884 181.320 C 130.160 180.986, 130.606 180.210, 130.267 178.914 C 129.544 176.147, 127 176.530, 127 179.406 M 149.665 179.420 C 147.556 180.716, 146.258 181.939, 146.782 182.138 C 147.306 182.337, 149.725 185.713, 152.159 189.640 L 156.584 196.780 160.542 194.099 C 163.922 191.810, 164.544 190.823, 164.801 187.346 C 165.038 184.134, 164.544 182.612, 162.462 180.137 C 159.201 176.262, 155.170 176.036, 149.665 179.420 M 41.813 179.683 C 42.534 179.972, 43.397 179.936, 43.729 179.604 C 44.061 179.272, 43.471 179.036, 42.417 179.079 C 41.252 179.127, 41.015 179.364, 41.813 179.683 M 151.250 179.662 C 149.376 180.419, 149.674 181.452, 153.488 187.414 C 157.635 193.896, 158.339 194.424, 160.968 193.017 C 163.785 191.509, 164.458 187.785, 162.571 184.137 C 160.258 179.664, 155.706 177.864, 151.250 179.662 M 80.551 189.937 C 77.430 193.753, 74.341 197.092, 73.688 197.358 C 73.021 197.630, 73.230 197.877, 74.167 197.921 C 75.083 197.964, 76.658 196.917, 77.667 195.592 C 79.167 193.622, 79.929 193.351, 81.858 194.100 C 83.831 194.866, 84.151 195.577, 83.817 198.446 C 83.526 200.935, 83.839 201.983, 84.958 202.268 C 86.259 202.599, 86.535 201.122, 86.722 192.830 C 86.844 187.424, 86.782 183, 86.585 183 C 86.388 183, 83.673 186.122, 80.551 189.937 M 135.677 185.703 C 134.435 186.025, 134.070 186.705, 134.532 187.837 C 136.843 193.500, 139.747 202.920, 139.314 203.352 C 139.033 203.634, 139.733 203.621, 140.871 203.324 C 142.806 202.818, 142.844 202.600, 141.469 199.941 C 138.615 194.420, 140.137 193.477, 145.411 197.500 C 148.647 199.968, 151.012 200.710, 150.988 199.250 C 150.981 198.838, 149.406 197.483, 147.488 196.241 C 144.821 194.514, 144 193.297, 144 191.073 C 144 185.275, 142.093 184.044, 135.677 185.703 M 94.453 186.924 C 95.246 188.207, 93.392 199.134, 91.869 202.150 C 91.182 203.512, 92.486 205.020, 94.332 204.998 C 94.424 204.997, 94.601 203.569, 94.723 201.825 C 95.103 196.440, 96.653 196.353, 99.173 201.576 C 100.453 204.229, 102.077 206.577, 102.783 206.794 C 103.617 207.050, 103.290 205.592, 101.849 202.626 C 99.843 198.497, 99.778 197.894, 101.164 196.282 C 103.841 193.169, 104.074 191.074, 101.977 188.977 C 100.890 187.890, 99.362 187, 98.582 187 C 97.802 187, 96.378 186.699, 95.418 186.330 C 94.168 185.850, 93.894 186.019, 94.453 186.924 M 137 186.851 C 137 189.305, 139.384 194, 140.629 194 C 142.890 194, 143.373 191.219, 141.587 188.492 C 140.035 186.123, 137 185.037, 137 186.851 M 82.035 189.934 C 80.699 192.431, 80.725 192.681, 82.397 193.322 C 83.350 193.688, 83.930 192.928, 84.224 190.929 C 84.714 187.589, 83.569 187.068, 82.035 189.934 M 96.665 191.680 C 95.951 196.075, 97.174 197.930, 99.509 195.993 C 101.570 194.282, 101.120 188.634, 98.888 188.212 C 97.715 187.990, 97.110 188.933, 96.665 191.680 M 122.879 197.491 C 121.852 203.987, 121.715 207, 122.448 207 C 123.037 207, 123.515 205.537, 123.510 203.750 C 123.501 200.989, 123.892 200.454, 126.107 200.197 C 128.203 199.954, 128.962 200.493, 129.978 202.947 C 131.215 205.934, 132.079 206.587, 133.248 205.419 C 133.755 204.912, 126.800 190.785, 125.037 188.741 C 124.677 188.324, 123.706 192.261, 122.879 197.491 M 109.098 197.629 C 110.653 202.375, 112.109 206.443, 112.335 206.668 C 112.560 206.893, 114.235 203.347, 116.057 198.789 C 117.878 194.230, 119.849 190.169, 120.435 189.765 C 121.022 189.360, 120.416 189.024, 119.083 189.015 C 117.754 189.007, 116.926 189.259, 117.242 189.576 C 118.133 190.466, 113.930 202.075, 112.939 201.462 C 112.456 201.164, 111.508 198.238, 110.831 194.960 C 109.922 190.560, 109.164 189, 107.935 189 C 106.472 189, 106.612 190.045, 109.098 197.629 M 124.469 195.297 C 123.680 198.409, 124.151 199.342, 126.260 198.838 C 127.440 198.556, 127.468 197.999, 126.428 195.500 L 125.179 192.500 124.469 195.297" stroke="none" fill="#0e0e0e" fill-rule="evenodd"/></svg>