<svg xmlns="http://www.w3.org/2000/svg" width="1348" height="1244" viewBox="0 0 1348 1244" version="1.1"><path d="M 718.662 6.630 C 686.724 13.481, 657.733 26.448, 632.549 45.147 C 605.937 64.906, 572.688 102.778, 553.272 135.445 C 539.287 158.975, 517.555 203.808, 516.257 211.807 L 515.702 215.224 519.101 214.529 C 520.970 214.146, 529.537 211.842, 538.139 209.408 C 584.662 196.242, 658.142 182.663, 710.500 177.554 C 776.450 171.120, 826.946 174.990, 873.433 190.041 C 902.594 199.483, 924.323 209.978, 951.928 227.953 C 959.558 232.921, 966.520 237.262, 967.400 237.600 C 969.485 238.400, 969.496 235.172, 967.456 221.128 C 961.378 179.286, 952.779 149.863, 937.463 118.500 C 921.689 86.200, 894.033 54.033, 865.747 35.086 C 842.999 19.849, 810.646 8.767, 781 6.058 C 763.923 4.497, 727.025 4.836, 718.662 6.630 M 721 202.623 C 694.864 204.506, 652.124 210.768, 616 218.009 C 571.961 226.836, 522.131 239.934, 510.183 245.823 C 502.868 249.429, 496.780 258, 501.533 258 C 502.377 258, 520.722 253.534, 542.300 248.076 C 633.579 224.986, 694.385 217.056, 758.500 219.882 C 786.175 221.101, 801.593 222.921, 818.516 226.965 C 865.007 238.075, 903.133 257.463, 941.500 289.506 C 964.969 309.107, 964.796 309.037, 966.646 299.684 C 967.276 296.497, 968.099 289.527, 968.475 284.195 L 969.157 274.500 956.927 264.582 C 942.794 253.121, 924.290 240.428, 911.806 233.632 C 885.223 219.160, 848.919 207.705, 819.198 204.411 C 806.053 202.954, 734.491 201.651, 721 202.623 M 705 242.968 C 651.770 245.500, 570.313 261.174, 515 279.528 C 496.003 285.832, 492.646 288.242, 491.298 296.552 L 490.687 300.315 495.094 299.685 C 497.517 299.338, 510.750 295.881, 524.500 292.002 C 591.935 272.980, 657.724 262.763, 712.500 262.807 C 761.396 262.846, 804.059 271.633, 844 289.891 C 879.951 306.325, 904.761 324.500, 935.384 356.836 C 941.901 363.717, 943.493 364.930, 944.564 363.830 C 946.827 361.509, 956.121 337.616, 955.583 335.505 C 954.749 332.232, 933.284 310.256, 922.500 301.634 C 902.599 285.724, 875.566 269.853, 852.362 260.456 C 831.370 251.955, 807.295 246.585, 779 244.093 C 762.453 242.636, 724.210 242.055, 705 242.968 M 673.091 283.542 C 615.723 288.741, 564.213 299.250, 505.500 317.733 C 494.983 321.043, 494.778 321.419, 498.227 331.046 C 500.947 338.637, 499.811 338.497, 517 333.359 C 575.518 315.866, 628.384 308.079, 689 308.023 C 730.989 307.985, 767.076 313.906, 799.295 326.120 C 813.638 331.558, 837.083 343.535, 850 352.025 C 867.539 363.551, 877.929 372.049, 897.351 390.750 C 910.135 403.060, 914.843 407, 916.768 407 C 922.149 407, 931 393.387, 931 385.113 C 931 380.916, 926.331 375.103, 909.609 358.483 C 875.609 324.689, 841.505 304.757, 797 292.669 C 762.641 283.337, 714.493 279.791, 673.091 283.542 M 318.500 296.089 C 276.232 298.315, 235.956 309.664, 193.500 331.315 C 149.110 353.951, 118.016 382.293, 100.663 415.935 C 90.060 436.490, 87.316 450.121, 88.288 477.404 C 88.946 495.888, 90.647 505.863, 95.598 520.281 C 113.373 572.035, 152.130 613.238, 215 647.220 C 239.303 660.356, 294.841 680, 307.676 680 C 310.999 680, 311.176 679.838, 310.558 677.373 C 310.195 675.929, 306.715 667.716, 302.823 659.123 C 277.489 603.181, 261.444 550.766, 255.493 504.511 C 249.631 458.947, 254.454 422.493, 270.992 387.346 C 282.727 362.408, 291.591 350.609, 321.961 319.500 C 332.163 309.050, 341.598 299.262, 342.929 297.750 L 345.349 295 339.424 295.150 C 336.166 295.232, 326.750 295.655, 318.500 296.089 M 380.394 306.947 C 365.394 310.529, 328.401 344.753, 309.158 372.849 C 297.575 389.761, 287.998 410.188, 282.834 429 C 280.598 437.143, 280.500 438.951, 280.500 472 C 280.500 505.955, 281.181 517.219, 283.115 515.285 C 283.641 514.759, 284.514 501.317, 285.055 485.414 C 286.147 453.339, 287.053 443.796, 289.978 433.575 C 299.161 401.479, 320.728 368.354, 348.596 343.542 C 353.786 338.921, 363.762 330.674, 370.766 325.213 C 384.482 314.520, 390 309.384, 390 307.310 C 390 305.871, 385.595 305.704, 380.394 306.947 M 409.210 326.482 C 396.176 332.550, 370.732 352.373, 354.466 369.132 C 327.117 397.310, 313.853 423.111, 308.517 458.510 C 301.571 504.598, 318.086 576.369, 351.660 646 C 362.708 668.913, 368.638 678, 372.543 678 C 374.092 678, 371.255 671.190, 360.045 648 C 342.914 612.559, 331.269 581.973, 323.114 551 C 318.698 534.228, 316.922 522.513, 316.062 504.500 C 314.450 470.754, 318.275 449.658, 330.336 425.762 C 346.668 393.404, 374.854 363.792, 409.602 342.484 C 420.188 335.991, 426 331.244, 426 329.088 C 426 323.774, 417.770 322.497, 409.210 326.482 M 645 325.090 C 613.345 326.507, 568.410 334.674, 528 346.353 C 505.142 352.960, 506.984 351.042, 513.668 361.277 C 516.801 366.075, 519.914 370, 520.585 370 C 521.256 370, 530.512 367.987, 541.153 365.527 C 574.791 357.749, 604.387 353.544, 636.958 351.913 C 700.669 348.723, 758.154 359.797, 806.793 384.630 C 829.175 396.058, 846.324 408.608, 868 429.422 C 873.775 434.967, 880.196 441.062, 882.268 442.966 L 886.037 446.428 896.518 435.982 C 902.283 430.236, 907 425.233, 907 424.864 C 907 423.279, 891.454 405.698, 881.892 396.469 C 849.089 364.806, 807.900 342.374, 761.978 331.161 C 745.099 327.040, 736.831 326.113, 707 324.999 C 678.630 323.939, 670.428 323.951, 645 325.090 M 429.446 352.492 C 411.956 361.608, 388.339 379.924, 373.344 396 C 364.566 405.411, 354.441 419.734, 348.713 430.843 C 337.751 452.105, 334.641 466.041, 334.733 493.500 C 334.875 535.742, 346.053 576.204, 373.406 633.490 C 383.405 654.431, 387.444 659.867, 394.250 661.541 C 396.347 662.056, 397 661.853, 397 660.686 C 397 659.844, 392.087 649.281, 386.083 637.212 C 359.009 582.793, 349.539 554.213, 346.011 516.275 C 344.187 496.664, 347.352 474.931, 354.862 455.498 C 367.088 423.860, 395.558 392.932, 433.549 370.017 C 446.689 362.092, 449.345 359.730, 448.481 356.739 C 446.046 348.302, 440.051 346.964, 429.446 352.492 M 637.500 363.637 C 604.574 365.488, 533 377.364, 533 380.976 C 533 382.193, 541.618 392.384, 547.238 397.812 L 551.702 402.124 571.626 399.596 C 614.326 394.179, 646.260 393.837, 682 398.415 C 753.763 407.608, 795.084 424.258, 834.468 459.851 C 839.401 464.309, 844.606 468.364, 846.035 468.862 C 849.523 470.078, 853.836 468.497, 862.742 462.735 C 873.936 455.494, 873.867 452.285, 862.252 439.913 C 825.143 400.384, 765.941 373.291, 699.757 365.549 C 686.861 364.041, 650.297 362.918, 637.500 363.637 M 449.500 378.117 C 427.253 389.657, 399.183 413.534, 383.734 434.059 C 377.664 442.125, 369.848 457.584, 365.310 470.500 C 362.517 478.453, 362.500 478.648, 362.511 503.500 C 362.523 530.945, 363.118 535.974, 368.645 555.365 C 373.707 573.124, 381.219 592.489, 390.482 611.660 C 403.078 637.729, 406.596 642.245, 412.547 639.982 C 417.751 638.003, 417.425 636.303, 408.789 620.414 C 384.268 575.294, 374.159 538.906, 377.035 506.105 C 378.422 490.281, 381.121 480.480, 387.952 466.460 C 394.979 452.035, 403.342 440.379, 414.601 429.318 C 424.147 419.939, 443.852 404.885, 455.347 398.188 L 463.194 393.617 462.550 389.559 C 461.825 384.991, 457.539 374.999, 456.305 375.002 C 455.862 375.003, 452.800 376.405, 449.500 378.117 M 609.500 404.635 C 607.300 404.865, 598.837 405.726, 590.694 406.549 C 582.551 407.372, 573.562 408.544, 570.720 409.154 L 565.551 410.262 569.026 413.170 C 576.339 419.291, 602.294 434.683, 621.500 444.287 C 658.786 462.932, 704.513 478.515, 736.845 483.594 C 750.352 485.716, 785.937 486.574, 798.701 485.086 C 810.224 483.743, 827.588 479.782, 832.037 477.481 C 835.818 475.526, 835.773 473.652, 831.837 469.132 C 803.155 436.195, 738.965 410.957, 671.500 406.090 C 655.626 404.945, 615.542 404.004, 609.500 404.635 M 456.773 410.912 C 427.800 427.843, 401.117 458.099, 392.820 483.428 C 390.631 490.109, 390.508 491.912, 390.590 516 C 390.693 546.043, 391.373 550.223, 399.705 572 C 405.419 586.936, 419.959 618.239, 421.675 619.299 C 423.322 620.317, 428.911 616.202, 429.598 613.465 C 430.688 609.121, 428.283 600.303, 422.400 587.084 C 411.163 561.830, 407.517 546.725, 407.656 526 C 407.756 511.031, 409.342 503.245, 415.115 489.379 C 422.124 472.541, 439.810 451.392, 456.765 439.574 C 461.311 436.405, 465.523 432.891, 466.126 431.765 C 467.767 428.698, 466.832 410.403, 464.936 408.508 C 463.612 407.184, 462.688 407.456, 456.773 410.912 M 458.987 447.913 C 450.754 454.096, 436.634 468.749, 431.701 476.228 C 414.638 502.096, 411.547 531.731, 422.483 564.598 C 426.134 575.571, 434.073 593.309, 435.815 594.386 C 437.299 595.303, 438.195 593.379, 443.495 577.907 C 449.590 560.111, 453.580 546.260, 456.003 534.486 C 463.335 498.852, 469.605 444.422, 466.500 443.362 C 465.950 443.174, 462.569 445.222, 458.987 447.913 M 1090 470.352 C 1090 472.746, 1091.093 483.434, 1092.429 494.102 C 1096.448 526.201, 1097.409 541.127, 1097.379 571 C 1097.329 621.841, 1092.791 668.992, 1083.424 716 C 1075.561 755.458, 1066.509 782.569, 1046.125 827.704 C 1041.106 838.817, 1037 848.492, 1036.999 849.204 C 1036.999 850.246, 1041.062 850.362, 1057.749 849.796 C 1099.594 848.376, 1119.189 844.715, 1145.820 833.340 C 1168.438 823.680, 1186.866 811.120, 1204.465 793.372 C 1239.569 757.970, 1261.635 709.680, 1270.662 648.500 C 1273.228 631.112, 1273.210 596.538, 1270.630 585.500 C 1267.795 573.374, 1263.409 561.652, 1257.254 549.749 C 1238.226 512.953, 1197.045 485.818, 1141 473.145 C 1125.757 469.699, 1101.886 466.014, 1094.750 466.005 L 1090 466 1090 470.352 M 1045.297 469.750 C 1047.253 479.594, 1051.203 508.002, 1052.486 521.444 C 1055.807 556.270, 1055.392 607.567, 1051.469 647 C 1045.389 708.125, 1031.853 755.106, 1006.236 804 C 989.396 836.142, 989.415 836.099, 991.573 837.677 C 993.534 839.111, 1000.779 841.493, 1006.368 842.541 L 1009.578 843.143 1019.223 823.322 C 1039.885 780.860, 1049.874 751.805, 1058.874 708 C 1065.537 675.566, 1068.491 649.309, 1070.155 607.729 C 1072.047 560.425, 1068.925 497.139, 1063.476 472.320 C 1062.536 468.042, 1060.348 467, 1052.304 467 L 1044.750 467 1045.297 469.750 M 1007.521 474.612 C 1004.233 475.407, 1001.142 476.458, 1000.652 476.948 C 1000.130 477.470, 1000.822 482.126, 1002.318 488.170 C 1005.156 499.628, 1008.042 515.324, 1010.655 533.500 C 1012.862 548.857, 1013.193 609.107, 1011.187 630.500 C 1004.809 698.532, 987.952 750.910, 958.140 795.331 C 955.494 799.274, 952.048 804.704, 950.482 807.399 L 947.636 812.298 950.372 814.480 C 955.951 818.928, 965.469 823.350, 968.063 822.699 C 972.548 821.573, 985.479 799.639, 996.974 773.657 C 1015.933 730.806, 1028.279 676.344, 1031.012 623.500 C 1033.651 572.472, 1031.203 517.647, 1024.921 487.117 C 1021.851 472.196, 1020.760 471.411, 1007.521 474.612 M 972.294 484.534 C 964.482 486.638, 960.047 488.714, 959.321 490.605 C 958.963 491.538, 960.165 499.095, 961.990 507.400 C 969.658 542.277, 969.290 538.473, 969.400 584 C 969.534 639.619, 967.532 658.152, 957.951 690 C 949.500 718.093, 939.797 738.751, 923.829 762.647 C 918.973 769.914, 915.004 776.454, 915.010 777.180 C 915.022 778.874, 923.766 790.478, 928.349 794.882 C 930.322 796.778, 932.491 798.026, 933.285 797.721 C 934.065 797.422, 938.091 792.075, 942.233 785.838 C 972.402 740.411, 986.679 694.436, 991.993 625.600 C 993.404 607.327, 993.394 552.712, 991.978 537.500 C 989.694 512.965, 984.369 487.646, 980.884 484.750 C 978.441 482.719, 978.980 482.733, 972.294 484.534 M 935 499.381 C 925.061 503.532, 917.890 508.068, 918.427 509.863 C 919.590 513.742, 925.951 547.321, 927.168 556 C 928.983 568.942, 928.974 619.329, 927.155 631.500 C 922.308 663.931, 913.012 691.288, 897.781 717.952 C 888.467 734.256, 888.144 736.780, 893.974 747.721 C 899.140 757.416, 904.156 763.640, 905.924 762.547 C 908.097 761.204, 918.473 744.695, 924.278 733.344 C 939.831 702.932, 948.930 670.901, 954.203 628 C 955.920 614.026, 955.917 564.858, 954.197 551 C 950.323 519.776, 944.984 496.912, 941.598 497.042 C 940.994 497.066, 938.025 498.118, 935 499.381 M 901.500 519.907 C 898.750 521.496, 892.879 525.983, 888.453 529.878 L 880.407 536.961 882.797 548.231 C 884.867 557.991, 885.257 563.144, 885.716 586.724 C 886.497 626.890, 884.598 640.110, 874.346 665.871 C 867.141 683.974, 867.190 693.275, 874.571 708.685 C 880.612 721.297, 884.246 719.757, 894.060 700.423 C 904.624 679.611, 911.129 659.060, 914.684 635.268 C 916.893 620.489, 917.171 576.564, 915.171 558.500 C 912.753 536.664, 908.959 516.984, 907.172 517.009 C 906.803 517.015, 904.250 518.318, 901.500 519.907 M 870.641 549.442 C 866.637 553.762, 858.323 571.567, 855.905 581 C 852.834 592.981, 852.143 617.209, 854.421 633 C 856.281 645.896, 861.737 669.719, 863.010 670.506 C 864.401 671.366, 871.733 651.134, 873.886 640.500 C 877.363 623.322, 878.318 609.383, 877.718 584.579 C 877.204 563.320, 876.024 551.675, 874.019 548.076 C 873.388 546.942, 872.700 547.220, 870.641 549.442 M 598.983 656.129 C 579.731 657.179, 550.088 662.498, 524.757 669.446 C 508.744 673.838, 505.585 675.356, 506.991 677.984 C 510.742 684.991, 541.935 706.414, 565.952 718.476 C 623.136 747.195, 698.604 756.148, 760.411 741.544 C 779.885 736.942, 803 728.824, 803 726.585 C 803 722.487, 772.606 700.258, 753.214 690.174 C 711.111 668.280, 644.749 653.631, 598.983 656.129 M 492 680.683 C 491.175 680.973, 487.462 682.579, 483.750 684.253 C 478.842 686.466, 477 687.816, 477 689.202 C 477 691.693, 493.798 708.959, 506.321 719.340 C 544.754 751.198, 590.226 774.318, 636.500 785.528 C 661.098 791.487, 670.606 792.260, 712.500 791.709 C 751.773 791.192, 760.531 790.383, 780.078 785.463 C 798.505 780.825, 828.919 768.957, 832.490 765.011 C 834.076 763.259, 834.025 762.900, 831.623 758.801 C 827.250 751.338, 815.497 737.550, 812.655 736.549 C 809.569 735.462, 808.899 735.634, 788 742.848 C 759.149 752.809, 735.383 756.310, 696.500 756.330 C 667.376 756.344, 654.442 755.166, 631.666 750.425 C 589.539 741.656, 545.295 720.106, 505.189 688.823 C 498.968 683.970, 493.793 680.036, 493.689 680.079 C 493.585 680.122, 492.825 680.394, 492 680.683 M 454.250 698.958 C 450.813 700.585, 448.004 702.272, 448.010 702.708 C 448.025 703.908, 471.229 728.356, 482.008 738.528 C 522.744 776.969, 570.311 806.200, 619.311 822.902 C 674.713 841.786, 739.814 843.622, 800.908 828.024 C 816.399 824.068, 847.577 811.503, 852.135 807.377 C 853.780 805.889, 853.709 805.335, 850.827 797.152 C 849.151 792.393, 846.513 785.700, 844.965 782.278 L 842.151 776.056 836.825 777.927 C 833.896 778.956, 826.454 781.844, 820.286 784.345 C 800.488 792.372, 770.279 800.591, 751 803.194 C 738.321 804.907, 679.405 804.883, 664.500 803.159 C 636.815 799.958, 603.843 789.819, 571.481 774.554 C 539.064 759.263, 506.221 736.502, 479.236 710.624 C 467.439 699.312, 463.428 695.999, 461.527 696.001 C 460.962 696.001, 457.688 697.332, 454.250 698.958 M 429.161 711.547 C 426.890 716.529, 427.753 719.496, 433.847 727.663 C 444.658 742.152, 466.681 765.787, 484.085 781.578 C 527.778 821.218, 570.566 847.769, 619.037 865.318 C 672.390 884.635, 739.979 888.847, 799 876.535 C 816.829 872.816, 848.378 862.288, 858.147 856.797 C 861.912 854.681, 862 854.502, 862 848.947 C 862 842.297, 859.309 825.909, 858.003 824.603 C 857.469 824.069, 853.316 825.249, 847.801 827.502 C 821.531 838.233, 805.885 843.359, 787 847.422 C 767.625 851.591, 755.386 852.431, 713.500 852.467 C 674.669 852.500, 674.435 852.488, 659.500 849.636 C 615.764 841.285, 571.417 822.943, 530.722 796.373 C 503.598 778.664, 488.256 765.565, 454.500 731.295 C 442.400 719.011, 432.010 708.969, 431.411 708.980 C 430.811 708.991, 429.799 710.146, 429.161 711.547 M 404 728.363 C 404 734.698, 415.655 750.959, 440.593 779.418 C 495.110 841.631, 559.378 886.582, 627.821 910.368 C 642.491 915.466, 672.724 923.175, 686 925.202 C 697.891 927.018, 779.918 927.017, 792.500 925.201 C 803.580 923.602, 837.976 915.188, 851.500 910.768 L 861.500 907.500 862.673 898.500 C 864.296 886.056, 864.326 877.995, 862.750 878.021 C 860.925 878.052, 846.462 882.379, 838.080 885.403 C 822.824 890.906, 788.253 898.517, 766.500 901.161 C 750.384 903.120, 703.148 902.822, 686.731 900.657 C 593.472 888.362, 506.646 839.184, 435.747 758.500 C 420.053 740.640, 408.388 728.350, 405.750 726.895 C 404.298 726.094, 404 726.344, 404 728.363 M 382.708 747.750 C 384.524 752.681, 408.449 785.972, 420.975 801 C 439.752 823.526, 467.902 852.309, 488 869.531 C 565.470 935.916, 647.507 969.841, 739.500 973.537 C 766.812 974.634, 798.830 971.391, 829.456 964.427 C 856.932 958.179, 859 956.706, 859 943.392 C 859 937.383, 858.624 934.793, 857.702 934.439 C 856.988 934.165, 849.710 935.749, 841.529 937.959 C 810.828 946.251, 790.478 949.525, 759.763 951.114 C 691.729 954.632, 634.335 941.856, 568.500 908.541 C 507.471 877.657, 453.636 832.165, 402.010 767.854 C 388.802 751.401, 384.064 746, 382.835 746 C 382.410 746, 382.353 746.788, 382.708 747.750 M 356.092 770.654 C 337.995 786.144, 313.133 824.549, 305.697 848.500 C 300.543 865.099, 299.514 872.314, 299.564 891.500 C 299.603 906.152, 300.014 911.315, 301.774 919.259 C 312.149 966.071, 341.545 1008.571, 388 1043.921 C 448.983 1090.327, 528.731 1124.942, 608 1139.414 C 650.494 1147.172, 688.904 1145.008, 723.634 1132.898 C 778.157 1113.887, 818.480 1071.749, 841.935 1009.273 C 847.426 994.646, 848.863 989, 847.095 989 C 846.475 989, 840.237 990.141, 833.234 991.536 C 814.489 995.269, 798.644 996.896, 769 998.130 C 718.418 1000.237, 687.799 997.130, 648 985.852 C 545.901 956.921, 456.045 890.918, 379.020 788.275 C 370.453 776.858, 362.766 767.386, 361.938 767.227 C 361.111 767.067, 358.480 768.609, 356.092 770.654" stroke="none" fill="#050505" fill-rule="evenodd"/><path d="M 0 622.001 L 0 1244.001 674.250 1243.751 L 1348.500 1243.500 1348.751 621.750 L 1349.002 -0 674.501 -0 L 0 0 0 622.001 M 0.497 622.500 C 0.497 964.600, 0.611 1104.401, 0.750 933.168 C 0.889 761.935, 0.889 482.035, 0.750 311.168 C 0.611 140.301, 0.497 280.400, 0.497 622.500 M 718.662 6.630 C 686.724 13.481, 657.733 26.448, 632.549 45.147 C 605.937 64.906, 572.688 102.778, 553.272 135.445 C 539.287 158.975, 517.555 203.808, 516.257 211.807 L 515.702 215.224 519.101 214.529 C 520.970 214.146, 529.537 211.842, 538.139 209.408 C 584.662 196.242, 658.142 182.663, 710.500 177.554 C 776.450 171.120, 826.946 174.990, 873.433 190.041 C 902.594 199.483, 924.323 209.978, 951.928 227.953 C 959.558 232.921, 966.520 237.262, 967.400 237.600 C 969.485 238.400, 969.496 235.172, 967.456 221.128 C 961.378 179.286, 952.779 149.863, 937.463 118.500 C 921.689 86.200, 894.033 54.033, 865.747 35.086 C 842.999 19.849, 810.646 8.767, 781 6.058 C 763.923 4.497, 727.025 4.836, 718.662 6.630 M 721 202.623 C 694.864 204.506, 652.124 210.768, 616 218.009 C 571.961 226.836, 522.131 239.934, 510.183 245.823 C 502.868 249.429, 496.780 258, 501.533 258 C 502.377 258, 520.722 253.534, 542.300 248.076 C 633.579 224.986, 694.385 217.056, 758.500 219.882 C 786.175 221.101, 801.593 222.921, 818.516 226.965 C 865.007 238.075, 903.133 257.463, 941.500 289.506 C 964.969 309.107, 964.796 309.037, 966.646 299.684 C 967.276 296.497, 968.099 289.527, 968.475 284.195 L 969.157 274.500 956.927 264.582 C 942.794 253.121, 924.290 240.428, 911.806 233.632 C 885.223 219.160, 848.919 207.705, 819.198 204.411 C 806.053 202.954, 734.491 201.651, 721 202.623 M 705 242.968 C 651.770 245.500, 570.313 261.174, 515 279.528 C 496.003 285.832, 492.646 288.242, 491.298 296.552 L 490.687 300.315 495.094 299.685 C 497.517 299.338, 510.750 295.881, 524.500 292.002 C 591.935 272.980, 657.724 262.763, 712.500 262.807 C 761.396 262.846, 804.059 271.633, 844 289.891 C 879.951 306.325, 904.761 324.500, 935.384 356.836 C 941.901 363.717, 943.493 364.930, 944.564 363.830 C 946.827 361.509, 956.121 337.616, 955.583 335.505 C 954.749 332.232, 933.284 310.256, 922.500 301.634 C 902.599 285.724, 875.566 269.853, 852.362 260.456 C 831.370 251.955, 807.295 246.585, 779 244.093 C 762.453 242.636, 724.210 242.055, 705 242.968 M 673.091 283.542 C 615.723 288.741, 564.213 299.250, 505.500 317.733 C 494.983 321.043, 494.778 321.419, 498.227 331.046 C 500.947 338.637, 499.811 338.497, 517 333.359 C 575.518 315.866, 628.384 308.079, 689 308.023 C 730.989 307.985, 767.076 313.906, 799.295 326.120 C 813.638 331.558, 837.083 343.535, 850 352.025 C 867.539 363.551, 877.929 372.049, 897.351 390.750 C 910.135 403.060, 914.843 407, 916.768 407 C 922.149 407, 931 393.387, 931 385.113 C 931 380.916, 926.331 375.103, 909.609 358.483 C 875.609 324.689, 841.505 304.757, 797 292.669 C 762.641 283.337, 714.493 279.791, 673.091 283.542 M 318.500 296.089 C 276.232 298.315, 235.956 309.664, 193.500 331.315 C 149.110 353.951, 118.016 382.293, 100.663 415.935 C 90.060 436.490, 87.316 450.121, 88.288 477.404 C 88.946 495.888, 90.647 505.863, 95.598 520.281 C 113.373 572.035, 152.130 613.238, 215 647.220 C 239.303 660.356, 294.841 680, 307.676 680 C 310.999 680, 311.176 679.838, 310.558 677.373 C 310.195 675.929, 306.715 667.716, 302.823 659.123 C 277.489 603.181, 261.444 550.766, 255.493 504.511 C 249.631 458.947, 254.454 422.493, 270.992 387.346 C 282.727 362.408, 291.591 350.609, 321.961 319.500 C 332.163 309.050, 341.598 299.262, 342.929 297.750 L 345.349 295 339.424 295.150 C 336.166 295.232, 326.750 295.655, 318.500 296.089 M 380.394 306.947 C 365.394 310.529, 328.401 344.753, 309.158 372.849 C 297.575 389.761, 287.998 410.188, 282.834 429 C 280.598 437.143, 280.500 438.951, 280.500 472 C 280.500 505.955, 281.181 517.219, 283.115 515.285 C 283.641 514.759, 284.514 501.317, 285.055 485.414 C 286.147 453.339, 287.053 443.796, 289.978 433.575 C 299.161 401.479, 320.728 368.354, 348.596 343.542 C 353.786 338.921, 363.762 330.674, 370.766 325.213 C 384.482 314.520, 390 309.384, 390 307.310 C 390 305.871, 385.595 305.704, 380.394 306.947 M 409.210 326.482 C 396.176 332.550, 370.732 352.373, 354.466 369.132 C 327.117 397.310, 313.853 423.111, 308.517 458.510 C 301.571 504.598, 318.086 576.369, 351.660 646 C 362.708 668.913, 368.638 678, 372.543 678 C 374.092 678, 371.255 671.190, 360.045 648 C 342.914 612.559, 331.269 581.973, 323.114 551 C 318.698 534.228, 316.922 522.513, 316.062 504.500 C 314.450 470.754, 318.275 449.658, 330.336 425.762 C 346.668 393.404, 374.854 363.792, 409.602 342.484 C 420.188 335.991, 426 331.244, 426 329.088 C 426 323.774, 417.770 322.497, 409.210 326.482 M 645 325.090 C 613.345 326.507, 568.410 334.674, 528 346.353 C 505.142 352.960, 506.984 351.042, 513.668 361.277 C 516.801 366.075, 519.914 370, 520.585 370 C 521.256 370, 530.512 367.987, 541.153 365.527 C 574.791 357.749, 604.387 353.544, 636.958 351.913 C 700.669 348.723, 758.154 359.797, 806.793 384.630 C 829.175 396.058, 846.324 408.608, 868 429.422 C 873.775 434.967, 880.196 441.062, 882.268 442.966 L 886.037 446.428 896.518 435.982 C 902.283 430.236, 907 425.233, 907 424.864 C 907 423.279, 891.454 405.698, 881.892 396.469 C 849.089 364.806, 807.900 342.374, 761.978 331.161 C 745.099 327.040, 736.831 326.113, 707 324.999 C 678.630 323.939, 670.428 323.951, 645 325.090 M 429.446 352.492 C 411.956 361.608, 388.339 379.924, 373.344 396 C 364.566 405.411, 354.441 419.734, 348.713 430.843 C 337.751 452.105, 334.641 466.041, 334.733 493.500 C 334.875 535.742, 346.053 576.204, 373.406 633.490 C 383.405 654.431, 387.444 659.867, 394.250 661.541 C 396.347 662.056, 397 661.853, 397 660.686 C 397 659.844, 392.087 649.281, 386.083 637.212 C 359.009 582.793, 349.539 554.213, 346.011 516.275 C 344.187 496.664, 347.352 474.931, 354.862 455.498 C 367.088 423.860, 395.558 392.932, 433.549 370.017 C 446.689 362.092, 449.345 359.730, 448.481 356.739 C 446.046 348.302, 440.051 346.964, 429.446 352.492 M 637.500 363.637 C 604.574 365.488, 533 377.364, 533 380.976 C 533 382.193, 541.618 392.384, 547.238 397.812 L 551.702 402.124 571.626 399.596 C 614.326 394.179, 646.260 393.837, 682 398.415 C 753.763 407.608, 795.084 424.258, 834.468 459.851 C 839.401 464.309, 844.606 468.364, 846.035 468.862 C 849.523 470.078, 853.836 468.497, 862.742 462.735 C 873.936 455.494, 873.867 452.285, 862.252 439.913 C 825.143 400.384, 765.941 373.291, 699.757 365.549 C 686.861 364.041, 650.297 362.918, 637.500 363.637 M 449.500 378.117 C 427.253 389.657, 399.183 413.534, 383.734 434.059 C 377.664 442.125, 369.848 457.584, 365.310 470.500 C 362.517 478.453, 362.500 478.648, 362.511 503.500 C 362.523 530.945, 363.118 535.974, 368.645 555.365 C 373.707 573.124, 381.219 592.489, 390.482 611.660 C 403.078 637.729, 406.596 642.245, 412.547 639.982 C 417.751 638.003, 417.425 636.303, 408.789 620.414 C 384.268 575.294, 374.159 538.906, 377.035 506.105 C 378.422 490.281, 381.121 480.480, 387.952 466.460 C 394.979 452.035, 403.342 440.379, 414.601 429.318 C 424.147 419.939, 443.852 404.885, 455.347 398.188 L 463.194 393.617 462.550 389.559 C 461.825 384.991, 457.539 374.999, 456.305 375.002 C 455.862 375.003, 452.800 376.405, 449.500 378.117 M 609.500 404.635 C 607.300 404.865, 598.837 405.726, 590.694 406.549 C 582.551 407.372, 573.562 408.544, 570.720 409.154 L 565.551 410.262 569.026 413.170 C 576.339 419.291, 602.294 434.683, 621.500 444.287 C 658.786 462.932, 704.513 478.515, 736.845 483.594 C 750.352 485.716, 785.937 486.574, 798.701 485.086 C 810.224 483.743, 827.588 479.782, 832.037 477.481 C 835.818 475.526, 835.773 473.652, 831.837 469.132 C 803.155 436.195, 738.965 410.957, 671.500 406.090 C 655.626 404.945, 615.542 404.004, 609.500 404.635 M 456.773 410.912 C 427.800 427.843, 401.117 458.099, 392.820 483.428 C 390.631 490.109, 390.508 491.912, 390.590 516 C 390.693 546.043, 391.373 550.223, 399.705 572 C 405.419 586.936, 419.959 618.239, 421.675 619.299 C 423.322 620.317, 428.911 616.202, 429.598 613.465 C 430.688 609.121, 428.283 600.303, 422.400 587.084 C 411.163 561.830, 407.517 546.725, 407.656 526 C 407.756 511.031, 409.342 503.245, 415.115 489.379 C 422.124 472.541, 439.810 451.392, 456.765 439.574 C 461.311 436.405, 465.523 432.891, 466.126 431.765 C 467.767 428.698, 466.832 410.403, 464.936 408.508 C 463.612 407.184, 462.688 407.456, 456.773 410.912 M 458.987 447.913 C 450.754 454.096, 436.634 468.749, 431.701 476.228 C 414.638 502.096, 411.547 531.731, 422.483 564.598 C 426.134 575.571, 434.073 593.309, 435.815 594.386 C 437.299 595.303, 438.195 593.379, 443.495 577.907 C 449.590 560.111, 453.580 546.260, 456.003 534.486 C 463.335 498.852, 469.605 444.422, 466.500 443.362 C 465.950 443.174, 462.569 445.222, 458.987 447.913 M 1090 470.352 C 1090 472.746, 1091.093 483.434, 1092.429 494.102 C 1096.448 526.201, 1097.409 541.127, 1097.379 571 C 1097.329 621.841, 1092.791 668.992, 1083.424 716 C 1075.561 755.458, 1066.509 782.569, 1046.125 827.704 C 1041.106 838.817, 1037 848.492, 1036.999 849.204 C 1036.999 850.246, 1041.062 850.362, 1057.749 849.796 C 1099.594 848.376, 1119.189 844.715, 1145.820 833.340 C 1168.438 823.680, 1186.866 811.120, 1204.465 793.372 C 1239.569 757.970, 1261.635 709.680, 1270.662 648.500 C 1273.228 631.112, 1273.210 596.538, 1270.630 585.500 C 1267.795 573.374, 1263.409 561.652, 1257.254 549.749 C 1238.226 512.953, 1197.045 485.818, 1141 473.145 C 1125.757 469.699, 1101.886 466.014, 1094.750 466.005 L 1090 466 1090 470.352 M 1045.297 469.750 C 1047.253 479.594, 1051.203 508.002, 1052.486 521.444 C 1055.807 556.270, 1055.392 607.567, 1051.469 647 C 1045.389 708.125, 1031.853 755.106, 1006.236 804 C 989.396 836.142, 989.415 836.099, 991.573 837.677 C 993.534 839.111, 1000.779 841.493, 1006.368 842.541 L 1009.578 843.143 1019.223 823.322 C 1039.885 780.860, 1049.874 751.805, 1058.874 708 C 1065.537 675.566, 1068.491 649.309, 1070.155 607.729 C 1072.047 560.425, 1068.925 497.139, 1063.476 472.320 C 1062.536 468.042, 1060.348 467, 1052.304 467 L 1044.750 467 1045.297 469.750 M 1007.521 474.612 C 1004.233 475.407, 1001.142 476.458, 1000.652 476.948 C 1000.130 477.470, 1000.822 482.126, 1002.318 488.170 C 1005.156 499.628, 1008.042 515.324, 1010.655 533.500 C 1012.862 548.857, 1013.193 609.107, 1011.187 630.500 C 1004.809 698.532, 987.952 750.910, 958.140 795.331 C 955.494 799.274, 952.048 804.704, 950.482 807.399 L 947.636 812.298 950.372 814.480 C 955.951 818.928, 965.469 823.350, 968.063 822.699 C 972.548 821.573, 985.479 799.639, 996.974 773.657 C 1015.933 730.806, 1028.279 676.344, 1031.012 623.500 C 1033.651 572.472, 1031.203 517.647, 1024.921 487.117 C 1021.851 472.196, 1020.760 471.411, 1007.521 474.612 M 972.294 484.534 C 964.482 486.638, 960.047 488.714, 959.321 490.605 C 958.963 491.538, 960.165 499.095, 961.990 507.400 C 969.658 542.277, 969.290 538.473, 969.400 584 C 969.534 639.619, 967.532 658.152, 957.951 690 C 949.500 718.093, 939.797 738.751, 923.829 762.647 C 918.973 769.914, 915.004 776.454, 915.010 777.180 C 915.022 778.874, 923.766 790.478, 928.349 794.882 C 930.322 796.778, 932.491 798.026, 933.285 797.721 C 934.065 797.422, 938.091 792.075, 942.233 785.838 C 972.402 740.411, 986.679 694.436, 991.993 625.600 C 993.404 607.327, 993.394 552.712, 991.978 537.500 C 989.694 512.965, 984.369 487.646, 980.884 484.750 C 978.441 482.719, 978.980 482.733, 972.294 484.534 M 935 499.381 C 925.061 503.532, 917.890 508.068, 918.427 509.863 C 919.590 513.742, 925.951 547.321, 927.168 556 C 928.983 568.942, 928.974 619.329, 927.155 631.500 C 922.308 663.931, 913.012 691.288, 897.781 717.952 C 888.467 734.256, 888.144 736.780, 893.974 747.721 C 899.140 757.416, 904.156 763.640, 905.924 762.547 C 908.097 761.204, 918.473 744.695, 924.278 733.344 C 939.831 702.932, 948.930 670.901, 954.203 628 C 955.920 614.026, 955.917 564.858, 954.197 551 C 950.323 519.776, 944.984 496.912, 941.598 497.042 C 940.994 497.066, 938.025 498.118, 935 499.381 M 901.500 519.907 C 898.750 521.496, 892.879 525.983, 888.453 529.878 L 880.407 536.961 882.797 548.231 C 884.867 557.991, 885.257 563.144, 885.716 586.724 C 886.497 626.890, 884.598 640.110, 874.346 665.871 C 867.141 683.974, 867.190 693.275, 874.571 708.685 C 880.612 721.297, 884.246 719.757, 894.060 700.423 C 904.624 679.611, 911.129 659.060, 914.684 635.268 C 916.893 620.489, 917.171 576.564, 915.171 558.500 C 912.753 536.664, 908.959 516.984, 907.172 517.009 C 906.803 517.015, 904.250 518.318, 901.500 519.907 M 870.641 549.442 C 866.637 553.762, 858.323 571.567, 855.905 581 C 852.834 592.981, 852.143 617.209, 854.421 633 C 856.281 645.896, 861.737 669.719, 863.010 670.506 C 864.401 671.366, 871.733 651.134, 873.886 640.500 C 877.363 623.322, 878.318 609.383, 877.718 584.579 C 877.204 563.320, 876.024 551.675, 874.019 548.076 C 873.388 546.942, 872.700 547.220, 870.641 549.442 M 598.983 656.129 C 579.731 657.179, 550.088 662.498, 524.757 669.446 C 508.744 673.838, 505.585 675.356, 506.991 677.984 C 510.742 684.991, 541.935 706.414, 565.952 718.476 C 623.136 747.195, 698.604 756.148, 760.411 741.544 C 779.885 736.942, 803 728.824, 803 726.585 C 803 722.487, 772.606 700.258, 753.214 690.174 C 711.111 668.280, 644.749 653.631, 598.983 656.129 M 492 680.683 C 491.175 680.973, 487.462 682.579, 483.750 684.253 C 478.842 686.466, 477 687.816, 477 689.202 C 477 691.693, 493.798 708.959, 506.321 719.340 C 544.754 751.198, 590.226 774.318, 636.500 785.528 C 661.098 791.487, 670.606 792.260, 712.500 791.709 C 751.773 791.192, 760.531 790.383, 780.078 785.463 C 798.505 780.825, 828.919 768.957, 832.490 765.011 C 834.076 763.259, 834.025 762.900, 831.623 758.801 C 827.250 751.338, 815.497 737.550, 812.655 736.549 C 809.569 735.462, 808.899 735.634, 788 742.848 C 759.149 752.809, 735.383 756.310, 696.500 756.330 C 667.376 756.344, 654.442 755.166, 631.666 750.425 C 589.539 741.656, 545.295 720.106, 505.189 688.823 C 498.968 683.970, 493.793 680.036, 493.689 680.079 C 493.585 680.122, 492.825 680.394, 492 680.683 M 454.250 698.958 C 450.813 700.585, 448.004 702.272, 448.010 702.708 C 448.025 703.908, 471.229 728.356, 482.008 738.528 C 522.744 776.969, 570.311 806.200, 619.311 822.902 C 674.713 841.786, 739.814 843.622, 800.908 828.024 C 816.399 824.068, 847.577 811.503, 852.135 807.377 C 853.780 805.889, 853.709 805.335, 850.827 797.152 C 849.151 792.393, 846.513 785.700, 844.965 782.278 L 842.151 776.056 836.825 777.927 C 833.896 778.956, 826.454 781.844, 820.286 784.345 C 800.488 792.372, 770.279 800.591, 751 803.194 C 738.321 804.907, 679.405 804.883, 664.500 803.159 C 636.815 799.958, 603.843 789.819, 571.481 774.554 C 539.064 759.263, 506.221 736.502, 479.236 710.624 C 467.439 699.312, 463.428 695.999, 461.527 696.001 C 460.962 696.001, 457.688 697.332, 454.250 698.958 M 429.161 711.547 C 426.890 716.529, 427.753 719.496, 433.847 727.663 C 444.658 742.152, 466.681 765.787, 484.085 781.578 C 527.778 821.218, 570.566 847.769, 619.037 865.318 C 672.390 884.635, 739.979 888.847, 799 876.535 C 816.829 872.816, 848.378 862.288, 858.147 856.797 C 861.912 854.681, 862 854.502, 862 848.947 C 862 842.297, 859.309 825.909, 858.003 824.603 C 857.469 824.069, 853.316 825.249, 847.801 827.502 C 821.531 838.233, 805.885 843.359, 787 847.422 C 767.625 851.591, 755.386 852.431, 713.500 852.467 C 674.669 852.500, 674.435 852.488, 659.500 849.636 C 615.764 841.285, 571.417 822.943, 530.722 796.373 C 503.598 778.664, 488.256 765.565, 454.500 731.295 C 442.400 719.011, 432.010 708.969, 431.411 708.980 C 430.811 708.991, 429.799 710.146, 429.161 711.547 M 404 728.363 C 404 734.698, 415.655 750.959, 440.593 779.418 C 495.110 841.631, 559.378 886.582, 627.821 910.368 C 642.491 915.466, 672.724 923.175, 686 925.202 C 697.891 927.018, 779.918 927.017, 792.500 925.201 C 803.580 923.602, 837.976 915.188, 851.500 910.768 L 861.500 907.500 862.673 898.500 C 864.296 886.056, 864.326 877.995, 862.750 878.021 C 860.925 878.052, 846.462 882.379, 838.080 885.403 C 822.824 890.906, 788.253 898.517, 766.500 901.161 C 750.384 903.120, 703.148 902.822, 686.731 900.657 C 593.472 888.362, 506.646 839.184, 435.747 758.500 C 420.053 740.640, 408.388 728.350, 405.750 726.895 C 404.298 726.094, 404 726.344, 404 728.363 M 382.708 747.750 C 384.524 752.681, 408.449 785.972, 420.975 801 C 439.752 823.526, 467.902 852.309, 488 869.531 C 565.470 935.916, 647.507 969.841, 739.500 973.537 C 766.812 974.634, 798.830 971.391, 829.456 964.427 C 856.932 958.179, 859 956.706, 859 943.392 C 859 937.383, 858.624 934.793, 857.702 934.439 C 856.988 934.165, 849.710 935.749, 841.529 937.959 C 810.828 946.251, 790.478 949.525, 759.763 951.114 C 691.729 954.632, 634.335 941.856, 568.500 908.541 C 507.471 877.657, 453.636 832.165, 402.010 767.854 C 388.802 751.401, 384.064 746, 382.835 746 C 382.410 746, 382.353 746.788, 382.708 747.750 M 356.092 770.654 C 337.995 786.144, 313.133 824.549, 305.697 848.500 C 300.543 865.099, 299.514 872.314, 299.564 891.500 C 299.603 906.152, 300.014 911.315, 301.774 919.259 C 312.149 966.071, 341.545 1008.571, 388 1043.921 C 448.983 1090.327, 528.731 1124.942, 608 1139.414 C 650.494 1147.172, 688.904 1145.008, 723.634 1132.898 C 778.157 1113.887, 818.480 1071.749, 841.935 1009.273 C 847.426 994.646, 848.863 989, 847.095 989 C 846.475 989, 840.237 990.141, 833.234 991.536 C 814.489 995.269, 798.644 996.896, 769 998.130 C 718.418 1000.237, 687.799 997.130, 648 985.852 C 545.901 956.921, 456.045 890.918, 379.020 788.275 C 370.453 776.858, 362.766 767.386, 361.938 767.227 C 361.111 767.067, 358.480 768.609, 356.092 770.654" stroke="none" fill="#fbfbfb" fill-rule="evenodd"/></svg>