<svg xmlns="http://www.w3.org/2000/svg" width="1298" height="1290" viewBox="0 0 1298 1290" version="1.1"><path d="M 232.895 31.585 C 232.660 32.088, 232.727 161.200, 233.044 318.500 L 233.620 604.500 236.356 622 C 243.880 670.123, 254.682 710.912, 272.241 757.500 C 287.983 799.270, 312.274 848.352, 337.815 890 C 363.631 932.096, 382.576 956.836, 413.857 989.296 C 445.316 1021.942, 468.663 1042.266, 502.500 1066.462 C 548.319 1099.225, 607.242 1129.723, 657.286 1146.578 L 670.072 1150.884 684.286 1146.035 C 729.478 1130.618, 778.508 1106.013, 823.409 1076.216 C 859.736 1052.109, 888.154 1028.625, 920.080 996.330 C 953.965 962.053, 975.482 934.721, 1000.243 894.500 C 1063.887 791.121, 1102.540 680.171, 1107.016 588.014 C 1107.561 576.788, 1107.972 454.566, 1107.982 300.250 L 1108 32 876.750 32 C 749.563 32, 552.760 31.700, 439.411 31.334 C 314.993 30.933, 233.153 31.032, 232.895 31.585 M 871.500 83.083 C 833.913 85.824, 798.726 121.356, 796.285 159.034 L 795.707 167.954 803.003 165.932 C 813.427 163.043, 813.469 163.006, 814.851 155.507 C 817.454 141.379, 824.972 127.870, 835.823 117.824 C 855.263 99.826, 887.030 95.553, 911.387 107.659 C 925.881 114.863, 934.983 124.238, 941.879 139.063 C 949.502 155.452, 950.867 171.698, 945.949 187.500 C 942.077 199.942, 938.449 205.820, 928.632 215.559 C 915.057 229.025, 904.132 233.783, 882.766 235.534 L 875.032 236.168 874.027 239.900 C 873.474 241.953, 872.904 245.853, 872.761 248.566 L 872.500 253.500 884.500 253.390 C 895.453 253.290, 897.473 252.961, 907.648 249.623 C 961.608 231.920, 984.143 167.720, 952.829 120.905 C 946.647 111.663, 936.817 101.773, 928.592 96.522 C 910.678 85.084, 894.923 81.375, 871.500 83.083 M 555.500 87.723 C 533.497 89.393, 506.964 94.716, 491.354 100.591 L 485.153 102.925 476.327 99.917 C 452.182 91.690, 437.420 89.133, 409.323 88.309 C 383.830 87.561, 354.790 89.648, 329.750 94.025 L 323 95.205 323 207.936 C 323 269.938, 323.242 320.908, 323.537 321.204 C 323.832 321.499, 326.870 321.154, 330.287 320.438 C 340.993 318.194, 359.489 316.073, 378.340 314.927 C 410.030 313, 435.595 315.310, 463.981 322.666 C 473.616 325.163, 482.434 327.422, 483.576 327.686 C 484.717 327.950, 490.117 326.792, 495.576 325.112 C 522.061 316.961, 543.366 314.540, 581.866 315.304 C 609.120 315.846, 628.628 317.614, 642.750 320.822 L 647 321.787 647 208.524 L 647 95.260 641.250 94.151 C 622.722 90.575, 569.997 86.623, 555.500 87.723 M 372 101.095 C 355.270 102.540, 336.531 105.123, 335.500 106.127 C 334.383 107.214, 334.128 274.461, 335.242 275.575 C 335.600 275.934, 342.105 275.400, 349.697 274.390 C 360.704 272.925, 370.285 272.548, 397 272.527 C 429.527 272.501, 430.942 272.582, 445.724 275.317 C 454.098 276.866, 464.782 279.157, 469.466 280.408 C 474.151 281.659, 478.212 282.454, 478.492 282.175 C 478.771 281.895, 479 243.792, 479 197.501 L 479 113.335 468.750 110.148 C 453.503 105.406, 437.968 102.214, 424.500 101.054 C 410.773 99.872, 385.940 99.892, 372 101.095 M 539 101.389 C 527.497 103.177, 517.839 105.420, 503.208 109.701 L 490.915 113.298 491.208 197.566 C 491.368 243.914, 491.767 282.101, 492.094 282.428 C 492.421 282.754, 494.532 282.371, 496.786 281.575 C 499.040 280.780, 508.673 278.427, 518.192 276.347 L 535.500 272.565 572 272.610 C 595.018 272.638, 611.640 273.102, 617 273.867 C 621.675 274.534, 627.638 275.350, 630.250 275.679 L 635 276.279 635 190.639 C 635 143.538, 634.649 105, 634.220 105 C 633.790 105, 625.578 104.088, 615.970 102.974 C 593.377 100.353, 551.246 99.486, 539 101.389 M 388.500 125.128 C 373.925 126.707, 367.091 128.141, 364.525 130.159 C 360.224 133.542, 361.619 139.322, 367.216 141.303 C 368.159 141.637, 373.784 141.293, 379.716 140.538 C 407.170 137.042, 424.379 137.716, 441.352 142.949 C 452.110 146.267, 455.194 146.160, 457.668 142.384 C 461.314 136.819, 456.898 132.696, 442.985 128.676 C 428.283 124.429, 407.471 123.073, 388.500 125.128 M 546 125.036 C 541.875 125.514, 534.998 126.813, 530.718 127.920 C 514.804 132.039, 509.788 135.976, 513.410 141.504 C 516.415 146.089, 519.161 146.363, 529.363 143.095 C 534.401 141.481, 542.342 139.632, 547.011 138.986 C 556.705 137.644, 577.051 138.357, 592.201 140.570 C 602.182 142.028, 605.397 141.637, 607.863 138.665 C 609.771 136.366, 608.837 131.946, 606 129.852 C 600.943 126.119, 562.946 123.068, 546 125.036 M 402 157.779 C 399.525 157.932, 390.756 158.936, 382.514 160.009 C 366.211 162.133, 362.754 163.561, 362.178 168.409 C 361.520 173.943, 366.157 176.365, 374.699 174.952 C 377.890 174.424, 386.940 173.527, 394.810 172.960 C 413.810 171.590, 428.766 172.870, 441.531 176.959 C 446.752 178.632, 451.434 180, 451.935 180 C 453.804 180, 459 174.751, 459 172.863 C 459 169.579, 454.353 166.346, 445.721 163.626 C 432.540 159.473, 414.219 157.022, 402 157.779 M 545 158.639 C 536.679 160.338, 521.875 164.421, 518.246 166.018 C 510.923 169.242, 510.387 176.652, 517.311 178.938 C 520.247 179.907, 521.839 179.704, 528.269 177.546 C 532.407 176.157, 540.452 174.275, 546.146 173.363 C 556.586 171.693, 563.298 171.867, 598.790 174.731 C 606.052 175.317, 609 173.638, 609 168.916 C 609 163.708, 605.139 161.792, 591 159.982 C 581.641 158.784, 548.963 157.830, 545 158.639 M 822 169.639 C 805.704 171.702, 789.761 178.473, 776.923 188.785 C 766.745 196.961, 760.398 204.682, 754.583 215.958 C 746.535 231.565, 745.734 235.102, 745.745 255 C 745.757 274.236, 746.862 279.771, 753.233 292.500 C 760.325 306.670, 774.460 321.890, 787.852 329.776 C 810.224 342.950, 841.734 344.495, 866.317 333.623 C 869.302 332.303, 872.042 330.741, 872.406 330.152 C 873.220 328.835, 866.964 321.759, 862.604 319.064 L 859.401 317.085 851.451 319.697 C 844.576 321.955, 841.741 322.315, 830.500 322.355 C 819.490 322.395, 816.429 322.046, 810.500 320.078 C 798.745 316.176, 792.079 312.072, 783.354 303.365 C 776.731 296.756, 774.334 293.472, 770.578 285.865 C 760.519 265.484, 760.369 245.323, 770.128 225.130 C 777.283 210.326, 793.429 196.486, 809.959 190.987 C 815.734 189.065, 818.167 188.873, 832.959 189.169 L 849.500 189.500 859 194.078 C 870.550 199.644, 882.326 210.172, 888.500 220.452 C 893.015 227.969, 893.361 228.051, 903.012 223.899 C 908.678 221.462, 909.103 220.082, 906.037 214.072 C 903.408 208.920, 893.431 196.511, 887.693 191.256 C 882.224 186.249, 873.751 180.689, 866.615 177.427 C 854.635 171.951, 833.243 168.216, 822 169.639 M 923.500 169.982 C 911.080 171.204, 890 178.360, 890 181.354 C 890 182.019, 892.640 185.175, 895.866 188.367 L 901.732 194.172 909.637 191.675 C 913.984 190.301, 921.357 188.851, 926.021 188.452 C 937.940 187.433, 938.603 187.078, 939.904 181.012 C 941.792 172.209, 941.459 170.342, 937.875 169.625 C 934.478 168.946, 933.882 168.961, 923.500 169.982 M 973.562 184.750 C 973.199 186.813, 972.201 190.674, 971.344 193.330 L 969.786 198.160 977.235 205.330 C 986.237 213.994, 991.083 221.027, 994.921 231 C 1003.807 254.083, 1000.185 278.169, 984.979 297.127 C 975.792 308.581, 963.098 317.137, 950.500 320.368 C 909.702 330.832, 871.235 305.705, 865.001 264.521 C 863.078 251.816, 865.245 238.855, 871.589 225.109 C 873.465 221.044, 875 216.892, 875 215.882 C 875 213.778, 865.668 206, 863.144 206 C 859.976 206, 852.094 222.023, 848.302 236.173 C 845.916 245.077, 845.983 266.036, 848.427 275.500 C 858.430 314.226, 892.742 341.125, 931.934 340.965 C 955.432 340.869, 974.728 333.149, 990.586 317.500 C 1004.277 303.989, 1010.555 293.704, 1015.212 277.157 C 1016.935 271.037, 1017.367 266.789, 1017.367 256 C 1017.367 240.174, 1015.840 232.722, 1010.082 220.434 C 1005.217 210.052, 1001.248 204.216, 993.557 196.136 C 988.372 190.687, 976.324 181, 974.734 181 C 974.453 181, 973.925 182.688, 973.562 184.750 M 384.195 193.583 C 365.781 195.813, 362 197.403, 362 202.916 C 362 208.293, 366.723 210.440, 375.359 208.989 C 378.736 208.421, 388.367 207.352, 396.759 206.613 C 414.164 205.080, 424.121 206.001, 438.646 210.485 C 448.685 213.584, 454.259 213.741, 457 211 C 461.935 206.065, 458.564 201.915, 446.478 198.044 C 427.439 191.945, 408.768 190.608, 384.195 193.583 M 544.863 193.002 C 535.343 194.518, 522.944 197.995, 517.848 200.577 C 513.514 202.773, 513 203.386, 513 206.362 C 513 210.169, 515.681 213.164, 519.192 213.281 C 520.461 213.323, 527.125 211.920, 534 210.164 C 540.875 208.407, 549.497 206.612, 553.160 206.175 C 559.785 205.383, 581.322 206.810, 595.158 208.956 C 598.838 209.528, 602.671 209.703, 603.675 209.345 C 610.493 206.919, 610.863 198.631, 604.244 196.594 C 593.832 193.391, 556.575 191.137, 544.863 193.002 M 810.560 199.022 C 802.691 202.094, 802.424 202.702, 805.971 209.446 C 810.399 217.863, 817.838 226.773, 826.189 233.659 C 835.012 240.937, 837.604 242.450, 838.568 240.890 C 839.995 238.581, 842.866 225.586, 842.197 224.463 C 841.814 223.818, 838.700 220.714, 835.278 217.564 C 831.856 214.414, 827.246 209.061, 825.033 205.669 C 818.477 195.617, 818.846 195.787, 810.560 199.022 M 384.500 227.495 C 365.384 230.226, 361.512 231.972, 362.175 237.563 C 362.354 239.069, 363.625 241.137, 365 242.157 C 367.371 243.917, 368.099 243.938, 379.141 242.567 C 408.213 238.957, 422.026 239.509, 441.380 245.058 C 453.333 248.484, 456.555 248.050, 458.415 242.762 C 460.284 237.447, 453.481 233.319, 435.534 228.879 C 424.726 226.205, 398.506 225.494, 384.500 227.495 M 537 228.489 C 523.520 231.697, 517.370 233.927, 514.390 236.689 C 511.406 239.455, 511.382 241.171, 514.284 244.544 C 517.232 247.971, 521.105 248.001, 531.612 244.682 C 547.631 239.622, 560.950 238.953, 586.443 241.928 C 595.212 242.952, 603.087 243.543, 603.943 243.242 C 610.874 240.810, 610.608 233.197, 603.500 230.563 C 598.452 228.691, 581.939 226.914, 565.500 226.473 C 548.817 226.026, 546.732 226.173, 537 228.489 M 905.528 258.332 C 899.363 260.305, 898.475 260.907, 897.850 263.532 C 894.782 276.431, 893.310 280.904, 890.016 287.346 L 886.248 294.714 892.209 299.857 C 895.488 302.686, 898.550 305, 899.013 305 C 900.528 305, 904.112 299.647, 908.051 291.500 C 912.461 282.380, 915.983 268.966, 915.993 261.250 C 916.001 255.055, 915.876 255.020, 905.528 258.332 M 383.250 379.753 L 254 380.008 254.009 480.254 C 254.014 537.310, 254.450 586.497, 255.021 594.419 C 256.675 617.361, 263.081 653.674, 270.535 682.362 C 290.638 759.736, 332.530 849.069, 380.085 915.972 C 435.385 993.772, 518.246 1061.215, 612.760 1105.351 C 629.791 1113.305, 655.026 1123.707, 664.250 1126.577 C 669.778 1128.296, 670.222 1128.296, 675.750 1126.565 C 684.156 1123.933, 708.546 1114.049, 723.500 1107.216 C 774.204 1084.047, 823.272 1052.935, 869 1014.961 C 892.459 995.480, 926.488 960.124, 948.366 932.500 C 980.554 891.857, 1019.922 821.548, 1043.421 762.736 C 1063.319 712.934, 1074.962 670.370, 1083.148 617.500 L 1086.399 596.500 1086.450 488.835 C 1086.477 429.619, 1086.275 380.969, 1086 380.724 C 1085.360 380.153, 553.342 379.418, 383.250 379.753 M 484.500 425.038 C 481.200 425.448, 473.438 425.832, 467.250 425.891 C 454.260 426.017, 454.182 426.097, 459.432 433.900 L 462.865 439 456.682 439.026 C 453.282 439.040, 446 439.481, 440.500 440.007 C 431.959 440.823, 429.333 441.539, 422.500 444.913 C 418.100 447.086, 412.925 450.518, 411 452.539 C 407.683 456.021, 407.600 456.273, 409.421 457.357 C 410.477 457.985, 412.986 459.944, 414.997 461.709 C 417.007 463.474, 420.555 465.999, 422.881 467.321 L 427.111 469.723 421.640 471.943 C 414.393 474.885, 409.068 479.594, 405.587 486.141 C 404.020 489.089, 400.258 494.052, 397.228 497.172 L 391.718 502.843 394.339 507.316 C 397.627 512.926, 401.948 516.605, 407.045 518.132 C 409.220 518.783, 411 519.853, 411 520.508 C 411 523.064, 404.848 530, 400.292 532.581 C 397.656 534.075, 394.396 535.975, 393.046 536.805 L 390.592 538.313 394.997 542.107 C 400.996 547.273, 407.562 550.632, 413.250 551.444 C 418.413 552.181, 419.208 553.597, 416.060 556.446 C 413.552 558.715, 411.004 566.237, 410.985 571.428 C 410.958 578.555, 410.111 578.550, 401.138 571.371 C 386.486 559.647, 378.349 551.046, 375.070 543.816 C 373.444 540.228, 368.749 526.089, 364.637 512.396 C 355.440 481.766, 353.637 476.894, 350.098 473.105 C 347.368 470.182, 346.197 469.704, 338.968 468.553 C 337.025 468.244, 333.953 466.637, 332.141 464.981 C 330.328 463.326, 327.642 461.361, 326.173 460.615 C 322.598 458.802, 314 457.575, 314 458.878 C 314 459.428, 315.800 461.958, 318 464.500 C 322.620 469.838, 322.823 470.902, 319.750 473.701 C 316.066 477.056, 313.427 478, 307.732 478 C 301.067 478, 300.129 478.792, 304.004 481.148 C 307.579 483.322, 307.638 484.153, 304.837 492.813 C 303.647 496.491, 302.527 500.085, 302.349 500.800 C 302.170 501.516, 299.714 503.061, 296.891 504.234 L 291.759 506.367 296.629 508.521 C 303.379 511.506, 304.388 512.940, 303.071 517.682 C 301.421 523.626, 301.809 528.069, 304.455 533.500 C 307.547 539.848, 307.811 540.148, 318 548.888 C 326.797 556.435, 329.457 559.840, 333.490 568.717 C 334.794 571.586, 339.417 579.461, 343.763 586.217 C 359.193 610.200, 367.076 624.477, 369.558 632.940 C 372.521 643.038, 374.176 657.212, 374.645 676.500 C 374.913 687.500, 375.307 697.047, 375.521 697.716 C 376.036 699.321, 383.652 697.096, 387.832 694.120 C 389.469 692.954, 391.032 692, 391.305 692 C 394.148 692, 395.589 724.607, 393.202 734.923 C 392.512 737.906, 392.312 740.712, 392.759 741.159 C 394.581 742.981, 412.958 728.683, 418.728 720.954 L 422.244 716.244 430.872 716.247 C 439.810 716.250, 448.706 714.387, 462.925 709.534 C 467.009 708.140, 470.915 707, 471.604 707 C 472.294 707, 474.961 710.375, 477.532 714.500 C 480.103 718.625, 482.463 722, 482.776 722 C 483.089 722, 486.431 718.651, 490.203 714.558 C 497.332 706.821, 500.611 704.779, 502.110 707.143 C 502.582 707.889, 502.976 711.947, 502.985 716.161 C 502.994 720.772, 503.738 726.194, 504.855 729.781 C 507.247 737.469, 514.722 750.015, 523.250 760.659 C 528.431 767.126, 530 769.830, 529.999 772.292 C 529.998 777.033, 515.684 833.910, 510.615 849.314 C 508.208 856.630, 504.657 866.037, 502.726 870.217 L 499.214 877.818 492.857 878.379 C 489.361 878.687, 478.697 879.216, 469.161 879.554 C 450.859 880.203, 442.921 881.860, 438.548 885.943 C 437.421 886.995, 433.995 888.789, 430.934 889.931 C 424.668 892.267, 420.834 895.758, 418.563 901.195 L 417.019 904.890 420.477 903.445 C 422.380 902.650, 425.489 902, 427.388 902 C 430.398 902, 430.924 902.378, 431.489 904.948 C 431.985 907.208, 431.363 909.291, 428.825 913.872 C 427.005 917.159, 425.782 920.115, 426.109 920.442 C 426.435 920.768, 428.611 920.181, 430.945 919.136 C 436.250 916.761, 438.293 917.273, 440.599 921.555 C 442.334 924.775, 442.339 925.158, 440.705 929.717 C 438.104 936.971, 438.358 937.359, 443.871 934.565 L 448.742 932.097 451.037 934.540 C 452.299 935.883, 455.314 937.942, 457.736 939.114 C 464.802 942.535, 475.766 941.090, 512.243 931.933 C 540.421 924.859, 543.736 922.243, 551.149 901.235 C 555.279 889.530, 560.563 879.199, 570.704 863 C 580.042 848.084, 585.033 842.359, 595.561 834.483 C 604.325 827.927, 621.324 817.373, 630.832 812.585 C 634.774 810.599, 638 808.631, 638 808.210 C 638 806.322, 634.520 802.808, 630.204 800.337 C 627.617 798.856, 625.310 797.496, 625.077 797.316 C 624.441 796.822, 632.585 790.003, 638.915 785.729 C 642.272 783.462, 648.798 780.587, 655.272 778.524 C 661.197 776.635, 666.486 774.818, 667.025 774.485 C 668.341 773.672, 666.729 770.667, 661.772 764.692 C 659.578 762.047, 657.944 759.774, 658.141 759.640 C 665.033 754.960, 673.365 750.192, 678.245 748.136 C 683.900 745.753, 685.724 745.500, 697.250 745.500 C 705.013 745.500, 710.041 745.109, 710.106 744.500 C 710.641 739.452, 709.182 735.071, 705.688 731.237 C 703.040 728.330, 703.762 727.660, 713.026 724.424 C 720.197 721.918, 720.528 721.889, 721.772 723.660 C 722.484 724.672, 727.057 731.575, 731.934 739 C 739.811 750.991, 747.922 761.541, 762.524 778.787 C 767.620 784.807, 767.954 786.913, 765.122 795.147 C 762.271 803.431, 741.994 850.329, 740.662 851.717 C 739.884 852.528, 732.333 853.283, 717.997 853.981 C 691.769 855.260, 687.382 856.062, 681.316 860.692 C 678.767 862.638, 674.688 864.909, 672.252 865.739 C 666.964 867.541, 660.425 873.458, 659.456 877.319 C 658.525 881.029, 659.034 881.302, 663.448 879.457 C 665.513 878.594, 668.620 878.026, 670.351 878.194 C 674.738 878.620, 674.881 881.465, 670.921 889.509 C 669.153 893.101, 667.974 896.307, 668.301 896.635 C 668.629 896.962, 671.255 896.055, 674.138 894.619 L 679.379 892.007 681.689 894.178 C 684.593 896.906, 684.576 897.500, 681.397 904.443 C 679.966 907.570, 678.956 910.289, 679.153 910.486 C 679.350 910.683, 681.309 909.995, 683.506 908.956 C 688.933 906.390, 689.927 906.502, 695.036 910.250 C 699.337 913.406, 699.740 913.497, 708.983 913.386 C 717.029 913.289, 721.977 912.390, 741 907.568 C 753.375 904.431, 765.300 901.065, 767.500 900.087 C 774.007 897.196, 779.207 890.437, 787.458 874.148 C 791.667 865.839, 796.900 856.775, 799.088 854.007 C 803.565 848.344, 811.361 842.376, 824.250 834.743 C 829.063 831.894, 833 828.988, 833 828.287 C 833 827.093, 826.226 821.575, 823.746 820.749 C 822.170 820.223, 829.425 813.631, 836 809.614 C 839.025 807.765, 844.538 805.259, 848.250 804.045 C 851.962 802.831, 855 801.414, 855 800.896 C 855 799.539, 846.918 794.615, 839.553 791.485 C 833.309 788.831, 833.167 788.683, 829.647 781.146 C 825.038 771.279, 824.447 767.156, 826.423 758.656 C 828.008 751.842, 834.546 735.399, 836.038 734.477 C 836.469 734.210, 839.899 737.705, 843.661 742.241 C 851 751.094, 871.468 773.970, 885.415 788.909 C 890.128 793.957, 894.241 799.114, 894.556 800.369 C 895.871 805.607, 883.552 842.618, 873.498 863.634 L 866.259 878.767 857.379 879.369 C 852.496 879.700, 842.650 880.229, 835.500 880.545 C 817.745 881.329, 812.639 882.433, 808.152 886.459 C 806.143 888.261, 802.475 890.746, 800 891.981 C 797.525 893.215, 794.444 895.187, 793.153 896.363 C 790.464 898.811, 786.573 905.907, 787.443 906.776 C 787.763 907.096, 789.610 906.603, 791.546 905.679 C 796.682 903.230, 799.458 903.515, 800.880 906.637 C 801.932 908.945, 801.762 909.735, 799.518 912.974 C 796.671 917.082, 794.618 923, 796.039 923 C 796.534 923, 798.780 922.040, 801.030 920.867 C 804.383 919.120, 805.565 918.936, 807.576 919.853 C 811.711 921.737, 812.653 925.282, 810.563 931.094 C 808.489 936.862, 808.930 937.931, 812.434 935.635 C 815.521 933.612, 819.363 933.527, 820.956 935.447 C 823.611 938.646, 830.638 940.309, 838.494 939.597 C 846.914 938.834, 872.486 932.759, 887.437 927.969 C 896.189 925.166, 897.922 924.206, 902.462 919.650 C 906.953 915.143, 908.677 912.046, 916.265 894.856 C 921.034 884.052, 926.338 871.677, 928.051 867.356 C 933.142 854.517, 937.980 846.149, 942.406 842.530 C 944.658 840.689, 951.450 836.191, 957.500 832.536 C 963.550 828.881, 969.304 825.098, 970.287 824.131 C 972.001 822.442, 971.981 822.273, 969.785 819.936 C 968.526 818.596, 966.372 816.723, 964.998 815.773 L 962.500 814.046 966.500 810.510 C 972.917 804.838, 979.974 800.654, 986.925 798.400 C 990.486 797.244, 993.539 795.882, 993.709 795.372 C 994.279 793.663, 982.580 786.958, 975.158 784.740 C 969.382 783.013, 967.522 781.976, 966.435 779.875 C 965.676 778.407, 962.905 775.875, 960.277 774.249 C 946.631 765.805, 940.535 758.698, 936.930 747.034 C 933.656 736.441, 932.951 728.135, 932.429 694 C 931.886 658.470, 931.089 647.288, 927.884 630.201 C 926.718 623.987, 926.034 618.633, 926.363 618.303 C 926.692 617.974, 936.083 616.412, 947.231 614.831 C 1009.272 606.036, 1039.535 590.094, 1048.173 561.658 C 1052.226 548.313, 1049.323 529.863, 1041.339 518.223 C 1037.041 511.957, 1032.618 508.282, 1024.492 504.223 C 1013.510 498.736, 1012.043 498.496, 990 498.559 L 969.500 498.619 954 502.752 C 945.475 505.026, 931.015 509.381, 921.866 512.430 C 884.344 524.938, 855.271 529.943, 811 531.517 C 760.832 533.301, 737.641 522.739, 741.975 500.082 C 743.371 492.789, 745.687 489.100, 751.210 485.378 C 758.926 480.178, 765.073 479.500, 804.500 479.500 C 823.750 479.500, 840.663 479.827, 842.084 480.227 C 843.505 480.627, 846.337 482.281, 848.376 483.902 C 853.333 487.841, 865.094 492.634, 876.328 495.295 C 884.257 497.172, 888.278 497.457, 906 497.396 C 924.035 497.333, 928.049 497.008, 939.387 494.692 C 946.474 493.245, 952.433 491.900, 952.629 491.705 C 952.824 491.509, 950.783 490.354, 948.092 489.138 C 942.304 486.523, 938 482.513, 938 479.736 C 938 477.922, 938.379 477.823, 942.250 478.622 C 944.587 479.105, 950.775 479.480, 956 479.456 C 964.605 479.416, 966.395 479.054, 975 475.618 C 989.661 469.765, 993.482 468.919, 1006.246 468.701 C 1012.707 468.590, 1017.994 468.193, 1017.996 467.817 C 1018.003 466.587, 1009.618 460.231, 1002.503 456.074 L 995.532 452 981.433 452 C 973.678 452, 967.112 451.779, 966.842 451.509 C 966.572 451.239, 968.522 448.765, 971.175 446.012 C 973.829 443.259, 976 440.185, 976 439.180 C 976 437.419, 975.756 437.416, 969.070 439.114 C 951.708 443.523, 945.916 443.479, 928.820 438.803 C 921.405 436.775, 918.217 436.526, 899.500 436.514 L 878.500 436.500 870.181 440.204 C 865.606 442.240, 858.054 446.467, 853.399 449.596 L 844.936 455.286 820.218 453.992 C 765.361 451.121, 740.789 455.184, 726.753 469.443 C 717.339 479.006, 713 490.073, 713 504.518 C 713 518.349, 716.640 528.494, 724.691 537.101 C 730.811 543.643, 737.159 547.522, 748.215 551.474 C 764.459 557.279, 775.272 558.504, 810 558.471 C 843.275 558.440, 850.236 557.836, 880.500 552.363 C 901.311 548.599, 911.524 546.046, 932.092 539.464 C 967.995 527.976, 992.733 524.305, 1005.328 528.596 C 1012.955 531.195, 1018 539.086, 1018 548.416 C 1018 556.020, 1012.449 561.957, 999.554 568.145 C 977.511 578.722, 921.767 585.822, 893.872 581.606 C 880.992 579.660, 838.145 579.416, 816 581.164 C 808.025 581.794, 787.100 582.296, 769.500 582.280 C 740.557 582.254, 735.542 581.993, 717 579.550 C 693.093 576.400, 678.094 573.719, 669 570.969 L 662.500 569.004 658.626 560.960 C 656.495 556.535, 654.920 552.763, 655.126 552.576 C 655.332 552.389, 657.942 551.721, 660.926 551.091 C 663.910 550.461, 667.960 548.953, 669.926 547.740 C 674.223 545.088, 681 539.092, 681 537.942 C 681 537.489, 678.292 535.674, 674.982 533.910 C 668.381 530.391, 662 524.084, 662 521.077 C 662 519.777, 662.927 518.955, 664.877 518.527 C 666.459 518.180, 669.263 516.782, 671.107 515.421 C 674.785 512.708, 680 505.556, 680 503.226 C 680 502.415, 677.934 499.934, 675.409 497.711 C 672.875 495.481, 669.718 491.347, 668.364 488.486 C 664.392 480.098, 657.124 473.830, 647.631 470.606 C 646.032 470.063, 646.320 469.598, 649.631 467.381 C 651.759 465.956, 654.497 463.873, 655.716 462.752 C 656.935 461.632, 659.572 459.725, 661.575 458.516 L 665.218 456.318 662.144 452.817 C 658.582 448.760, 649.888 443.900, 642 441.557 C 638.883 440.631, 630.760 439.656, 623.250 439.307 C 615.962 438.969, 610 438.510, 610 438.287 C 610 438.065, 611.304 436.222, 612.899 434.191 C 614.493 432.161, 616.098 429.488, 616.466 428.250 C 617.126 426.029, 617.015 426, 607.711 426 C 602.527 426, 592.330 425.501, 585.051 424.892 C 570.159 423.646, 559.532 424.654, 553.211 427.912 C 547.222 431, 541.405 436.607, 539.098 441.516 C 536.735 446.542, 535.671 446.542, 533.570 441.513 C 531.738 437.128, 525.059 430.715, 519.736 428.229 C 511.139 424.214, 499.579 423.168, 484.500 425.038 M 760.342 462.479 C 740.212 466.132, 729.988 473.328, 723.354 488.512 C 722.012 491.585, 721.604 495.368, 721.577 505 C 721.542 517.381, 721.574 517.561, 724.997 523.913 C 730.446 534.026, 742.899 542.632, 757.500 546.377 C 782.823 552.871, 832.607 552.681, 872.500 545.938 C 890.280 542.932, 909.958 538.308, 923.500 533.953 C 943.629 527.479, 962.110 522.317, 970 520.964 C 980.139 519.226, 1002.302 519.138, 1007.841 520.813 C 1013.498 522.524, 1020.252 528.829, 1022.797 534.773 C 1035.170 563.681, 1008.722 581.971, 945 588.571 C 922.222 590.930, 903.489 590.938, 887.500 588.596 C 872.593 586.412, 845.802 586.119, 827 587.933 C 808.245 589.743, 757.595 590.402, 738 589.091 C 718.051 587.756, 698.141 585.069, 680 581.265 C 660.743 577.226, 662.408 576.624, 658.603 589 C 655.181 600.130, 651.470 608.353, 642.642 624.372 C 635.324 637.650, 633 645.039, 633 655.021 C 633 662.772, 632.931 663, 630.605 663 C 626.291 663, 615.582 659.048, 611.525 655.958 C 607.926 653.217, 607.484 653.099, 606.846 654.715 C 606.458 655.697, 606.109 663.731, 606.070 672.568 C 606.019 684.186, 605.557 690.142, 604.401 694.068 C 601.649 703.418, 590.247 723.786, 588.764 722 C 588.536 721.725, 585.377 718.051, 581.744 713.835 C 578.111 709.619, 574.326 704.669, 573.332 702.835 L 571.525 699.500 570.886 710 C 569.587 731.349, 564.248 742.787, 544.553 766.418 C 540.923 770.773, 537.742 775.273, 537.484 776.418 C 525.017 831.647, 515.928 862.614, 507.347 879.098 L 503.912 885.696 491.206 886.344 C 484.218 886.700, 474.450 886.996, 469.500 887.002 C 458.194 887.014, 449.274 888.442, 446.862 890.625 C 445.838 891.552, 445 893.556, 445 895.078 C 445 896.601, 443.835 899.231, 442.411 900.923 L 439.822 904 445.794 904 C 450.902 904, 451.842 904.286, 452.283 905.976 C 452.938 908.479, 451.588 914.587, 449.941 916.571 C 447.224 919.845, 452.012 920.195, 461.249 917.396 C 463.986 916.566, 465.391 921.390, 464.010 926.875 C 463.280 929.774, 463.235 931.635, 463.880 932.280 C 465.592 933.992, 483.321 931.100, 505.689 925.458 C 537.390 917.463, 537.134 917.651, 544.503 897 C 549.648 882.580, 550.559 880.897, 573.461 843.500 C 611.684 781.083, 626 756.334, 626 752.674 C 626 751.234, 625.051 745.742, 623.892 740.470 C 622.732 735.197, 622.049 730.618, 622.373 730.293 C 622.977 729.690, 641.576 724.064, 666.500 716.947 C 674.200 714.748, 686.350 711.178, 693.500 709.013 C 700.650 706.848, 720.675 700.979, 738 695.970 C 778.700 684.204, 789 681.046, 789 680.331 C 789 680.010, 787.090 676.212, 784.756 671.891 L 780.512 664.033 783.195 661.350 L 785.878 658.668 791.689 663.022 C 802.944 671.456, 810.331 679.961, 822.355 698.329 C 839.307 724.227, 851.999 740.350, 877.593 768.500 C 890.094 782.250, 901.102 794.777, 902.054 796.339 C 903.734 799.091, 903.686 799.560, 900.482 811.839 C 896.476 827.189, 892.236 839.984, 886.467 854.139 C 881.111 867.276, 872.499 884.572, 870.780 885.641 C 870.076 886.079, 858.404 886.970, 844.842 887.620 C 816.346 888.987, 814.786 889.392, 813.950 895.633 C 813.648 897.892, 812.640 900.901, 811.711 902.318 L 810.022 904.896 815.242 905.198 C 819.934 905.470, 820.560 905.781, 821.436 908.286 C 822.374 910.966, 822.227 911.721, 819.457 918.404 C 818.724 920.173, 818.982 920.250, 823.084 919.489 C 825.513 919.039, 829.075 918.632, 831 918.585 L 834.500 918.500 834.414 925.375 L 834.328 932.251 840.227 931.634 C 848.617 930.757, 887.230 920.424, 892.952 917.524 C 897.241 915.351, 898.229 914.161, 902.278 906.297 C 904.768 901.459, 908.694 893, 911 887.500 C 926.097 851.505, 941.591 819.389, 953.447 799.517 C 959.702 789.034, 960.871 785.788, 959.235 783.451 C 958.831 782.874, 955.256 780.264, 951.292 777.652 C 938.978 769.538, 931.803 759.298, 927.932 744.314 C 926.172 737.500, 925.793 731.380, 924.970 696.500 C 923.896 650.967, 923.128 641.974, 918.939 625.953 C 917.292 619.654, 915.845 613.620, 915.723 612.545 C 915.515 610.725, 916.914 610.434, 936 608.333 C 971.051 604.474, 990.776 599.563, 1011.504 589.536 C 1024.536 583.232, 1033.932 574.926, 1038.428 565.738 C 1043.436 555.501, 1043.001 537.855, 1037.470 526.942 C 1031.396 514.953, 1015.606 506.167, 998.500 505.257 C 979.167 504.227, 963.626 507.190, 929 518.506 C 897.930 528.660, 883.784 531.974, 853.500 536.193 C 839.727 538.112, 833.047 538.426, 805.500 538.448 C 775.254 538.473, 773.061 538.351, 765.500 536.214 C 748.661 531.457, 738.992 524.783, 735.431 515.458 C 732.663 508.209, 733.795 496.654, 738.086 488.369 C 740.907 482.921, 742.455 481.193, 747 478.420 C 757.196 472.200, 760.108 471.841, 805 471.276 C 827.275 470.996, 846.288 470.354, 847.250 469.848 C 849.689 468.568, 849.432 466.329, 846.634 464.496 C 841.680 461.250, 775.625 459.706, 760.342 462.479 M 502.649 469.747 L 485.797 477.230 479.913 475.982 C 467.026 473.247, 457.714 478.255, 456.317 488.674 C 455.644 493.689, 457.649 497.884, 463.705 504.134 L 468.196 508.767 462.999 518.406 C 460.141 523.707, 458.024 528.621, 458.295 529.326 C 458.565 530.031, 465.585 538.797, 473.893 548.806 L 489 567.004 489 579.825 L 489 592.647 495.945 597.392 C 503.273 602.399, 503.566 602.880, 506.070 614 C 507.701 621.242, 508.691 622.657, 513.480 624.589 C 519.099 626.855, 539.646 627.671, 548.595 625.982 C 557.766 624.252, 560.204 621.795, 562.420 612.050 C 564.622 602.372, 564.917 601.918, 571.955 597.384 L 577.983 593.500 577.991 580.816 L 578 568.132 585.238 559.316 C 589.219 554.467, 596.419 545.815, 601.238 540.088 C 606.057 534.361, 609.999 529.186, 609.998 528.588 C 609.996 527.990, 607.746 523.490, 604.998 518.590 C 602.249 513.689, 600 509.393, 600 509.043 C 600 508.693, 601.855 506.627, 604.123 504.453 C 612.320 496.594, 613.785 488.391, 608.284 481.144 C 603.892 475.359, 597.359 473.798, 587.276 476.126 C 582.424 477.246, 582.309 477.212, 564.950 469.646 L 547.500 462.040 545.680 464.270 C 538.836 472.655, 534.706 477, 533.578 477 C 532.860 477, 531.092 475.298, 529.650 473.217 C 528.208 471.136, 525.335 467.821, 523.264 465.849 L 519.500 462.263 502.649 469.747 M 337.387 478.583 C 336.225 479.396, 332.850 480.311, 329.887 480.615 C 321.505 481.477, 321.507 481.474, 325.446 486.633 C 327.401 489.193, 329 491.828, 329 492.489 C 329 494.611, 325.562 496.886, 321.334 497.563 C 317.932 498.107, 316.852 497.852, 315.092 496.092 L 312.964 493.964 311.982 496.547 C 310.419 500.657, 310.831 503.883, 313.157 505.760 C 318.829 510.336, 323 514.321, 323 515.162 C 323 517.119, 318.054 520.908, 314.115 521.969 C 310.935 522.825, 310 523.559, 310 525.201 C 310 529.184, 314.820 535.557, 324.790 544.757 C 333.181 552.500, 335.424 555.251, 339.033 562.224 C 341.388 566.776, 346.313 575.225, 349.977 581 C 353.641 586.775, 362.394 601.400, 369.428 613.500 C 392.774 653.663, 417.992 695.408, 423.113 702.370 L 428.166 709.240 433.937 708.587 C 440.055 707.894, 453.853 704.384, 463 701.193 C 469.168 699.040, 468.869 700.066, 467.130 687.026 C 466.509 682.366, 466 672.803, 466 665.776 C 466 658.749, 465.771 653, 465.491 653 C 465.212 653, 463.139 654.335, 460.886 655.968 C 456.006 659.503, 447.092 663, 442.962 663 L 440 663 440 656.456 C 440 646.553, 437.457 638.369, 430.331 625.330 C 426.774 618.824, 421.849 609.006, 419.385 603.514 C 414.290 592.156, 413.256 590.862, 403.223 583.281 C 391.316 574.284, 377.102 561.145, 372.472 554.855 C 368.005 548.787, 366.914 545.754, 351.503 496.584 C 348.932 488.380, 346.140 480.618, 345.299 479.334 C 343.568 476.692, 340.505 476.402, 337.387 478.583 M 498.250 510.743 C 494.262 510.932, 491 511.437, 491 511.865 C 491 512.676, 505.806 521.280, 512.167 524.165 C 514.186 525.080, 516.099 525.568, 516.419 525.248 C 516.738 524.928, 517 521.367, 517 517.333 L 517 510 511.250 510.199 C 508.087 510.308, 502.238 510.553, 498.250 510.743 M 550.250 511.706 L 548 512.139 548 538.048 L 548 563.958 528.481 564.229 L 508.962 564.500 519.981 572.264 L 531 580.027 531 584.389 C 531 593.598, 530.267 594.959, 523.603 598.111 C 519.256 600.168, 515.968 600.999, 512.177 600.999 C 507.647 601, 506.903 601.261, 507.187 602.750 C 507.674 605.303, 520.080 605.721, 526.116 603.388 C 528.527 602.456, 532.075 601.693, 534 601.693 C 535.925 601.693, 539.473 602.456, 541.884 603.388 C 547.920 605.721, 560.326 605.303, 560.813 602.750 C 561.098 601.257, 560.348 601, 555.695 601 C 550.054 601, 544.507 599.197, 539.750 595.818 C 537.273 594.058, 537 593.269, 537 587.866 C 537 581.715, 538.204 578, 540.197 578 C 541.770 578, 556.557 569.239, 558.078 567.406 C 559.078 566.201, 558.988 562.791, 557.621 550.201 C 556.683 541.566, 555.756 532.842, 555.562 530.816 L 555.208 527.132 565.854 521.025 C 571.709 517.666, 577.625 514.046, 579 512.981 L 581.500 511.044 567 511.158 C 559.025 511.221, 551.487 511.467, 550.250 511.706 M 770 704.130 C 760.477 706.123, 757.561 707.423, 759.543 708.792 C 762.117 710.568, 765 715.537, 765 718.195 L 765 721.120 748.146 720.419 C 737.428 719.973, 731.071 720.075, 730.686 720.699 C 729.231 723.054, 748.720 750.693, 764.799 769.076 C 777.321 783.394, 777.634 784.712, 771.984 799.371 C 766.448 813.734, 747.748 856.549, 746.292 858.193 C 744.214 860.540, 742.477 860.770, 717.024 862.060 C 691.455 863.356, 687.943 864.102, 686.693 868.500 C 685.466 872.818, 684.347 876.259, 683.564 878.125 C 682.957 879.571, 683.387 879.634, 687.467 878.700 C 690.768 877.945, 692.362 877.962, 693.162 878.762 C 694.896 880.496, 694.467 887.357, 692.431 890.466 L 690.588 893.277 697.221 892.567 C 703.387 891.906, 703.935 892.010, 705.023 894.042 C 705.666 895.244, 705.961 897.639, 705.677 899.364 C 705.394 901.089, 705.014 903.400, 704.831 904.500 C 704.533 906.303, 704.991 906.476, 709.500 906.252 C 718.215 905.821, 759.144 895.498, 765.993 892.004 C 770.508 889.700, 771.692 887.969, 780.023 871.500 C 801.660 828.723, 814.876 804.257, 818.596 800.089 C 825.886 791.923, 825.997 790.685, 820.408 779.991 C 815.165 769.961, 816.794 757.012, 825.688 738 C 832.194 724.093, 832.707 726.111, 819.401 713.250 L 807.761 702 793.630 702.071 C 783.615 702.121, 776.733 702.721, 770 704.130" stroke="none" fill="#1d1d1d" fill-rule="evenodd"/></svg>