<svg xmlns="http://www.w3.org/2000/svg" width="1654" height="1300" viewBox="0 0 1654 1300" version="1.1"><path d="M 636.500 2.594 C 578.327 8.828, 510.427 17.684, 460.797 25.512 C 434.239 29.700, 427.965 31.082, 416.666 35.233 L 407.833 38.478 408.442 56.489 C 408.777 66.395, 409.715 107.125, 410.528 147 C 415.438 387.983, 423.056 502.062, 440.612 597.500 C 446.448 629.225, 451.855 648.469, 462.527 675.500 C 466.001 684.300, 468.992 692.400, 469.172 693.500 C 469.521 695.626, 470.268 695.430, 442.874 700.403 C 428.419 703.028, 409.693 713.564, 395.627 726.987 C 386.354 735.835, 382.491 741.137, 380.853 747.260 C 379.714 751.520, 379.814 752.008, 382.972 757.615 C 388.876 768.095, 398.450 780.358, 422.364 808.070 C 441.152 829.842, 445 836.811, 445 849.069 C 445 878.018, 429.093 920.420, 411.138 939.332 C 403.133 947.764, 397.371 948.759, 349.500 949.973 C 311.957 950.925, 299.629 951.827, 286.052 954.615 C 269.831 957.947, 259.354 962.660, 251.355 970.225 C 241.143 979.884, 237.225 990.284, 236.131 1010.641 C 235.644 1019.707, 234.981 1024.319, 233.992 1025.510 C 232.343 1027.497, 229.988 1027.369, 208 1024.100 C 191.160 1021.596, 167.345 1019.368, 142 1017.923 C 82.139 1014.512, 62.319 1023.570, 53.516 1058.363 C 47.970 1080.283, 45.217 1133.091, 47.801 1168 C 50.283 1201.519, 55.687 1210.377, 81.500 1223.233 C 93.010 1228.966, 104.030 1232.557, 116 1234.474 C 138.058 1238.007, 206.269 1238.760, 245.500 1235.903 C 300.067 1231.930, 351.926 1218.129, 395.500 1195.984 C 423.218 1181.898, 437.571 1173.070, 477.245 1145.708 L 499.892 1130.090 527.196 1135.957 C 599.889 1151.576, 654.963 1158.654, 747 1164.204 C 776.276 1165.969, 903.724 1165.969, 933 1164.204 C 1023.806 1158.728, 1077.516 1151.569, 1145.127 1135.928 C 1159.222 1132.668, 1171.372 1130.010, 1172.127 1130.023 C 1172.882 1130.036, 1180.025 1134.821, 1188 1140.658 C 1231.677 1172.620, 1271.748 1194.227, 1324.584 1214.307 C 1371.841 1232.266, 1421.662 1238.837, 1502.191 1237.733 C 1553.725 1237.026, 1570.286 1234.729, 1589.519 1225.618 C 1599.667 1220.811, 1607.923 1214.032, 1611.018 1207.965 C 1616.022 1198.156, 1616.084 1197.031, 1615.782 1120.733 L 1615.500 1049.500 1612.631 1043.288 C 1609.582 1036.688, 1601.174 1027.693, 1595.135 1024.570 C 1588.887 1021.339, 1578.872 1019.928, 1558 1019.340 C 1521.633 1018.315, 1481.446 1020.913, 1449.750 1026.338 L 1436 1028.692 1436 1014.506 C 1436 992.089, 1432.111 980.124, 1421.591 970.175 C 1414.445 963.416, 1404.097 958.579, 1390.146 955.476 C 1372.398 951.528, 1362.401 950.844, 1314.288 950.284 L 1268.076 949.746 1258.152 934.623 C 1252.693 926.305, 1247.242 917.538, 1246.038 915.141 C 1238.004 899.149, 1228.425 867.321, 1227.316 852.937 C 1226.281 839.519, 1229.067 834.503, 1254.176 804.575 C 1279.075 774.897, 1282.380 770.608, 1286.466 762.664 C 1293.326 749.329, 1290.772 738.647, 1277.566 725.428 C 1269.491 717.345, 1261.957 712.007, 1250.492 706.246 C 1238.313 700.125, 1233.190 698.871, 1217.390 698.147 L 1203.281 697.500 1209.664 681 C 1218.360 658.521, 1224.070 639.889, 1228.817 618.500 C 1241.526 561.237, 1250.808 482.936, 1256.436 385.500 C 1260.592 313.569, 1261.968 250.545, 1261.986 131.416 L 1262 33.333 1232.750 28.087 C 1139.882 11.434, 1074.659 4.872, 963.500 1.001 C 948.100 0.465, 873.175 0.073, 797 0.131 C 658.750 0.237, 658.460 0.241, 636.500 2.594 M 734 22.063 C 675.727 24.193, 595.017 32.091, 509 44.080 C 471.863 49.256, 434.889 55.943, 432.804 57.860 C 431.402 59.150, 437.269 284.802, 440.543 355.500 C 447.583 507.531, 461.015 599.333, 485.022 659.500 C 505.285 710.285, 537.437 756.839, 587.487 807.863 C 614.542 835.444, 634.727 853.180, 664.500 875.530 C 706.929 907.381, 747.939 931.262, 795.589 951.867 C 818.068 961.587, 826.550 962.930, 830.860 957.451 C 835.127 952.026, 835.500 947.133, 835.500 896.500 C 835.500 847.759, 835.212 843.408, 831.670 838.564 C 829.923 836.174, 821.199 835.331, 815.131 836.965 C 809.377 838.514, 806.355 841.974, 804.983 848.581 C 802.347 861.279, 783.721 876.997, 771.307 876.999 C 763.634 877.001, 762.230 871.001, 769.074 867.462 C 772.538 865.670, 775.991 860.557, 775.996 857.210 C 776.012 847.724, 758.676 834.003, 746.673 834.001 C 740.111 834, 736.688 837.371, 735.001 845.495 C 732.642 856.858, 735.754 869.910, 744.064 883.500 C 752.502 897.299, 751.915 901.694, 741.775 900.634 C 733.841 899.805, 727.597 896.358, 720.435 888.854 C 707.783 875.597, 698.009 857.179, 697.996 846.568 C 697.994 844.881, 697.116 842.062, 696.044 840.304 C 691.238 832.422, 676.667 836.589, 676.667 845.847 C 676.667 850.869, 677.949 853.670, 683.357 860.456 C 689.956 868.737, 692.134 874.295, 689.724 876.705 C 684.759 881.670, 668.353 873.929, 657.059 861.293 C 654.212 858.107, 650.221 852.146, 648.191 848.046 C 644.705 841.006, 644.501 840.061, 644.525 831.046 C 644.547 823.046, 644.937 820.714, 646.934 816.648 C 652.308 805.704, 663.766 797.021, 678.934 792.398 C 693.003 788.111, 697.353 784.858, 698.282 777.932 C 699.654 767.705, 709.055 755.360, 722.602 745.995 C 732.334 739.267, 742.190 736.009, 755 735.287 C 763.399 734.813, 764.776 734.976, 766.883 736.692 C 770.055 739.277, 769.166 740.816, 759.506 749.462 C 749.371 758.533, 746.582 763.840, 746.535 774.142 C 746.493 783.362, 747.846 785.372, 755.148 786.938 C 761.350 788.268, 780.243 788.282, 789.500 786.963 C 802.124 785.164, 808.902 782.354, 814.587 776.562 C 823.066 767.923, 823.147 760.782, 814.963 743.500 C 804.816 722.073, 799.016 719.426, 759 717.951 C 687.916 715.331, 671.947 714.044, 652.500 709.374 C 636.161 705.450, 617.661 695.685, 604.963 684.283 C 593.213 673.732, 582.969 657.781, 580.056 645.500 C 578.483 638.869, 576.515 636, 573.538 636 C 570.119 636, 556.270 646.730, 550.333 653.979 C 543.378 662.472, 536.326 674.485, 533.463 682.719 C 531.977 686.991, 530.670 693.831, 530.113 700.242 C 528.900 714.213, 527.344 716.860, 522.017 714.009 C 517.203 711.433, 504.902 688.855, 499.484 672.651 C 489.673 643.307, 493.267 620.891, 510.552 603.606 C 520.034 594.124, 535.204 584.812, 549 580.004 C 559.459 576.360, 561 575.340, 561 572.064 C 561 569.025, 555.034 560.538, 550.826 557.591 C 549.577 556.716, 546.653 556, 544.329 556 C 539.459 556, 525.804 560.085, 518.500 563.726 C 510.968 567.481, 499.738 576.244, 494.849 582.179 C 487.256 591.399, 476.189 602.229, 474.821 601.780 C 472.478 601.010, 470.915 591.878, 470.323 575.500 C 469.723 558.900, 470.662 548.748, 473.641 539.647 C 475.837 532.938, 485.950 522.473, 497.973 514.469 C 512.298 504.932, 524.905 500.020, 535.144 499.985 C 537.540 499.977, 540.625 499.401, 542 498.706 C 546.482 496.439, 547.310 492.893, 548.118 472.500 C 548.957 451.309, 550.844 441.356, 556.155 430.099 C 558.680 424.747, 561.551 421.267, 571.341 411.686 C 579.860 403.350, 583.033 399.638, 582.123 399.076 C 581.414 398.638, 577.458 397.994, 573.331 397.645 C 563.860 396.845, 550.272 392.319, 537.882 385.840 C 524.474 378.828, 518.134 373.612, 514.659 366.734 C 510.516 358.535, 505.049 355.699, 498.589 358.398 C 494.124 360.264, 493 362.570, 493 369.863 C 493 376.937, 491.242 379.516, 487.106 378.512 C 483.197 377.563, 477.868 372.898, 474.500 367.477 C 471.699 362.968, 471.503 362.015, 471.549 353.074 C 471.587 345.631, 472.089 342.258, 473.807 337.921 C 476.860 330.209, 482.158 324.347, 488.682 321.462 C 493.297 319.421, 494.398 318.381, 496.279 314.287 C 498.410 309.651, 498.491 308.224, 498.833 269 C 499.208 225.885, 497.638 150.074, 495.974 131 C 494.703 116.423, 492.730 109.290, 489.574 107.852 C 484.280 105.440, 477 112.778, 477 120.525 C 477 125.166, 478.359 126.864, 483.381 128.499 C 485.391 129.153, 486.804 130.489, 487.458 132.355 C 488.317 134.803, 488.132 135.474, 486.158 137.073 C 480.871 141.354, 467.363 140.423, 456.388 135.019 C 451.451 132.589, 449.150 130.659, 446.084 126.378 C 436.003 112.300, 439.600 98.128, 457.876 79.904 C 469.802 68.014, 476.699 64.272, 489.570 62.711 C 501.641 61.247, 513.995 62.923, 519.500 66.771 C 527.466 72.339, 531.768 85.295, 534.021 110.500 C 534.703 118.128, 535.531 160.894, 536.026 214 C 536.492 264.042, 537.342 308.948, 537.927 314.449 C 539.208 326.477, 541.341 335.198, 544.094 339.652 C 549.464 348.342, 564.815 358.361, 574.636 359.587 C 579.104 360.144, 580.063 359.937, 582.002 357.998 C 583.805 356.195, 584.130 355.008, 583.701 351.806 C 583.050 346.954, 580.904 344.431, 576.715 343.593 C 565.440 341.338, 553.979 322.938, 554.012 307.145 C 554.026 300.274, 556.245 291.491, 558.634 288.852 C 561.490 285.696, 565.015 286.821, 567.445 291.664 C 571.139 299.025, 575.960 303.108, 578.483 301.014 C 582.371 297.787, 583.979 265.639, 583.991 190.906 L 584 133.311 598.788 118.807 C 615.714 102.205, 618.212 100.819, 634.707 98.874 C 645.517 97.599, 684.996 98.301, 693.831 99.925 C 719.961 104.729, 727.986 115.744, 728.008 146.838 C 728.022 167.276, 730.602 175.500, 737 175.500 C 741.787 175.500, 743.720 172.231, 744.966 162.026 C 745.534 157.366, 746 147.110, 746 139.237 C 746 97.169, 751.511 87.776, 777.063 86.287 C 788.990 85.592, 798.590 87.141, 806.694 91.068 C 817.785 96.444, 822.620 105.028, 823.982 121.767 C 824.463 127.670, 825.292 133.643, 825.824 135.041 C 826.969 138.047, 829.542 140.401, 830.819 139.612 C 833.614 137.885, 835.998 118.538, 835.948 98 C 835.886 72.741, 833.959 62.724, 828.022 56.786 C 824.785 53.550, 823.595 53, 819.828 53 C 814.113 53, 806.802 54.942, 793.567 59.974 C 780.837 64.815, 771.417 66.251, 770.365 63.510 C 768.678 59.113, 777.822 49.727, 791.735 41.575 C 801.010 36.140, 809.899 33.144, 820.212 31.976 C 833.141 30.511, 839.738 26.386, 832.802 24.102 C 823.974 21.196, 781.633 20.322, 734 22.063 M 1061.808 34.974 C 1050.387 37.382, 1046.987 38.535, 1037.890 43.079 C 1028.190 47.926, 1017.737 56.251, 1007.140 67.570 C 995.669 79.823, 987.707 90.670, 977.157 108.418 C 959.737 137.720, 949.582 160.743, 934.388 205.384 C 926.808 227.654, 920.175 244.730, 915.415 254.224 C 903.591 277.809, 888.772 293.740, 866.474 306.835 C 849.439 316.840, 842 325.846, 842 336.465 C 842 339.345, 842.508 343.159, 843.129 344.941 C 844.200 348.013, 844.472 348.156, 848.379 347.710 C 853.316 347.146, 947.002 315.538, 965.542 308.181 C 972.715 305.335, 981.676 300.976, 985.455 298.494 C 1006.763 284.499, 1040.898 251.855, 1047.354 239.300 C 1051.285 231.655, 1048.371 232.149, 1026.013 242.912 C 995.130 257.779, 980.502 262.953, 969.266 262.985 C 964.898 262.998, 963.497 262.523, 960.803 260.115 C 957.870 257.495, 957.571 256.692, 957.540 251.365 C 957.482 241.177, 963.298 233.126, 979.341 221.188 C 991.875 211.861, 998.416 207.910, 1020.612 196.253 C 1051.720 179.917, 1069.417 168.101, 1067.477 164.962 C 1066.209 162.912, 1056.358 164.914, 1037.500 171.056 C 1015.293 178.289, 1004.228 180.984, 996.705 180.993 C 991.800 180.999, 990.512 180.603, 988.324 178.415 C 985.958 176.049, 985.782 175.305, 986.240 169.604 C 986.920 161.129, 989.835 155.074, 996.706 147.863 C 1005.244 138.904, 1018.447 130.660, 1047 116.461 C 1074.291 102.890, 1086 96.452, 1086 95.019 C 1086 93.245, 1073.059 96.102, 1047.096 103.609 C 1029.231 108.774, 1021.451 109.892, 1018.555 107.708 C 1015.544 105.438, 1015.212 95.114, 1017.918 87.919 C 1020.824 80.194, 1031.740 67.072, 1042.518 58.348 C 1054.909 48.319, 1066.054 42.648, 1079.588 39.484 C 1093.692 36.186, 1097.147 35.046, 1096.450 33.919 C 1095.428 32.265, 1071.147 33.004, 1061.808 34.974 M 842.366 40.488 C 841.631 42.404, 845.391 48.683, 852.552 57.500 C 865.193 73.063, 869.736 83.216, 870.674 98 C 871.676 113.800, 866.287 128.232, 856.162 136.864 C 846.865 144.790, 846.193 145.614, 844.530 151.130 C 842.328 158.435, 841.490 171.499, 842.892 176.647 C 845.112 184.797, 848.946 183.381, 863.068 169.195 C 868.923 163.313, 876.519 154.693, 879.949 150.040 C 892.131 133.509, 895.260 124.113, 895.283 104 C 895.306 82.878, 891.399 70.463, 881.444 60.027 C 875.118 53.394, 863.802 45.212, 855.811 41.492 C 849.772 38.681, 843.247 38.193, 842.366 40.488 M 1174.352 82.631 C 1176.013 93.953, 1177.215 116.524, 1176.679 126.329 C 1174.805 160.626, 1160.234 172.636, 1139.219 157.204 C 1129.547 150.101, 1127.121 148.739, 1125.351 149.419 C 1123.015 150.315, 1124.241 157.777, 1128.072 165.977 C 1133.370 177.317, 1138.725 180.994, 1147.119 179.059 C 1149.529 178.503, 1152.513 178.038, 1153.750 178.024 C 1156.834 177.991, 1160 181.418, 1160 184.790 C 1160 189.630, 1157.089 199.204, 1153.019 207.753 C 1145.788 222.939, 1138.889 229, 1128.834 229 C 1121.444 229, 1115.641 225.113, 1108.385 215.301 C 1105.363 211.214, 1102.352 208.048, 1101.695 208.266 C 1100.044 208.813, 1099.606 225.785, 1101.062 232.798 C 1102.605 240.231, 1105.091 242.522, 1112.553 243.386 C 1115.824 243.765, 1121.650 244.845, 1125.500 245.787 C 1131.187 247.179, 1132.556 247.895, 1132.801 249.607 C 1133.506 254.545, 1122.996 272.569, 1113.313 283.029 C 1102.037 295.208, 1094.658 294.911, 1077.016 281.571 C 1067.962 274.726, 1065.373 274.512, 1063.331 280.441 C 1060.751 287.927, 1060.571 294.241, 1062.794 299.267 C 1065.477 305.332, 1068.920 307.008, 1080.789 308.025 C 1091.167 308.914, 1093.666 310.210, 1092.668 314.186 C 1090.712 321.980, 1072.167 341.921, 1062.569 346.551 C 1055.029 350.188, 1043.819 350.651, 1037.634 347.581 C 1029.915 343.749, 1023.438 334.767, 1020.901 324.373 C 1020.247 321.693, 1019.265 318.627, 1018.719 317.560 C 1017.753 315.672, 1017.678 315.680, 1015.920 317.850 C 1014.927 319.077, 1012.739 323.648, 1011.057 328.008 C 1005.793 341.659, 1006.992 353.962, 1014.339 361.671 C 1017.905 365.414, 1019.358 366.188, 1024.500 367.092 C 1035.882 369.092, 1037.308 369.506, 1038.299 371.095 C 1040.133 374.035, 1037.928 378.287, 1030.709 385.733 C 1016.751 400.128, 1001.260 408.130, 990.268 406.623 C 979.290 405.119, 967.523 395.764, 964 385.741 C 962.394 381.170, 962 377.487, 962 367.025 C 962 359.861, 961.663 354.022, 961.250 354.048 C 959.907 354.133, 947.584 369.879, 944.336 375.659 C 942.596 378.755, 940.638 384.117, 939.986 387.574 C 937.321 401.698, 942.773 412.865, 955.413 419.174 C 963.154 423.037, 967 426.619, 967 429.965 C 967 432.953, 965.682 435.042, 958.142 444 C 949.739 453.983, 944.867 466.997, 941.535 488.368 C 935.405 527.669, 916.969 547.863, 872.500 563.979 C 860.297 568.402, 848.510 574.605, 845.491 578.193 C 841.086 583.429, 840.958 589.837, 845.214 592.114 C 852.360 595.939, 899.052 590.114, 922.297 582.498 C 934.412 578.529, 939.435 578.076, 940.903 580.819 C 942.481 583.767, 937.303 591.473, 927.218 601.187 C 912.275 615.582, 903.016 619.092, 868.427 623.480 C 857.467 624.870, 847.038 626.251, 845.250 626.549 L 842 627.091 842.024 691.795 C 842.047 755.456, 842.777 777.847, 844.964 781.932 C 846.628 785.042, 850.073 784.467, 856.838 779.949 C 873.630 768.736, 883.273 741.042, 876.928 722.253 C 874.415 714.810, 874.696 711.295, 878.003 708.838 C 879.380 707.815, 887.614 705.196, 896.300 703.019 C 917.018 697.825, 923.569 694.399, 935.541 682.500 C 950.296 667.834, 960.528 650.230, 968.089 626.500 C 981.307 585.015, 984.198 578.648, 994.433 568.479 C 1002.983 559.984, 1016.217 552.681, 1027.219 550.387 C 1036.747 548.401, 1041.145 549.219, 1045.600 553.806 C 1050.251 558.595, 1051.644 557.616, 1054.993 547.200 C 1056.437 542.709, 1058.717 537.861, 1060.059 536.425 C 1062.423 533.898, 1062.756 533.837, 1070.637 534.488 C 1078.372 535.127, 1078.854 535.047, 1080.387 532.858 C 1081.274 531.591, 1082 529.340, 1082 527.854 C 1082 526.369, 1083.132 523.808, 1084.515 522.165 C 1086.588 519.701, 1088.255 518.969, 1094 518 C 1099.745 517.031, 1101.412 516.299, 1103.485 513.835 C 1104.916 512.134, 1106 509.587, 1106 507.923 C 1106 504.532, 1109.450 500.575, 1111.665 501.425 C 1112.495 501.744, 1114.845 502.271, 1116.886 502.598 C 1121.846 503.391, 1123.037 501.773, 1124.009 492.915 C 1124.438 489.008, 1125.220 485.380, 1125.746 484.854 C 1126.980 483.620, 1129.488 483.496, 1134.677 484.413 C 1138.383 485.068, 1139.019 484.889, 1140.312 482.826 C 1141.114 481.547, 1142.064 478.125, 1142.423 475.221 C 1144.155 461.230, 1160.940 424.772, 1166.662 422.576 C 1168.990 421.683, 1170.759 423.611, 1171.462 427.808 C 1172.656 434.933, 1166.823 476.892, 1161.981 496.013 C 1158.907 508.154, 1157.149 512.221, 1153.556 515.513 C 1149.666 519.076, 1148.028 523.878, 1145.035 540.500 C 1142.292 555.728, 1140.417 561.456, 1136.838 565.531 L 1133.762 569.035 1134.481 580.544 C 1135.252 592.878, 1134.861 594.342, 1130.339 596.061 C 1127.005 597.329, 1125.011 602.111, 1123.960 611.361 C 1122.359 625.456, 1115.253 642.022, 1102.820 660.651 C 1094.417 673.241, 1078.492 689.705, 1069.714 694.877 C 1052.062 705.279, 1034.681 705.943, 1021.739 696.709 C 996.226 678.505, 999.653 642.193, 1028.504 625.023 C 1033.261 622.192, 1035.569 621.482, 1040.923 621.201 C 1046.833 620.891, 1047.973 621.160, 1052.162 623.851 C 1061.214 629.664, 1065.320 642.076, 1060.381 648.692 C 1056.865 653.401, 1053.783 654.967, 1046.151 655.920 C 1037.448 657.007, 1033.493 659.738, 1034.489 663.973 C 1035.247 667.198, 1039.488 670.747, 1044.087 672.007 C 1052.704 674.367, 1065.412 666.112, 1072.063 653.834 C 1075.113 648.202, 1075.491 646.669, 1075.470 640 C 1075.450 633.474, 1075.012 631.660, 1072.100 626.034 C 1068.036 618.183, 1058.362 608.284, 1051.500 604.954 C 1038.695 598.742, 1023.909 604.365, 1005.741 622.358 C 993.997 633.987, 985.531 647.801, 982.877 659.661 C 981.891 664.063, 981.970 666.045, 983.355 671.657 C 988.366 691.960, 1003.497 710.055, 1021.461 717.227 C 1028.982 720.229, 1030.306 720.438, 1042 720.468 C 1056.146 720.504, 1063.126 718.838, 1077.500 711.995 C 1090.180 705.958, 1097.463 703.897, 1109.180 703.030 C 1117.953 702.380, 1121.041 701.696, 1126.199 699.258 C 1132.339 696.356, 1142.623 688.290, 1141.551 687.218 C 1141.257 686.923, 1136.624 686.338, 1131.258 685.917 C 1118.863 684.944, 1117.673 684.498, 1118.459 681.114 C 1119.957 674.662, 1137.426 641.579, 1148.213 624.763 C 1152.140 618.641, 1154.950 615.636, 1160.787 611.320 C 1170.926 603.822, 1188 588.207, 1188 586.433 C 1188 585.645, 1187.888 585.005, 1187.750 585.012 C 1187.612 585.018, 1185.025 585.688, 1182 586.500 C 1174.672 588.467, 1169.583 588.409, 1167.872 586.339 C 1165.721 583.736, 1166.571 572.831, 1170.581 551.568 C 1174.650 529.990, 1178.948 515.752, 1183.140 509.966 C 1185.118 507.235, 1187.921 505.146, 1192.249 503.177 C 1200.951 499.217, 1210 488.480, 1210 482.113 C 1210 479.512, 1207.999 479.228, 1198.862 480.535 C 1190.052 481.795, 1187.320 481.125, 1186.406 477.481 C 1184.808 471.116, 1189.581 433.522, 1193.419 422.239 C 1196.620 412.827, 1201.508 404.244, 1212.022 389.570 C 1226.005 370.056, 1226.005 370.002, 1211.875 372.523 C 1206.719 373.442, 1200.662 374.426, 1198.416 374.709 L 1194.333 375.223 1197.042 351.361 C 1201.946 308.161, 1205.262 297.040, 1217.652 282.223 C 1225.647 272.664, 1228.524 267.807, 1227.607 265.419 C 1227.040 263.941, 1225.914 263.813, 1218.659 264.402 C 1209.087 265.178, 1207.445 264.760, 1205.531 261.060 C 1202.403 255.011, 1198.224 210.784, 1199.317 195.298 C 1200.033 185.154, 1201.960 180.635, 1209.426 171.587 C 1218.265 160.878, 1222.470 150.645, 1218.933 148.458 C 1218.346 148.096, 1215.294 149.386, 1212.152 151.325 C 1204.687 155.933, 1201.656 156.660, 1198.506 154.596 C 1193.537 151.340, 1191.075 143.616, 1189.070 125 C 1187.809 113.291, 1185.346 103.480, 1180.282 89.993 C 1176.196 79.112, 1173.310 75.528, 1174.352 82.631 M 630.500 154.863 C 625.081 157.328, 624.313 158.480, 622.353 167.075 C 620.960 173.182, 620.649 180.179, 620.600 206.500 C 620.518 250.416, 622.570 267.396, 629.132 277.087 C 632.587 282.190, 636.241 284.169, 638.323 282.065 C 639.145 281.234, 639.412 276.530, 639.208 266.472 C 638.944 253.501, 639.132 251.563, 641.097 246.996 C 643.750 240.829, 650.347 234.756, 656.805 232.537 C 663.577 230.210, 675.600 229.509, 680.500 231.156 C 684.115 232.371, 684.530 232.861, 684.811 236.256 C 685.097 239.715, 684.605 240.521, 678.596 246.442 C 671.668 253.269, 670.110 256.468, 671.995 259.992 C 673.466 262.739, 678.935 265.078, 682.092 264.310 C 687.135 263.083, 692 256.604, 692 251.115 C 692 241.420, 698.023 239.649, 705.164 247.245 C 715.656 258.405, 716.164 277.439, 706.277 288.989 C 702.077 293.897, 697.793 296, 692.001 296 C 685.514 296, 685.753 298.188, 693.043 305.544 C 700.401 312.967, 703.493 314.094, 708.321 311.111 C 713.044 308.192, 722.379 298.137, 724.834 293.326 C 725.980 291.080, 727.373 286.375, 727.930 282.871 C 729.168 275.077, 732.436 271.437, 737.318 272.414 C 741.300 273.210, 742.959 274.714, 745.137 279.500 C 748.678 287.285, 746.983 313.805, 741.942 329.495 C 738.023 341.693, 732.957 349.830, 723.978 358.349 C 705.766 375.628, 679.086 382.476, 659.500 374.899 C 650.449 371.398, 642.825 363.410, 640.094 354.569 C 637.651 346.659, 637.223 333.445, 639.317 330.582 C 640.539 328.909, 641.051 329.147, 646.491 333.907 C 653.209 339.786, 657.111 341.251, 661.500 339.543 C 669.920 336.267, 667.432 316.882, 657.843 311.051 C 652.989 308.099, 647.855 307.610, 641.406 309.484 C 630.579 312.632, 621.932 324.317, 616.977 342.500 C 615.197 349.028, 614.703 354.182, 614.288 370.511 L 613.779 390.522 634.639 392.842 C 669.613 396.732, 685.819 400.374, 700.096 407.553 C 708.358 411.708, 712.515 415.170, 713.855 419.013 C 715.381 423.392, 712.220 426.638, 704.500 428.616 C 692.328 431.735, 683.910 439.302, 676.963 453.371 C 671.359 464.721, 669.346 475.131, 670.803 485.227 C 675.365 516.840, 702.749 544.829, 741.551 557.540 C 760.376 563.706, 771.461 565.121, 805.750 565.733 L 836 566.274 836 543.156 L 836 520.038 833.750 519.550 C 832.513 519.281, 824.300 518.357, 815.500 517.496 C 785.866 514.597, 773.192 511.815, 761.540 505.652 C 754.174 501.757, 746.383 494.167, 742.724 487.325 C 736.006 474.762, 733.207 451.095, 734.996 422 C 737.375 383.322, 741.116 374.348, 763.133 354.515 C 777.860 341.248, 795.022 331.036, 821.250 319.931 L 836 313.686 836 256.204 L 836 198.721 831.250 199.317 C 828.638 199.644, 821.775 200.642, 816 201.535 C 804.336 203.337, 798.798 203.032, 795.922 200.430 C 793.112 197.887, 793.553 194.002, 797.516 186.400 C 801.969 177.856, 802.637 173.697, 800.647 166.876 C 797.531 156.191, 788.906 150.757, 786.164 157.750 C 783.861 163.625, 782.852 173.474, 781.989 198.500 C 781.031 226.278, 780.282 231.501, 776.472 237 C 768.819 248.046, 750.078 255.073, 734.137 252.875 C 726.383 251.805, 717.041 247.053, 713.457 242.355 C 706.799 233.626, 705.248 225.936, 704.005 195.500 C 703.082 172.904, 701.783 162.453, 699.512 159.347 C 698.380 157.799, 698.001 157.754, 696.504 158.997 C 693.691 161.331, 692.828 164.896, 692.096 177.200 C 691.165 192.866, 691.037 193.006, 677.595 192.983 C 666.600 192.964, 655.617 191.068, 651.124 188.414 C 645.915 185.337, 642.629 176.258, 645.368 172.512 C 646.651 170.757, 647.149 170.716, 652.291 171.950 C 655.338 172.681, 658.544 173.005, 659.415 172.671 C 661.338 171.933, 661.522 165.557, 659.715 162.334 C 655.324 154.505, 639.938 150.570, 630.500 154.863 M 1175.231 214.701 C 1167.196 226.090, 1155.970 258.498, 1152.480 280.377 C 1150.420 293.298, 1147.612 298.837, 1141.087 302.851 C 1134.448 306.937, 1132.528 309.947, 1133.486 314.769 C 1134.501 319.882, 1134.394 323.006, 1133.160 324.240 C 1132.588 324.812, 1129.802 325.646, 1126.968 326.094 C 1124.134 326.542, 1121.182 327.434, 1120.407 328.077 C 1118.778 329.430, 1118.584 334.062, 1119.957 338.849 C 1122.047 346.136, 1119.020 349.994, 1111.203 350.006 C 1105.389 350.014, 1100.127 351.877, 1098.378 354.545 C 1096.405 357.556, 1097.127 362.344, 1100.582 369.162 C 1105.092 378.062, 1103.362 380, 1090.903 380 C 1086.968 380, 1082.371 380.654, 1080.341 381.502 C 1076.401 383.148, 1076.391 383.233, 1078.574 396.732 C 1079.474 402.296, 1078.008 402.839, 1068.273 400.544 C 1061.413 398.927, 1060.658 398.913, 1059.190 400.381 C 1057.787 401.785, 1057.738 402.847, 1058.795 409.009 C 1059.458 412.875, 1060 417.829, 1060 420.019 C 1060 424.893, 1058.606 425.121, 1050.849 421.510 C 1044.835 418.710, 1041.245 418.369, 1038.549 420.341 C 1036.670 421.714, 1036.676 423.439, 1038.593 435.107 C 1039.333 439.614, 1037.761 440.418, 1031.191 438.893 C 1023.439 437.093, 1010.388 437.626, 1002.500 440.065 C 988.627 444.355, 980.389 449.741, 977.641 456.317 C 975.348 461.804, 973.673 474.336, 974.258 481.621 C 974.692 487.028, 975.272 488.726, 977.417 490.872 C 979.863 493.318, 980.665 493.500, 989 493.500 C 997.350 493.500, 998.133 493.321, 1000.600 490.855 C 1002.978 488.476, 1003.315 487.209, 1003.931 478.319 C 1004.309 472.879, 1004.943 467.902, 1005.341 467.258 C 1006.271 465.752, 1008.584 466.620, 1013.192 470.204 C 1021.497 476.665, 1023.411 485.372, 1018.128 492.664 C 1014.789 497.275, 1010.770 500.543, 998.896 508.307 C 984.987 517.403, 980 524.184, 980 533.999 C 980 539.250, 981.792 541.396, 984.520 539.409 C 995.843 531.164, 1010.277 522.676, 1031.868 511.565 C 1070.625 491.619, 1083.102 482.939, 1104.033 461.359 C 1115.741 449.289, 1121.012 442.710, 1129.412 429.684 C 1145.038 405.452, 1156.521 377.852, 1164.852 344.500 C 1176.458 298.040, 1184.980 214.493, 1178.339 212.280 C 1177.716 212.072, 1176.317 213.162, 1175.231 214.701 M 827.773 370.080 C 821.731 371.505, 811.276 376.627, 804.414 381.524 C 792.862 389.768, 782.341 405.769, 778.460 421 C 776.175 429.966, 776.789 445.700, 779.674 452.089 C 783.963 461.591, 792.443 466.809, 807.351 469.122 C 816.211 470.497, 829.272 469.849, 831.599 467.919 C 835.015 465.085, 836 460.459, 835.992 447.282 C 835.973 414.467, 829.599 408.029, 817.579 428.685 C 813.364 435.929, 809.862 439, 805.814 439 C 803.432 439, 802.633 438.365, 801.449 435.532 C 797.190 425.340, 802.597 413.845, 819.887 396.331 C 829.145 386.954, 837 376.162, 837 372.820 C 837 371.733, 835.926 370.542, 834.435 369.975 C 833.024 369.439, 831.787 369.045, 831.685 369.100 C 831.583 369.156, 829.823 369.597, 827.773 370.080 M 847.734 393.356 C 845.112 394.095, 842.694 394.972, 842.360 395.306 C 840.090 397.577, 847.932 403.204, 860.421 408.266 C 874.815 414.100, 878.009 419.378, 877.992 437.299 C 877.971 460.566, 870.750 473.778, 857.113 475.502 C 849.162 476.506, 846.768 477.430, 844.602 480.330 C 842.728 482.838, 842.500 484.501, 842.500 495.651 C 842.500 506.999, 842.685 508.295, 844.500 509.635 C 847.179 511.613, 850.685 510.864, 863.451 505.589 C 876.186 500.326, 882.726 496.236, 888.162 490.136 C 901.411 475.266, 905.682 446.391, 898.105 422.913 C 892.989 407.064, 884.648 396.389, 875.629 394.152 C 868.273 392.328, 852.938 391.890, 847.734 393.356 M 579.375 448.201 C 578.363 449.838, 578.457 459.312, 579.502 461.004 C 580.735 462.998, 582.923 458.175, 582.965 453.372 C 583.003 448.930, 580.846 445.823, 579.375 448.201 M 606.250 567.686 C 595.436 568.777, 606.353 571.601, 618.130 570.759 C 624.515 570.302, 626.978 569.619, 625.917 568.600 C 625.198 567.911, 610.702 567.237, 606.250 567.686 M 761 602.672 C 745.153 604.267, 738.149 606.794, 731.946 613.152 C 726.736 618.494, 724.051 624.134, 724.022 629.800 C 723.994 635.273, 725.723 638.569, 731.339 643.745 C 735.037 647.153, 746.475 654, 748.471 654 C 749.858 654, 748.667 650.584, 745.321 644.967 C 740.375 636.664, 740.113 630.595, 744.500 625.975 C 751.996 618.083, 764.068 615.337, 797 614.034 C 809.925 613.522, 822.750 612.663, 825.500 612.124 C 842.195 608.851, 838.219 605.165, 815.718 603.058 C 805.429 602.094, 769.277 601.839, 761 602.672 M 453.201 717.058 C 445.933 718.347, 431.329 723.954, 424.484 728.083 C 417.341 732.392, 407.412 741.302, 405.385 745.223 C 403.898 748.097, 403.961 748.418, 406.947 753.222 C 416.379 768.394, 463.587 826.262, 482.107 845.351 C 492.294 855.852, 489.975 856.153, 507.534 842.055 C 520.911 831.316, 527.050 827.554, 537.745 823.545 C 541.729 822.051, 545.997 820.013, 547.228 819.016 C 549.455 817.214, 549.457 817.181, 547.637 813.352 C 540.649 798.646, 496.155 738.012, 483.802 726.360 C 474.207 717.311, 465.942 714.798, 453.201 717.058 M 1202.326 716.987 C 1193.110 718.936, 1189.726 722.129, 1177.933 740 C 1168.043 754.987, 1157.394 769.316, 1141.147 789.500 C 1128.255 805.516, 1122.482 814.793, 1123.470 817.907 C 1123.881 819.201, 1127.749 821.236, 1135.785 824.385 C 1152.751 831.035, 1162.781 837.035, 1170.514 845.161 C 1174.094 848.923, 1177.438 852, 1177.946 852 C 1181.062 852, 1185.532 848.775, 1194.302 840.203 C 1219.287 815.781, 1263.416 761.711, 1267.184 750.903 C 1268.660 746.668, 1266.819 742.949, 1260.293 736.985 C 1244.830 722.853, 1218.133 713.642, 1202.326 716.987 M 962.673 761.048 C 961.946 773.762, 960.116 779.035, 954.902 783.441 C 945.143 791.689, 935.289 793.104, 883.250 793.731 L 842 794.228 842 813.067 L 842 831.906 846.750 831.442 C 849.362 831.187, 863.875 830.292, 879 829.452 C 894.125 828.612, 910.775 827.459, 916 826.889 C 946.813 823.527, 965.623 816.010, 972.620 804.261 C 978.769 793.938, 977.938 783.563, 969.360 763.543 C 966.286 756.369, 963.666 750.382, 963.539 750.237 C 963.411 750.092, 963.022 754.957, 962.673 761.048 M 547.834 842.012 C 542.741 842.883, 535.567 846.201, 528.214 851.085 C 525.621 852.807, 516.688 861.237, 508.362 869.819 L 493.224 885.422 479.590 872.566 C 472.091 865.496, 465.815 859.888, 465.644 860.105 C 465.472 860.322, 463.404 868.147, 461.047 877.494 C 454.161 904.808, 447.820 920.889, 434.907 943.782 C 426.741 958.258, 428.336 958.984, 494.820 971.044 C 532.273 977.838, 540.931 979.069, 551.734 979.136 C 567.466 979.234, 571.564 975.952, 578.359 957.809 C 602.420 893.568, 587.061 835.303, 547.834 842.012 M 1105.453 843.326 C 1089.855 849.336, 1083.621 864.848, 1083.683 897.500 C 1083.729 921.737, 1087.615 941.818, 1095.487 958.500 C 1104.338 977.257, 1107.642 979.593, 1124 978.658 C 1144.034 977.514, 1224.785 962.871, 1236.161 958.319 C 1239.351 957.042, 1240 956.303, 1240 953.943 C 1240 949.190, 1235.092 935.186, 1228.804 922 C 1218.152 899.661, 1211.600 881.539, 1208.919 867 C 1207.043 856.829, 1206.869 856.798, 1200.951 865.604 C 1190.771 880.751, 1187.431 883.661, 1181.818 882.276 C 1178.298 881.408, 1171.275 875.927, 1163.500 867.981 C 1151.164 855.372, 1138.555 846.929, 1127.068 843.582 C 1120.788 841.753, 1109.873 841.623, 1105.453 843.326 M 607.740 894.905 C 607.158 928.580, 605.400 941.104, 598.536 960.452 C 591.465 980.386, 591.615 983.741, 599.765 987.864 C 613.709 994.919, 662.167 1000.803, 732.516 1003.982 C 791.103 1006.629, 903.819 1006.142, 959.518 1003 C 1027.021 999.192, 1069.636 992.594, 1076.614 984.870 C 1079.213 981.993, 1078.853 974.734, 1075.579 964 C 1067.271 936.762, 1065.290 926.052, 1064.018 901.500 C 1063.505 891.600, 1062.632 881.982, 1062.078 880.127 C 1060.666 875.405, 1058.248 872, 1056.306 872 C 1055.400 872, 1051.675 875.074, 1048.029 878.830 C 1038.311 888.841, 1005.533 911.774, 967 935.522 C 935.167 955.140, 915.694 964.717, 881.914 977.366 C 844.448 991.395, 836.886 991.971, 808.427 982.964 C 757.573 966.868, 696.487 932.729, 632.867 884.849 L 608.234 866.310 607.740 894.905 M 320.052 970.031 C 282.640 972.970, 267.231 978.974, 259.734 993.534 C 255.520 1001.719, 254.819 1009.700, 254.286 1055.629 L 253.773 1099.758 264.135 1097.422 C 269.834 1096.138, 278.448 1094.607, 283.276 1094.020 C 295.177 1092.573, 332.199 1091.040, 356 1091.009 C 396.212 1090.956, 406.979 1088.550, 411.995 1078.500 C 414.419 1073.644, 414.498 1072.822, 414.723 1050 L 414.956 1026.500 411.950 1037.500 C 404.327 1065.393, 399.025 1078.101, 393.909 1080.744 C 387.464 1084.074, 386.212 1071.643, 390.519 1047.088 C 395.643 1017.874, 397.395 1013.345, 404.473 1011.009 C 410.322 1009.079, 415.677 1012.084, 418.710 1019 L 420.244 1022.500 421.577 1017.519 C 423.762 1009.358, 428.317 1007.656, 430.567 1014.161 C 432.389 1019.428, 433.997 1037.261, 434.017 1052.424 C 434.046 1073.965, 436.506 1091.952, 440.009 1096.239 C 441.506 1098.070, 442.103 1098.259, 443.147 1097.232 C 445.339 1095.076, 445.295 1083.391, 443 1058 C 440.499 1030.327, 440.598 1021.207, 443.434 1018.073 C 448.874 1012.062, 455.591 1019.626, 459.871 1036.587 C 464.018 1053.018, 464.866 1066.071, 462.851 1082.469 C 461.740 1091.504, 461.783 1091.983, 464.101 1096.608 C 466.945 1102.283, 470.481 1105.113, 475.010 1105.337 C 477.865 1105.478, 478.437 1105.094, 479.239 1102.500 C 481.632 1094.769, 479.830 1016.871, 476.922 1002.320 C 475.699 996.200, 470.518 988.871, 466.129 987.053 C 461.524 985.146, 460.693 986.307, 461.469 993.560 L 462.146 999.873 458.823 1001.619 C 452.042 1005.181, 430.698 1004.470, 409.832 999.987 C 398.696 997.594, 392.759 994.671, 393.187 991.790 C 393.660 988.609, 399.806 985.953, 416 981.932 L 430.500 978.332 417.500 975.224 C 410.350 973.515, 400.450 971.632, 395.500 971.041 C 383.266 969.580, 334.160 968.922, 320.052 970.031 M 1295 970.688 C 1269.299 971.885, 1239.818 977.175, 1230.729 982.221 C 1226.550 984.541, 1226.500 984.633, 1226.536 990.034 C 1226.599 999.709, 1234.389 1012.787, 1241.300 1014.819 C 1243.060 1015.336, 1246.410 1016.281, 1248.744 1016.918 C 1253.003 1018.081, 1256 1021.646, 1256 1025.549 C 1256 1029.126, 1252.412 1034.426, 1247.697 1037.813 C 1241.799 1042.050, 1240 1045.819, 1240 1053.935 C 1240 1059.285, 1244.616 1090.949, 1245.529 1091.862 C 1245.729 1092.062, 1261.329 1091.438, 1280.196 1090.475 C 1304.798 1089.220, 1321.712 1088.900, 1340 1089.345 C 1368.801 1090.046, 1377.862 1090.909, 1400.181 1095.074 C 1408.805 1096.683, 1416.387 1098, 1417.029 1098 C 1418.552 1098, 1417.754 1016.587, 1416.136 1006.828 C 1412.792 986.656, 1404.319 977.564, 1385.100 973.521 C 1371.387 970.636, 1326.445 969.223, 1295 970.688 M 1191.001 987.062 C 1187.111 988.708, 1184 992.114, 1184 994.724 C 1184 998.211, 1181.459 1002.537, 1177.938 1005.044 C 1176.237 1006.255, 1175.218 1007.577, 1175.673 1007.981 C 1176.128 1008.385, 1179.604 1009.209, 1183.397 1009.812 C 1191.334 1011.072, 1196 1014.486, 1196 1019.032 C 1196 1023.761, 1200.679 1026.312, 1205.055 1023.970 C 1209.807 1021.428, 1212.775 1008.975, 1211.138 998.457 C 1209.717 989.328, 1207.433 986.988, 1199.396 986.420 C 1196.153 986.191, 1192.375 986.480, 1191.001 987.062 M 496.637 1018.224 C 494.583 1107.721, 494.583 1109.736, 496.619 1110.344 C 500.724 1111.571, 583.892 1127.329, 605.500 1130.974 C 636.479 1136.200, 645.911 1137.268, 657.419 1136.852 C 666.669 1136.518, 667.301 1136.354, 669.588 1133.694 C 670.914 1132.151, 671.995 1130.126, 671.989 1129.194 C 671.981 1127.982, 671.279 1128.386, 669.522 1130.615 C 668.172 1132.328, 665.699 1134.296, 664.027 1134.989 C 658.062 1137.460, 649.976 1133.469, 650.022 1128.076 C 650.056 1124.103, 653.328 1117.866, 657.407 1114 C 659.438 1112.075, 662.197 1108.670, 663.537 1106.434 C 665.845 1102.583, 665.943 1101.791, 665.377 1091.434 C 664.756 1080.047, 665.433 1070.515, 669.154 1038.270 C 670.375 1027.693, 671.135 1018.802, 670.845 1018.511 C 670.554 1018.221, 642.232 1013.706, 607.908 1008.478 C 534.089 997.236, 501.101 992.076, 498.882 991.424 C 497.429 990.997, 497.199 993.740, 496.637 1018.224 M 1118.917 999.414 C 1118.544 999.785, 1086.929 1004.952, 1020 1015.582 C 992.183 1019.999, 960.126 1025.804, 958.709 1026.680 C 958.127 1027.040, 959.723 1027.939, 962.255 1028.677 C 970.493 1031.079, 982.706 1044.317, 988.149 1056.743 C 995.370 1073.228, 994.292 1085.917, 985.531 1087.560 C 979.319 1088.726, 974 1085.296, 974 1080.125 C 974 1077.236, 972.278 1076.588, 969.477 1078.423 C 962.876 1082.749, 962.580 1090.826, 968.529 1104.319 C 974.620 1118.135, 978.908 1129.573, 979.586 1133.810 C 980.512 1139.604, 983.332 1140.548, 999 1140.311 C 1024.950 1139.919, 1067.981 1132.889, 1139 1117.438 C 1183.606 1107.734, 1190 1105.305, 1190 1098.069 C 1190 1093.031, 1187.234 1092.033, 1173.976 1092.283 C 1163.646 1092.478, 1162.051 1092.266, 1158 1090.157 C 1152.148 1087.111, 1149.262 1084.391, 1146.813 1079.614 C 1144.788 1075.664, 1144.786 1075.546, 1146.549 1062.334 C 1147.231 1057.226, 1147.188 1057.115, 1142.669 1052.284 C 1136.554 1045.746, 1133.846 1039.307, 1133.299 1030 C 1132.890 1023.048, 1133.046 1022.288, 1135.429 1019.594 C 1139.543 1014.945, 1138.860 1012.425, 1131.550 1005.293 C 1126.653 1000.515, 1124.407 999, 1122.217 999 C 1120.631 999, 1119.146 999.187, 1118.917 999.414 M 706.376 1025.549 C 704.105 1029.015, 703.212 1053.789, 704.964 1064.747 C 707.603 1081.262, 713.101 1092, 718.918 1092 C 721.751 1092, 724.168 1089.981, 725.371 1086.609 C 726.384 1083.769, 723.594 1080.334, 717.950 1077.475 C 714.479 1075.716, 712.427 1073.867, 711.283 1071.467 C 709.743 1068.238, 709.744 1067.759, 711.302 1064.493 C 713.120 1060.681, 717.339 1057.628, 723.298 1055.812 C 730.909 1053.493, 735.208 1045.199, 733.016 1037.060 C 730.753 1028.654, 722.888 1023.062, 713.273 1023.022 C 708.762 1023.003, 707.817 1023.349, 706.376 1025.549 M 751.156 1049.088 C 748.436 1074.428, 746.100 1086.052, 741.944 1094.934 C 738.316 1102.686, 736.880 1104.400, 731.249 1107.700 C 725.885 1110.844, 718.496 1111.098, 707.763 1108.508 C 703.508 1107.481, 699.731 1106.935, 699.371 1107.296 C 699.010 1107.657, 700.799 1110.483, 703.346 1113.577 C 713.899 1126.395, 710.801 1135.216, 695.250 1136.629 C 691.263 1136.991, 688 1137.636, 688 1138.063 C 688 1139.255, 696.707 1141.834, 704.500 1142.950 C 722.963 1145.593, 809.647 1147.929, 891.157 1147.979 L 924.813 1148 925.657 1138.250 C 926.121 1132.888, 926.500 1121.445, 926.500 1112.823 C 926.500 1098.461, 926.324 1096.910, 924.400 1094.323 C 922.814 1092.191, 921.325 1091.427, 918.317 1091.201 C 914.719 1090.930, 913.892 1091.355, 909.779 1095.587 C 903.884 1101.651, 901.061 1101.322, 898.333 1094.252 C 895.402 1086.653, 895.721 1065.879, 898.919 1056.114 C 900.250 1052.051, 902.755 1046.651, 904.486 1044.114 C 907.246 1040.069, 914.501 1034.057, 918.227 1032.728 C 924.841 1030.369, 897.583 1029.151, 820.477 1028.362 L 753.455 1027.676 751.156 1049.088 M 106.512 1036.554 C 94.931 1038.741, 85.921 1043.212, 79.967 1049.726 C 71.423 1059.075, 68.803 1071.160, 65.011 1118.717 C 63.905 1132.586, 63 1144.113, 63 1144.332 C 63 1144.552, 85.612 1144.996, 113.250 1145.318 C 176.381 1146.055, 189.862 1147.419, 226 1156.726 C 250.331 1162.993, 267.655 1166.664, 281.385 1168.464 C 296.776 1170.482, 317.726 1170.479, 325.540 1168.459 C 334.801 1166.065, 339.743 1159.769, 334.173 1157.462 C 329.222 1155.412, 322.774 1154.856, 294.500 1154.037 C 261.311 1153.077, 254.954 1152.187, 247.848 1147.507 C 243.737 1144.799, 239.654 1137.387, 237.929 1129.500 C 237.307 1126.653, 236.607 1108.028, 236.305 1086.241 C 235.777 1048.189, 235.762 1047.979, 233.637 1047.496 C 228.436 1046.314, 182.317 1038.920, 171 1037.454 C 153.029 1035.125, 116.761 1034.619, 106.512 1036.554 M 1515 1036.014 C 1499.126 1037.108, 1485.042 1038.987, 1457.750 1043.650 L 1436 1047.367 1435.999 1077.933 C 1435.998 1116.608, 1434.288 1136.599, 1430.319 1144.329 C 1427.160 1150.483, 1414.667 1152.828, 1379 1153.963 C 1350.245 1154.878, 1343.793 1155.860, 1341.275 1159.703 C 1338.770 1163.526, 1340.543 1169.022, 1345 1171.248 C 1354.311 1175.900, 1384.705 1171.620, 1449.335 1156.558 C 1503.649 1143.899, 1530.471 1141.394, 1584.448 1143.939 C 1598.601 1144.607, 1610.453 1144.881, 1610.785 1144.548 C 1611.627 1143.706, 1607.215 1093.270, 1604.926 1077.577 C 1602.207 1058.938, 1600.762 1054.666, 1595.418 1049.472 C 1584.156 1038.527, 1553.344 1033.370, 1515 1036.014 M 1202.250 1047.115 C 1200.022 1049.406, 1200.912 1055.721, 1205.372 1069.275 C 1213.498 1093.969, 1220.293 1103.926, 1224.129 1096.760 C 1224.788 1095.528, 1225.532 1090.240, 1225.782 1085.010 C 1226.596 1068.017, 1222.879 1053.186, 1216.706 1048.791 C 1213.076 1046.206, 1204.141 1045.170, 1202.250 1047.115 M 680.852 1078.426 C 678.512 1083.561, 682.423 1088.864, 687.593 1087.566 C 690.919 1086.731, 690.667 1083.829, 686.896 1079.535 C 683.227 1075.355, 682.326 1075.190, 680.852 1078.426 M 363.289 1106.744 C 359.935 1109.031, 358.758 1115.493, 357.959 1136 C 356.979 1161.159, 355.827 1168.669, 351.781 1176.259 C 346.693 1185.806, 339.605 1189.520, 323.570 1191.039 C 310.865 1192.243, 298.122 1191.206, 273.066 1186.930 C 256.741 1184.144, 245.088 1181.686, 205 1172.571 C 182.766 1167.516, 150.429 1162.207, 133.467 1160.828 C 108.715 1158.816, 84.744 1162.382, 75.471 1169.454 C 61.742 1179.926, 70.828 1195.548, 98.148 1208.445 C 135.880 1226.257, 191.542 1229.159, 261 1216.934 C 289.650 1211.891, 324.210 1202.728, 347.511 1193.996 C 382.798 1180.772, 432.432 1154.132, 455.037 1136.283 C 464.198 1129.049, 466.831 1125.707, 465.056 1123.567 C 461.101 1118.802, 368.142 1103.434, 363.289 1106.744 M 1295 1106.752 C 1287.199 1107.188, 1266.018 1110.080, 1252 1112.625 C 1239.373 1114.916, 1203.895 1123.501, 1201.357 1124.879 C 1200.256 1125.477, 1234.092 1147.764, 1255.927 1160.824 C 1282.689 1176.831, 1315.965 1191.783, 1347.500 1201.970 C 1396.126 1217.679, 1452.603 1224.515, 1513.500 1222.062 C 1548.171 1220.666, 1558.805 1218.117, 1578.624 1206.452 C 1610.686 1187.584, 1610.634 1169.355, 1578.500 1162.466 C 1567.282 1160.061, 1538.651 1160.013, 1522.500 1162.371 C 1501.404 1165.452, 1473.096 1170.930, 1452 1176.015 C 1408.273 1186.553, 1380.195 1191.095, 1358.596 1191.123 C 1323.806 1191.169, 1317.859 1183.386, 1316.096 1135.500 C 1315.154 1109.893, 1314.576 1108.536, 1304 1107.108 C 1301.525 1106.773, 1297.475 1106.613, 1295 1106.752 M 300.594 1109.565 C 274.965 1114.013, 259.845 1119.168, 256.267 1124.677 C 255.006 1126.618, 255.072 1127.072, 256.872 1128.872 C 261.825 1133.825, 282.408 1136.484, 310.404 1135.787 C 335.547 1135.161, 338 1133.898, 338 1121.584 C 338 1114.463, 336.373 1110.244, 332.941 1108.470 C 328.807 1106.332, 316.902 1106.735, 300.594 1109.565 M 1340 1109.221 C 1336.673 1111.001, 1334.905 1114.959, 1334.260 1122.072 C 1333.858 1126.499, 1334.128 1128.547, 1335.361 1130.429 C 1338.232 1134.810, 1343.169 1135.505, 1371 1135.444 C 1397.730 1135.386, 1407.691 1134.214, 1413.431 1130.453 C 1425.374 1122.628, 1392.468 1110.460, 1354 1108.476 C 1345.370 1108.031, 1341.876 1108.217, 1340 1109.221 M 944.667 1114.667 C 944.300 1115.033, 944 1117.459, 944 1120.056 C 944 1122.654, 942.917 1128.950, 941.592 1134.048 C 940.268 1139.147, 939.393 1143.860, 939.647 1144.524 C 940.980 1147.995, 953.647 1149.336, 957.777 1146.443 C 960.573 1144.485, 960.680 1140.289, 958.123 1132.858 C 953.571 1119.627, 947.676 1111.657, 944.667 1114.667 M 48.402 1136 C 48.402 1144.525, 48.556 1148.013, 48.743 1143.750 C 48.931 1139.487, 48.931 1132.513, 48.743 1128.250 C 48.556 1123.987, 48.402 1127.475, 48.402 1136" stroke="none" fill="#0d0d0d" fill-rule="evenodd"/></svg>