<svg xmlns="http://www.w3.org/2000/svg" width="1346" height="1458" viewBox="0 0 1346 1458" version="1.1"><path d="M 730.662 16.630 C 698.724 23.481, 669.733 36.448, 644.549 55.147 C 617.937 74.906, 584.688 112.778, 565.272 145.445 C 551.287 168.975, 529.555 213.808, 528.257 221.807 L 527.702 225.224 531.101 224.529 C 532.970 224.146, 541.537 221.842, 550.139 219.408 C 596.662 206.242, 670.142 192.663, 722.500 187.554 C 788.450 181.120, 838.946 184.990, 885.433 200.041 C 914.594 209.483, 936.323 219.978, 963.928 237.953 C 971.558 242.921, 978.520 247.262, 979.400 247.600 C 981.485 248.400, 981.496 245.172, 979.456 231.128 C 973.378 189.286, 964.779 159.863, 949.463 128.500 C 933.689 96.200, 906.033 64.033, 877.747 45.086 C 854.999 29.849, 822.646 18.767, 793 16.058 C 775.923 14.497, 739.025 14.836, 730.662 16.630 M 733 212.623 C 706.864 214.506, 664.124 220.768, 628 228.009 C 583.961 236.836, 534.131 249.934, 522.183 255.823 C 514.868 259.429, 508.780 268, 513.533 268 C 514.377 268, 532.722 263.534, 554.300 258.076 C 645.579 234.986, 706.385 227.056, 770.500 229.882 C 798.175 231.101, 813.593 232.921, 830.516 236.965 C 877.007 248.075, 915.133 267.463, 953.500 299.506 C 976.969 319.107, 976.796 319.037, 978.646 309.684 C 979.276 306.497, 980.099 299.527, 980.475 294.195 L 981.157 284.500 968.927 274.582 C 954.794 263.121, 936.290 250.428, 923.806 243.632 C 897.223 229.160, 860.919 217.705, 831.198 214.411 C 818.053 212.954, 746.491 211.651, 733 212.623 M 717 252.968 C 663.770 255.500, 582.313 271.174, 527 289.528 C 508.003 295.832, 504.646 298.242, 503.298 306.552 L 502.687 310.315 507.094 309.685 C 509.517 309.338, 522.750 305.881, 536.500 302.002 C 603.935 282.980, 669.724 272.763, 724.500 272.807 C 773.396 272.846, 816.059 281.633, 856 299.891 C 891.951 316.325, 916.761 334.500, 947.384 366.836 C 953.901 373.717, 955.493 374.930, 956.564 373.830 C 958.827 371.509, 968.121 347.616, 967.583 345.505 C 966.749 342.232, 945.284 320.256, 934.500 311.634 C 914.599 295.724, 887.566 279.853, 864.362 270.456 C 843.370 261.955, 819.295 256.585, 791 254.093 C 774.453 252.636, 736.210 252.055, 717 252.968 M 685.091 293.542 C 627.723 298.741, 576.213 309.250, 517.500 327.733 C 506.983 331.043, 506.778 331.419, 510.227 341.046 C 512.947 348.637, 511.811 348.497, 529 343.359 C 587.518 325.866, 640.384 318.079, 701 318.023 C 742.989 317.985, 779.076 323.906, 811.295 336.120 C 825.638 341.558, 849.083 353.535, 862 362.025 C 879.539 373.551, 889.929 382.049, 909.351 400.750 C 922.135 413.060, 926.843 417, 928.768 417 C 934.149 417, 943 403.387, 943 395.113 C 943 390.916, 938.331 385.103, 921.609 368.483 C 887.609 334.689, 853.505 314.757, 809 302.669 C 774.641 293.337, 726.493 289.791, 685.091 293.542 M 330.500 306.089 C 288.232 308.315, 247.956 319.664, 205.500 341.315 C 161.110 363.951, 130.016 392.293, 112.663 425.935 C 102.060 446.490, 99.316 460.121, 100.288 487.404 C 100.946 505.888, 102.647 515.863, 107.598 530.281 C 125.373 582.035, 164.130 623.238, 227 657.220 C 251.303 670.356, 306.841 690, 319.676 690 C 322.999 690, 323.176 689.838, 322.558 687.373 C 322.195 685.929, 318.715 677.716, 314.823 669.123 C 289.489 613.181, 273.444 560.766, 267.493 514.511 C 261.631 468.947, 266.454 432.493, 282.992 397.346 C 294.727 372.408, 303.591 360.609, 333.961 329.500 C 344.163 319.050, 353.598 309.262, 354.929 307.750 L 357.349 305 351.424 305.150 C 348.166 305.232, 338.750 305.655, 330.500 306.089 M 392.394 316.947 C 377.394 320.529, 340.401 354.753, 321.158 382.849 C 309.575 399.761, 299.998 420.188, 294.834 439 C 292.598 447.143, 292.500 448.951, 292.500 482 C 292.500 515.955, 293.181 527.219, 295.115 525.285 C 295.641 524.759, 296.514 511.317, 297.055 495.414 C 298.147 463.339, 299.053 453.796, 301.978 443.575 C 311.161 411.479, 332.728 378.354, 360.596 353.542 C 365.786 348.921, 375.762 340.674, 382.766 335.213 C 396.482 324.520, 402 319.384, 402 317.310 C 402 315.871, 397.595 315.704, 392.394 316.947 M 421.210 336.482 C 408.176 342.550, 382.732 362.373, 366.466 379.132 C 339.117 407.310, 325.853 433.111, 320.517 468.510 C 313.571 514.598, 330.086 586.369, 363.660 656 C 374.708 678.913, 380.638 688, 384.543 688 C 386.092 688, 383.255 681.190, 372.045 658 C 354.914 622.559, 343.269 591.973, 335.114 561 C 330.698 544.228, 328.922 532.513, 328.062 514.500 C 326.450 480.754, 330.275 459.658, 342.336 435.762 C 358.668 403.404, 386.854 373.792, 421.602 352.484 C 432.188 345.991, 438 341.244, 438 339.088 C 438 333.774, 429.770 332.497, 421.210 336.482 M 657 335.090 C 625.345 336.507, 580.410 344.674, 540 356.353 C 517.142 362.960, 518.984 361.042, 525.668 371.277 C 528.801 376.075, 531.914 380, 532.585 380 C 533.256 380, 542.512 377.987, 553.153 375.527 C 586.791 367.749, 616.387 363.544, 648.958 361.913 C 712.669 358.723, 770.154 369.797, 818.793 394.630 C 841.175 406.058, 858.324 418.608, 880 439.422 C 885.775 444.967, 892.196 451.062, 894.268 452.966 L 898.037 456.428 908.518 445.982 C 914.283 440.236, 919 435.233, 919 434.864 C 919 433.279, 903.454 415.698, 893.892 406.469 C 861.089 374.806, 819.900 352.374, 773.978 341.161 C 757.099 337.040, 748.831 336.113, 719 334.999 C 690.630 333.939, 682.428 333.951, 657 335.090 M 441.446 362.492 C 423.956 371.608, 400.339 389.924, 385.344 406 C 376.566 415.411, 366.441 429.734, 360.713 440.843 C 349.751 462.105, 346.641 476.041, 346.733 503.500 C 346.875 545.742, 358.053 586.204, 385.406 643.490 C 395.405 664.431, 399.444 669.867, 406.250 671.541 C 408.347 672.056, 409 671.853, 409 670.686 C 409 669.844, 404.087 659.281, 398.083 647.212 C 371.009 592.793, 361.539 564.213, 358.011 526.275 C 356.187 506.664, 359.352 484.931, 366.862 465.498 C 379.088 433.860, 407.558 402.932, 445.549 380.017 C 458.689 372.092, 461.345 369.730, 460.481 366.739 C 458.046 358.302, 452.051 356.964, 441.446 362.492 M 649.500 373.637 C 616.574 375.488, 545 387.364, 545 390.976 C 545 392.193, 553.618 402.384, 559.238 407.812 L 563.702 412.124 583.626 409.596 C 626.326 404.179, 658.260 403.837, 694 408.415 C 765.763 417.608, 807.084 434.258, 846.468 469.851 C 851.401 474.309, 856.606 478.364, 858.035 478.862 C 861.523 480.078, 865.836 478.497, 874.742 472.735 C 885.936 465.494, 885.867 462.285, 874.252 449.913 C 837.143 410.384, 777.941 383.291, 711.757 375.549 C 698.861 374.041, 662.297 372.918, 649.500 373.637 M 461.500 388.117 C 439.253 399.657, 411.183 423.534, 395.734 444.059 C 389.664 452.125, 381.848 467.584, 377.310 480.500 C 374.517 488.453, 374.500 488.648, 374.511 513.500 C 374.523 540.945, 375.118 545.974, 380.645 565.365 C 385.707 583.124, 393.219 602.489, 402.482 621.660 C 415.078 647.729, 418.596 652.245, 424.547 649.982 C 429.751 648.003, 429.425 646.303, 420.789 630.414 C 396.268 585.294, 386.159 548.906, 389.035 516.105 C 390.422 500.281, 393.121 490.480, 399.952 476.460 C 406.979 462.035, 415.342 450.379, 426.601 439.318 C 436.147 429.939, 455.852 414.885, 467.347 408.188 L 475.194 403.617 474.550 399.559 C 473.825 394.991, 469.539 384.999, 468.305 385.002 C 467.862 385.003, 464.800 386.405, 461.500 388.117 M 621.500 414.635 C 619.300 414.865, 610.837 415.726, 602.694 416.549 C 594.551 417.372, 585.562 418.544, 582.720 419.154 L 577.551 420.262 581.026 423.170 C 588.339 429.291, 614.294 444.683, 633.500 454.287 C 670.786 472.932, 716.513 488.515, 748.845 493.594 C 762.352 495.716, 797.937 496.574, 810.701 495.086 C 822.224 493.743, 839.588 489.782, 844.037 487.481 C 847.818 485.526, 847.773 483.652, 843.837 479.132 C 815.155 446.195, 750.965 420.957, 683.500 416.090 C 667.626 414.945, 627.542 414.004, 621.500 414.635 M 468.773 420.912 C 439.800 437.843, 413.117 468.099, 404.820 493.428 C 402.631 500.109, 402.508 501.912, 402.590 526 C 402.693 556.043, 403.373 560.223, 411.705 582 C 417.419 596.936, 431.959 628.239, 433.675 629.299 C 435.322 630.317, 440.911 626.202, 441.598 623.465 C 442.688 619.121, 440.283 610.303, 434.400 597.084 C 423.163 571.830, 419.517 556.725, 419.656 536 C 419.756 521.031, 421.342 513.245, 427.115 499.379 C 434.124 482.541, 451.810 461.392, 468.765 449.574 C 473.311 446.405, 477.523 442.891, 478.126 441.765 C 479.767 438.698, 478.832 420.403, 476.936 418.508 C 475.612 417.184, 474.688 417.456, 468.773 420.912 M 470.987 457.913 C 462.754 464.096, 448.634 478.749, 443.701 486.228 C 426.638 512.096, 423.547 541.731, 434.483 574.598 C 438.134 585.571, 446.073 603.309, 447.815 604.386 C 449.299 605.303, 450.195 603.379, 455.495 587.907 C 461.590 570.111, 465.580 556.260, 468.003 544.486 C 475.335 508.852, 481.605 454.422, 478.500 453.362 C 477.950 453.174, 474.569 455.222, 470.987 457.913 M 1102 480.352 C 1102 482.746, 1103.093 493.434, 1104.429 504.102 C 1108.448 536.201, 1109.409 551.127, 1109.379 581 C 1109.329 631.841, 1104.791 678.992, 1095.424 726 C 1087.561 765.458, 1078.509 792.569, 1058.125 837.704 C 1053.106 848.817, 1049 858.492, 1048.999 859.204 C 1048.999 860.246, 1053.062 860.362, 1069.749 859.796 C 1111.594 858.376, 1131.189 854.715, 1157.820 843.340 C 1180.438 833.680, 1198.866 821.120, 1216.465 803.372 C 1251.569 767.970, 1273.635 719.680, 1282.662 658.500 C 1285.228 641.112, 1285.210 606.538, 1282.630 595.500 C 1279.795 583.374, 1275.409 571.652, 1269.254 559.749 C 1250.226 522.953, 1209.045 495.818, 1153 483.145 C 1137.757 479.699, 1113.886 476.014, 1106.750 476.005 L 1102 476 1102 480.352 M 1057.297 479.750 C 1059.253 489.594, 1063.203 518.002, 1064.486 531.444 C 1067.807 566.270, 1067.392 617.567, 1063.469 657 C 1057.389 718.125, 1043.853 765.106, 1018.236 814 C 1001.396 846.142, 1001.415 846.099, 1003.573 847.677 C 1005.534 849.111, 1012.779 851.493, 1018.368 852.541 L 1021.578 853.143 1031.223 833.322 C 1051.885 790.860, 1061.874 761.805, 1070.874 718 C 1077.537 685.566, 1080.491 659.309, 1082.155 617.729 C 1084.047 570.425, 1080.925 507.139, 1075.476 482.320 C 1074.536 478.042, 1072.348 477, 1064.304 477 L 1056.750 477 1057.297 479.750 M 1019.521 484.612 C 1016.233 485.407, 1013.142 486.458, 1012.652 486.948 C 1012.130 487.470, 1012.822 492.126, 1014.318 498.170 C 1017.156 509.628, 1020.042 525.324, 1022.655 543.500 C 1024.862 558.857, 1025.193 619.107, 1023.187 640.500 C 1016.809 708.532, 999.952 760.910, 970.140 805.331 C 967.494 809.274, 964.048 814.704, 962.482 817.399 L 959.636 822.298 962.372 824.480 C 967.951 828.928, 977.469 833.350, 980.063 832.699 C 984.548 831.573, 997.479 809.639, 1008.974 783.657 C 1027.933 740.806, 1040.279 686.344, 1043.012 633.500 C 1045.651 582.472, 1043.203 527.647, 1036.921 497.117 C 1033.851 482.196, 1032.760 481.411, 1019.521 484.612 M 984.294 494.534 C 976.482 496.638, 972.047 498.714, 971.321 500.605 C 970.963 501.538, 972.165 509.095, 973.990 517.400 C 981.658 552.277, 981.290 548.473, 981.400 594 C 981.534 649.619, 979.532 668.152, 969.951 700 C 961.500 728.093, 951.797 748.751, 935.829 772.647 C 930.973 779.914, 927.004 786.454, 927.010 787.180 C 927.022 788.874, 935.766 800.478, 940.349 804.882 C 942.322 806.778, 944.491 808.026, 945.285 807.721 C 946.065 807.422, 950.091 802.075, 954.233 795.838 C 984.402 750.411, 998.679 704.436, 1003.993 635.600 C 1005.404 617.327, 1005.394 562.712, 1003.978 547.500 C 1001.694 522.965, 996.369 497.646, 992.884 494.750 C 990.441 492.719, 990.980 492.733, 984.294 494.534 M 947 509.381 C 937.061 513.532, 929.890 518.068, 930.427 519.863 C 931.590 523.742, 937.951 557.321, 939.168 566 C 940.983 578.942, 940.974 629.329, 939.155 641.500 C 934.308 673.931, 925.012 701.288, 909.781 727.952 C 900.467 744.256, 900.144 746.780, 905.974 757.721 C 911.140 767.416, 916.156 773.640, 917.924 772.547 C 920.097 771.204, 930.473 754.695, 936.278 743.344 C 951.831 712.932, 960.930 680.901, 966.203 638 C 967.920 624.026, 967.917 574.858, 966.197 561 C 962.323 529.776, 956.984 506.912, 953.598 507.042 C 952.994 507.066, 950.025 508.118, 947 509.381 M 913.500 529.907 C 910.750 531.496, 904.879 535.983, 900.453 539.878 L 892.407 546.961 894.797 558.231 C 896.867 567.991, 897.257 573.144, 897.716 596.724 C 898.497 636.890, 896.598 650.110, 886.346 675.871 C 879.141 693.974, 879.190 703.275, 886.571 718.685 C 892.612 731.297, 896.246 729.757, 906.060 710.423 C 916.624 689.611, 923.129 669.060, 926.684 645.268 C 928.893 630.489, 929.171 586.564, 927.171 568.500 C 924.753 546.664, 920.959 526.984, 919.172 527.009 C 918.803 527.015, 916.250 528.318, 913.500 529.907 M 882.641 559.442 C 878.637 563.762, 870.323 581.567, 867.905 591 C 864.834 602.981, 864.143 627.209, 866.421 643 C 868.281 655.896, 873.737 679.719, 875.010 680.506 C 876.401 681.366, 883.733 661.134, 885.886 650.500 C 889.363 633.322, 890.318 619.383, 889.718 594.579 C 889.204 573.320, 888.024 561.675, 886.019 558.076 C 885.388 556.942, 884.700 557.220, 882.641 559.442 M 610.983 666.129 C 591.731 667.179, 562.088 672.498, 536.757 679.446 C 520.744 683.838, 517.585 685.356, 518.991 687.984 C 522.742 694.991, 553.935 716.414, 577.952 728.476 C 635.136 757.195, 710.604 766.148, 772.411 751.544 C 791.885 746.942, 815 738.824, 815 736.585 C 815 732.487, 784.606 710.258, 765.214 700.174 C 723.111 678.280, 656.749 663.631, 610.983 666.129 M 504 690.683 C 503.175 690.973, 499.462 692.579, 495.750 694.253 C 490.842 696.466, 489 697.816, 489 699.202 C 489 701.693, 505.798 718.959, 518.321 729.340 C 556.754 761.198, 602.226 784.318, 648.500 795.528 C 673.098 801.487, 682.606 802.260, 724.500 801.709 C 763.773 801.192, 772.531 800.383, 792.078 795.463 C 810.505 790.825, 840.919 778.957, 844.490 775.011 C 846.076 773.259, 846.025 772.900, 843.623 768.801 C 839.250 761.338, 827.497 747.550, 824.655 746.549 C 821.569 745.462, 820.899 745.634, 800 752.848 C 771.149 762.809, 747.383 766.310, 708.500 766.330 C 679.376 766.344, 666.442 765.166, 643.666 760.425 C 601.539 751.656, 557.295 730.106, 517.189 698.823 C 510.968 693.970, 505.793 690.036, 505.689 690.079 C 505.585 690.122, 504.825 690.394, 504 690.683 M 466.250 708.958 C 462.813 710.585, 460.004 712.272, 460.010 712.708 C 460.025 713.908, 483.229 738.356, 494.008 748.528 C 534.744 786.969, 582.311 816.200, 631.311 832.902 C 686.713 851.786, 751.814 853.622, 812.908 838.024 C 828.399 834.068, 859.577 821.503, 864.135 817.377 C 865.780 815.889, 865.709 815.335, 862.827 807.152 C 861.151 802.393, 858.513 795.700, 856.965 792.278 L 854.151 786.056 848.825 787.927 C 845.896 788.956, 838.454 791.844, 832.286 794.345 C 812.488 802.372, 782.279 810.591, 763 813.194 C 750.321 814.907, 691.405 814.883, 676.500 813.159 C 648.815 809.958, 615.843 799.819, 583.481 784.554 C 551.064 769.263, 518.221 746.502, 491.236 720.624 C 479.439 709.312, 475.428 705.999, 473.527 706.001 C 472.962 706.001, 469.688 707.332, 466.250 708.958 M 441.161 721.547 C 438.890 726.529, 439.753 729.496, 445.847 737.663 C 456.658 752.152, 478.681 775.787, 496.085 791.578 C 539.778 831.218, 582.566 857.769, 631.037 875.318 C 684.390 894.635, 751.979 898.847, 811 886.535 C 828.829 882.816, 860.378 872.288, 870.147 866.797 C 873.912 864.681, 874 864.502, 874 858.947 C 874 852.297, 871.309 835.909, 870.003 834.603 C 869.469 834.069, 865.316 835.249, 859.801 837.502 C 833.531 848.233, 817.885 853.359, 799 857.422 C 779.625 861.591, 767.386 862.431, 725.500 862.467 C 686.669 862.500, 686.435 862.488, 671.500 859.636 C 627.764 851.285, 583.417 832.943, 542.722 806.373 C 515.598 788.664, 500.256 775.565, 466.500 741.295 C 454.400 729.011, 444.010 718.969, 443.411 718.980 C 442.811 718.991, 441.799 720.146, 441.161 721.547 M 416 738.363 C 416 744.698, 427.655 760.959, 452.593 789.418 C 507.110 851.631, 571.378 896.582, 639.821 920.368 C 654.491 925.466, 684.724 933.175, 698 935.202 C 709.891 937.018, 791.918 937.017, 804.500 935.201 C 815.580 933.602, 849.976 925.188, 863.500 920.768 L 873.500 917.500 874.673 908.500 C 876.296 896.056, 876.326 887.995, 874.750 888.021 C 872.925 888.052, 858.462 892.379, 850.080 895.403 C 834.824 900.906, 800.253 908.517, 778.500 911.161 C 762.384 913.120, 715.148 912.822, 698.731 910.657 C 605.472 898.362, 518.646 849.184, 447.747 768.500 C 432.053 750.640, 420.388 738.350, 417.750 736.895 C 416.298 736.094, 416 736.344, 416 738.363 M 394.708 757.750 C 396.524 762.681, 420.449 795.972, 432.975 811 C 451.752 833.526, 479.902 862.309, 500 879.531 C 577.470 945.916, 659.507 979.841, 751.500 983.537 C 778.812 984.634, 810.830 981.391, 841.456 974.427 C 868.932 968.179, 871 966.706, 871 953.392 C 871 947.383, 870.624 944.793, 869.702 944.439 C 868.988 944.165, 861.710 945.749, 853.529 947.959 C 822.828 956.251, 802.478 959.525, 771.763 961.114 C 703.729 964.632, 646.335 951.856, 580.500 918.541 C 519.471 887.657, 465.636 842.165, 414.010 777.854 C 400.802 761.401, 396.064 756, 394.835 756 C 394.410 756, 394.353 756.788, 394.708 757.750 M 368.092 780.654 C 349.995 796.144, 325.133 834.549, 317.697 858.500 C 312.543 875.099, 311.514 882.314, 311.564 901.500 C 311.603 916.152, 312.014 921.315, 313.774 929.259 C 324.149 976.071, 353.545 1018.571, 400 1053.921 C 460.983 1100.327, 540.731 1134.942, 620 1149.414 C 662.494 1157.172, 700.904 1155.008, 735.634 1142.898 C 790.157 1123.887, 830.480 1081.749, 853.935 1019.273 C 859.426 1004.646, 860.863 999, 859.095 999 C 858.475 999, 852.237 1000.141, 845.234 1001.536 C 826.489 1005.269, 810.644 1006.896, 781 1008.130 C 730.418 1010.237, 699.799 1007.130, 660 995.852 C 557.901 966.921, 468.045 900.918, 391.020 798.275 C 382.453 786.858, 374.766 777.386, 373.938 777.227 C 373.111 777.067, 370.480 778.609, 368.092 780.654" stroke="none" fill="#050505" fill-rule="evenodd"/></svg>