<svg xmlns="http://www.w3.org/2000/svg" width="300" height="279" viewBox="0 0 300 279" version="1.1"><path d="M 157.168 51.136 L 157 55.773 161.283 56.415 C 169.435 57.638, 175.123 62.863, 175.191 69.193 C 175.260 75.599, 174.962 76.343, 170.750 80.277 C 167.003 83.776, 166.856 84.067, 169.502 82.726 C 174.505 80.191, 176.299 77.438, 176.788 71.545 C 177.143 67.264, 176.801 65.415, 175.168 62.772 C 172.810 58.956, 167.222 55.490, 161.804 54.484 C 158.445 53.860, 158.073 53.465, 157.722 50.149 C 157.373 46.844, 157.320 46.937, 157.168 51.136 M 133.879 57.170 L 131.622 60.339 134.811 57.981 C 137.953 55.659, 138.893 54, 137.068 54 C 136.556 54, 135.121 55.426, 133.879 57.170 M 120.707 68.646 C 115.870 71.726, 112.129 74.463, 112.394 74.727 C 112.917 75.250, 130 64.378, 130 63.522 C 130 62.722, 130.065 62.687, 120.707 68.646 M 99 77 C 99 77.550, 99.450 78, 100 78 C 100.550 78, 101 77.550, 101 77 C 101 76.450, 100.550 76, 100 76 C 99.450 76, 99 76.450, 99 77 M 103.667 76.667 C 102.714 77.619, 102.840 83, 103.815 83 C 104.263 83, 105.381 81.425, 106.299 79.500 C 107.886 76.172, 107.878 76, 106.150 76 C 105.151 76, 104.033 76.300, 103.667 76.667 M 135.557 109.223 C 133.070 112.773, 133.580 117.734, 136.760 120.913 C 138.277 122.431, 140.190 123.897, 141.010 124.170 C 142.115 124.538, 142.500 126.258, 142.500 130.833 C 142.500 134.225, 142.838 137, 143.250 137 C 143.662 137, 144 134.112, 144 130.582 C 144 124.320, 143.914 124.110, 140.487 121.992 C 138.555 120.798, 136.572 119.069, 136.080 118.150 C 134.926 115.993, 135.834 110.991, 137.786 108.750 C 138.667 107.738, 138.847 107, 138.212 107 C 137.608 107, 136.413 108, 135.557 109.223 M 155 139.750 C 155 143.980, 155.383 144.806, 158.500 147.293 C 162.404 150.408, 162.838 152.397, 160.250 155.317 C 158.555 157.229, 158.569 157.255, 160.682 156.147 C 164.687 154.046, 164.669 151.001, 160.627 147.297 C 157.490 144.423, 157 143.366, 157 139.487 C 157 137.019, 156.550 135, 156 135 C 155.450 135, 155 137.137, 155 139.750 M 145.667 172.667 C 145.300 173.033, 145.053 175.396, 145.118 177.917 L 145.235 182.500 146.066 177.532 C 146.916 172.448, 146.838 171.495, 145.667 172.667" stroke="none" fill="#d4d4d4" fill-rule="evenodd"/><path d="M 144.250 0.662 C 143.359 1.022, 143 4.253, 143 11.922 L 143 22.678 134.250 23.958 C 69.032 33.497, 27.282 98.408, 45.603 161.781 C 57.230 201.998, 91.921 232.214, 133.697 238.511 C 146.070 240.376, 152.956 240.372, 165.423 238.493 C 224.901 229.528, 266.094 173.454, 256.529 114.477 C 248.876 67.298, 211.471 30.457, 164.558 23.894 L 155.875 22.679 156.114 12.258 C 156.301 4.125, 156.040 1.638, 154.927 0.934 C 153.424 -0.017, 146.378 -0.196, 144.250 0.662 M 131.306 28.485 C 113.178 31.774, 94.755 40.541, 81.550 52.165 L 76.854 56.299 83.075 62.575 L 89.295 68.852 95.333 63.966 C 98.654 61.279, 104.100 57.634, 107.436 55.865 C 110.771 54.097, 114.625 51.845, 116 50.861 C 117.375 49.877, 122.690 47.682, 127.811 45.982 C 132.932 44.282, 137.769 42.642, 138.561 42.338 C 139.445 41.999, 140 42.406, 140 43.393 C 140 44.277, 140.675 45, 141.500 45 C 142.722 45, 143 43.333, 143 36 C 143 25.627, 143.895 26.202, 131.306 28.485 M 156 35.847 C 156 41.024, 156.444 45.156, 157.040 45.525 C 157.715 45.942, 157.852 45.259, 157.432 43.584 C 156.807 41.097, 156.949 41, 161.210 41 C 169.762 41, 181.342 45.524, 186.627 50.930 C 189.170 53.531, 190.151 53.920, 192.824 53.385 C 194.571 53.036, 196 52.356, 196 51.875 C 196 51.394, 197.147 51, 198.548 51 C 200.369 51, 201.441 51.785, 202.303 53.750 C 204.641 59.082, 209.204 66, 210.383 66 C 211.039 66, 213.769 63.772, 216.451 61.050 C 222.147 55.267, 222.234 55.528, 212 47.751 C 198.987 37.862, 178.346 29.614, 161.250 27.471 L 156 26.812 156 35.847 M 164.712 35.247 C 166.913 39.015, 168.749 39.646, 171.519 37.583 C 173.433 36.159, 173.390 36.070, 170.250 34.957 C 168.463 34.323, 167 33.398, 167 32.902 C 167 32.406, 166.059 32, 164.908 32 C 162.825 32, 162.825 32.015, 164.712 35.247 M 173 34 C 173 34.550, 173.450 35, 174 35 C 174.550 35, 175 34.550, 175 34 C 175 33.450, 174.550 33, 174 33 C 173.450 33, 173 33.450, 173 34 M 230.631 38.250 C 233.416 41.138, 236.743 45.075, 238.025 47 C 243.851 55.749, 261.053 73, 263.951 73 C 264.984 73, 259.545 56.823, 257.275 53.141 C 254.240 48.220, 247.521 41.842, 242.851 39.450 C 237.730 36.827, 228.052 33.001, 226.534 33.001 C 226.003 33, 227.847 35.362, 230.631 38.250 M 62.461 37.547 C 52.099 42.051, 47.341 45.546, 42.765 52.017 C 39.522 56.603, 33.138 73.471, 34.231 74.565 C 35.400 75.733, 51.508 60.079, 56.595 52.832 C 59.812 48.250, 64.438 42.356, 66.874 39.735 C 69.309 37.114, 71.104 34.771, 70.862 34.528 C 70.619 34.286, 66.839 35.645, 62.461 37.547 M 156.809 48.500 C 156.433 49.600, 155.820 53.982, 155.446 58.237 C 154.909 64.358, 155.053 66.054, 156.134 66.357 C 156.885 66.567, 160.002 67.206, 163.061 67.777 C 171.627 69.376, 175.952 71.466, 175.362 73.723 C 174.886 75.543, 174.640 75.530, 168.185 73.330 C 164.508 72.077, 160.037 71.040, 158.250 71.026 L 155 71 155 78.500 C 155 85.333, 154.822 86, 153 86 C 151.900 86, 151 86.392, 151 86.872 C 151 87.352, 154.262 86.861, 158.250 85.783 C 162.238 84.704, 166.399 83.641, 167.499 83.420 C 170.333 82.851, 174.286 79.724, 175.735 76.904 C 177.617 73.243, 177.279 66.187, 175.049 62.580 C 172.798 58.937, 167.132 55.474, 161.804 54.484 C 158.425 53.856, 158.082 53.486, 157.800 50.149 C 157.564 47.349, 157.333 46.965, 156.809 48.500 M 257.882 50.189 C 262.399 54.605, 263.463 57.001, 266.833 70.335 L 269.777 81.983 264.638 77.448 C 261.812 74.954, 256.575 70.786, 253 68.187 C 249.425 65.587, 245.388 61.743, 244.028 59.646 C 240.755 54.596, 240.338 56.501, 242.979 64.437 C 245.503 72.022, 248.663 76.269, 256.600 82.748 C 265.669 90.151, 275.895 100.095, 276.545 102.143 C 278.035 106.837, 278.477 102.710, 278.194 86.751 C 277.857 67.808, 276.794 63.609, 270.429 56.082 C 266.962 51.981, 259.385 47, 256.614 47 C 254.887 47, 255.057 47.427, 257.882 50.189 M 34.946 51.822 C 30.419 54.696, 26.532 59.100, 23.745 64.513 C 20.778 70.275, 19.877 78.788, 20.730 93 C 21.527 106.298, 21.564 106.455, 23.198 103.500 C 25.493 99.351, 29.152 95.622, 38.697 87.711 C 47.446 80.458, 54.256 71.477, 56.046 64.830 C 57.749 58.504, 56.866 56.864, 54.135 61.282 C 52.849 63.363, 48.130 67.796, 43.648 71.135 C 39.167 74.473, 33.795 79.071, 31.711 81.352 C 28.243 85.148, 28.010 85.258, 28.974 82.650 C 29.553 81.083, 30.917 75.720, 32.006 70.732 C 34.202 60.667, 37.268 53.474, 40.122 51.692 C 41.155 51.047, 42 50.177, 42 49.759 C 42 48.263, 39.317 49.047, 34.946 51.822 M 140.667 49.667 C 140.300 50.033, 140 51.158, 140 52.167 C 140 53.329, 139.273 54, 138.014 54 C 136.795 54, 134.975 55.592, 133.300 58.123 C 129.868 63.309, 111.050 76, 106.792 76 C 103.195 76, 100.987 80.416, 103.385 82.814 C 104.676 84.104, 105.357 83.851, 109.018 80.717 C 116.788 74.066, 132.841 67, 140.182 67 C 142.659 67, 143 66.629, 143 63.941 C 143 62.259, 142.662 61.081, 142.250 61.324 C 141.164 61.963, 137 60.231, 137 59.139 C 137 57.597, 140.162 56.890, 141.627 58.105 C 142.761 59.046, 143 58.352, 143 54.122 C 143 49.366, 142.301 48.032, 140.667 49.667 M 165.177 59.667 C 165.663 62.176, 168 62.520, 168 60.083 C 168 58.855, 167.354 58, 166.427 58 C 165.495 58, 164.985 58.680, 165.177 59.667 M 218.302 65.263 L 212.186 71.500 217.084 77.470 C 226.462 88.897, 232.829 103.894, 235.092 119.884 L 236.383 129 245.252 129 L 254.121 129 253.435 121.750 C 252.420 111.032, 248.664 97.212, 244.144 87.567 C 239.858 78.421, 231.781 66.081, 227.222 61.712 L 224.417 59.025 218.302 65.263 M 69.941 63.719 C 61.493 73.341, 52.777 89.805, 49.146 103 C 47.501 108.978, 45 124.192, 45 128.224 C 45 128.651, 48.992 129, 53.871 129 L 62.742 129 63.427 122.939 C 65.233 106.977, 71.666 90.997, 81.361 78.385 L 86.831 71.270 81.136 65.635 C 78.004 62.536, 74.939 60, 74.325 60 C 73.710 60, 71.738 61.674, 69.941 63.719 M 100.864 64.926 C 97.214 67.619, 93.902 70.349, 93.505 70.993 C 92.696 72.301, 97.657 78, 99.604 78 C 100.281 78, 101.584 75.862, 102.500 73.250 C 103.416 70.638, 105.022 66.588, 106.070 64.250 C 107.117 61.913, 107.867 60.007, 107.737 60.015 C 107.607 60.023, 104.514 62.233, 100.864 64.926 M 170.534 65.250 C 171.308 67.857, 173.900 70.180, 175.163 69.399 C 176.367 68.655, 172.880 63, 171.217 63 C 170.284 63, 170.072 63.697, 170.534 65.250 M 278 66.941 C 278 67.459, 278.395 68.126, 278.877 68.424 C 281.204 69.862, 281.987 78.492, 281.342 95.590 L 280.676 113.258 278.806 109.614 C 277.135 106.357, 255.117 83.550, 254.367 84.300 C 253.788 84.879, 257.695 96.523, 259.971 101 C 261.229 103.475, 265.405 109.775, 269.252 115 C 276.231 124.480, 280.385 132.047, 281.466 137.250 C 282.191 140.736, 284 140.844, 284 137.401 C 284 135.971, 285.811 129.403, 288.026 122.803 C 290.240 116.204, 292.322 108.213, 292.653 105.045 C 293.407 97.835, 291.611 87.102, 288.512 80.282 C 284.406 71.249, 278 63.119, 278 66.941 M 17.761 69.744 C 15.066 72.776, 10.421 81.300, 8.690 86.388 C 4.681 98.173, 5.476 108.384, 11.654 124.482 C 13.551 129.423, 15.365 135.385, 15.687 137.732 C 16.009 140.080, 16.576 142, 16.947 142 C 17.318 142, 18.217 139.680, 18.943 136.844 C 19.825 133.402, 23.351 127.097, 29.549 117.876 C 38.956 103.880, 42.536 96.418, 43.527 88.740 C 44.006 85.028, 43.914 84.746, 42.787 86.473 C 42.079 87.557, 37.428 92.507, 32.452 97.473 C 26.726 103.185, 22.408 108.508, 20.691 111.968 L 17.979 117.436 18.587 112.968 C 18.921 110.511, 18.497 102.650, 17.644 95.500 C 16.101 82.571, 16.341 78.006, 18.900 71.611 C 20.303 68.106, 19.860 67.381, 17.761 69.744 M 133.124 72.578 C 126.769 74.287, 115.923 79.870, 111 83.966 L 107.500 86.878 113.229 92.439 C 116.380 95.498, 119.177 98, 119.445 98 C 119.713 98, 122.678 96.225, 126.034 94.057 C 129.389 91.888, 134.580 89.566, 137.567 88.897 L 143 87.682 143 79.341 C 143 69.776, 143.153 69.880, 133.124 72.578 M 84.515 80.750 C 75.672 92.013, 69.455 107.592, 67.554 123.250 L 66.856 129 75.928 129 L 85 129 85 125.210 C 85 115.922, 91.615 99.297, 98.512 91.251 L 102.155 87.001 99.154 84.001 C 97.504 82.350, 95.669 81, 95.077 81 C 94.485 81, 94 80.395, 94 79.655 C 94 78.313, 90.930 75, 89.686 75 C 89.325 75, 86.998 77.588, 84.515 80.750 M 194.479 78.976 C 196.377 81.075, 198 80.828, 198 78.441 C 198 77.548, 196.990 77, 195.345 77 C 192.764 77, 192.740 77.055, 194.479 78.976 M 186.895 87.672 C 185.578 89.107, 182.587 91.513, 180.249 93.017 C 176.523 95.415, 176.191 95.914, 177.563 97.052 C 178.906 98.167, 179.989 97.491, 185.176 92.304 C 188.502 88.978, 190.789 85.987, 190.257 85.659 C 189.726 85.330, 188.213 86.236, 186.895 87.672 M 198.566 87.250 C 199.439 90.053, 205.048 97.285, 205.781 96.552 C 206.078 96.255, 205.574 95.187, 204.661 94.177 C 202.870 92.198, 202.458 90, 203.878 90 C 205.089 90, 206.426 91.899, 207.992 95.842 C 209.113 98.666, 209.101 99.336, 207.910 100.158 C 206.869 100.877, 207.060 100.974, 208.642 100.532 C 210.603 99.984, 210.914 100.550, 212.315 107.217 C 213.157 111.223, 213.926 117.200, 214.023 120.500 C 214.121 123.800, 214.230 127.063, 214.267 127.750 C 214.315 128.651, 216.802 129, 223.167 129 C 233.228 129, 232.659 129.731, 230.949 119 C 229.783 111.683, 225.964 99, 224.926 99 C 224.551 99, 223.685 99.675, 223 100.500 C 221.039 102.863, 219.434 102.300, 215.878 98 C 214.059 95.800, 212.087 94, 211.497 94 C 210.907 94, 208.866 92.668, 206.962 91.041 C 205.058 89.413, 202.923 88.063, 202.219 88.041 C 201.514 88.018, 200.678 87.325, 200.362 86.500 C 199.434 84.083, 197.793 84.768, 198.566 87.250 M 100.711 94.750 C 94.512 103.261, 90.471 113.258, 89.077 123.530 L 88.335 129 93.559 129 C 98.366 129, 98.836 128.790, 99.443 126.371 C 99.806 124.924, 101.879 121.983, 104.050 119.833 C 106.221 117.684, 108.949 114.029, 110.113 111.713 C 111.276 109.396, 113.272 106.106, 114.548 104.403 L 116.868 101.307 111.155 95.653 C 108.013 92.544, 105.156 90, 104.806 90 C 104.456 90, 102.614 92.138, 100.711 94.750 M 187.796 95.724 L 182.104 101.500 184.802 104.759 C 186.286 106.551, 188.052 108.014, 188.727 108.009 C 190.071 107.999, 193.196 103.753, 192.880 102.366 C 192.444 100.454, 194.332 98, 196.238 98 C 197.992 98, 198.186 98.466, 197.694 101.500 C 197.082 105.267, 198.687 106.287, 200.944 103.567 C 201.878 102.442, 201.772 101.582, 200.452 99.567 C 199.527 98.155, 198.147 97, 197.385 97 C 196.623 97, 196 96.186, 196 95.191 C 196 94.196, 195.435 92.610, 194.744 91.665 C 193.611 90.116, 192.933 90.512, 187.796 95.724 M 163.500 100.078 C 160.200 101.120, 156.664 101.979, 155.643 101.986 C 154.363 101.996, 153.975 102.491, 154.393 103.582 C 154.727 104.452, 155 105.577, 155 106.082 C 155 106.587, 156.577 107, 158.504 107 C 161.819 107, 161.994 107.169, 161.754 110.141 C 161.607 111.955, 162.028 113.469, 162.750 113.725 C 163.438 113.968, 164 113.486, 164 112.655 C 164 111.823, 164.707 110.436, 165.571 109.571 C 167 108.143, 167 108, 165.571 108 C 164.707 108, 164 107.373, 164 106.607 C 164 104.895, 166.682 103.764, 169 104.500 C 169.945 104.800, 171.286 104.360, 171.981 103.523 C 172.676 102.685, 173.935 102, 174.777 102 C 176.062 102, 176.017 101.676, 174.500 100 C 172.336 97.608, 171.294 97.616, 163.500 100.078 M 294.414 112.758 C 294.337 119.702, 293.797 121.780, 289.177 132.923 C 286.344 139.755, 283.731 146.915, 283.372 148.833 C 282.730 152.252, 282.685 152.194, 281.096 145.880 C 280.106 141.947, 277.070 135.362, 273.301 128.970 C 269.905 123.211, 266.824 117.258, 266.453 115.741 C 266.082 114.223, 265.306 112.689, 264.730 112.333 C 263.083 111.315, 264.558 127.419, 266.998 137.102 C 268.162 141.721, 270.497 149.929, 272.185 155.343 C 274.762 163.603, 275.176 166.297, 274.761 172.093 C 274.489 175.892, 274.544 178.964, 274.884 178.920 C 275.223 178.877, 279.494 173.461, 284.376 166.885 C 293.417 154.707, 297.402 146.933, 298.592 139.149 C 299.045 136.185, 299.530 135.229, 300.113 136.149 C 300.621 136.950, 300.976 133.299, 300.985 127.191 C 300.995 120.569, 300.642 117.103, 300 117.500 C 299.429 117.853, 298.967 116.912, 298.924 115.309 C 298.830 111.845, 296.692 105.728, 295.431 105.318 C 294.915 105.150, 294.462 108.468, 294.414 112.758 M 117.255 107.250 C 115.065 110.016, 113.761 113.246, 115.002 112.833 C 115.660 112.613, 116.807 110.986, 117.551 109.217 C 118.981 105.816, 118.887 105.189, 117.255 107.250 M 139.259 106.705 C 133.670 107.782, 132.168 116.322, 136.760 120.913 C 138.277 122.431, 140.190 123.897, 141.010 124.170 C 142.115 124.538, 142.500 126.258, 142.500 130.833 C 142.500 134.225, 142.838 137, 143.250 137 C 143.662 137, 144 133.960, 144 130.244 C 144 123.677, 143.915 123.451, 140.955 122.140 C 139.280 121.399, 137.210 119.724, 136.354 118.417 C 134.873 116.158, 134.959 115.871, 138.119 112.521 C 139.946 110.585, 142.016 109, 142.720 109 C 143.424 109, 144 108.325, 144 107.500 C 144 105.997, 143.428 105.901, 139.259 106.705 M 2.036 111.373 C 1.224 114.271, 0.946 120.761, 1.211 130.623 C 1.702 148.921, 3.085 153.026, 12.814 165.078 C 16.553 169.710, 20.825 175.292, 22.307 177.482 C 25.309 181.922, 25.309 181.922, 25.031 173.391 C 24.882 168.796, 25.847 163.747, 28.928 153.010 C 33.689 136.413, 35.228 127.612, 34.804 119.397 L 34.500 113.500 33.113 117.500 C 32.350 119.700, 29.752 124.772, 27.340 128.770 C 22.073 137.502, 19.444 143.919, 18.412 150.559 L 17.644 155.500 16.814 151.634 C 16.357 149.508, 13.746 142.485, 11.012 136.028 C 5.389 122.750, 3.510 115.423, 4.447 110.429 C 5.378 105.469, 3.481 106.211, 2.036 111.373 M 175 108.500 C 174.282 109.365, 174.185 110, 174.771 110 C 175.329 110, 176.045 109.325, 176.362 108.500 C 176.678 107.675, 176.781 107, 176.591 107 C 176.401 107, 175.685 107.675, 175 108.500 M 195 108.003 C 194.175 108.472, 192.691 109.107, 191.702 109.415 C 190.125 109.905, 190.291 110.352, 193.056 113.054 C 194.878 114.836, 196.826 115.897, 197.676 115.571 C 200.171 114.614, 203 116.851, 203.005 119.785 L 203.010 122.500 205.469 119.500 C 208.509 115.792, 208.737 113, 206 113 C 204.900 113, 204 112.380, 204 111.622 C 204 108.648, 198.064 106.260, 195 108.003 M 203.750 126.299 C 200.367 127.636, 200.182 129, 203.383 129 C 204.926 129, 205.951 128.294, 206.290 127 C 206.577 125.900, 206.742 125.048, 206.656 125.106 C 206.570 125.165, 205.262 125.702, 203.750 126.299 M 154 127.714 C 154 128.421, 154.900 129, 156 129 C 157.100 129, 158 128.421, 158 127.714 C 158 127.007, 157.100 126.429, 156 126.429 C 154.900 126.429, 154 127.007, 154 127.714 M 45.512 139.750 C 47.724 161.985, 56.417 182.889, 70.208 199.132 L 73.916 203.500 80.503 197 L 87.089 190.500 83.657 187.500 C 81.769 185.850, 77.427 182.025, 74.007 179 C 70.588 175.975, 66.712 173.201, 65.395 172.836 C 63.347 172.269, 63 172.522, 63 174.586 C 63 177.486, 62.530 177.572, 59.929 175.149 C 57.516 172.901, 56.658 169.996, 56.575 163.794 C 56.499 158.067, 57.791 156.612, 63.009 156.549 C 66.161 156.510, 66.886 156.180, 66.410 155 C 65.504 152.752, 63.075 138.899, 63.035 135.750 L 63 133 53.920 133 L 44.841 133 45.512 139.750 M 67 134.869 C 67 138.310, 70.037 154.200, 71.060 156.112 C 72.353 158.528, 78.499 158.748, 79.396 156.410 C 79.732 155.535, 79.763 154.426, 79.465 153.944 C 78.852 152.951, 82.438 145.465, 83.986 144.509 C 84.544 144.164, 85 141.434, 85 138.441 L 85 133 76 133 C 67.877 133, 67 133.182, 67 134.869 M 88.699 135.750 C 89.684 142.169, 90.065 143, 92.019 143 C 93.237 143, 94.002 142.326, 94.006 141.250 C 94.010 140.287, 94.685 138.211, 95.506 136.636 C 96.328 135.060, 97 133.598, 97 133.386 C 97 133.174, 95.037 133, 92.639 133 C 88.445 133, 88.294 133.106, 88.699 135.750 M 104.070 134.250 C 104.032 135.213, 103.325 136, 102.500 136 C 101.675 136, 101 136.848, 101 137.883 C 101 138.927, 100.106 140, 98.996 140.291 C 96.601 140.917, 97.126 142.803, 103.158 155.236 C 103.621 156.191, 104 158.561, 104 160.502 C 104 162.443, 104.516 165.712, 105.146 167.766 L 106.292 171.500 111.396 166.500 L 116.500 161.500 112.786 155.650 C 110.743 152.433, 108.798 148.939, 108.464 147.886 C 108.129 146.833, 107.420 146.240, 106.887 146.570 C 106.355 146.899, 106.152 147.918, 106.436 148.834 C 106.721 149.750, 106.515 151.175, 105.977 152 C 105.109 153.333, 104.889 153.333, 104.004 152 C 102.161 149.227, 100.980 143.620, 102.020 142.580 C 102.559 142.041, 103 140.598, 103 139.373 C 103 138.149, 103.614 137.001, 104.363 136.823 C 105.300 136.601, 105.478 135.873, 104.934 134.500 C 104.261 132.805, 104.130 132.766, 104.070 134.250 M 154 138.878 C 154 142.245, 154.415 145, 154.923 145 C 156.608 145, 162 150.151, 162 151.760 C 162 152.630, 161.213 154.231, 160.250 155.317 C 158.555 157.229, 158.569 157.255, 160.682 156.147 C 164.687 154.046, 164.669 151.001, 160.627 147.297 C 157.519 144.449, 157 143.348, 157 139.609 C 157 136.950, 156.414 134.759, 155.500 134 C 154.194 132.916, 154 133.549, 154 138.878 M 199.254 133.822 C 198.278 134.442, 198.361 135.509, 199.636 138.755 C 201.101 142.486, 201.536 142.843, 204.010 142.348 C 212.121 140.726, 205.450 148.973, 197.014 150.997 C 190.215 152.628, 188.194 155.433, 190.688 159.779 C 192.172 162.365, 192.240 163.183, 191.140 165.239 C 189.998 167.372, 190.112 167.956, 192.103 170.191 L 194.360 172.725 196.550 170.113 C 203.569 161.741, 208.254 150.846, 209.823 139.250 L 210.669 133 205.584 133.015 C 202.788 133.024, 199.939 133.387, 199.254 133.822 M 214.225 137.251 C 213.518 148.171, 208.149 161.837, 201.022 170.853 L 197.142 175.762 199.876 178.381 C 201.379 179.821, 203.117 181, 203.737 181 C 204.358 181, 205.132 181.841, 205.458 182.868 C 205.784 183.896, 206.910 185.514, 207.960 186.464 C 209.801 188.129, 210.052 187.945, 214.920 181.346 C 224.213 168.750, 229.924 154.274, 231.529 139.250 L 232.196 133 223.348 133.001 L 214.500 133.003 214.225 137.251 M 235.987 136.250 C 235.963 142.095, 232.323 157.352, 229.201 164.687 C 225.677 172.968, 220.592 181.232, 215.659 186.693 L 212.220 190.500 218.463 197.420 L 224.705 204.341 230.724 196.766 C 243.905 180.179, 251.663 160.915, 253.483 140.250 L 254.121 133 245.061 133 L 236 133 235.987 136.250 M 111.723 143.611 C 110.988 144.345, 114.925 152.451, 117.652 155.818 L 119.513 158.117 122.342 155.165 L 125.171 152.212 122.905 149.606 C 121.659 148.173, 120.208 147, 119.680 147 C 119.152 147, 118.221 146.370, 117.610 145.601 C 116.299 143.949, 112.626 142.707, 111.723 143.611 M 264.073 152.750 C 261.876 160.226, 260.432 169.892, 259.481 183.500 C 258.730 194.233, 256.750 203.544, 254.013 209.209 C 252.913 211.485, 252.196 213.529, 252.418 213.751 C 253.240 214.573, 279.668 196.061, 284.378 191.364 C 290.638 185.122, 295.373 177.785, 297.821 170.534 C 298.889 167.373, 300.005 165.396, 300.302 166.143 C 300.599 166.889, 300.878 163.589, 300.921 158.809 C 301.009 149.146, 299.699 146.689, 297.941 153.220 C 296.157 159.851, 292.846 164.724, 282.632 175.753 C 277.447 181.353, 272.221 187.524, 271.020 189.467 C 269.819 191.410, 268.693 193, 268.516 193 C 268.340 193, 268.827 190.903, 269.598 188.341 C 271.417 182.297, 271.374 174.910, 269.469 165.851 C 268.626 161.847, 267.854 155.743, 267.751 152.286 C 267.649 148.829, 267.226 146, 266.811 146 C 266.397 146, 265.165 149.037, 264.073 152.750 M 32 153.893 C 32 157.134, 31.272 163.306, 30.382 167.608 C 28.819 175.168, 28.846 186.784, 30.437 191.500 C 30.955 193.033, 30.692 192.916, 29.315 191 C 28.326 189.625, 23.381 184.150, 18.327 178.833 C 8.342 168.328, 4.537 163.170, 2.442 157.297 C 1.114 153.573, 1.087 153.669, 1.044 162.272 C 0.986 173.794, 4.162 181.206, 13.206 190.662 C 18.773 196.483, 44.579 215, 47.124 215 C 48.403 215, 48.253 214.433, 45.578 209.154 C 42.979 204.025, 41.498 196.967, 40.510 185 C 38.958 166.198, 35.243 148, 32.958 148 C 32.431 148, 32 150.652, 32 153.893 M 128.551 154.949 C 121.846 161.724, 121.880 161.984, 130.058 166.435 L 135.151 169.207 137.325 167.220 C 138.521 166.128, 140.977 164.487, 142.783 163.574 C 144.837 162.536, 145.793 161.474, 145.336 160.735 C 144.935 160.087, 144.723 157.956, 144.864 156.001 C 145.096 152.782, 144.807 152.338, 141.810 151.310 C 134.424 148.776, 134.747 148.687, 128.551 154.949 M 113.688 169.810 L 107.966 175.593 110.733 178.203 C 114.664 181.912, 123.153 186.690, 129.796 188.933 C 132.923 189.988, 135.642 190.692, 135.838 190.495 C 136.034 190.299, 135.393 188.781, 134.413 187.122 C 133.027 184.775, 132.864 183.594, 133.680 181.803 C 134.256 180.536, 134.515 178.053, 134.256 176.284 C 133.873 173.679, 132.806 172.494, 128.642 170.042 C 125.814 168.378, 122.580 166.344, 121.455 165.522 C 119.535 164.119, 119.060 164.382, 113.688 169.810 M 145.667 172.667 C 145.300 173.033, 145.053 175.396, 145.118 177.917 L 145.235 182.500 146.066 177.532 C 146.916 172.448, 146.838 171.495, 145.667 172.667 M 251.653 183.250 C 244.934 192.693, 243.541 195.467, 238.972 208.500 C 233.803 223.247, 231.015 228.865, 226.215 234.202 L 222.500 238.333 225.500 237.706 C 249.549 232.684, 253.177 231.710, 259.565 228.558 C 267.789 224.502, 278.325 215.250, 283.260 207.751 C 287.467 201.358, 291.445 191.045, 290.189 189.789 C 289.655 189.255, 288.795 190.080, 288.078 191.812 C 285.251 198.637, 275.845 206.064, 260 213.981 C 255.325 216.316, 249.313 219.786, 246.640 221.691 L 241.780 225.154 244.360 221.772 C 248.684 216.103, 250.891 209.804, 253.041 196.997 C 254.171 190.260, 255.697 183.005, 256.431 180.874 C 257.165 178.743, 257.391 177, 256.934 177 C 256.476 177, 254.100 179.813, 251.653 183.250 M 42.448 179.500 C 43.638 182.394, 46.559 195.414, 47.764 203.193 C 49.015 211.269, 52.506 219.226, 57.101 224.473 L 60.500 228.354 55.559 224.589 C 52.841 222.519, 45.641 218.334, 39.559 215.289 C 25.229 208.115, 17.712 202.791, 13.997 197.181 C 12.349 194.693, 11 192.194, 11 191.629 C 11 190.930, 10.673 190.927, 9.981 191.619 C 7.929 193.671, 13.449 205.685, 20.318 214.117 C 29.622 225.539, 40.798 231.963, 56.628 234.986 C 62.607 236.128, 69.467 237.519, 71.872 238.076 C 74.276 238.634, 76.434 238.900, 76.667 238.667 C 76.899 238.434, 75.802 236.951, 74.227 235.372 C 69.806 230.936, 66.111 223.917, 61.893 211.944 C 59.770 205.916, 57.070 199.075, 55.894 196.742 C 53.265 191.526, 45.813 180.910, 43.403 178.947 C 41.789 177.633, 41.701 177.683, 42.448 179.500 M 193.171 181.524 C 191.589 184.996, 191.676 185.676, 194 188 C 196.110 190.110, 196.689 194.456, 195 195.500 C 193.844 196.215, 193.631 200.014, 194.750 199.972 C 195.162 199.957, 197.152 198.693, 199.171 197.164 C 202.723 194.473, 202.776 194.341, 200.801 193.108 C 199.144 192.073, 198.856 191.111, 199.273 188.001 C 199.706 184.770, 199.361 183.762, 197.065 181.562 L 194.342 178.954 193.171 181.524 M 65 182.345 C 65 183.695, 68.073 187, 69.329 187 C 70.585 187, 70.005 184.148, 68.429 182.571 C 66.502 180.645, 65 180.546, 65 182.345 M 113.404 186.697 C 114.248 189.356, 112.772 190.267, 104.754 192.044 C 99.664 193.171, 98.798 193.127, 97.175 191.658 C 95.174 189.847, 93 189.463, 93 190.920 C 93 192.508, 105.882 201.571, 113.477 205.326 C 120.814 208.954, 132.508 212.351, 141.250 213.395 L 146 213.962 146 204.981 L 146 196 142.894 196 C 136.089 196, 119.308 189.990, 114.141 185.702 C 112.954 184.717, 112.829 184.885, 113.404 186.697 M 83.185 200.313 L 76.928 206.626 81.764 210.704 C 94.155 221.152, 108.255 228.342, 124.949 232.723 C 138.392 236.251, 159.138 236.381, 172.985 233.023 C 189.249 229.079, 206.779 220.130, 218.309 209.884 L 222.118 206.500 215.755 200.224 L 209.393 193.947 203.411 198.724 C 200.121 201.351, 195.810 204.598, 193.831 205.939 C 191.852 207.281, 189.564 209.482, 188.746 210.830 C 187.896 212.231, 184.857 214.258, 181.652 215.562 C 177.101 217.414, 175.518 217.644, 173.246 216.787 C 171.235 216.028, 167.988 216.079, 161.723 216.968 L 153 218.207 153 223.981 C 153 230.011, 151.560 232.536, 148.739 231.453 C 147.118 230.831, 146 226.772, 146 221.512 L 146 218.274 138.250 217.078 C 120.913 214.400, 100.776 205.145, 92.577 196.085 C 91.539 194.938, 90.409 194, 90.066 194 C 89.723 194, 86.627 196.841, 83.185 200.313 M 153 205.481 L 153 213.962 157.750 213.396 C 165.117 212.518, 165.305 212.395, 163.489 209.624 C 162.587 208.247, 162.147 206.200, 162.464 204.856 C 163.111 202.113, 162.495 201.087, 158.785 198.727 C 153.597 195.427, 153 196.124, 153 205.481 M 231.019 212.079 C 228.134 214.360, 220.981 220.856, 215.123 226.515 C 203.978 237.283, 198.461 240.928, 190.048 243.084 C 187.272 243.796, 185 244.654, 185 244.992 C 185 245.330, 188.713 246.363, 193.250 247.290 C 197.787 248.216, 205.550 249.862, 210.500 250.947 C 230.678 255.373, 245.106 252.068, 258.316 239.995 C 263.797 234.985, 268.722 228.389, 267.725 227.392 C 267.449 227.115, 265.935 228.084, 264.361 229.545 C 258.047 235.407, 251.432 237.553, 233.717 239.486 C 225.898 240.339, 217.925 241.288, 216 241.594 L 212.500 242.151 217.119 239.068 C 219.660 237.372, 222.871 234.301, 224.256 232.242 C 227.246 227.797, 237.054 208.721, 236.589 208.256 C 236.411 208.078, 233.905 209.798, 231.019 212.079 M 68.856 220.609 C 75.244 232.616, 79.561 238.142, 84.852 241.087 C 86.859 242.204, 87.651 242.856, 86.613 242.537 C 85.574 242.218, 78.532 241.541, 70.962 241.032 C 51.236 239.705, 42.823 237.296, 35.513 230.878 C 31.265 227.147, 30.986 228.300, 34.847 233.631 C 38.746 239.012, 46.532 245.716, 52.265 248.629 C 64.758 254.974, 76.469 255.356, 97.500 250.102 C 104.100 248.454, 110.751 246.969, 112.281 246.803 C 116.771 246.314, 115.894 244.829, 110.265 243.388 C 101.412 241.123, 95.443 237.370, 85.010 227.509 C 74.593 217.664, 65.404 210, 64.016 210 C 63.574 210, 65.752 214.774, 68.856 220.609 M 88 213.465 C 88 214.967, 91.776 217.557, 92.667 216.667 C 92.939 216.394, 92.660 215.233, 92.046 214.086 C 90.769 211.699, 88 211.274, 88 213.465 M 126.575 245.010 C 119.714 246.228, 113.137 248.456, 101.456 253.517 C 84.841 260.717, 74.430 261.380, 62.296 256.013 C 59.763 254.892, 57.526 254.140, 57.325 254.342 C 56.325 255.342, 66.990 263.588, 72.840 266.338 C 78.828 269.153, 80.458 269.470, 89 269.483 C 101.178 269.502, 106.260 267.751, 119.383 259.017 C 132.350 250.386, 133.131 250, 137.638 250 L 141.408 250 134.050 254.537 C 126.177 259.391, 116.001 267.193, 112.129 271.345 L 109.757 273.887 112.629 276.412 C 114.208 277.801, 115.962 278.951, 116.528 278.968 C 117.093 278.986, 119.880 276.359, 122.721 273.131 C 128.270 266.827, 139.921 257.593, 146.628 254.183 L 150.756 252.084 156.445 255.509 C 163.578 259.805, 166.592 262.276, 176.147 271.666 C 184.332 279.709, 185.063 279.903, 189.348 275.168 C 191.133 273.195, 191.089 273.076, 187.337 269.704 C 178.845 262.074, 172.234 257.318, 163.500 252.559 L 158.500 249.834 164 250.232 C 168.818 250.581, 170.728 251.457, 179.394 257.297 C 193.531 266.823, 198.084 268.431, 211 268.460 C 220.700 268.482, 221.995 268.248, 228 265.385 C 234.220 262.421, 244.639 254.306, 243.582 253.249 C 243.304 252.971, 241.070 253.687, 238.617 254.840 C 232.054 257.925, 222.022 259.289, 215.159 258.029 C 212.046 257.457, 203.425 254.535, 196 251.535 C 187.872 248.252, 179.538 245.624, 175.056 244.933 C 167.600 243.784, 158.007 244.286, 153.309 246.073 C 151.721 246.676, 149.469 246.674, 147.153 246.066 C 141.349 244.544, 131.925 244.060, 126.575 245.010" stroke="none" fill="#040404" fill-rule="evenodd"/></svg>