<svg xmlns="http://www.w3.org/2000/svg" width="1454" height="1384" viewBox="0 0 1454 1384" version="1.1"><path d="M 290.895 31.585 C 290.660 32.088, 290.727 161.200, 291.044 318.500 L 291.620 604.500 294.356 622 C 301.880 670.123, 312.682 710.912, 330.241 757.500 C 345.983 799.270, 370.274 848.352, 395.815 890 C 421.631 932.096, 440.576 956.836, 471.857 989.296 C 503.316 1021.942, 526.663 1042.266, 560.500 1066.462 C 606.319 1099.225, 665.242 1129.723, 715.286 1146.578 L 728.072 1150.884 742.286 1146.035 C 787.478 1130.618, 836.508 1106.013, 881.409 1076.216 C 917.736 1052.109, 946.154 1028.625, 978.080 996.330 C 1011.965 962.053, 1033.482 934.721, 1058.243 894.500 C 1121.887 791.121, 1160.540 680.171, 1165.016 588.014 C 1165.561 576.788, 1165.972 454.566, 1165.982 300.250 L 1166 32 934.750 32 C 807.563 32, 610.760 31.700, 497.411 31.334 C 372.993 30.933, 291.153 31.032, 290.895 31.585 M 929.500 83.083 C 891.913 85.824, 856.726 121.356, 854.285 159.034 L 853.707 167.954 861.003 165.932 C 871.427 163.043, 871.469 163.006, 872.851 155.507 C 875.454 141.379, 882.972 127.870, 893.823 117.824 C 913.263 99.826, 945.030 95.553, 969.387 107.659 C 983.881 114.863, 992.983 124.238, 999.879 139.063 C 1007.502 155.452, 1008.867 171.698, 1003.949 187.500 C 1000.077 199.942, 996.449 205.820, 986.632 215.559 C 973.057 229.025, 962.132 233.783, 940.766 235.534 L 933.032 236.168 932.027 239.900 C 931.474 241.953, 930.904 245.853, 930.761 248.566 L 930.500 253.500 942.500 253.390 C 953.453 253.290, 955.473 252.961, 965.648 249.623 C 1019.608 231.920, 1042.143 167.720, 1010.829 120.905 C 1004.647 111.663, 994.817 101.773, 986.592 96.522 C 968.678 85.084, 952.923 81.375, 929.500 83.083 M 613.500 87.723 C 591.497 89.393, 564.964 94.716, 549.354 100.591 L 543.153 102.925 534.327 99.917 C 510.182 91.690, 495.420 89.133, 467.323 88.309 C 441.830 87.561, 412.790 89.648, 387.750 94.025 L 381 95.205 381 207.936 C 381 269.938, 381.242 320.908, 381.537 321.204 C 381.832 321.499, 384.870 321.154, 388.287 320.438 C 398.993 318.194, 417.489 316.073, 436.340 314.927 C 468.030 313, 493.595 315.310, 521.981 322.666 C 531.616 325.163, 540.434 327.422, 541.576 327.686 C 542.717 327.950, 548.117 326.792, 553.576 325.112 C 580.061 316.961, 601.366 314.540, 639.866 315.304 C 667.120 315.846, 686.628 317.614, 700.750 320.822 L 705 321.787 705 208.524 L 705 95.260 699.250 94.151 C 680.722 90.575, 627.997 86.623, 613.500 87.723 M 430 101.095 C 413.270 102.540, 394.531 105.123, 393.500 106.127 C 392.383 107.214, 392.128 274.461, 393.242 275.575 C 393.600 275.934, 400.105 275.400, 407.697 274.390 C 418.704 272.925, 428.285 272.548, 455 272.527 C 487.527 272.501, 488.942 272.582, 503.724 275.317 C 512.098 276.866, 522.782 279.157, 527.466 280.408 C 532.151 281.659, 536.212 282.454, 536.492 282.175 C 536.771 281.895, 537 243.792, 537 197.501 L 537 113.335 526.750 110.148 C 511.503 105.406, 495.968 102.214, 482.500 101.054 C 468.773 99.872, 443.940 99.892, 430 101.095 M 597 101.389 C 585.497 103.177, 575.839 105.420, 561.208 109.701 L 548.915 113.298 549.208 197.566 C 549.368 243.914, 549.767 282.101, 550.094 282.428 C 550.421 282.754, 552.532 282.371, 554.786 281.575 C 557.040 280.780, 566.673 278.427, 576.192 276.347 L 593.500 272.565 630 272.610 C 653.018 272.638, 669.640 273.102, 675 273.867 C 679.675 274.534, 685.638 275.350, 688.250 275.679 L 693 276.279 693 190.639 C 693 143.538, 692.649 105, 692.220 105 C 691.790 105, 683.578 104.088, 673.970 102.974 C 651.377 100.353, 609.246 99.486, 597 101.389 M 446.500 125.128 C 431.925 126.707, 425.091 128.141, 422.525 130.159 C 418.224 133.542, 419.619 139.322, 425.216 141.303 C 426.159 141.637, 431.784 141.293, 437.716 140.538 C 465.170 137.042, 482.379 137.716, 499.352 142.949 C 510.110 146.267, 513.194 146.160, 515.668 142.384 C 519.314 136.819, 514.898 132.696, 500.985 128.676 C 486.283 124.429, 465.471 123.073, 446.500 125.128 M 604 125.036 C 599.875 125.514, 592.998 126.813, 588.718 127.920 C 572.804 132.039, 567.788 135.976, 571.410 141.504 C 574.415 146.089, 577.161 146.363, 587.363 143.095 C 592.401 141.481, 600.342 139.632, 605.011 138.986 C 614.705 137.644, 635.051 138.357, 650.201 140.570 C 660.182 142.028, 663.397 141.637, 665.863 138.665 C 667.771 136.366, 666.837 131.946, 664 129.852 C 658.943 126.119, 620.946 123.068, 604 125.036 M 460 157.779 C 457.525 157.932, 448.756 158.936, 440.514 160.009 C 424.211 162.133, 420.754 163.561, 420.178 168.409 C 419.520 173.943, 424.157 176.365, 432.699 174.952 C 435.890 174.424, 444.940 173.527, 452.810 172.960 C 471.810 171.590, 486.766 172.870, 499.531 176.959 C 504.752 178.632, 509.434 180, 509.935 180 C 511.804 180, 517 174.751, 517 172.863 C 517 169.579, 512.353 166.346, 503.721 163.626 C 490.540 159.473, 472.219 157.022, 460 157.779 M 603 158.639 C 594.679 160.338, 579.875 164.421, 576.246 166.018 C 568.923 169.242, 568.387 176.652, 575.311 178.938 C 578.247 179.907, 579.839 179.704, 586.269 177.546 C 590.407 176.157, 598.452 174.275, 604.146 173.363 C 614.586 171.693, 621.298 171.867, 656.790 174.731 C 664.052 175.317, 667 173.638, 667 168.916 C 667 163.708, 663.139 161.792, 649 159.982 C 639.641 158.784, 606.963 157.830, 603 158.639 M 880 169.639 C 863.704 171.702, 847.761 178.473, 834.923 188.785 C 824.745 196.961, 818.398 204.682, 812.583 215.958 C 804.535 231.565, 803.734 235.102, 803.745 255 C 803.757 274.236, 804.862 279.771, 811.233 292.500 C 818.325 306.670, 832.460 321.890, 845.852 329.776 C 868.224 342.950, 899.734 344.495, 924.317 333.623 C 927.302 332.303, 930.042 330.741, 930.406 330.152 C 931.220 328.835, 924.964 321.759, 920.604 319.064 L 917.401 317.085 909.451 319.697 C 902.576 321.955, 899.741 322.315, 888.500 322.355 C 877.490 322.395, 874.429 322.046, 868.500 320.078 C 856.745 316.176, 850.079 312.072, 841.354 303.365 C 834.731 296.756, 832.334 293.472, 828.578 285.865 C 818.519 265.484, 818.369 245.323, 828.128 225.130 C 835.283 210.326, 851.429 196.486, 867.959 190.987 C 873.734 189.065, 876.167 188.873, 890.959 189.169 L 907.500 189.500 917 194.078 C 928.550 199.644, 940.326 210.172, 946.500 220.452 C 951.015 227.969, 951.361 228.051, 961.012 223.899 C 966.678 221.462, 967.103 220.082, 964.037 214.072 C 961.408 208.920, 951.431 196.511, 945.693 191.256 C 940.224 186.249, 931.751 180.689, 924.615 177.427 C 912.635 171.951, 891.243 168.216, 880 169.639 M 981.500 169.982 C 969.080 171.204, 948 178.360, 948 181.354 C 948 182.019, 950.640 185.175, 953.866 188.367 L 959.732 194.172 967.637 191.675 C 971.984 190.301, 979.357 188.851, 984.021 188.452 C 995.940 187.433, 996.603 187.078, 997.904 181.012 C 999.792 172.209, 999.459 170.342, 995.875 169.625 C 992.478 168.946, 991.882 168.961, 981.500 169.982 M 1031.562 184.750 C 1031.199 186.813, 1030.201 190.674, 1029.344 193.330 L 1027.786 198.160 1035.235 205.330 C 1044.237 213.994, 1049.083 221.027, 1052.921 231 C 1061.807 254.083, 1058.185 278.169, 1042.979 297.127 C 1033.792 308.581, 1021.098 317.137, 1008.500 320.368 C 967.702 330.832, 929.235 305.705, 923.001 264.521 C 921.078 251.816, 923.245 238.855, 929.589 225.109 C 931.465 221.044, 933 216.892, 933 215.882 C 933 213.778, 923.668 206, 921.144 206 C 917.976 206, 910.094 222.023, 906.302 236.173 C 903.916 245.077, 903.983 266.036, 906.427 275.500 C 916.430 314.226, 950.742 341.125, 989.934 340.965 C 1013.432 340.869, 1032.728 333.149, 1048.586 317.500 C 1062.277 303.989, 1068.555 293.704, 1073.212 277.157 C 1074.935 271.037, 1075.367 266.789, 1075.367 256 C 1075.367 240.174, 1073.840 232.722, 1068.082 220.434 C 1063.217 210.052, 1059.248 204.216, 1051.557 196.136 C 1046.372 190.687, 1034.324 181, 1032.734 181 C 1032.453 181, 1031.925 182.688, 1031.562 184.750 M 442.195 193.583 C 423.781 195.813, 420 197.403, 420 202.916 C 420 208.293, 424.723 210.440, 433.359 208.989 C 436.736 208.421, 446.367 207.352, 454.759 206.613 C 472.164 205.080, 482.121 206.001, 496.646 210.485 C 506.685 213.584, 512.259 213.741, 515 211 C 519.935 206.065, 516.564 201.915, 504.478 198.044 C 485.439 191.945, 466.768 190.608, 442.195 193.583 M 602.863 193.002 C 593.343 194.518, 580.944 197.995, 575.848 200.577 C 571.514 202.773, 571 203.386, 571 206.362 C 571 210.169, 573.681 213.164, 577.192 213.281 C 578.461 213.323, 585.125 211.920, 592 210.164 C 598.875 208.407, 607.497 206.612, 611.160 206.175 C 617.785 205.383, 639.322 206.810, 653.158 208.956 C 656.838 209.528, 660.671 209.703, 661.675 209.345 C 668.493 206.919, 668.863 198.631, 662.244 196.594 C 651.832 193.391, 614.575 191.137, 602.863 193.002 M 868.560 199.022 C 860.691 202.094, 860.424 202.702, 863.971 209.446 C 868.399 217.863, 875.838 226.773, 884.189 233.659 C 893.012 240.937, 895.604 242.450, 896.568 240.890 C 897.995 238.581, 900.866 225.586, 900.197 224.463 C 899.814 223.818, 896.700 220.714, 893.278 217.564 C 889.856 214.414, 885.246 209.061, 883.033 205.669 C 876.477 195.617, 876.846 195.787, 868.560 199.022 M 442.500 227.495 C 423.384 230.226, 419.512 231.972, 420.175 237.563 C 420.354 239.069, 421.625 241.137, 423 242.157 C 425.371 243.917, 426.099 243.938, 437.141 242.567 C 466.213 238.957, 480.026 239.509, 499.380 245.058 C 511.333 248.484, 514.555 248.050, 516.415 242.762 C 518.284 237.447, 511.481 233.319, 493.534 228.879 C 482.726 226.205, 456.506 225.494, 442.500 227.495 M 595 228.489 C 581.520 231.697, 575.370 233.927, 572.390 236.689 C 569.406 239.455, 569.382 241.171, 572.284 244.544 C 575.232 247.971, 579.105 248.001, 589.612 244.682 C 605.631 239.622, 618.950 238.953, 644.443 241.928 C 653.212 242.952, 661.087 243.543, 661.943 243.242 C 668.874 240.810, 668.608 233.197, 661.500 230.563 C 656.452 228.691, 639.939 226.914, 623.500 226.473 C 606.817 226.026, 604.732 226.173, 595 228.489 M 963.528 258.332 C 957.363 260.305, 956.475 260.907, 955.850 263.532 C 952.782 276.431, 951.310 280.904, 948.016 287.346 L 944.248 294.714 950.209 299.857 C 953.488 302.686, 956.550 305, 957.013 305 C 958.528 305, 962.112 299.647, 966.051 291.500 C 970.461 282.380, 973.983 268.966, 973.993 261.250 C 974.001 255.055, 973.876 255.020, 963.528 258.332 M 441.250 379.753 L 312 380.008 312.009 480.254 C 312.014 537.310, 312.450 586.497, 313.021 594.419 C 314.675 617.361, 321.081 653.674, 328.535 682.362 C 348.638 759.736, 390.530 849.069, 438.085 915.972 C 493.385 993.772, 576.246 1061.215, 670.760 1105.351 C 687.791 1113.305, 713.026 1123.707, 722.250 1126.577 C 727.778 1128.296, 728.222 1128.296, 733.750 1126.565 C 742.156 1123.933, 766.546 1114.049, 781.500 1107.216 C 832.204 1084.047, 881.272 1052.935, 927 1014.961 C 950.459 995.480, 984.488 960.124, 1006.366 932.500 C 1038.554 891.857, 1077.922 821.548, 1101.421 762.736 C 1121.319 712.934, 1132.962 670.370, 1141.148 617.500 L 1144.399 596.500 1144.450 488.835 C 1144.477 429.619, 1144.275 380.969, 1144 380.724 C 1143.360 380.153, 611.342 379.418, 441.250 379.753 M 542.500 425.038 C 539.200 425.448, 531.438 425.832, 525.250 425.891 C 512.260 426.017, 512.182 426.097, 517.432 433.900 L 520.865 439 514.682 439.026 C 511.282 439.040, 504 439.481, 498.500 440.007 C 489.959 440.823, 487.333 441.539, 480.500 444.913 C 476.100 447.086, 470.925 450.518, 469 452.539 C 465.683 456.021, 465.600 456.273, 467.421 457.357 C 468.477 457.985, 470.986 459.944, 472.997 461.709 C 475.007 463.474, 478.555 465.999, 480.881 467.321 L 485.111 469.723 479.640 471.943 C 472.393 474.885, 467.068 479.594, 463.587 486.141 C 462.020 489.089, 458.258 494.052, 455.228 497.172 L 449.718 502.843 452.339 507.316 C 455.627 512.926, 459.948 516.605, 465.045 518.132 C 467.220 518.783, 469 519.853, 469 520.508 C 469 523.064, 462.848 530, 458.292 532.581 C 455.656 534.075, 452.396 535.975, 451.046 536.805 L 448.592 538.313 452.997 542.107 C 458.996 547.273, 465.562 550.632, 471.250 551.444 C 476.413 552.181, 477.208 553.597, 474.060 556.446 C 471.552 558.715, 469.004 566.237, 468.985 571.428 C 468.958 578.555, 468.111 578.550, 459.138 571.371 C 444.486 559.647, 436.349 551.046, 433.070 543.816 C 431.444 540.228, 426.749 526.089, 422.637 512.396 C 413.440 481.766, 411.637 476.894, 408.098 473.105 C 405.368 470.182, 404.197 469.704, 396.968 468.553 C 395.025 468.244, 391.953 466.637, 390.141 464.981 C 388.328 463.326, 385.642 461.361, 384.173 460.615 C 380.598 458.802, 372 457.575, 372 458.878 C 372 459.428, 373.800 461.958, 376 464.500 C 380.620 469.838, 380.823 470.902, 377.750 473.701 C 374.066 477.056, 371.427 478, 365.732 478 C 359.067 478, 358.129 478.792, 362.004 481.148 C 365.579 483.322, 365.638 484.153, 362.837 492.813 C 361.647 496.491, 360.527 500.085, 360.349 500.800 C 360.170 501.516, 357.714 503.061, 354.891 504.234 L 349.759 506.367 354.629 508.521 C 361.379 511.506, 362.388 512.940, 361.071 517.682 C 359.421 523.626, 359.809 528.069, 362.455 533.500 C 365.547 539.848, 365.811 540.148, 376 548.888 C 384.797 556.435, 387.457 559.840, 391.490 568.717 C 392.794 571.586, 397.417 579.461, 401.763 586.217 C 417.193 610.200, 425.076 624.477, 427.558 632.940 C 430.521 643.038, 432.176 657.212, 432.645 676.500 C 432.913 687.500, 433.307 697.047, 433.521 697.716 C 434.036 699.321, 441.652 697.096, 445.832 694.120 C 447.469 692.954, 449.032 692, 449.305 692 C 452.148 692, 453.589 724.607, 451.202 734.923 C 450.512 737.906, 450.312 740.712, 450.759 741.159 C 452.581 742.981, 470.958 728.683, 476.728 720.954 L 480.244 716.244 488.872 716.247 C 497.810 716.250, 506.706 714.387, 520.925 709.534 C 525.009 708.140, 528.915 707, 529.604 707 C 530.294 707, 532.961 710.375, 535.532 714.500 C 538.103 718.625, 540.463 722, 540.776 722 C 541.089 722, 544.431 718.651, 548.203 714.558 C 555.332 706.821, 558.611 704.779, 560.110 707.143 C 560.582 707.889, 560.976 711.947, 560.985 716.161 C 560.994 720.772, 561.738 726.194, 562.855 729.781 C 565.247 737.469, 572.722 750.015, 581.250 760.659 C 586.431 767.126, 588 769.830, 587.999 772.292 C 587.998 777.033, 573.684 833.910, 568.615 849.314 C 566.208 856.630, 562.657 866.037, 560.726 870.217 L 557.214 877.818 550.857 878.379 C 547.361 878.687, 536.697 879.216, 527.161 879.554 C 508.859 880.203, 500.921 881.860, 496.548 885.943 C 495.421 886.995, 491.995 888.789, 488.934 889.931 C 482.668 892.267, 478.834 895.758, 476.563 901.195 L 475.019 904.890 478.477 903.445 C 480.380 902.650, 483.489 902, 485.388 902 C 488.398 902, 488.924 902.378, 489.489 904.948 C 489.985 907.208, 489.363 909.291, 486.825 913.872 C 485.005 917.159, 483.782 920.115, 484.109 920.442 C 484.435 920.768, 486.611 920.181, 488.945 919.136 C 494.250 916.761, 496.293 917.273, 498.599 921.555 C 500.334 924.775, 500.339 925.158, 498.705 929.717 C 496.104 936.971, 496.358 937.359, 501.871 934.565 L 506.742 932.097 509.037 934.540 C 510.299 935.883, 513.314 937.942, 515.736 939.114 C 522.802 942.535, 533.766 941.090, 570.243 931.933 C 598.421 924.859, 601.736 922.243, 609.149 901.235 C 613.279 889.530, 618.563 879.199, 628.704 863 C 638.042 848.084, 643.033 842.359, 653.561 834.483 C 662.325 827.927, 679.324 817.373, 688.832 812.585 C 692.774 810.599, 696 808.631, 696 808.210 C 696 806.322, 692.520 802.808, 688.204 800.337 C 685.617 798.856, 683.310 797.496, 683.077 797.316 C 682.441 796.822, 690.585 790.003, 696.915 785.729 C 700.272 783.462, 706.798 780.587, 713.272 778.524 C 719.197 776.635, 724.486 774.818, 725.025 774.485 C 726.341 773.672, 724.729 770.667, 719.772 764.692 C 717.578 762.047, 715.944 759.774, 716.141 759.640 C 723.033 754.960, 731.365 750.192, 736.245 748.136 C 741.900 745.753, 743.724 745.500, 755.250 745.500 C 763.013 745.500, 768.041 745.109, 768.106 744.500 C 768.641 739.452, 767.182 735.071, 763.688 731.237 C 761.040 728.330, 761.762 727.660, 771.026 724.424 C 778.197 721.918, 778.528 721.889, 779.772 723.660 C 780.484 724.672, 785.057 731.575, 789.934 739 C 797.811 750.991, 805.922 761.541, 820.524 778.787 C 825.620 784.807, 825.954 786.913, 823.122 795.147 C 820.271 803.431, 799.994 850.329, 798.662 851.717 C 797.884 852.528, 790.333 853.283, 775.997 853.981 C 749.769 855.260, 745.382 856.062, 739.316 860.692 C 736.767 862.638, 732.688 864.909, 730.252 865.739 C 724.964 867.541, 718.425 873.458, 717.456 877.319 C 716.525 881.029, 717.034 881.302, 721.448 879.457 C 723.513 878.594, 726.620 878.026, 728.351 878.194 C 732.738 878.620, 732.881 881.465, 728.921 889.509 C 727.153 893.101, 725.974 896.307, 726.301 896.635 C 726.629 896.962, 729.255 896.055, 732.138 894.619 L 737.379 892.007 739.689 894.178 C 742.593 896.906, 742.576 897.500, 739.397 904.443 C 737.966 907.570, 736.956 910.289, 737.153 910.486 C 737.350 910.683, 739.309 909.995, 741.506 908.956 C 746.933 906.390, 747.927 906.502, 753.036 910.250 C 757.337 913.406, 757.740 913.497, 766.983 913.386 C 775.029 913.289, 779.977 912.390, 799 907.568 C 811.375 904.431, 823.300 901.065, 825.500 900.087 C 832.007 897.196, 837.207 890.437, 845.458 874.148 C 849.667 865.839, 854.900 856.775, 857.088 854.007 C 861.565 848.344, 869.361 842.376, 882.250 834.743 C 887.063 831.894, 891 828.988, 891 828.287 C 891 827.093, 884.226 821.575, 881.746 820.749 C 880.170 820.223, 887.425 813.631, 894 809.614 C 897.025 807.765, 902.538 805.259, 906.250 804.045 C 909.962 802.831, 913 801.414, 913 800.896 C 913 799.539, 904.918 794.615, 897.553 791.485 C 891.309 788.831, 891.167 788.683, 887.647 781.146 C 883.038 771.279, 882.447 767.156, 884.423 758.656 C 886.008 751.842, 892.546 735.399, 894.038 734.477 C 894.469 734.210, 897.899 737.705, 901.661 742.241 C 909 751.094, 929.468 773.970, 943.415 788.909 C 948.128 793.957, 952.241 799.114, 952.556 800.369 C 953.871 805.607, 941.552 842.618, 931.498 863.634 L 924.259 878.767 915.379 879.369 C 910.496 879.700, 900.650 880.229, 893.500 880.545 C 875.745 881.329, 870.639 882.433, 866.152 886.459 C 864.143 888.261, 860.475 890.746, 858 891.981 C 855.525 893.215, 852.444 895.187, 851.153 896.363 C 848.464 898.811, 844.573 905.907, 845.443 906.776 C 845.763 907.096, 847.610 906.603, 849.546 905.679 C 854.682 903.230, 857.458 903.515, 858.880 906.637 C 859.932 908.945, 859.762 909.735, 857.518 912.974 C 854.671 917.082, 852.618 923, 854.039 923 C 854.534 923, 856.780 922.040, 859.030 920.867 C 862.383 919.120, 863.565 918.936, 865.576 919.853 C 869.711 921.737, 870.653 925.282, 868.563 931.094 C 866.489 936.862, 866.930 937.931, 870.434 935.635 C 873.521 933.612, 877.363 933.527, 878.956 935.447 C 881.611 938.646, 888.638 940.309, 896.494 939.597 C 904.914 938.834, 930.486 932.759, 945.437 927.969 C 954.189 925.166, 955.922 924.206, 960.462 919.650 C 964.953 915.143, 966.677 912.046, 974.265 894.856 C 979.034 884.052, 984.338 871.677, 986.051 867.356 C 991.142 854.517, 995.980 846.149, 1000.406 842.530 C 1002.658 840.689, 1009.450 836.191, 1015.500 832.536 C 1021.550 828.881, 1027.304 825.098, 1028.287 824.131 C 1030.001 822.442, 1029.981 822.273, 1027.785 819.936 C 1026.526 818.596, 1024.372 816.723, 1022.998 815.773 L 1020.500 814.046 1024.500 810.510 C 1030.917 804.838, 1037.974 800.654, 1044.925 798.400 C 1048.486 797.244, 1051.539 795.882, 1051.709 795.372 C 1052.279 793.663, 1040.580 786.958, 1033.158 784.740 C 1027.382 783.013, 1025.522 781.976, 1024.435 779.875 C 1023.676 778.407, 1020.905 775.875, 1018.277 774.249 C 1004.631 765.805, 998.535 758.698, 994.930 747.034 C 991.656 736.441, 990.951 728.135, 990.429 694 C 989.886 658.470, 989.089 647.288, 985.884 630.201 C 984.718 623.987, 984.034 618.633, 984.363 618.303 C 984.692 617.974, 994.083 616.412, 1005.231 614.831 C 1067.272 606.036, 1097.535 590.094, 1106.173 561.658 C 1110.226 548.313, 1107.323 529.863, 1099.339 518.223 C 1095.041 511.957, 1090.618 508.282, 1082.492 504.223 C 1071.510 498.736, 1070.043 498.496, 1048 498.559 L 1027.500 498.619 1012 502.752 C 1003.475 505.026, 989.015 509.381, 979.866 512.430 C 942.344 524.938, 913.271 529.943, 869 531.517 C 818.832 533.301, 795.641 522.739, 799.975 500.082 C 801.371 492.789, 803.687 489.100, 809.210 485.378 C 816.926 480.178, 823.073 479.500, 862.500 479.500 C 881.750 479.500, 898.663 479.827, 900.084 480.227 C 901.505 480.627, 904.337 482.281, 906.376 483.902 C 911.333 487.841, 923.094 492.634, 934.328 495.295 C 942.257 497.172, 946.278 497.457, 964 497.396 C 982.035 497.333, 986.049 497.008, 997.387 494.692 C 1004.474 493.245, 1010.433 491.900, 1010.629 491.705 C 1010.824 491.509, 1008.783 490.354, 1006.092 489.138 C 1000.304 486.523, 996 482.513, 996 479.736 C 996 477.922, 996.379 477.823, 1000.250 478.622 C 1002.587 479.105, 1008.775 479.480, 1014 479.456 C 1022.605 479.416, 1024.395 479.054, 1033 475.618 C 1047.661 469.765, 1051.482 468.919, 1064.246 468.701 C 1070.707 468.590, 1075.994 468.193, 1075.996 467.817 C 1076.003 466.587, 1067.618 460.231, 1060.503 456.074 L 1053.532 452 1039.433 452 C 1031.678 452, 1025.112 451.779, 1024.842 451.509 C 1024.572 451.239, 1026.522 448.765, 1029.175 446.012 C 1031.829 443.259, 1034 440.185, 1034 439.180 C 1034 437.419, 1033.756 437.416, 1027.070 439.114 C 1009.708 443.523, 1003.916 443.479, 986.820 438.803 C 979.405 436.775, 976.217 436.526, 957.500 436.514 L 936.500 436.500 928.181 440.204 C 923.606 442.240, 916.054 446.467, 911.399 449.596 L 902.936 455.286 878.218 453.992 C 823.361 451.121, 798.789 455.184, 784.753 469.443 C 775.339 479.006, 771 490.073, 771 504.518 C 771 518.349, 774.640 528.494, 782.691 537.101 C 788.811 543.643, 795.159 547.522, 806.215 551.474 C 822.459 557.279, 833.272 558.504, 868 558.471 C 901.275 558.440, 908.236 557.836, 938.500 552.363 C 959.311 548.599, 969.524 546.046, 990.092 539.464 C 1025.995 527.976, 1050.733 524.305, 1063.328 528.596 C 1070.955 531.195, 1076 539.086, 1076 548.416 C 1076 556.020, 1070.449 561.957, 1057.554 568.145 C 1035.511 578.722, 979.767 585.822, 951.872 581.606 C 938.992 579.660, 896.145 579.416, 874 581.164 C 866.025 581.794, 845.100 582.296, 827.500 582.280 C 798.557 582.254, 793.542 581.993, 775 579.550 C 751.093 576.400, 736.094 573.719, 727 570.969 L 720.500 569.004 716.626 560.960 C 714.495 556.535, 712.920 552.763, 713.126 552.576 C 713.332 552.389, 715.942 551.721, 718.926 551.091 C 721.910 550.461, 725.960 548.953, 727.926 547.740 C 732.223 545.088, 739 539.092, 739 537.942 C 739 537.489, 736.292 535.674, 732.982 533.910 C 726.381 530.391, 720 524.084, 720 521.077 C 720 519.777, 720.927 518.955, 722.877 518.527 C 724.459 518.180, 727.263 516.782, 729.107 515.421 C 732.785 512.708, 738 505.556, 738 503.226 C 738 502.415, 735.934 499.934, 733.409 497.711 C 730.875 495.481, 727.718 491.347, 726.364 488.486 C 722.392 480.098, 715.124 473.830, 705.631 470.606 C 704.032 470.063, 704.320 469.598, 707.631 467.381 C 709.759 465.956, 712.497 463.873, 713.716 462.752 C 714.935 461.632, 717.572 459.725, 719.575 458.516 L 723.218 456.318 720.144 452.817 C 716.582 448.760, 707.888 443.900, 700 441.557 C 696.883 440.631, 688.760 439.656, 681.250 439.307 C 673.962 438.969, 668 438.510, 668 438.287 C 668 438.065, 669.304 436.222, 670.899 434.191 C 672.493 432.161, 674.098 429.488, 674.466 428.250 C 675.126 426.029, 675.015 426, 665.711 426 C 660.527 426, 650.330 425.501, 643.051 424.892 C 628.159 423.646, 617.532 424.654, 611.211 427.912 C 605.222 431, 599.405 436.607, 597.098 441.516 C 594.735 446.542, 593.671 446.542, 591.570 441.513 C 589.738 437.128, 583.059 430.715, 577.736 428.229 C 569.139 424.214, 557.579 423.168, 542.500 425.038 M 818.342 462.479 C 798.212 466.132, 787.988 473.328, 781.354 488.512 C 780.012 491.585, 779.604 495.368, 779.577 505 C 779.542 517.381, 779.574 517.561, 782.997 523.913 C 788.446 534.026, 800.899 542.632, 815.500 546.377 C 840.823 552.871, 890.607 552.681, 930.500 545.938 C 948.280 542.932, 967.958 538.308, 981.500 533.953 C 1001.629 527.479, 1020.110 522.317, 1028 520.964 C 1038.139 519.226, 1060.302 519.138, 1065.841 520.813 C 1071.498 522.524, 1078.252 528.829, 1080.797 534.773 C 1093.170 563.681, 1066.722 581.971, 1003 588.571 C 980.222 590.930, 961.489 590.938, 945.500 588.596 C 930.593 586.412, 903.802 586.119, 885 587.933 C 866.245 589.743, 815.595 590.402, 796 589.091 C 776.051 587.756, 756.141 585.069, 738 581.265 C 718.743 577.226, 720.408 576.624, 716.603 589 C 713.181 600.130, 709.470 608.353, 700.642 624.372 C 693.324 637.650, 691 645.039, 691 655.021 C 691 662.772, 690.931 663, 688.605 663 C 684.291 663, 673.582 659.048, 669.525 655.958 C 665.926 653.217, 665.484 653.099, 664.846 654.715 C 664.458 655.697, 664.109 663.731, 664.070 672.568 C 664.019 684.186, 663.557 690.142, 662.401 694.068 C 659.649 703.418, 648.247 723.786, 646.764 722 C 646.536 721.725, 643.377 718.051, 639.744 713.835 C 636.111 709.619, 632.326 704.669, 631.332 702.835 L 629.525 699.500 628.886 710 C 627.587 731.349, 622.248 742.787, 602.553 766.418 C 598.923 770.773, 595.742 775.273, 595.484 776.418 C 583.017 831.647, 573.928 862.614, 565.347 879.098 L 561.912 885.696 549.206 886.344 C 542.218 886.700, 532.450 886.996, 527.500 887.002 C 516.194 887.014, 507.274 888.442, 504.862 890.625 C 503.838 891.552, 503 893.556, 503 895.078 C 503 896.601, 501.835 899.231, 500.411 900.923 L 497.822 904 503.794 904 C 508.902 904, 509.842 904.286, 510.283 905.976 C 510.938 908.479, 509.588 914.587, 507.941 916.571 C 505.224 919.845, 510.012 920.195, 519.249 917.396 C 521.986 916.566, 523.391 921.390, 522.010 926.875 C 521.280 929.774, 521.235 931.635, 521.880 932.280 C 523.592 933.992, 541.321 931.100, 563.689 925.458 C 595.390 917.463, 595.134 917.651, 602.503 897 C 607.648 882.580, 608.559 880.897, 631.461 843.500 C 669.684 781.083, 684 756.334, 684 752.674 C 684 751.234, 683.051 745.742, 681.892 740.470 C 680.732 735.197, 680.049 730.618, 680.373 730.293 C 680.977 729.690, 699.576 724.064, 724.500 716.947 C 732.200 714.748, 744.350 711.178, 751.500 709.013 C 758.650 706.848, 778.675 700.979, 796 695.970 C 836.700 684.204, 847 681.046, 847 680.331 C 847 680.010, 845.090 676.212, 842.756 671.891 L 838.512 664.033 841.195 661.350 L 843.878 658.668 849.689 663.022 C 860.944 671.456, 868.331 679.961, 880.355 698.329 C 897.307 724.227, 909.999 740.350, 935.593 768.500 C 948.094 782.250, 959.102 794.777, 960.054 796.339 C 961.734 799.091, 961.686 799.560, 958.482 811.839 C 954.476 827.189, 950.236 839.984, 944.467 854.139 C 939.111 867.276, 930.499 884.572, 928.780 885.641 C 928.076 886.079, 916.404 886.970, 902.842 887.620 C 874.346 888.987, 872.786 889.392, 871.950 895.633 C 871.648 897.892, 870.640 900.901, 869.711 902.318 L 868.022 904.896 873.242 905.198 C 877.934 905.470, 878.560 905.781, 879.436 908.286 C 880.374 910.966, 880.227 911.721, 877.457 918.404 C 876.724 920.173, 876.982 920.250, 881.084 919.489 C 883.513 919.039, 887.075 918.632, 889 918.585 L 892.500 918.500 892.414 925.375 L 892.328 932.251 898.227 931.634 C 906.617 930.757, 945.230 920.424, 950.952 917.524 C 955.241 915.351, 956.229 914.161, 960.278 906.297 C 962.768 901.459, 966.694 893, 969 887.500 C 984.097 851.505, 999.591 819.389, 1011.447 799.517 C 1017.702 789.034, 1018.871 785.788, 1017.235 783.451 C 1016.831 782.874, 1013.256 780.264, 1009.292 777.652 C 996.978 769.538, 989.803 759.298, 985.932 744.314 C 984.172 737.500, 983.793 731.380, 982.970 696.500 C 981.896 650.967, 981.128 641.974, 976.939 625.953 C 975.292 619.654, 973.845 613.620, 973.723 612.545 C 973.515 610.725, 974.914 610.434, 994 608.333 C 1029.051 604.474, 1048.776 599.563, 1069.504 589.536 C 1082.536 583.232, 1091.932 574.926, 1096.428 565.738 C 1101.436 555.501, 1101.001 537.855, 1095.470 526.942 C 1089.396 514.953, 1073.606 506.167, 1056.500 505.257 C 1037.167 504.227, 1021.626 507.190, 987 518.506 C 955.930 528.660, 941.784 531.974, 911.500 536.193 C 897.727 538.112, 891.047 538.426, 863.500 538.448 C 833.254 538.473, 831.061 538.351, 823.500 536.214 C 806.661 531.457, 796.992 524.783, 793.431 515.458 C 790.663 508.209, 791.795 496.654, 796.086 488.369 C 798.907 482.921, 800.455 481.193, 805 478.420 C 815.196 472.200, 818.108 471.841, 863 471.276 C 885.275 470.996, 904.288 470.354, 905.250 469.848 C 907.689 468.568, 907.432 466.329, 904.634 464.496 C 899.680 461.250, 833.625 459.706, 818.342 462.479 M 560.649 469.747 L 543.797 477.230 537.913 475.982 C 525.026 473.247, 515.714 478.255, 514.317 488.674 C 513.644 493.689, 515.649 497.884, 521.705 504.134 L 526.196 508.767 520.999 518.406 C 518.141 523.707, 516.024 528.621, 516.295 529.326 C 516.565 530.031, 523.585 538.797, 531.893 548.806 L 547 567.004 547 579.825 L 547 592.647 553.945 597.392 C 561.273 602.399, 561.566 602.880, 564.070 614 C 565.701 621.242, 566.691 622.657, 571.480 624.589 C 577.099 626.855, 597.646 627.671, 606.595 625.982 C 615.766 624.252, 618.204 621.795, 620.420 612.050 C 622.622 602.372, 622.917 601.918, 629.955 597.384 L 635.983 593.500 635.991 580.816 L 636 568.132 643.238 559.316 C 647.219 554.467, 654.419 545.815, 659.238 540.088 C 664.057 534.361, 667.999 529.186, 667.998 528.588 C 667.996 527.990, 665.746 523.490, 662.998 518.590 C 660.249 513.689, 658 509.393, 658 509.043 C 658 508.693, 659.855 506.627, 662.123 504.453 C 670.320 496.594, 671.785 488.391, 666.284 481.144 C 661.892 475.359, 655.359 473.798, 645.276 476.126 C 640.424 477.246, 640.309 477.212, 622.950 469.646 L 605.500 462.040 603.680 464.270 C 596.836 472.655, 592.706 477, 591.578 477 C 590.860 477, 589.092 475.298, 587.650 473.217 C 586.208 471.136, 583.335 467.821, 581.264 465.849 L 577.500 462.263 560.649 469.747 M 395.387 478.583 C 394.225 479.396, 390.850 480.311, 387.887 480.615 C 379.505 481.477, 379.507 481.474, 383.446 486.633 C 385.401 489.193, 387 491.828, 387 492.489 C 387 494.611, 383.562 496.886, 379.334 497.563 C 375.932 498.107, 374.852 497.852, 373.092 496.092 L 370.964 493.964 369.982 496.547 C 368.419 500.657, 368.831 503.883, 371.157 505.760 C 376.829 510.336, 381 514.321, 381 515.162 C 381 517.119, 376.054 520.908, 372.115 521.969 C 368.935 522.825, 368 523.559, 368 525.201 C 368 529.184, 372.820 535.557, 382.790 544.757 C 391.181 552.500, 393.424 555.251, 397.033 562.224 C 399.388 566.776, 404.313 575.225, 407.977 581 C 411.641 586.775, 420.394 601.400, 427.428 613.500 C 450.774 653.663, 475.992 695.408, 481.113 702.370 L 486.166 709.240 491.937 708.587 C 498.055 707.894, 511.853 704.384, 521 701.193 C 527.168 699.040, 526.869 700.066, 525.130 687.026 C 524.509 682.366, 524 672.803, 524 665.776 C 524 658.749, 523.771 653, 523.491 653 C 523.212 653, 521.139 654.335, 518.886 655.968 C 514.006 659.503, 505.092 663, 500.962 663 L 498 663 498 656.456 C 498 646.553, 495.457 638.369, 488.331 625.330 C 484.774 618.824, 479.849 609.006, 477.385 603.514 C 472.290 592.156, 471.256 590.862, 461.223 583.281 C 449.316 574.284, 435.102 561.145, 430.472 554.855 C 426.005 548.787, 424.914 545.754, 409.503 496.584 C 406.932 488.380, 404.140 480.618, 403.299 479.334 C 401.568 476.692, 398.505 476.402, 395.387 478.583 M 556.250 510.743 C 552.263 510.932, 549 511.437, 549 511.865 C 549 512.676, 563.806 521.280, 570.167 524.165 C 572.186 525.080, 574.099 525.568, 574.419 525.248 C 574.738 524.928, 575 521.367, 575 517.333 L 575 510 569.250 510.199 C 566.087 510.308, 560.237 510.553, 556.250 510.743 M 608.250 511.706 L 606 512.139 606 538.048 L 606 563.958 586.481 564.229 L 566.962 564.500 577.981 572.264 L 589 580.027 589 584.389 C 589 593.598, 588.267 594.959, 581.603 598.111 C 577.256 600.168, 573.968 600.999, 570.177 600.999 C 565.647 601, 564.903 601.261, 565.187 602.750 C 565.674 605.303, 578.080 605.721, 584.116 603.388 C 586.527 602.456, 590.075 601.693, 592 601.693 C 593.925 601.693, 597.473 602.456, 599.884 603.388 C 605.920 605.721, 618.326 605.303, 618.813 602.750 C 619.098 601.257, 618.348 601, 613.695 601 C 608.054 601, 602.507 599.197, 597.750 595.818 C 595.273 594.058, 595 593.269, 595 587.866 C 595 581.715, 596.204 578, 598.197 578 C 599.770 578, 614.557 569.239, 616.078 567.406 C 617.078 566.201, 616.988 562.791, 615.621 550.201 C 614.683 541.566, 613.756 532.842, 613.562 530.816 L 613.208 527.132 623.854 521.025 C 629.709 517.666, 635.625 514.046, 637 512.981 L 639.500 511.044 625 511.158 C 617.025 511.221, 609.487 511.467, 608.250 511.706 M 828 704.130 C 818.477 706.123, 815.561 707.423, 817.543 708.792 C 820.117 710.568, 823 715.537, 823 718.195 L 823 721.120 806.146 720.419 C 795.428 719.973, 789.071 720.075, 788.686 720.699 C 787.231 723.054, 806.720 750.693, 822.799 769.076 C 835.321 783.394, 835.634 784.712, 829.984 799.371 C 824.448 813.734, 805.748 856.549, 804.292 858.193 C 802.214 860.540, 800.477 860.770, 775.024 862.060 C 749.455 863.356, 745.943 864.102, 744.693 868.500 C 743.466 872.818, 742.347 876.259, 741.564 878.125 C 740.957 879.571, 741.387 879.634, 745.467 878.700 C 748.768 877.945, 750.362 877.962, 751.162 878.762 C 752.896 880.496, 752.467 887.357, 750.431 890.466 L 748.588 893.277 755.221 892.567 C 761.387 891.906, 761.935 892.010, 763.023 894.042 C 763.666 895.244, 763.961 897.639, 763.677 899.364 C 763.394 901.089, 763.014 903.400, 762.831 904.500 C 762.533 906.303, 762.991 906.476, 767.500 906.252 C 776.215 905.821, 817.144 895.498, 823.993 892.004 C 828.508 889.700, 829.692 887.969, 838.023 871.500 C 859.660 828.723, 872.876 804.257, 876.596 800.089 C 883.886 791.923, 883.997 790.685, 878.408 779.991 C 873.165 769.961, 874.794 757.012, 883.688 738 C 890.194 724.093, 890.707 726.111, 877.401 713.250 L 865.761 702 851.630 702.071 C 841.615 702.121, 834.733 702.721, 828 704.130" stroke="none" fill="#1d1d1d" fill-rule="evenodd"/><path d="M 0 692.001 L 0 1384.001 727.250 1383.751 L 1454.500 1383.500 1454.751 691.750 L 1455.001 0 727.501 0 L 0 0 0 692.001 M 0.497 692.500 C 0.497 1073.100, 0.611 1228.650, 0.750 1038.168 C 0.889 847.685, 0.889 536.285, 0.750 346.168 C 0.611 156.050, 0.497 311.900, 0.497 692.500 M 290.895 31.585 C 290.660 32.088, 290.727 161.200, 291.044 318.500 L 291.620 604.500 294.356 622 C 301.880 670.123, 312.682 710.912, 330.241 757.500 C 345.983 799.270, 370.274 848.352, 395.815 890 C 421.631 932.096, 440.576 956.836, 471.857 989.296 C 503.316 1021.942, 526.663 1042.266, 560.500 1066.462 C 606.319 1099.225, 665.242 1129.723, 715.286 1146.578 L 728.072 1150.884 742.286 1146.035 C 787.478 1130.618, 836.508 1106.013, 881.409 1076.216 C 917.736 1052.109, 946.154 1028.625, 978.080 996.330 C 1011.965 962.053, 1033.482 934.721, 1058.243 894.500 C 1121.887 791.121, 1160.540 680.171, 1165.016 588.014 C 1165.561 576.788, 1165.972 454.566, 1165.982 300.250 L 1166 32 934.750 32 C 807.563 32, 610.760 31.700, 497.411 31.334 C 372.993 30.933, 291.153 31.032, 290.895 31.585 M 929.500 83.083 C 891.913 85.824, 856.726 121.356, 854.285 159.034 L 853.707 167.954 861.003 165.932 C 871.427 163.043, 871.469 163.006, 872.851 155.507 C 875.454 141.379, 882.972 127.870, 893.823 117.824 C 913.263 99.826, 945.030 95.553, 969.387 107.659 C 983.881 114.863, 992.983 124.238, 999.879 139.063 C 1007.502 155.452, 1008.867 171.698, 1003.949 187.500 C 1000.077 199.942, 996.449 205.820, 986.632 215.559 C 973.057 229.025, 962.132 233.783, 940.766 235.534 L 933.032 236.168 932.027 239.900 C 931.474 241.953, 930.904 245.853, 930.761 248.566 L 930.500 253.500 942.500 253.390 C 953.453 253.290, 955.473 252.961, 965.648 249.623 C 1019.608 231.920, 1042.143 167.720, 1010.829 120.905 C 1004.647 111.663, 994.817 101.773, 986.592 96.522 C 968.678 85.084, 952.923 81.375, 929.500 83.083 M 613.500 87.723 C 591.497 89.393, 564.964 94.716, 549.354 100.591 L 543.153 102.925 534.327 99.917 C 510.182 91.690, 495.420 89.133, 467.323 88.309 C 441.830 87.561, 412.790 89.648, 387.750 94.025 L 381 95.205 381 207.936 C 381 269.938, 381.242 320.908, 381.537 321.204 C 381.832 321.499, 384.870 321.154, 388.287 320.438 C 398.993 318.194, 417.489 316.073, 436.340 314.927 C 468.030 313, 493.595 315.310, 521.981 322.666 C 531.616 325.163, 540.434 327.422, 541.576 327.686 C 542.717 327.950, 548.117 326.792, 553.576 325.112 C 580.061 316.961, 601.366 314.540, 639.866 315.304 C 667.120 315.846, 686.628 317.614, 700.750 320.822 L 705 321.787 705 208.524 L 705 95.260 699.250 94.151 C 680.722 90.575, 627.997 86.623, 613.500 87.723 M 430 101.095 C 413.270 102.540, 394.531 105.123, 393.500 106.127 C 392.383 107.214, 392.128 274.461, 393.242 275.575 C 393.600 275.934, 400.105 275.400, 407.697 274.390 C 418.704 272.925, 428.285 272.548, 455 272.527 C 487.527 272.501, 488.942 272.582, 503.724 275.317 C 512.098 276.866, 522.782 279.157, 527.466 280.408 C 532.151 281.659, 536.212 282.454, 536.492 282.175 C 536.771 281.895, 537 243.792, 537 197.501 L 537 113.335 526.750 110.148 C 511.503 105.406, 495.968 102.214, 482.500 101.054 C 468.773 99.872, 443.940 99.892, 430 101.095 M 597 101.389 C 585.497 103.177, 575.839 105.420, 561.208 109.701 L 548.915 113.298 549.208 197.566 C 549.368 243.914, 549.767 282.101, 550.094 282.428 C 550.421 282.754, 552.532 282.371, 554.786 281.575 C 557.040 280.780, 566.673 278.427, 576.192 276.347 L 593.500 272.565 630 272.610 C 653.018 272.638, 669.640 273.102, 675 273.867 C 679.675 274.534, 685.638 275.350, 688.250 275.679 L 693 276.279 693 190.639 C 693 143.538, 692.649 105, 692.220 105 C 691.790 105, 683.578 104.088, 673.970 102.974 C 651.377 100.353, 609.246 99.486, 597 101.389 M 446.500 125.128 C 431.925 126.707, 425.091 128.141, 422.525 130.159 C 418.224 133.542, 419.619 139.322, 425.216 141.303 C 426.159 141.637, 431.784 141.293, 437.716 140.538 C 465.170 137.042, 482.379 137.716, 499.352 142.949 C 510.110 146.267, 513.194 146.160, 515.668 142.384 C 519.314 136.819, 514.898 132.696, 500.985 128.676 C 486.283 124.429, 465.471 123.073, 446.500 125.128 M 604 125.036 C 599.875 125.514, 592.998 126.813, 588.718 127.920 C 572.804 132.039, 567.788 135.976, 571.410 141.504 C 574.415 146.089, 577.161 146.363, 587.363 143.095 C 592.401 141.481, 600.342 139.632, 605.011 138.986 C 614.705 137.644, 635.051 138.357, 650.201 140.570 C 660.182 142.028, 663.397 141.637, 665.863 138.665 C 667.771 136.366, 666.837 131.946, 664 129.852 C 658.943 126.119, 620.946 123.068, 604 125.036 M 460 157.779 C 457.525 157.932, 448.756 158.936, 440.514 160.009 C 424.211 162.133, 420.754 163.561, 420.178 168.409 C 419.520 173.943, 424.157 176.365, 432.699 174.952 C 435.890 174.424, 444.940 173.527, 452.810 172.960 C 471.810 171.590, 486.766 172.870, 499.531 176.959 C 504.752 178.632, 509.434 180, 509.935 180 C 511.804 180, 517 174.751, 517 172.863 C 517 169.579, 512.353 166.346, 503.721 163.626 C 490.540 159.473, 472.219 157.022, 460 157.779 M 603 158.639 C 594.679 160.338, 579.875 164.421, 576.246 166.018 C 568.923 169.242, 568.387 176.652, 575.311 178.938 C 578.247 179.907, 579.839 179.704, 586.269 177.546 C 590.407 176.157, 598.452 174.275, 604.146 173.363 C 614.586 171.693, 621.298 171.867, 656.790 174.731 C 664.052 175.317, 667 173.638, 667 168.916 C 667 163.708, 663.139 161.792, 649 159.982 C 639.641 158.784, 606.963 157.830, 603 158.639 M 880 169.639 C 863.704 171.702, 847.761 178.473, 834.923 188.785 C 824.745 196.961, 818.398 204.682, 812.583 215.958 C 804.535 231.565, 803.734 235.102, 803.745 255 C 803.757 274.236, 804.862 279.771, 811.233 292.500 C 818.325 306.670, 832.460 321.890, 845.852 329.776 C 868.224 342.950, 899.734 344.495, 924.317 333.623 C 927.302 332.303, 930.042 330.741, 930.406 330.152 C 931.220 328.835, 924.964 321.759, 920.604 319.064 L 917.401 317.085 909.451 319.697 C 902.576 321.955, 899.741 322.315, 888.500 322.355 C 877.490 322.395, 874.429 322.046, 868.500 320.078 C 856.745 316.176, 850.079 312.072, 841.354 303.365 C 834.731 296.756, 832.334 293.472, 828.578 285.865 C 818.519 265.484, 818.369 245.323, 828.128 225.130 C 835.283 210.326, 851.429 196.486, 867.959 190.987 C 873.734 189.065, 876.167 188.873, 890.959 189.169 L 907.500 189.500 917 194.078 C 928.550 199.644, 940.326 210.172, 946.500 220.452 C 951.015 227.969, 951.361 228.051, 961.012 223.899 C 966.678 221.462, 967.103 220.082, 964.037 214.072 C 961.408 208.920, 951.431 196.511, 945.693 191.256 C 940.224 186.249, 931.751 180.689, 924.615 177.427 C 912.635 171.951, 891.243 168.216, 880 169.639 M 981.500 169.982 C 969.080 171.204, 948 178.360, 948 181.354 C 948 182.019, 950.640 185.175, 953.866 188.367 L 959.732 194.172 967.637 191.675 C 971.984 190.301, 979.357 188.851, 984.021 188.452 C 995.940 187.433, 996.603 187.078, 997.904 181.012 C 999.792 172.209, 999.459 170.342, 995.875 169.625 C 992.478 168.946, 991.882 168.961, 981.500 169.982 M 1031.562 184.750 C 1031.199 186.813, 1030.201 190.674, 1029.344 193.330 L 1027.786 198.160 1035.235 205.330 C 1044.237 213.994, 1049.083 221.027, 1052.921 231 C 1061.807 254.083, 1058.185 278.169, 1042.979 297.127 C 1033.792 308.581, 1021.098 317.137, 1008.500 320.368 C 967.702 330.832, 929.235 305.705, 923.001 264.521 C 921.078 251.816, 923.245 238.855, 929.589 225.109 C 931.465 221.044, 933 216.892, 933 215.882 C 933 213.778, 923.668 206, 921.144 206 C 917.976 206, 910.094 222.023, 906.302 236.173 C 903.916 245.077, 903.983 266.036, 906.427 275.500 C 916.430 314.226, 950.742 341.125, 989.934 340.965 C 1013.432 340.869, 1032.728 333.149, 1048.586 317.500 C 1062.277 303.989, 1068.555 293.704, 1073.212 277.157 C 1074.935 271.037, 1075.367 266.789, 1075.367 256 C 1075.367 240.174, 1073.840 232.722, 1068.082 220.434 C 1063.217 210.052, 1059.248 204.216, 1051.557 196.136 C 1046.372 190.687, 1034.324 181, 1032.734 181 C 1032.453 181, 1031.925 182.688, 1031.562 184.750 M 442.195 193.583 C 423.781 195.813, 420 197.403, 420 202.916 C 420 208.293, 424.723 210.440, 433.359 208.989 C 436.736 208.421, 446.367 207.352, 454.759 206.613 C 472.164 205.080, 482.121 206.001, 496.646 210.485 C 506.685 213.584, 512.259 213.741, 515 211 C 519.935 206.065, 516.564 201.915, 504.478 198.044 C 485.439 191.945, 466.768 190.608, 442.195 193.583 M 602.863 193.002 C 593.343 194.518, 580.944 197.995, 575.848 200.577 C 571.514 202.773, 571 203.386, 571 206.362 C 571 210.169, 573.681 213.164, 577.192 213.281 C 578.461 213.323, 585.125 211.920, 592 210.164 C 598.875 208.407, 607.497 206.612, 611.160 206.175 C 617.785 205.383, 639.322 206.810, 653.158 208.956 C 656.838 209.528, 660.671 209.703, 661.675 209.345 C 668.493 206.919, 668.863 198.631, 662.244 196.594 C 651.832 193.391, 614.575 191.137, 602.863 193.002 M 868.560 199.022 C 860.691 202.094, 860.424 202.702, 863.971 209.446 C 868.399 217.863, 875.838 226.773, 884.189 233.659 C 893.012 240.937, 895.604 242.450, 896.568 240.890 C 897.995 238.581, 900.866 225.586, 900.197 224.463 C 899.814 223.818, 896.700 220.714, 893.278 217.564 C 889.856 214.414, 885.246 209.061, 883.033 205.669 C 876.477 195.617, 876.846 195.787, 868.560 199.022 M 442.500 227.495 C 423.384 230.226, 419.512 231.972, 420.175 237.563 C 420.354 239.069, 421.625 241.137, 423 242.157 C 425.371 243.917, 426.099 243.938, 437.141 242.567 C 466.213 238.957, 480.026 239.509, 499.380 245.058 C 511.333 248.484, 514.555 248.050, 516.415 242.762 C 518.284 237.447, 511.481 233.319, 493.534 228.879 C 482.726 226.205, 456.506 225.494, 442.500 227.495 M 595 228.489 C 581.520 231.697, 575.370 233.927, 572.390 236.689 C 569.406 239.455, 569.382 241.171, 572.284 244.544 C 575.232 247.971, 579.105 248.001, 589.612 244.682 C 605.631 239.622, 618.950 238.953, 644.443 241.928 C 653.212 242.952, 661.087 243.543, 661.943 243.242 C 668.874 240.810, 668.608 233.197, 661.500 230.563 C 656.452 228.691, 639.939 226.914, 623.500 226.473 C 606.817 226.026, 604.732 226.173, 595 228.489 M 963.528 258.332 C 957.363 260.305, 956.475 260.907, 955.850 263.532 C 952.782 276.431, 951.310 280.904, 948.016 287.346 L 944.248 294.714 950.209 299.857 C 953.488 302.686, 956.550 305, 957.013 305 C 958.528 305, 962.112 299.647, 966.051 291.500 C 970.461 282.380, 973.983 268.966, 973.993 261.250 C 974.001 255.055, 973.876 255.020, 963.528 258.332 M 441.250 379.753 L 312 380.008 312.009 480.254 C 312.014 537.310, 312.450 586.497, 313.021 594.419 C 314.675 617.361, 321.081 653.674, 328.535 682.362 C 348.638 759.736, 390.530 849.069, 438.085 915.972 C 493.385 993.772, 576.246 1061.215, 670.760 1105.351 C 687.791 1113.305, 713.026 1123.707, 722.250 1126.577 C 727.778 1128.296, 728.222 1128.296, 733.750 1126.565 C 742.156 1123.933, 766.546 1114.049, 781.500 1107.216 C 832.204 1084.047, 881.272 1052.935, 927 1014.961 C 950.459 995.480, 984.488 960.124, 1006.366 932.500 C 1038.554 891.857, 1077.922 821.548, 1101.421 762.736 C 1121.319 712.934, 1132.962 670.370, 1141.148 617.500 L 1144.399 596.500 1144.450 488.835 C 1144.477 429.619, 1144.275 380.969, 1144 380.724 C 1143.360 380.153, 611.342 379.418, 441.250 379.753 M 542.500 425.038 C 539.200 425.448, 531.438 425.832, 525.250 425.891 C 512.260 426.017, 512.182 426.097, 517.432 433.900 L 520.865 439 514.682 439.026 C 511.282 439.040, 504 439.481, 498.500 440.007 C 489.959 440.823, 487.333 441.539, 480.500 444.913 C 476.100 447.086, 470.925 450.518, 469 452.539 C 465.683 456.021, 465.600 456.273, 467.421 457.357 C 468.477 457.985, 470.986 459.944, 472.997 461.709 C 475.007 463.474, 478.555 465.999, 480.881 467.321 L 485.111 469.723 479.640 471.943 C 472.393 474.885, 467.068 479.594, 463.587 486.141 C 462.020 489.089, 458.258 494.052, 455.228 497.172 L 449.718 502.843 452.339 507.316 C 455.627 512.926, 459.948 516.605, 465.045 518.132 C 467.220 518.783, 469 519.853, 469 520.508 C 469 523.064, 462.848 530, 458.292 532.581 C 455.656 534.075, 452.396 535.975, 451.046 536.805 L 448.592 538.313 452.997 542.107 C 458.996 547.273, 465.562 550.632, 471.250 551.444 C 476.413 552.181, 477.208 553.597, 474.060 556.446 C 471.552 558.715, 469.004 566.237, 468.985 571.428 C 468.958 578.555, 468.111 578.550, 459.138 571.371 C 444.486 559.647, 436.349 551.046, 433.070 543.816 C 431.444 540.228, 426.749 526.089, 422.637 512.396 C 413.440 481.766, 411.637 476.894, 408.098 473.105 C 405.368 470.182, 404.197 469.704, 396.968 468.553 C 395.025 468.244, 391.953 466.637, 390.141 464.981 C 388.328 463.326, 385.642 461.361, 384.173 460.615 C 380.598 458.802, 372 457.575, 372 458.878 C 372 459.428, 373.800 461.958, 376 464.500 C 380.620 469.838, 380.823 470.902, 377.750 473.701 C 374.066 477.056, 371.427 478, 365.732 478 C 359.067 478, 358.129 478.792, 362.004 481.148 C 365.579 483.322, 365.638 484.153, 362.837 492.813 C 361.647 496.491, 360.527 500.085, 360.349 500.800 C 360.170 501.516, 357.714 503.061, 354.891 504.234 L 349.759 506.367 354.629 508.521 C 361.379 511.506, 362.388 512.940, 361.071 517.682 C 359.421 523.626, 359.809 528.069, 362.455 533.500 C 365.547 539.848, 365.811 540.148, 376 548.888 C 384.797 556.435, 387.457 559.840, 391.490 568.717 C 392.794 571.586, 397.417 579.461, 401.763 586.217 C 417.193 610.200, 425.076 624.477, 427.558 632.940 C 430.521 643.038, 432.176 657.212, 432.645 676.500 C 432.913 687.500, 433.307 697.047, 433.521 697.716 C 434.036 699.321, 441.652 697.096, 445.832 694.120 C 447.469 692.954, 449.032 692, 449.305 692 C 452.148 692, 453.589 724.607, 451.202 734.923 C 450.512 737.906, 450.312 740.712, 450.759 741.159 C 452.581 742.981, 470.958 728.683, 476.728 720.954 L 480.244 716.244 488.872 716.247 C 497.810 716.250, 506.706 714.387, 520.925 709.534 C 525.009 708.140, 528.915 707, 529.604 707 C 530.294 707, 532.961 710.375, 535.532 714.500 C 538.103 718.625, 540.463 722, 540.776 722 C 541.089 722, 544.431 718.651, 548.203 714.558 C 555.332 706.821, 558.611 704.779, 560.110 707.143 C 560.582 707.889, 560.976 711.947, 560.985 716.161 C 560.994 720.772, 561.738 726.194, 562.855 729.781 C 565.247 737.469, 572.722 750.015, 581.250 760.659 C 586.431 767.126, 588 769.830, 587.999 772.292 C 587.998 777.033, 573.684 833.910, 568.615 849.314 C 566.208 856.630, 562.657 866.037, 560.726 870.217 L 557.214 877.818 550.857 878.379 C 547.361 878.687, 536.697 879.216, 527.161 879.554 C 508.859 880.203, 500.921 881.860, 496.548 885.943 C 495.421 886.995, 491.995 888.789, 488.934 889.931 C 482.668 892.267, 478.834 895.758, 476.563 901.195 L 475.019 904.890 478.477 903.445 C 480.380 902.650, 483.489 902, 485.388 902 C 488.398 902, 488.924 902.378, 489.489 904.948 C 489.985 907.208, 489.363 909.291, 486.825 913.872 C 485.005 917.159, 483.782 920.115, 484.109 920.442 C 484.435 920.768, 486.611 920.181, 488.945 919.136 C 494.250 916.761, 496.293 917.273, 498.599 921.555 C 500.334 924.775, 500.339 925.158, 498.705 929.717 C 496.104 936.971, 496.358 937.359, 501.871 934.565 L 506.742 932.097 509.037 934.540 C 510.299 935.883, 513.314 937.942, 515.736 939.114 C 522.802 942.535, 533.766 941.090, 570.243 931.933 C 598.421 924.859, 601.736 922.243, 609.149 901.235 C 613.279 889.530, 618.563 879.199, 628.704 863 C 638.042 848.084, 643.033 842.359, 653.561 834.483 C 662.325 827.927, 679.324 817.373, 688.832 812.585 C 692.774 810.599, 696 808.631, 696 808.210 C 696 806.322, 692.520 802.808, 688.204 800.337 C 685.617 798.856, 683.310 797.496, 683.077 797.316 C 682.441 796.822, 690.585 790.003, 696.915 785.729 C 700.272 783.462, 706.798 780.587, 713.272 778.524 C 719.197 776.635, 724.486 774.818, 725.025 774.485 C 726.341 773.672, 724.729 770.667, 719.772 764.692 C 717.578 762.047, 715.944 759.774, 716.141 759.640 C 723.033 754.960, 731.365 750.192, 736.245 748.136 C 741.900 745.753, 743.724 745.500, 755.250 745.500 C 763.013 745.500, 768.041 745.109, 768.106 744.500 C 768.641 739.452, 767.182 735.071, 763.688 731.237 C 761.040 728.330, 761.762 727.660, 771.026 724.424 C 778.197 721.918, 778.528 721.889, 779.772 723.660 C 780.484 724.672, 785.057 731.575, 789.934 739 C 797.811 750.991, 805.922 761.541, 820.524 778.787 C 825.620 784.807, 825.954 786.913, 823.122 795.147 C 820.271 803.431, 799.994 850.329, 798.662 851.717 C 797.884 852.528, 790.333 853.283, 775.997 853.981 C 749.769 855.260, 745.382 856.062, 739.316 860.692 C 736.767 862.638, 732.688 864.909, 730.252 865.739 C 724.964 867.541, 718.425 873.458, 717.456 877.319 C 716.525 881.029, 717.034 881.302, 721.448 879.457 C 723.513 878.594, 726.620 878.026, 728.351 878.194 C 732.738 878.620, 732.881 881.465, 728.921 889.509 C 727.153 893.101, 725.974 896.307, 726.301 896.635 C 726.629 896.962, 729.255 896.055, 732.138 894.619 L 737.379 892.007 739.689 894.178 C 742.593 896.906, 742.576 897.500, 739.397 904.443 C 737.966 907.570, 736.956 910.289, 737.153 910.486 C 737.350 910.683, 739.309 909.995, 741.506 908.956 C 746.933 906.390, 747.927 906.502, 753.036 910.250 C 757.337 913.406, 757.740 913.497, 766.983 913.386 C 775.029 913.289, 779.977 912.390, 799 907.568 C 811.375 904.431, 823.300 901.065, 825.500 900.087 C 832.007 897.196, 837.207 890.437, 845.458 874.148 C 849.667 865.839, 854.900 856.775, 857.088 854.007 C 861.565 848.344, 869.361 842.376, 882.250 834.743 C 887.063 831.894, 891 828.988, 891 828.287 C 891 827.093, 884.226 821.575, 881.746 820.749 C 880.170 820.223, 887.425 813.631, 894 809.614 C 897.025 807.765, 902.538 805.259, 906.250 804.045 C 909.962 802.831, 913 801.414, 913 800.896 C 913 799.539, 904.918 794.615, 897.553 791.485 C 891.309 788.831, 891.167 788.683, 887.647 781.146 C 883.038 771.279, 882.447 767.156, 884.423 758.656 C 886.008 751.842, 892.546 735.399, 894.038 734.477 C 894.469 734.210, 897.899 737.705, 901.661 742.241 C 909 751.094, 929.468 773.970, 943.415 788.909 C 948.128 793.957, 952.241 799.114, 952.556 800.369 C 953.871 805.607, 941.552 842.618, 931.498 863.634 L 924.259 878.767 915.379 879.369 C 910.496 879.700, 900.650 880.229, 893.500 880.545 C 875.745 881.329, 870.639 882.433, 866.152 886.459 C 864.143 888.261, 860.475 890.746, 858 891.981 C 855.525 893.215, 852.444 895.187, 851.153 896.363 C 848.464 898.811, 844.573 905.907, 845.443 906.776 C 845.763 907.096, 847.610 906.603, 849.546 905.679 C 854.682 903.230, 857.458 903.515, 858.880 906.637 C 859.932 908.945, 859.762 909.735, 857.518 912.974 C 854.671 917.082, 852.618 923, 854.039 923 C 854.534 923, 856.780 922.040, 859.030 920.867 C 862.383 919.120, 863.565 918.936, 865.576 919.853 C 869.711 921.737, 870.653 925.282, 868.563 931.094 C 866.489 936.862, 866.930 937.931, 870.434 935.635 C 873.521 933.612, 877.363 933.527, 878.956 935.447 C 881.611 938.646, 888.638 940.309, 896.494 939.597 C 904.914 938.834, 930.486 932.759, 945.437 927.969 C 954.189 925.166, 955.922 924.206, 960.462 919.650 C 964.953 915.143, 966.677 912.046, 974.265 894.856 C 979.034 884.052, 984.338 871.677, 986.051 867.356 C 991.142 854.517, 995.980 846.149, 1000.406 842.530 C 1002.658 840.689, 1009.450 836.191, 1015.500 832.536 C 1021.550 828.881, 1027.304 825.098, 1028.287 824.131 C 1030.001 822.442, 1029.981 822.273, 1027.785 819.936 C 1026.526 818.596, 1024.372 816.723, 1022.998 815.773 L 1020.500 814.046 1024.500 810.510 C 1030.917 804.838, 1037.974 800.654, 1044.925 798.400 C 1048.486 797.244, 1051.539 795.882, 1051.709 795.372 C 1052.279 793.663, 1040.580 786.958, 1033.158 784.740 C 1027.382 783.013, 1025.522 781.976, 1024.435 779.875 C 1023.676 778.407, 1020.905 775.875, 1018.277 774.249 C 1004.631 765.805, 998.535 758.698, 994.930 747.034 C 991.656 736.441, 990.951 728.135, 990.429 694 C 989.886 658.470, 989.089 647.288, 985.884 630.201 C 984.718 623.987, 984.034 618.633, 984.363 618.303 C 984.692 617.974, 994.083 616.412, 1005.231 614.831 C 1067.272 606.036, 1097.535 590.094, 1106.173 561.658 C 1110.226 548.313, 1107.323 529.863, 1099.339 518.223 C 1095.041 511.957, 1090.618 508.282, 1082.492 504.223 C 1071.510 498.736, 1070.043 498.496, 1048 498.559 L 1027.500 498.619 1012 502.752 C 1003.475 505.026, 989.015 509.381, 979.866 512.430 C 942.344 524.938, 913.271 529.943, 869 531.517 C 818.832 533.301, 795.641 522.739, 799.975 500.082 C 801.371 492.789, 803.687 489.100, 809.210 485.378 C 816.926 480.178, 823.073 479.500, 862.500 479.500 C 881.750 479.500, 898.663 479.827, 900.084 480.227 C 901.505 480.627, 904.337 482.281, 906.376 483.902 C 911.333 487.841, 923.094 492.634, 934.328 495.295 C 942.257 497.172, 946.278 497.457, 964 497.396 C 982.035 497.333, 986.049 497.008, 997.387 494.692 C 1004.474 493.245, 1010.433 491.900, 1010.629 491.705 C 1010.824 491.509, 1008.783 490.354, 1006.092 489.138 C 1000.304 486.523, 996 482.513, 996 479.736 C 996 477.922, 996.379 477.823, 1000.250 478.622 C 1002.587 479.105, 1008.775 479.480, 1014 479.456 C 1022.605 479.416, 1024.395 479.054, 1033 475.618 C 1047.661 469.765, 1051.482 468.919, 1064.246 468.701 C 1070.707 468.590, 1075.994 468.193, 1075.996 467.817 C 1076.003 466.587, 1067.618 460.231, 1060.503 456.074 L 1053.532 452 1039.433 452 C 1031.678 452, 1025.112 451.779, 1024.842 451.509 C 1024.572 451.239, 1026.522 448.765, 1029.175 446.012 C 1031.829 443.259, 1034 440.185, 1034 439.180 C 1034 437.419, 1033.756 437.416, 1027.070 439.114 C 1009.708 443.523, 1003.916 443.479, 986.820 438.803 C 979.405 436.775, 976.217 436.526, 957.500 436.514 L 936.500 436.500 928.181 440.204 C 923.606 442.240, 916.054 446.467, 911.399 449.596 L 902.936 455.286 878.218 453.992 C 823.361 451.121, 798.789 455.184, 784.753 469.443 C 775.339 479.006, 771 490.073, 771 504.518 C 771 518.349, 774.640 528.494, 782.691 537.101 C 788.811 543.643, 795.159 547.522, 806.215 551.474 C 822.459 557.279, 833.272 558.504, 868 558.471 C 901.275 558.440, 908.236 557.836, 938.500 552.363 C 959.311 548.599, 969.524 546.046, 990.092 539.464 C 1025.995 527.976, 1050.733 524.305, 1063.328 528.596 C 1070.955 531.195, 1076 539.086, 1076 548.416 C 1076 556.020, 1070.449 561.957, 1057.554 568.145 C 1035.511 578.722, 979.767 585.822, 951.872 581.606 C 938.992 579.660, 896.145 579.416, 874 581.164 C 866.025 581.794, 845.100 582.296, 827.500 582.280 C 798.557 582.254, 793.542 581.993, 775 579.550 C 751.093 576.400, 736.094 573.719, 727 570.969 L 720.500 569.004 716.626 560.960 C 714.495 556.535, 712.920 552.763, 713.126 552.576 C 713.332 552.389, 715.942 551.721, 718.926 551.091 C 721.910 550.461, 725.960 548.953, 727.926 547.740 C 732.223 545.088, 739 539.092, 739 537.942 C 739 537.489, 736.292 535.674, 732.982 533.910 C 726.381 530.391, 720 524.084, 720 521.077 C 720 519.777, 720.927 518.955, 722.877 518.527 C 724.459 518.180, 727.263 516.782, 729.107 515.421 C 732.785 512.708, 738 505.556, 738 503.226 C 738 502.415, 735.934 499.934, 733.409 497.711 C 730.875 495.481, 727.718 491.347, 726.364 488.486 C 722.392 480.098, 715.124 473.830, 705.631 470.606 C 704.032 470.063, 704.320 469.598, 707.631 467.381 C 709.759 465.956, 712.497 463.873, 713.716 462.752 C 714.935 461.632, 717.572 459.725, 719.575 458.516 L 723.218 456.318 720.144 452.817 C 716.582 448.760, 707.888 443.900, 700 441.557 C 696.883 440.631, 688.760 439.656, 681.250 439.307 C 673.962 438.969, 668 438.510, 668 438.287 C 668 438.065, 669.304 436.222, 670.899 434.191 C 672.493 432.161, 674.098 429.488, 674.466 428.250 C 675.126 426.029, 675.015 426, 665.711 426 C 660.527 426, 650.330 425.501, 643.051 424.892 C 628.159 423.646, 617.532 424.654, 611.211 427.912 C 605.222 431, 599.405 436.607, 597.098 441.516 C 594.735 446.542, 593.671 446.542, 591.570 441.513 C 589.738 437.128, 583.059 430.715, 577.736 428.229 C 569.139 424.214, 557.579 423.168, 542.500 425.038 M 818.342 462.479 C 798.212 466.132, 787.988 473.328, 781.354 488.512 C 780.012 491.585, 779.604 495.368, 779.577 505 C 779.542 517.381, 779.574 517.561, 782.997 523.913 C 788.446 534.026, 800.899 542.632, 815.500 546.377 C 840.823 552.871, 890.607 552.681, 930.500 545.938 C 948.280 542.932, 967.958 538.308, 981.500 533.953 C 1001.629 527.479, 1020.110 522.317, 1028 520.964 C 1038.139 519.226, 1060.302 519.138, 1065.841 520.813 C 1071.498 522.524, 1078.252 528.829, 1080.797 534.773 C 1093.170 563.681, 1066.722 581.971, 1003 588.571 C 980.222 590.930, 961.489 590.938, 945.500 588.596 C 930.593 586.412, 903.802 586.119, 885 587.933 C 866.245 589.743, 815.595 590.402, 796 589.091 C 776.051 587.756, 756.141 585.069, 738 581.265 C 718.743 577.226, 720.408 576.624, 716.603 589 C 713.181 600.130, 709.470 608.353, 700.642 624.372 C 693.324 637.650, 691 645.039, 691 655.021 C 691 662.772, 690.931 663, 688.605 663 C 684.291 663, 673.582 659.048, 669.525 655.958 C 665.926 653.217, 665.484 653.099, 664.846 654.715 C 664.458 655.697, 664.109 663.731, 664.070 672.568 C 664.019 684.186, 663.557 690.142, 662.401 694.068 C 659.649 703.418, 648.247 723.786, 646.764 722 C 646.536 721.725, 643.377 718.051, 639.744 713.835 C 636.111 709.619, 632.326 704.669, 631.332 702.835 L 629.525 699.500 628.886 710 C 627.587 731.349, 622.248 742.787, 602.553 766.418 C 598.923 770.773, 595.742 775.273, 595.484 776.418 C 583.017 831.647, 573.928 862.614, 565.347 879.098 L 561.912 885.696 549.206 886.344 C 542.218 886.700, 532.450 886.996, 527.500 887.002 C 516.194 887.014, 507.274 888.442, 504.862 890.625 C 503.838 891.552, 503 893.556, 503 895.078 C 503 896.601, 501.835 899.231, 500.411 900.923 L 497.822 904 503.794 904 C 508.902 904, 509.842 904.286, 510.283 905.976 C 510.938 908.479, 509.588 914.587, 507.941 916.571 C 505.224 919.845, 510.012 920.195, 519.249 917.396 C 521.986 916.566, 523.391 921.390, 522.010 926.875 C 521.280 929.774, 521.235 931.635, 521.880 932.280 C 523.592 933.992, 541.321 931.100, 563.689 925.458 C 595.390 917.463, 595.134 917.651, 602.503 897 C 607.648 882.580, 608.559 880.897, 631.461 843.500 C 669.684 781.083, 684 756.334, 684 752.674 C 684 751.234, 683.051 745.742, 681.892 740.470 C 680.732 735.197, 680.049 730.618, 680.373 730.293 C 680.977 729.690, 699.576 724.064, 724.500 716.947 C 732.200 714.748, 744.350 711.178, 751.500 709.013 C 758.650 706.848, 778.675 700.979, 796 695.970 C 836.700 684.204, 847 681.046, 847 680.331 C 847 680.010, 845.090 676.212, 842.756 671.891 L 838.512 664.033 841.195 661.350 L 843.878 658.668 849.689 663.022 C 860.944 671.456, 868.331 679.961, 880.355 698.329 C 897.307 724.227, 909.999 740.350, 935.593 768.500 C 948.094 782.250, 959.102 794.777, 960.054 796.339 C 961.734 799.091, 961.686 799.560, 958.482 811.839 C 954.476 827.189, 950.236 839.984, 944.467 854.139 C 939.111 867.276, 930.499 884.572, 928.780 885.641 C 928.076 886.079, 916.404 886.970, 902.842 887.620 C 874.346 888.987, 872.786 889.392, 871.950 895.633 C 871.648 897.892, 870.640 900.901, 869.711 902.318 L 868.022 904.896 873.242 905.198 C 877.934 905.470, 878.560 905.781, 879.436 908.286 C 880.374 910.966, 880.227 911.721, 877.457 918.404 C 876.724 920.173, 876.982 920.250, 881.084 919.489 C 883.513 919.039, 887.075 918.632, 889 918.585 L 892.500 918.500 892.414 925.375 L 892.328 932.251 898.227 931.634 C 906.617 930.757, 945.230 920.424, 950.952 917.524 C 955.241 915.351, 956.229 914.161, 960.278 906.297 C 962.768 901.459, 966.694 893, 969 887.500 C 984.097 851.505, 999.591 819.389, 1011.447 799.517 C 1017.702 789.034, 1018.871 785.788, 1017.235 783.451 C 1016.831 782.874, 1013.256 780.264, 1009.292 777.652 C 996.978 769.538, 989.803 759.298, 985.932 744.314 C 984.172 737.500, 983.793 731.380, 982.970 696.500 C 981.896 650.967, 981.128 641.974, 976.939 625.953 C 975.292 619.654, 973.845 613.620, 973.723 612.545 C 973.515 610.725, 974.914 610.434, 994 608.333 C 1029.051 604.474, 1048.776 599.563, 1069.504 589.536 C 1082.536 583.232, 1091.932 574.926, 1096.428 565.738 C 1101.436 555.501, 1101.001 537.855, 1095.470 526.942 C 1089.396 514.953, 1073.606 506.167, 1056.500 505.257 C 1037.167 504.227, 1021.626 507.190, 987 518.506 C 955.930 528.660, 941.784 531.974, 911.500 536.193 C 897.727 538.112, 891.047 538.426, 863.500 538.448 C 833.254 538.473, 831.061 538.351, 823.500 536.214 C 806.661 531.457, 796.992 524.783, 793.431 515.458 C 790.663 508.209, 791.795 496.654, 796.086 488.369 C 798.907 482.921, 800.455 481.193, 805 478.420 C 815.196 472.200, 818.108 471.841, 863 471.276 C 885.275 470.996, 904.288 470.354, 905.250 469.848 C 907.689 468.568, 907.432 466.329, 904.634 464.496 C 899.680 461.250, 833.625 459.706, 818.342 462.479 M 560.649 469.747 L 543.797 477.230 537.913 475.982 C 525.026 473.247, 515.714 478.255, 514.317 488.674 C 513.644 493.689, 515.649 497.884, 521.705 504.134 L 526.196 508.767 520.999 518.406 C 518.141 523.707, 516.024 528.621, 516.295 529.326 C 516.565 530.031, 523.585 538.797, 531.893 548.806 L 547 567.004 547 579.825 L 547 592.647 553.945 597.392 C 561.273 602.399, 561.566 602.880, 564.070 614 C 565.701 621.242, 566.691 622.657, 571.480 624.589 C 577.099 626.855, 597.646 627.671, 606.595 625.982 C 615.766 624.252, 618.204 621.795, 620.420 612.050 C 622.622 602.372, 622.917 601.918, 629.955 597.384 L 635.983 593.500 635.991 580.816 L 636 568.132 643.238 559.316 C 647.219 554.467, 654.419 545.815, 659.238 540.088 C 664.057 534.361, 667.999 529.186, 667.998 528.588 C 667.996 527.990, 665.746 523.490, 662.998 518.590 C 660.249 513.689, 658 509.393, 658 509.043 C 658 508.693, 659.855 506.627, 662.123 504.453 C 670.320 496.594, 671.785 488.391, 666.284 481.144 C 661.892 475.359, 655.359 473.798, 645.276 476.126 C 640.424 477.246, 640.309 477.212, 622.950 469.646 L 605.500 462.040 603.680 464.270 C 596.836 472.655, 592.706 477, 591.578 477 C 590.860 477, 589.092 475.298, 587.650 473.217 C 586.208 471.136, 583.335 467.821, 581.264 465.849 L 577.500 462.263 560.649 469.747 M 395.387 478.583 C 394.225 479.396, 390.850 480.311, 387.887 480.615 C 379.505 481.477, 379.507 481.474, 383.446 486.633 C 385.401 489.193, 387 491.828, 387 492.489 C 387 494.611, 383.562 496.886, 379.334 497.563 C 375.932 498.107, 374.852 497.852, 373.092 496.092 L 370.964 493.964 369.982 496.547 C 368.419 500.657, 368.831 503.883, 371.157 505.760 C 376.829 510.336, 381 514.321, 381 515.162 C 381 517.119, 376.054 520.908, 372.115 521.969 C 368.935 522.825, 368 523.559, 368 525.201 C 368 529.184, 372.820 535.557, 382.790 544.757 C 391.181 552.500, 393.424 555.251, 397.033 562.224 C 399.388 566.776, 404.313 575.225, 407.977 581 C 411.641 586.775, 420.394 601.400, 427.428 613.500 C 450.774 653.663, 475.992 695.408, 481.113 702.370 L 486.166 709.240 491.937 708.587 C 498.055 707.894, 511.853 704.384, 521 701.193 C 527.168 699.040, 526.869 700.066, 525.130 687.026 C 524.509 682.366, 524 672.803, 524 665.776 C 524 658.749, 523.771 653, 523.491 653 C 523.212 653, 521.139 654.335, 518.886 655.968 C 514.006 659.503, 505.092 663, 500.962 663 L 498 663 498 656.456 C 498 646.553, 495.457 638.369, 488.331 625.330 C 484.774 618.824, 479.849 609.006, 477.385 603.514 C 472.290 592.156, 471.256 590.862, 461.223 583.281 C 449.316 574.284, 435.102 561.145, 430.472 554.855 C 426.005 548.787, 424.914 545.754, 409.503 496.584 C 406.932 488.380, 404.140 480.618, 403.299 479.334 C 401.568 476.692, 398.505 476.402, 395.387 478.583 M 556.250 510.743 C 552.263 510.932, 549 511.437, 549 511.865 C 549 512.676, 563.806 521.280, 570.167 524.165 C 572.186 525.080, 574.099 525.568, 574.419 525.248 C 574.738 524.928, 575 521.367, 575 517.333 L 575 510 569.250 510.199 C 566.087 510.308, 560.237 510.553, 556.250 510.743 M 608.250 511.706 L 606 512.139 606 538.048 L 606 563.958 586.481 564.229 L 566.962 564.500 577.981 572.264 L 589 580.027 589 584.389 C 589 593.598, 588.267 594.959, 581.603 598.111 C 577.256 600.168, 573.968 600.999, 570.177 600.999 C 565.647 601, 564.903 601.261, 565.187 602.750 C 565.674 605.303, 578.080 605.721, 584.116 603.388 C 586.527 602.456, 590.075 601.693, 592 601.693 C 593.925 601.693, 597.473 602.456, 599.884 603.388 C 605.920 605.721, 618.326 605.303, 618.813 602.750 C 619.098 601.257, 618.348 601, 613.695 601 C 608.054 601, 602.507 599.197, 597.750 595.818 C 595.273 594.058, 595 593.269, 595 587.866 C 595 581.715, 596.204 578, 598.197 578 C 599.770 578, 614.557 569.239, 616.078 567.406 C 617.078 566.201, 616.988 562.791, 615.621 550.201 C 614.683 541.566, 613.756 532.842, 613.562 530.816 L 613.208 527.132 623.854 521.025 C 629.709 517.666, 635.625 514.046, 637 512.981 L 639.500 511.044 625 511.158 C 617.025 511.221, 609.487 511.467, 608.250 511.706 M 828 704.130 C 818.477 706.123, 815.561 707.423, 817.543 708.792 C 820.117 710.568, 823 715.537, 823 718.195 L 823 721.120 806.146 720.419 C 795.428 719.973, 789.071 720.075, 788.686 720.699 C 787.231 723.054, 806.720 750.693, 822.799 769.076 C 835.321 783.394, 835.634 784.712, 829.984 799.371 C 824.448 813.734, 805.748 856.549, 804.292 858.193 C 802.214 860.540, 800.477 860.770, 775.024 862.060 C 749.455 863.356, 745.943 864.102, 744.693 868.500 C 743.466 872.818, 742.347 876.259, 741.564 878.125 C 740.957 879.571, 741.387 879.634, 745.467 878.700 C 748.768 877.945, 750.362 877.962, 751.162 878.762 C 752.896 880.496, 752.467 887.357, 750.431 890.466 L 748.588 893.277 755.221 892.567 C 761.387 891.906, 761.935 892.010, 763.023 894.042 C 763.666 895.244, 763.961 897.639, 763.677 899.364 C 763.394 901.089, 763.014 903.400, 762.831 904.500 C 762.533 906.303, 762.991 906.476, 767.500 906.252 C 776.215 905.821, 817.144 895.498, 823.993 892.004 C 828.508 889.700, 829.692 887.969, 838.023 871.500 C 859.660 828.723, 872.876 804.257, 876.596 800.089 C 883.886 791.923, 883.997 790.685, 878.408 779.991 C 873.165 769.961, 874.794 757.012, 883.688 738 C 890.194 724.093, 890.707 726.111, 877.401 713.250 L 865.761 702 851.630 702.071 C 841.615 702.121, 834.733 702.721, 828 704.130" stroke="none" fill="#fbfbfb" fill-rule="evenodd"/></svg>